<svg id="Layer_1" data-name="Layer 1" xmlns="http://www.w3.org/2000/svg" xmlns:xlink="http://www.w3.org/1999/xlink" viewBox="0 0 258 258"><defs><style>.cls-1{fill:none;}.cls-2{clip-path:url(#clip-path);}.cls-3{opacity:0.15;}</style><clipPath id="clip-path"><circle class="cls-1" cx="129" cy="129" r="129"/></clipPath></defs><title>doodle_tools</title><g class="cls-2"><g class="cls-3"><path d="M0-.2A3.9,3.9,0,0,0-2.4,2.51,3.54,3.54,0,0,0,1.67,6.59,3.77,3.77,0,0,0,4.45,3.8,3.54,3.54,0,0,0,0-.2Z"/><path d="M14.58-.2a3.9,3.9,0,0,0-2.45,2.71A3.54,3.54,0,0,0,16.2,6.59,3.77,3.77,0,0,0,19,3.8,3.54,3.54,0,0,0,14.58-.2Z"/><path d="M29.11-.2a3.9,3.9,0,0,0-2.45,2.71,3.54,3.54,0,0,0,4.08,4.08A3.77,3.77,0,0,0,33.52,3.8,3.54,3.54,0,0,0,29.11-.2Z"/><path d="M43.64-.2a3.9,3.9,0,0,0-2.45,2.71A3.59,3.59,0,0,0,44,6.59,3.54,3.54,0,0,0,48,2.51,3.58,3.58,0,0,0,43.64-.2Z"/><path d="M58.17-.2a3.9,3.9,0,0,0-2.45,2.71A3.54,3.54,0,0,0,59.8,6.59a3.59,3.59,0,0,0,2.78-4.08A3.58,3.58,0,0,0,58.17-.2Z"/><path d="M72.7-.2a3.9,3.9,0,0,0-2.45,2.71,3.54,3.54,0,0,0,4.08,4.08,3.59,3.59,0,0,0,2.78-4.08A3.58,3.58,0,0,0,72.7-.2Z"/><path d="M87.23-.2a3.9,3.9,0,0,0-2.45,2.71,3.54,3.54,0,0,0,4.08,4.08,3.59,3.59,0,0,0,2.78-4.08A3.58,3.58,0,0,0,87.23-.2Z"/><path d="M101.77-.2a3.9,3.9,0,0,0-2.45,2.71,3.54,3.54,0,0,0,4.08,4.08,3.77,3.77,0,0,0,2.78-2.78A3.54,3.54,0,0,0,101.77-.2Z"/><path d="M116.3-.2a3.9,3.9,0,0,0-2.45,2.71,3.54,3.54,0,0,0,4.08,4.08A3.77,3.77,0,0,0,120.7,3.8,3.54,3.54,0,0,0,116.3-.2Z"/><path d="M0,14.33A3.9,3.9,0,0,0-2.4,17a3.54,3.54,0,0,0,4.08,4.08,3.77,3.77,0,0,0,2.78-2.78A3.54,3.54,0,0,0,0,14.33Z"/><path d="M14.58,14.33A3.9,3.9,0,0,0,12.13,17a3.54,3.54,0,0,0,4.08,4.08A3.77,3.77,0,0,0,19,18.33,3.54,3.54,0,0,0,14.58,14.33Z"/><path d="M29.11,14.33A3.9,3.9,0,0,0,26.66,17a3.54,3.54,0,0,0,4.08,4.08,3.77,3.77,0,0,0,2.78-2.78A3.54,3.54,0,0,0,29.11,14.33Z"/><path d="M43.64,14.33A3.9,3.9,0,0,0,41.19,17a3.54,3.54,0,0,0,4.08,4.08A3.77,3.77,0,0,0,48,18.33,3.54,3.54,0,0,0,43.64,14.33Z"/><path d="M58.17,14.33A3.9,3.9,0,0,0,55.72,17a3.54,3.54,0,0,0,4.08,4.08,3.77,3.77,0,0,0,2.78-2.78A3.54,3.54,0,0,0,58.17,14.33Z"/><path d="M72.7,14.33A3.9,3.9,0,0,0,70.25,17a3.54,3.54,0,0,0,4.08,4.08,3.77,3.77,0,0,0,2.78-2.78A3.54,3.54,0,0,0,72.7,14.33Z"/><path d="M87.23,14.33A3.9,3.9,0,0,0,84.78,17a3.54,3.54,0,0,0,4.08,4.08,3.77,3.77,0,0,0,2.78-2.78A3.54,3.54,0,0,0,87.23,14.33Z"/><path d="M101.77,14.33A3.9,3.9,0,0,0,99.31,17a3.54,3.54,0,0,0,4.08,4.08,3.77,3.77,0,0,0,2.78-2.78A3.54,3.54,0,0,0,101.77,14.33Z"/><path d="M116.3,14.33A3.9,3.9,0,0,0,113.84,17a3.54,3.54,0,0,0,4.08,4.08,3.77,3.77,0,0,0,2.78-2.78A3.54,3.54,0,0,0,116.3,14.33Z"/><path d="M0,28.86A3.9,3.9,0,0,0-2.4,31.57a3.54,3.54,0,0,0,4.08,4.08,3.77,3.77,0,0,0,2.78-2.78A3.54,3.54,0,0,0,0,28.86Z"/><path d="M14.58,28.86a3.9,3.9,0,0,0-2.45,2.71,3.54,3.54,0,0,0,4.08,4.08A3.77,3.77,0,0,0,19,32.87,3.54,3.54,0,0,0,14.58,28.86Z"/><path d="M29.11,28.86a3.9,3.9,0,0,0-2.45,2.71,3.54,3.54,0,0,0,4.08,4.08,3.77,3.77,0,0,0,2.78-2.78A3.54,3.54,0,0,0,29.11,28.86Z"/><path d="M43.64,28.86a3.9,3.9,0,0,0-2.45,2.71,3.54,3.54,0,0,0,4.08,4.08A3.77,3.77,0,0,0,48,32.87,3.54,3.54,0,0,0,43.64,28.86Z"/><path d="M58.17,28.86a3.9,3.9,0,0,0-2.45,2.71,3.54,3.54,0,0,0,4.08,4.08,3.77,3.77,0,0,0,2.78-2.78A3.54,3.54,0,0,0,58.17,28.86Z"/><path d="M72.7,28.86a3.9,3.9,0,0,0-2.45,2.71,3.54,3.54,0,0,0,4.08,4.08,3.77,3.77,0,0,0,2.78-2.78A3.54,3.54,0,0,0,72.7,28.86Z"/><path d="M87.23,28.86a3.9,3.9,0,0,0-2.45,2.71,3.54,3.54,0,0,0,4.08,4.08,3.77,3.77,0,0,0,2.78-2.78A3.54,3.54,0,0,0,87.23,28.86Z"/><path d="M101.77,28.86a3.9,3.9,0,0,0-2.45,2.71,3.54,3.54,0,0,0,4.08,4.08,3.77,3.77,0,0,0,2.78-2.78A3.54,3.54,0,0,0,101.77,28.86Z"/><path d="M116.3,28.86a3.9,3.9,0,0,0-2.45,2.71,3.54,3.54,0,0,0,4.08,4.08,3.77,3.77,0,0,0,2.78-2.78A3.54,3.54,0,0,0,116.3,28.86Z"/><path d="M0,43.39A3.9,3.9,0,0,0-2.4,46.1a3.54,3.54,0,0,0,4.08,4.08A3.77,3.77,0,0,0,4.45,47.4,3.54,3.54,0,0,0,0,43.39Z"/><path d="M14.58,43.39a3.9,3.9,0,0,0-2.45,2.71,3.54,3.54,0,0,0,4.08,4.08A3.77,3.77,0,0,0,19,47.4,3.54,3.54,0,0,0,14.58,43.39Z"/><path d="M29.11,43.39a3.9,3.9,0,0,0-2.45,2.71,3.54,3.54,0,0,0,4.08,4.08,3.77,3.77,0,0,0,2.78-2.78A3.54,3.54,0,0,0,29.11,43.39Z"/><path d="M43.64,43.39a3.9,3.9,0,0,0-2.45,2.71,3.54,3.54,0,0,0,4.08,4.08A3.77,3.77,0,0,0,48,47.4,3.54,3.54,0,0,0,43.64,43.39Z"/><path d="M58.17,43.39a3.9,3.9,0,0,0-2.45,2.71,3.54,3.54,0,0,0,4.08,4.08,3.77,3.77,0,0,0,2.78-2.78A3.54,3.54,0,0,0,58.17,43.39Z"/><path d="M72.7,43.39a3.9,3.9,0,0,0-2.45,2.71,3.54,3.54,0,0,0,4.08,4.08,3.77,3.77,0,0,0,2.78-2.78A3.54,3.54,0,0,0,72.7,43.39Z"/><path d="M87.23,43.39a3.9,3.9,0,0,0-2.45,2.71,3.54,3.54,0,0,0,4.08,4.08,3.77,3.77,0,0,0,2.78-2.78A3.54,3.54,0,0,0,87.23,43.39Z"/><path d="M101.77,43.39a3.9,3.9,0,0,0-2.45,2.71,3.54,3.54,0,0,0,4.08,4.08,3.77,3.77,0,0,0,2.78-2.78A3.54,3.54,0,0,0,101.77,43.39Z"/><path d="M116.3,43.39a3.9,3.9,0,0,0-2.45,2.71,3.54,3.54,0,0,0,4.08,4.08,3.77,3.77,0,0,0,2.78-2.78A3.54,3.54,0,0,0,116.3,43.39Z"/><path d="M0,57.92A3.9,3.9,0,0,0-2.4,60.63a3.54,3.54,0,0,0,4.08,4.08,3.77,3.77,0,0,0,2.78-2.78A3.54,3.54,0,0,0,0,57.92Z"/><path d="M14.58,57.92a3.9,3.9,0,0,0-2.45,2.71,3.54,3.54,0,0,0,4.08,4.08A3.77,3.77,0,0,0,19,61.93,3.54,3.54,0,0,0,14.58,57.92Z"/><path d="M29.11,57.92a3.9,3.9,0,0,0-2.45,2.71,3.54,3.54,0,0,0,4.08,4.08,3.77,3.77,0,0,0,2.78-2.78A3.54,3.54,0,0,0,29.11,57.92Z"/><path d="M43.64,57.92a3.9,3.9,0,0,0-2.45,2.71,3.54,3.54,0,0,0,4.08,4.08A3.77,3.77,0,0,0,48,61.93,3.54,3.54,0,0,0,43.64,57.92Z"/><path d="M58.17,57.92a3.9,3.9,0,0,0-2.45,2.71,3.54,3.54,0,0,0,4.08,4.08,3.77,3.77,0,0,0,2.78-2.78A3.54,3.54,0,0,0,58.17,57.92Z"/><path d="M72.7,57.92a3.9,3.9,0,0,0-2.45,2.71,3.54,3.54,0,0,0,4.08,4.08,3.77,3.77,0,0,0,2.78-2.78A3.54,3.54,0,0,0,72.7,57.92Z"/><path d="M87.23,57.92a3.9,3.9,0,0,0-2.45,2.71,3.54,3.54,0,0,0,4.08,4.08,3.77,3.77,0,0,0,2.78-2.78A3.54,3.54,0,0,0,87.23,57.92Z"/><path d="M101.77,57.92a3.9,3.9,0,0,0-2.45,2.71,3.54,3.54,0,0,0,4.08,4.08,3.77,3.77,0,0,0,2.78-2.78A3.54,3.54,0,0,0,101.77,57.92Z"/><path d="M116.3,57.92a3.9,3.9,0,0,0-2.45,2.71,3.54,3.54,0,0,0,4.08,4.08,3.77,3.77,0,0,0,2.78-2.78A3.54,3.54,0,0,0,116.3,57.92Z"/><path d="M0,72.45A3.9,3.9,0,0,0-2.4,75.16a3.54,3.54,0,0,0,4.08,4.08,3.77,3.77,0,0,0,2.78-2.78A3.54,3.54,0,0,0,0,72.45Z"/><path d="M14.58,72.45a3.9,3.9,0,0,0-2.45,2.71,3.54,3.54,0,0,0,4.08,4.08A3.77,3.77,0,0,0,19,76.46,3.54,3.54,0,0,0,14.58,72.45Z"/><path d="M29.11,72.45a3.9,3.9,0,0,0-2.45,2.71,3.54,3.54,0,0,0,4.08,4.08,3.77,3.77,0,0,0,2.78-2.78A3.54,3.54,0,0,0,29.11,72.45Z"/><path d="M43.64,72.45a3.9,3.9,0,0,0-2.45,2.71,3.54,3.54,0,0,0,4.08,4.08A3.77,3.77,0,0,0,48,76.46,3.54,3.54,0,0,0,43.64,72.45Z"/><path d="M58.17,72.45a3.9,3.9,0,0,0-2.45,2.71,3.54,3.54,0,0,0,4.08,4.08,3.77,3.77,0,0,0,2.78-2.78A3.54,3.54,0,0,0,58.17,72.45Z"/><path d="M72.7,72.45a3.9,3.9,0,0,0-2.45,2.71,3.54,3.54,0,0,0,4.08,4.08,3.77,3.77,0,0,0,2.78-2.78A3.54,3.54,0,0,0,72.7,72.45Z"/><path d="M87.23,72.45a3.9,3.9,0,0,0-2.45,2.71,3.54,3.54,0,0,0,4.08,4.08,3.77,3.77,0,0,0,2.78-2.78A3.54,3.54,0,0,0,87.23,72.45Z"/><path d="M101.77,72.45a3.9,3.9,0,0,0-2.45,2.71,3.54,3.54,0,0,0,4.08,4.08,3.77,3.77,0,0,0,2.78-2.78A3.54,3.54,0,0,0,101.77,72.45Z"/><path d="M116.3,72.45a3.9,3.9,0,0,0-2.45,2.71,3.54,3.54,0,0,0,4.08,4.08,3.77,3.77,0,0,0,2.78-2.78A3.54,3.54,0,0,0,116.3,72.45Z"/><path d="M0,87A3.9,3.9,0,0,0-2.4,89.69a3.54,3.54,0,0,0,4.08,4.08A3.77,3.77,0,0,0,4.45,91,3.54,3.54,0,0,0,0,87Z"/><path d="M14.58,87a3.9,3.9,0,0,0-2.45,2.71,3.54,3.54,0,0,0,4.08,4.08A3.77,3.77,0,0,0,19,91,3.54,3.54,0,0,0,14.58,87Z"/><path d="M29.11,87a3.9,3.9,0,0,0-2.45,2.71,3.54,3.54,0,0,0,4.08,4.08A3.77,3.77,0,0,0,33.52,91,3.54,3.54,0,0,0,29.11,87Z"/><path d="M43.64,87a3.9,3.9,0,0,0-2.45,2.71,3.54,3.54,0,0,0,4.08,4.08A3.77,3.77,0,0,0,48,91,3.54,3.54,0,0,0,43.64,87Z"/><path d="M58.17,87a3.9,3.9,0,0,0-2.45,2.71,3.54,3.54,0,0,0,4.08,4.08A3.77,3.77,0,0,0,62.58,91,3.54,3.54,0,0,0,58.17,87Z"/><path d="M72.7,87a3.9,3.9,0,0,0-2.45,2.71,3.54,3.54,0,0,0,4.08,4.08A3.77,3.77,0,0,0,77.11,91,3.54,3.54,0,0,0,72.7,87Z"/><path d="M87.23,87a3.9,3.9,0,0,0-2.45,2.71,3.54,3.54,0,0,0,4.08,4.08A3.77,3.77,0,0,0,91.64,91,3.54,3.54,0,0,0,87.23,87Z"/><path d="M101.77,87a3.9,3.9,0,0,0-2.45,2.71,3.54,3.54,0,0,0,4.08,4.08A3.77,3.77,0,0,0,106.17,91,3.54,3.54,0,0,0,101.77,87Z"/><path d="M116.3,87a3.9,3.9,0,0,0-2.45,2.71,3.54,3.54,0,0,0,4.08,4.08A3.77,3.77,0,0,0,120.7,91,3.54,3.54,0,0,0,116.3,87Z"/><path d="M0,101.51a3.9,3.9,0,0,0-2.45,2.71,3.54,3.54,0,0,0,4.08,4.08,3.77,3.77,0,0,0,2.78-2.78A3.54,3.54,0,0,0,0,101.51Z"/><path d="M14.58,101.51a3.9,3.9,0,0,0-2.45,2.71,3.54,3.54,0,0,0,4.08,4.08A3.77,3.77,0,0,0,19,105.52,3.54,3.54,0,0,0,14.58,101.51Z"/><path d="M29.11,101.51a3.9,3.9,0,0,0-2.45,2.71,3.54,3.54,0,0,0,4.08,4.08,3.77,3.77,0,0,0,2.78-2.78A3.54,3.54,0,0,0,29.11,101.51Z"/><path d="M43.64,101.51a3.9,3.9,0,0,0-2.45,2.71,3.54,3.54,0,0,0,4.08,4.08A3.77,3.77,0,0,0,48,105.52,3.54,3.54,0,0,0,43.64,101.51Z"/><path d="M58.17,101.51a3.9,3.9,0,0,0-2.45,2.71,3.54,3.54,0,0,0,4.08,4.08,3.77,3.77,0,0,0,2.78-2.78A3.54,3.54,0,0,0,58.17,101.51Z"/><path d="M72.7,101.51a3.9,3.9,0,0,0-2.45,2.71,3.54,3.54,0,0,0,4.08,4.08,3.77,3.77,0,0,0,2.78-2.78A3.54,3.54,0,0,0,72.7,101.51Z"/><path d="M87.23,101.51a3.9,3.9,0,0,0-2.45,2.71,3.54,3.54,0,0,0,4.08,4.08,3.77,3.77,0,0,0,2.78-2.78A3.54,3.54,0,0,0,87.23,101.51Z"/><path d="M101.77,101.51a3.9,3.9,0,0,0-2.45,2.71,3.54,3.54,0,0,0,4.08,4.08,3.77,3.77,0,0,0,2.78-2.78A3.54,3.54,0,0,0,101.77,101.51Z"/><path d="M116.3,101.51a3.9,3.9,0,0,0-2.45,2.71,3.54,3.54,0,0,0,4.08,4.08,3.77,3.77,0,0,0,2.78-2.78A3.54,3.54,0,0,0,116.3,101.51Z"/><path d="M0,116a3.9,3.9,0,0,0-2.45,2.71,3.54,3.54,0,0,0,4.08,4.08A3.77,3.77,0,0,0,4.45,120,3.54,3.54,0,0,0,0,116Z"/><path d="M14.58,116a3.9,3.9,0,0,0-2.45,2.71,3.54,3.54,0,0,0,4.08,4.08A3.77,3.77,0,0,0,19,120,3.54,3.54,0,0,0,14.58,116Z"/><path d="M29.11,116a3.9,3.9,0,0,0-2.45,2.71,3.54,3.54,0,0,0,4.08,4.08A3.77,3.77,0,0,0,33.52,120,3.54,3.54,0,0,0,29.11,116Z"/><path d="M43.64,116a3.9,3.9,0,0,0-2.45,2.71,3.54,3.54,0,0,0,4.08,4.08A3.77,3.77,0,0,0,48,120,3.54,3.54,0,0,0,43.64,116Z"/><path d="M58.17,116a3.9,3.9,0,0,0-2.45,2.71,3.54,3.54,0,0,0,4.08,4.08A3.77,3.77,0,0,0,62.58,120,3.54,3.54,0,0,0,58.17,116Z"/><path d="M72.7,116a3.9,3.9,0,0,0-2.45,2.71,3.54,3.54,0,0,0,4.08,4.08A3.77,3.77,0,0,0,77.11,120,3.54,3.54,0,0,0,72.7,116Z"/><path d="M87.23,116a3.9,3.9,0,0,0-2.45,2.71,3.54,3.54,0,0,0,4.08,4.08A3.77,3.77,0,0,0,91.64,120,3.54,3.54,0,0,0,87.23,116Z"/><path d="M101.77,116a3.9,3.9,0,0,0-2.45,2.71,3.54,3.54,0,0,0,4.08,4.08,3.77,3.77,0,0,0,2.78-2.78A3.54,3.54,0,0,0,101.77,116Z"/><path d="M116.3,116a3.9,3.9,0,0,0-2.45,2.71,3.54,3.54,0,0,0,4.08,4.08A3.77,3.77,0,0,0,120.7,120,3.54,3.54,0,0,0,116.3,116Z"/><path d="M.91,129.32A3.9,3.9,0,0,0-1.54,132a3.54,3.54,0,0,0,4.08,4.08,3.77,3.77,0,0,0,2.78-2.78A3.54,3.54,0,0,0,.91,129.32Z"/><path d="M15.44,129.32A3.9,3.9,0,0,0,13,132a3.54,3.54,0,0,0,4.08,4.08,3.77,3.77,0,0,0,2.78-2.78A3.54,3.54,0,0,0,15.44,129.32Z"/><path d="M30,129.32A3.9,3.9,0,0,0,27.52,132a3.54,3.54,0,0,0,4.08,4.08,3.77,3.77,0,0,0,2.78-2.78A3.54,3.54,0,0,0,30,129.32Z"/><path d="M44.5,129.32A3.9,3.9,0,0,0,42,132a3.59,3.59,0,0,0,2.78,4.08A3.54,3.54,0,0,0,48.9,132,3.58,3.58,0,0,0,44.5,129.32Z"/><path d="M59,129.32A3.9,3.9,0,0,0,56.58,132a3.59,3.59,0,0,0,2.78,4.08A3.54,3.54,0,0,0,63.43,132,3.58,3.58,0,0,0,59,129.32Z"/><path d="M73.56,129.32A3.9,3.9,0,0,0,71.11,132a3.59,3.59,0,0,0,2.78,4.08A3.54,3.54,0,0,0,78,132,3.58,3.58,0,0,0,73.56,129.32Z"/><path d="M88.09,129.32A3.9,3.9,0,0,0,85.64,132a3.59,3.59,0,0,0,2.78,4.08A3.54,3.54,0,0,0,92.5,132,3.58,3.58,0,0,0,88.09,129.32Z"/><path d="M102.62,129.32a3.9,3.9,0,0,0-2.45,2.71,3.54,3.54,0,0,0,4.08,4.08,3.77,3.77,0,0,0,2.78-2.78A3.54,3.54,0,0,0,102.62,129.32Z"/><path d="M117.15,129.32A3.9,3.9,0,0,0,114.7,132a3.54,3.54,0,0,0,4.08,4.08,3.77,3.77,0,0,0,2.78-2.78A3.54,3.54,0,0,0,117.15,129.32Z"/><path d="M.91,143.85a3.9,3.9,0,0,0-2.45,2.71,3.54,3.54,0,0,0,4.08,4.08,3.77,3.77,0,0,0,2.78-2.78A3.54,3.54,0,0,0,.91,143.85Z"/><path d="M15.44,143.85A3.9,3.9,0,0,0,13,146.56a3.54,3.54,0,0,0,4.08,4.08,3.77,3.77,0,0,0,2.78-2.78A3.54,3.54,0,0,0,15.44,143.85Z"/><path d="M30,143.85a3.9,3.9,0,0,0-2.45,2.71,3.54,3.54,0,0,0,4.08,4.08,3.77,3.77,0,0,0,2.78-2.78A3.54,3.54,0,0,0,30,143.85Z"/><path d="M44.5,143.85A3.9,3.9,0,0,0,42,146.56a3.59,3.59,0,0,0,2.78,4.08,3.54,3.54,0,0,0,4.08-4.08A3.58,3.58,0,0,0,44.5,143.85Z"/><path d="M59,143.85a3.9,3.9,0,0,0-2.45,2.71,3.54,3.54,0,0,0,4.08,4.08A3.49,3.49,0,1,0,59,143.85Z"/><path d="M73.56,143.85a3.9,3.9,0,0,0-2.45,2.71,3.54,3.54,0,0,0,4.08,4.08,3.49,3.49,0,1,0-1.62-6.79Z"/><path d="M88.09,143.85a3.9,3.9,0,0,0-2.45,2.71,3.54,3.54,0,0,0,4.08,4.08,3.49,3.49,0,1,0-1.62-6.79Z"/><path d="M102.62,143.85a3.9,3.9,0,0,0-2.45,2.71,3.54,3.54,0,0,0,4.08,4.08,3.77,3.77,0,0,0,2.78-2.78A3.54,3.54,0,0,0,102.62,143.85Z"/><path d="M117.15,143.85a3.9,3.9,0,0,0-2.45,2.71,3.54,3.54,0,0,0,4.08,4.08,3.77,3.77,0,0,0,2.78-2.78A3.54,3.54,0,0,0,117.15,143.85Z"/><path d="M.91,158.38a3.9,3.9,0,0,0-2.45,2.71,3.54,3.54,0,0,0,4.08,4.08,3.77,3.77,0,0,0,2.78-2.78A3.54,3.54,0,0,0,.91,158.38Z"/><path d="M15.44,158.38A3.9,3.9,0,0,0,13,161.1a3.54,3.54,0,0,0,4.08,4.08,3.77,3.77,0,0,0,2.78-2.78A3.54,3.54,0,0,0,15.44,158.38Z"/><path d="M30,158.38a3.9,3.9,0,0,0-2.45,2.71,3.54,3.54,0,0,0,4.08,4.08,3.77,3.77,0,0,0,2.78-2.78A3.54,3.54,0,0,0,30,158.38Z"/><path d="M44.5,158.38A3.9,3.9,0,0,0,42,161.1a3.54,3.54,0,0,0,4.08,4.08,3.77,3.77,0,0,0,2.78-2.78A3.54,3.54,0,0,0,44.5,158.38Z"/><path d="M59,158.38a3.9,3.9,0,0,0-2.45,2.71,3.54,3.54,0,0,0,4.08,4.08,3.77,3.77,0,0,0,2.78-2.78A3.54,3.54,0,0,0,59,158.38Z"/><path d="M73.56,158.38a3.9,3.9,0,0,0-2.45,2.71,3.54,3.54,0,0,0,4.08,4.08A3.77,3.77,0,0,0,78,162.39,3.54,3.54,0,0,0,73.56,158.38Z"/><path d="M88.09,158.38a3.9,3.9,0,0,0-2.45,2.71,3.54,3.54,0,0,0,4.08,4.08,3.77,3.77,0,0,0,2.78-2.78A3.54,3.54,0,0,0,88.09,158.38Z"/><path d="M102.62,158.38a3.9,3.9,0,0,0-2.45,2.71,3.54,3.54,0,0,0,4.08,4.08,3.77,3.77,0,0,0,2.78-2.78A3.54,3.54,0,0,0,102.62,158.38Z"/><path d="M117.15,158.38a3.9,3.9,0,0,0-2.45,2.71,3.54,3.54,0,0,0,4.08,4.08,3.77,3.77,0,0,0,2.78-2.78A3.54,3.54,0,0,0,117.15,158.38Z"/><path d="M.91,172.91a3.9,3.9,0,0,0-2.45,2.71,3.54,3.54,0,0,0,4.08,4.08,3.77,3.77,0,0,0,2.78-2.78A3.54,3.54,0,0,0,.91,172.91Z"/><path d="M15.44,172.91A3.9,3.9,0,0,0,13,175.63a3.54,3.54,0,0,0,4.08,4.08,3.77,3.77,0,0,0,2.78-2.78A3.54,3.54,0,0,0,15.44,172.91Z"/><path d="M30,172.91a3.9,3.9,0,0,0-2.45,2.71,3.54,3.54,0,0,0,4.08,4.08,3.77,3.77,0,0,0,2.78-2.78A3.54,3.54,0,0,0,30,172.91Z"/><path d="M44.5,172.91A3.9,3.9,0,0,0,42,175.63a3.54,3.54,0,0,0,4.08,4.08,3.77,3.77,0,0,0,2.78-2.78A3.54,3.54,0,0,0,44.5,172.91Z"/><path d="M59,172.91a3.9,3.9,0,0,0-2.45,2.71,3.54,3.54,0,0,0,4.08,4.08,3.77,3.77,0,0,0,2.78-2.78A3.54,3.54,0,0,0,59,172.91Z"/><path d="M73.56,172.91a3.9,3.9,0,0,0-2.45,2.71,3.54,3.54,0,0,0,4.08,4.08A3.77,3.77,0,0,0,78,176.92,3.54,3.54,0,0,0,73.56,172.91Z"/><path d="M88.09,172.91a3.9,3.9,0,0,0-2.45,2.71,3.54,3.54,0,0,0,4.08,4.08,3.77,3.77,0,0,0,2.78-2.78A3.54,3.54,0,0,0,88.09,172.91Z"/><path d="M102.62,172.91a3.9,3.9,0,0,0-2.45,2.71,3.54,3.54,0,0,0,4.08,4.08,3.77,3.77,0,0,0,2.78-2.78A3.54,3.54,0,0,0,102.62,172.91Z"/><path d="M117.15,172.91a3.9,3.9,0,0,0-2.45,2.71,3.54,3.54,0,0,0,4.08,4.08,3.77,3.77,0,0,0,2.78-2.78A3.54,3.54,0,0,0,117.15,172.91Z"/><path d="M.91,187.44a3.9,3.9,0,0,0-2.45,2.71,3.54,3.54,0,0,0,4.08,4.08,3.77,3.77,0,0,0,2.78-2.78A3.54,3.54,0,0,0,.91,187.44Z"/><path d="M15.44,187.44A3.9,3.9,0,0,0,13,190.16a3.54,3.54,0,0,0,4.08,4.08,3.77,3.77,0,0,0,2.78-2.78A3.54,3.54,0,0,0,15.44,187.44Z"/><path d="M30,187.44a3.9,3.9,0,0,0-2.45,2.71,3.54,3.54,0,0,0,4.08,4.08,3.77,3.77,0,0,0,2.78-2.78A3.54,3.54,0,0,0,30,187.44Z"/><path d="M44.5,187.44A3.9,3.9,0,0,0,42,190.16a3.54,3.54,0,0,0,4.08,4.08,3.77,3.77,0,0,0,2.78-2.78A3.54,3.54,0,0,0,44.5,187.44Z"/><path d="M59,187.44a3.9,3.9,0,0,0-2.45,2.71,3.54,3.54,0,0,0,4.08,4.08,3.77,3.77,0,0,0,2.78-2.78A3.54,3.54,0,0,0,59,187.44Z"/><path d="M73.56,187.44a3.9,3.9,0,0,0-2.45,2.71,3.54,3.54,0,0,0,4.08,4.08A3.77,3.77,0,0,0,78,191.45,3.54,3.54,0,0,0,73.56,187.44Z"/><path d="M88.09,187.44a3.9,3.9,0,0,0-2.45,2.71,3.54,3.54,0,0,0,4.08,4.08,3.77,3.77,0,0,0,2.78-2.78A3.54,3.54,0,0,0,88.09,187.44Z"/><path d="M102.62,187.44a3.9,3.9,0,0,0-2.45,2.71,3.54,3.54,0,0,0,4.08,4.08,3.77,3.77,0,0,0,2.78-2.78A3.54,3.54,0,0,0,102.62,187.44Z"/><path d="M117.15,187.44a3.9,3.9,0,0,0-2.45,2.71,3.54,3.54,0,0,0,4.08,4.08,3.77,3.77,0,0,0,2.78-2.78A3.54,3.54,0,0,0,117.15,187.44Z"/><path d="M.91,202a3.9,3.9,0,0,0-2.45,2.71,3.54,3.54,0,0,0,4.08,4.08A3.77,3.77,0,0,0,5.31,206,3.54,3.54,0,0,0,.91,202Z"/><path d="M15.44,202A3.9,3.9,0,0,0,13,204.69a3.54,3.54,0,0,0,4.08,4.08A3.77,3.77,0,0,0,19.84,206,3.54,3.54,0,0,0,15.44,202Z"/><path d="M30,202a3.9,3.9,0,0,0-2.45,2.71,3.54,3.54,0,0,0,4.08,4.08A3.77,3.77,0,0,0,34.37,206,3.54,3.54,0,0,0,30,202Z"/><path d="M44.5,202A3.9,3.9,0,0,0,42,204.69a3.54,3.54,0,0,0,4.08,4.08A3.77,3.77,0,0,0,48.9,206,3.54,3.54,0,0,0,44.5,202Z"/><path d="M59,202a3.9,3.9,0,0,0-2.45,2.71,3.54,3.54,0,0,0,4.08,4.08A3.77,3.77,0,0,0,63.43,206,3.54,3.54,0,0,0,59,202Z"/><path d="M73.56,202a3.9,3.9,0,0,0-2.45,2.71,3.54,3.54,0,0,0,4.08,4.08A3.77,3.77,0,0,0,78,206,3.54,3.54,0,0,0,73.56,202Z"/><path d="M88.09,202a3.9,3.9,0,0,0-2.45,2.71,3.54,3.54,0,0,0,4.08,4.08A3.77,3.77,0,0,0,92.5,206,3.54,3.54,0,0,0,88.09,202Z"/><path d="M102.62,202a3.9,3.9,0,0,0-2.45,2.71,3.54,3.54,0,0,0,4.08,4.08A3.77,3.77,0,0,0,107,206,3.54,3.54,0,0,0,102.62,202Z"/><path d="M117.15,202a3.9,3.9,0,0,0-2.45,2.71,3.54,3.54,0,0,0,4.08,4.08,3.77,3.77,0,0,0,2.78-2.78A3.54,3.54,0,0,0,117.15,202Z"/><path d="M.91,216.51a3.9,3.9,0,0,0-2.45,2.71,3.54,3.54,0,0,0,4.08,4.08,3.77,3.77,0,0,0,2.78-2.78A3.54,3.54,0,0,0,.91,216.51Z"/><path d="M15.44,216.51A3.9,3.9,0,0,0,13,219.22a3.54,3.54,0,0,0,4.08,4.08,3.77,3.77,0,0,0,2.78-2.78A3.54,3.54,0,0,0,15.44,216.51Z"/><path d="M30,216.51a3.9,3.9,0,0,0-2.45,2.71,3.54,3.54,0,0,0,4.08,4.08,3.77,3.77,0,0,0,2.78-2.78A3.54,3.54,0,0,0,30,216.51Z"/><path d="M44.5,216.51A3.9,3.9,0,0,0,42,219.22a3.54,3.54,0,0,0,4.08,4.08,3.77,3.77,0,0,0,2.78-2.78A3.54,3.54,0,0,0,44.5,216.51Z"/><path d="M59,216.51a3.9,3.9,0,0,0-2.45,2.71,3.54,3.54,0,0,0,4.08,4.08,3.77,3.77,0,0,0,2.78-2.78A3.54,3.54,0,0,0,59,216.51Z"/><path d="M73.56,216.51a3.9,3.9,0,0,0-2.45,2.71,3.54,3.54,0,0,0,4.08,4.08A3.77,3.77,0,0,0,78,220.51,3.54,3.54,0,0,0,73.56,216.51Z"/><path d="M88.09,216.51a3.9,3.9,0,0,0-2.45,2.71,3.54,3.54,0,0,0,4.08,4.08,3.77,3.77,0,0,0,2.78-2.78A3.54,3.54,0,0,0,88.09,216.51Z"/><path d="M102.62,216.51a3.9,3.9,0,0,0-2.45,2.71,3.54,3.54,0,0,0,4.08,4.08,3.77,3.77,0,0,0,2.78-2.78A3.54,3.54,0,0,0,102.62,216.51Z"/><path d="M117.15,216.51a3.9,3.9,0,0,0-2.45,2.71,3.54,3.54,0,0,0,4.08,4.08,3.77,3.77,0,0,0,2.78-2.78A3.54,3.54,0,0,0,117.15,216.51Z"/><path d="M.91,231a3.9,3.9,0,0,0-2.45,2.71,3.54,3.54,0,0,0,4.08,4.08A3.77,3.77,0,0,0,5.31,235,3.54,3.54,0,0,0,.91,231Z"/><path d="M15.44,231A3.9,3.9,0,0,0,13,233.75a3.54,3.54,0,0,0,4.08,4.08A3.77,3.77,0,0,0,19.84,235,3.54,3.54,0,0,0,15.44,231Z"/><path d="M30,231a3.9,3.9,0,0,0-2.45,2.71,3.54,3.54,0,0,0,4.08,4.08A3.77,3.77,0,0,0,34.37,235,3.54,3.54,0,0,0,30,231Z"/><path d="M44.5,231A3.9,3.9,0,0,0,42,233.75a3.54,3.54,0,0,0,4.08,4.08A3.77,3.77,0,0,0,48.9,235,3.54,3.54,0,0,0,44.5,231Z"/><path d="M59,231a3.9,3.9,0,0,0-2.45,2.71,3.54,3.54,0,0,0,4.08,4.08A3.77,3.77,0,0,0,63.43,235,3.54,3.54,0,0,0,59,231Z"/><path d="M73.56,231a3.9,3.9,0,0,0-2.45,2.71,3.54,3.54,0,0,0,4.08,4.08A3.77,3.77,0,0,0,78,235,3.54,3.54,0,0,0,73.56,231Z"/><path d="M88.09,231a3.9,3.9,0,0,0-2.45,2.71,3.54,3.54,0,0,0,4.08,4.08A3.77,3.77,0,0,0,92.5,235,3.54,3.54,0,0,0,88.09,231Z"/><path d="M102.62,231a3.9,3.9,0,0,0-2.45,2.71,3.54,3.54,0,0,0,4.08,4.08A3.77,3.77,0,0,0,107,235,3.54,3.54,0,0,0,102.62,231Z"/><path d="M117.15,231a3.9,3.9,0,0,0-2.45,2.71,3.54,3.54,0,0,0,4.08,4.08,3.77,3.77,0,0,0,2.78-2.78A3.54,3.54,0,0,0,117.15,231Z"/><path d="M.91,245.57a3.9,3.9,0,0,0-2.45,2.71,3.54,3.54,0,0,0,4.08,4.08,3.77,3.77,0,0,0,2.78-2.78A3.54,3.54,0,0,0,.91,245.57Z"/><path d="M15.44,245.57A3.9,3.9,0,0,0,13,248.28a3.54,3.54,0,0,0,4.08,4.08,3.77,3.77,0,0,0,2.78-2.78A3.54,3.54,0,0,0,15.44,245.57Z"/><path d="M30,245.57a3.9,3.9,0,0,0-2.45,2.71,3.54,3.54,0,0,0,4.08,4.08,3.77,3.77,0,0,0,2.78-2.78A3.54,3.54,0,0,0,30,245.57Z"/><path d="M44.5,245.57A3.9,3.9,0,0,0,42,248.28a3.54,3.54,0,0,0,4.08,4.08,3.77,3.77,0,0,0,2.78-2.78A3.54,3.54,0,0,0,44.5,245.57Z"/><path d="M59,245.57a3.9,3.9,0,0,0-2.45,2.71,3.54,3.54,0,0,0,4.08,4.08,3.77,3.77,0,0,0,2.78-2.78A3.54,3.54,0,0,0,59,245.57Z"/><path d="M73.56,245.57a3.9,3.9,0,0,0-2.45,2.71,3.54,3.54,0,0,0,4.08,4.08A3.77,3.77,0,0,0,78,249.57,3.54,3.54,0,0,0,73.56,245.57Z"/><path d="M88.09,245.57a3.9,3.9,0,0,0-2.45,2.71,3.54,3.54,0,0,0,4.08,4.08,3.77,3.77,0,0,0,2.78-2.78A3.54,3.54,0,0,0,88.09,245.57Z"/><path d="M102.62,245.57a3.9,3.9,0,0,0-2.45,2.71,3.54,3.54,0,0,0,4.08,4.08,3.77,3.77,0,0,0,2.78-2.78A3.54,3.54,0,0,0,102.62,245.57Z"/><path d="M117.15,245.57a3.9,3.9,0,0,0-2.45,2.71,3.54,3.54,0,0,0,4.08,4.08,3.77,3.77,0,0,0,2.78-2.78A3.54,3.54,0,0,0,117.15,245.57Z"/><path d="M128.72-1.06a3.9,3.9,0,0,0-2.45,2.71,3.54,3.54,0,0,0,4.08,4.08,3.77,3.77,0,0,0,2.78-2.78A3.54,3.54,0,0,0,128.72-1.06Z"/><path d="M143.25-1.06a3.9,3.9,0,0,0-2.45,2.71,3.54,3.54,0,0,0,4.08,4.08,3.77,3.77,0,0,0,2.78-2.78A3.54,3.54,0,0,0,143.25-1.06Z"/><path d="M157.78-1.06a3.9,3.9,0,0,0-2.45,2.71,3.54,3.54,0,0,0,4.08,4.08,3.77,3.77,0,0,0,2.78-2.78A3.54,3.54,0,0,0,157.78-1.06Z"/><path d="M172.31-1.06a3.9,3.9,0,0,0-2.45,2.71,3.54,3.54,0,0,0,4.08,4.08,3.77,3.77,0,0,0,2.78-2.78A3.54,3.54,0,0,0,172.31-1.06Z"/><path d="M186.84-1.06a3.9,3.9,0,0,0-2.45,2.71,3.59,3.59,0,0,0,2.78,4.08,3.54,3.54,0,0,0,4.08-4.08A3.58,3.58,0,0,0,186.84-1.06Z"/><path d="M201.37-1.06a3.9,3.9,0,0,0-2.45,2.71A3.54,3.54,0,0,0,203,5.73a3.59,3.59,0,0,0,2.78-4.08A3.58,3.58,0,0,0,201.37-1.06Z"/><path d="M215.9-1.06a3.9,3.9,0,0,0-2.45,2.71,3.54,3.54,0,0,0,4.08,4.08,3.59,3.59,0,0,0,2.78-4.08A3.58,3.58,0,0,0,215.9-1.06Z"/><path d="M230.43-1.06A3.9,3.9,0,0,0,228,1.65a3.54,3.54,0,0,0,4.08,4.08,3.59,3.59,0,0,0,2.78-4.08A3.58,3.58,0,0,0,230.43-1.06Z"/><path d="M245-1.06a3.9,3.9,0,0,0-2.45,2.71,3.54,3.54,0,0,0,4.08,4.08,3.77,3.77,0,0,0,2.78-2.78A3.54,3.54,0,0,0,245-1.06Z"/><path d="M259.49-1.06A3.9,3.9,0,0,0,257,1.65a3.54,3.54,0,0,0,4.08,4.08,3.77,3.77,0,0,0,2.78-2.78A3.54,3.54,0,0,0,259.49-1.06Z"/><path d="M128.72,13.47a3.9,3.9,0,0,0-2.45,2.71,3.54,3.54,0,0,0,4.08,4.08,3.77,3.77,0,0,0,2.78-2.78A3.54,3.54,0,0,0,128.72,13.47Z"/><path d="M143.25,13.47a3.9,3.9,0,0,0-2.45,2.71,3.54,3.54,0,0,0,4.08,4.08,3.77,3.77,0,0,0,2.78-2.78A3.54,3.54,0,0,0,143.25,13.47Z"/><path d="M157.78,13.47a3.9,3.9,0,0,0-2.45,2.71,3.54,3.54,0,0,0,4.08,4.08,3.77,3.77,0,0,0,2.78-2.78A3.54,3.54,0,0,0,157.78,13.47Z"/><path d="M172.31,13.47a3.9,3.9,0,0,0-2.45,2.71,3.54,3.54,0,0,0,4.08,4.08,3.77,3.77,0,0,0,2.78-2.78A3.54,3.54,0,0,0,172.31,13.47Z"/><path d="M186.84,13.47a3.9,3.9,0,0,0-2.45,2.71,3.54,3.54,0,0,0,4.08,4.08,3.77,3.77,0,0,0,2.78-2.78A3.54,3.54,0,0,0,186.84,13.47Z"/><path d="M201.37,13.47a3.9,3.9,0,0,0-2.45,2.71A3.54,3.54,0,0,0,203,20.26a3.77,3.77,0,0,0,2.78-2.78A3.54,3.54,0,0,0,201.37,13.47Z"/><path d="M215.9,13.47a3.9,3.9,0,0,0-2.45,2.71,3.54,3.54,0,0,0,4.08,4.08,3.77,3.77,0,0,0,2.78-2.78A3.54,3.54,0,0,0,215.9,13.47Z"/><path d="M230.43,13.47A3.9,3.9,0,0,0,228,16.18a3.54,3.54,0,0,0,4.08,4.08,3.77,3.77,0,0,0,2.78-2.78A3.54,3.54,0,0,0,230.43,13.47Z"/><path d="M245,13.47a3.9,3.9,0,0,0-2.45,2.71,3.54,3.54,0,0,0,4.08,4.08,3.77,3.77,0,0,0,2.78-2.78A3.54,3.54,0,0,0,245,13.47Z"/><path d="M259.49,13.47A3.9,3.9,0,0,0,257,16.18a3.54,3.54,0,0,0,4.08,4.08,3.77,3.77,0,0,0,2.78-2.78A3.54,3.54,0,0,0,259.49,13.47Z"/><path d="M128.72,28a3.9,3.9,0,0,0-2.45,2.71,3.54,3.54,0,0,0,4.08,4.08A3.77,3.77,0,0,0,133.12,32,3.54,3.54,0,0,0,128.72,28Z"/><path d="M143.25,28a3.9,3.9,0,0,0-2.45,2.71,3.54,3.54,0,0,0,4.08,4.08A3.77,3.77,0,0,0,147.65,32,3.54,3.54,0,0,0,143.25,28Z"/><path d="M157.78,28a3.9,3.9,0,0,0-2.45,2.71,3.54,3.54,0,0,0,4.08,4.08A3.77,3.77,0,0,0,162.18,32,3.54,3.54,0,0,0,157.78,28Z"/><path d="M172.31,28a3.9,3.9,0,0,0-2.45,2.71,3.54,3.54,0,0,0,4.08,4.08A3.77,3.77,0,0,0,176.71,32,3.54,3.54,0,0,0,172.31,28Z"/><path d="M186.84,28a3.9,3.9,0,0,0-2.45,2.71,3.54,3.54,0,0,0,4.08,4.08A3.77,3.77,0,0,0,191.24,32,3.54,3.54,0,0,0,186.84,28Z"/><path d="M201.37,28a3.9,3.9,0,0,0-2.45,2.71A3.54,3.54,0,0,0,203,34.79,3.77,3.77,0,0,0,205.78,32,3.54,3.54,0,0,0,201.37,28Z"/><path d="M215.9,28a3.9,3.9,0,0,0-2.45,2.71,3.54,3.54,0,0,0,4.08,4.08A3.77,3.77,0,0,0,220.31,32,3.54,3.54,0,0,0,215.9,28Z"/><path d="M230.43,28A3.9,3.9,0,0,0,228,30.71a3.54,3.54,0,0,0,4.08,4.08A3.77,3.77,0,0,0,234.84,32,3.54,3.54,0,0,0,230.43,28Z"/><path d="M245,28a3.9,3.9,0,0,0-2.45,2.71,3.54,3.54,0,0,0,4.08,4.08A3.77,3.77,0,0,0,249.37,32,3.54,3.54,0,0,0,245,28Z"/><path d="M259.49,28A3.9,3.9,0,0,0,257,30.71a3.54,3.54,0,0,0,4.08,4.08A3.77,3.77,0,0,0,263.9,32,3.54,3.54,0,0,0,259.49,28Z"/><path d="M128.72,42.53a3.9,3.9,0,0,0-2.45,2.71,3.54,3.54,0,0,0,4.08,4.08,3.77,3.77,0,0,0,2.78-2.78A3.54,3.54,0,0,0,128.72,42.53Z"/><path d="M143.25,42.53a3.9,3.9,0,0,0-2.45,2.71,3.54,3.54,0,0,0,4.08,4.08,3.77,3.77,0,0,0,2.78-2.78A3.54,3.54,0,0,0,143.25,42.53Z"/><path d="M157.78,42.53a3.9,3.9,0,0,0-2.45,2.71,3.54,3.54,0,0,0,4.08,4.08,3.77,3.77,0,0,0,2.78-2.78A3.54,3.54,0,0,0,157.78,42.53Z"/><path d="M172.31,42.53a3.9,3.9,0,0,0-2.45,2.71,3.54,3.54,0,0,0,4.08,4.08,3.77,3.77,0,0,0,2.78-2.78A3.54,3.54,0,0,0,172.31,42.53Z"/><path d="M186.84,42.53a3.9,3.9,0,0,0-2.45,2.71,3.54,3.54,0,0,0,4.08,4.08,3.77,3.77,0,0,0,2.78-2.78A3.54,3.54,0,0,0,186.84,42.53Z"/><path d="M201.37,42.53a3.9,3.9,0,0,0-2.45,2.71A3.54,3.54,0,0,0,203,49.32a3.77,3.77,0,0,0,2.78-2.78A3.54,3.54,0,0,0,201.37,42.53Z"/><path d="M215.9,42.53a3.9,3.9,0,0,0-2.45,2.71,3.54,3.54,0,0,0,4.08,4.08,3.77,3.77,0,0,0,2.78-2.78A3.54,3.54,0,0,0,215.9,42.53Z"/><path d="M230.43,42.53A3.9,3.9,0,0,0,228,45.24a3.54,3.54,0,0,0,4.08,4.08,3.77,3.77,0,0,0,2.78-2.78A3.54,3.54,0,0,0,230.43,42.53Z"/><path d="M245,42.53a3.9,3.9,0,0,0-2.45,2.71,3.54,3.54,0,0,0,4.08,4.08,3.77,3.77,0,0,0,2.78-2.78A3.54,3.54,0,0,0,245,42.53Z"/><path d="M259.49,42.53A3.9,3.9,0,0,0,257,45.24a3.54,3.54,0,0,0,4.08,4.08,3.77,3.77,0,0,0,2.78-2.78A3.54,3.54,0,0,0,259.49,42.53Z"/><path d="M128.72,57.06a3.9,3.9,0,0,0-2.45,2.71,3.54,3.54,0,0,0,4.08,4.08,3.77,3.77,0,0,0,2.78-2.78A3.54,3.54,0,0,0,128.72,57.06Z"/><path d="M143.25,57.06a3.9,3.9,0,0,0-2.45,2.71,3.54,3.54,0,0,0,4.08,4.08,3.77,3.77,0,0,0,2.78-2.78A3.54,3.54,0,0,0,143.25,57.06Z"/><path d="M157.78,57.06a3.9,3.9,0,0,0-2.45,2.71,3.54,3.54,0,0,0,4.08,4.08,3.77,3.77,0,0,0,2.78-2.78A3.54,3.54,0,0,0,157.78,57.06Z"/><path d="M172.31,57.06a3.9,3.9,0,0,0-2.45,2.71,3.54,3.54,0,0,0,4.08,4.08,3.77,3.77,0,0,0,2.78-2.78A3.54,3.54,0,0,0,172.31,57.06Z"/><path d="M186.84,57.06a3.9,3.9,0,0,0-2.45,2.71,3.54,3.54,0,0,0,4.08,4.08,3.77,3.77,0,0,0,2.78-2.78A3.54,3.54,0,0,0,186.84,57.06Z"/><path d="M201.37,57.06a3.9,3.9,0,0,0-2.45,2.71A3.54,3.54,0,0,0,203,63.85a3.77,3.77,0,0,0,2.78-2.78A3.54,3.54,0,0,0,201.37,57.06Z"/><path d="M215.9,57.06a3.9,3.9,0,0,0-2.45,2.71,3.54,3.54,0,0,0,4.08,4.08,3.77,3.77,0,0,0,2.78-2.78A3.54,3.54,0,0,0,215.9,57.06Z"/><path d="M230.43,57.06A3.9,3.9,0,0,0,228,59.78a3.54,3.54,0,0,0,4.08,4.08,3.77,3.77,0,0,0,2.78-2.78A3.54,3.54,0,0,0,230.43,57.06Z"/><path d="M245,57.06a3.9,3.9,0,0,0-2.45,2.71,3.54,3.54,0,0,0,4.08,4.08,3.77,3.77,0,0,0,2.78-2.78A3.54,3.54,0,0,0,245,57.06Z"/><path d="M259.49,57.06A3.9,3.9,0,0,0,257,59.78a3.54,3.54,0,0,0,4.08,4.08,3.77,3.77,0,0,0,2.78-2.78A3.54,3.54,0,0,0,259.49,57.06Z"/><path d="M128.72,71.59a3.9,3.9,0,0,0-2.45,2.71,3.54,3.54,0,0,0,4.08,4.08,3.77,3.77,0,0,0,2.78-2.78A3.54,3.54,0,0,0,128.72,71.59Z"/><path d="M143.25,71.59a3.9,3.9,0,0,0-2.45,2.71,3.54,3.54,0,0,0,4.08,4.08,3.77,3.77,0,0,0,2.78-2.78A3.54,3.54,0,0,0,143.25,71.59Z"/><path d="M157.78,71.59a3.9,3.9,0,0,0-2.45,2.71,3.54,3.54,0,0,0,4.08,4.08,3.77,3.77,0,0,0,2.78-2.78A3.54,3.54,0,0,0,157.78,71.59Z"/><path d="M172.31,71.59a3.9,3.9,0,0,0-2.45,2.71,3.54,3.54,0,0,0,4.08,4.08,3.77,3.77,0,0,0,2.78-2.78A3.54,3.54,0,0,0,172.31,71.59Z"/><path d="M186.84,71.59a3.9,3.9,0,0,0-2.45,2.71,3.54,3.54,0,0,0,4.08,4.08,3.77,3.77,0,0,0,2.78-2.78A3.54,3.54,0,0,0,186.84,71.59Z"/><path d="M201.37,71.59a3.9,3.9,0,0,0-2.45,2.71A3.54,3.54,0,0,0,203,78.38a3.77,3.77,0,0,0,2.78-2.78A3.54,3.54,0,0,0,201.37,71.59Z"/><path d="M215.9,71.59a3.9,3.9,0,0,0-2.45,2.71,3.54,3.54,0,0,0,4.08,4.08,3.77,3.77,0,0,0,2.78-2.78A3.54,3.54,0,0,0,215.9,71.59Z"/><path d="M230.43,71.59A3.9,3.9,0,0,0,228,74.31a3.54,3.54,0,0,0,4.08,4.08,3.77,3.77,0,0,0,2.78-2.78A3.54,3.54,0,0,0,230.43,71.59Z"/><path d="M245,71.59a3.9,3.9,0,0,0-2.45,2.71,3.54,3.54,0,0,0,4.08,4.08,3.77,3.77,0,0,0,2.78-2.78A3.54,3.54,0,0,0,245,71.59Z"/><path d="M259.49,71.59A3.9,3.9,0,0,0,257,74.31a3.54,3.54,0,0,0,4.08,4.08,3.77,3.77,0,0,0,2.78-2.78A3.54,3.54,0,0,0,259.49,71.59Z"/><path d="M128.72,86.12a3.9,3.9,0,0,0-2.45,2.71,3.54,3.54,0,0,0,4.08,4.08,3.77,3.77,0,0,0,2.78-2.78A3.54,3.54,0,0,0,128.72,86.12Z"/><path d="M143.25,86.12a3.9,3.9,0,0,0-2.45,2.71,3.54,3.54,0,0,0,4.08,4.08,3.77,3.77,0,0,0,2.78-2.78A3.54,3.54,0,0,0,143.25,86.12Z"/><path d="M157.78,86.12a3.9,3.9,0,0,0-2.45,2.71,3.54,3.54,0,0,0,4.08,4.08,3.77,3.77,0,0,0,2.78-2.78A3.54,3.54,0,0,0,157.78,86.12Z"/><path d="M172.31,86.12a3.9,3.9,0,0,0-2.45,2.71,3.54,3.54,0,0,0,4.08,4.08,3.77,3.77,0,0,0,2.78-2.78A3.54,3.54,0,0,0,172.31,86.12Z"/><path d="M186.84,86.12a3.9,3.9,0,0,0-2.45,2.71,3.54,3.54,0,0,0,4.08,4.08,3.77,3.77,0,0,0,2.78-2.78A3.54,3.54,0,0,0,186.84,86.12Z"/><path d="M201.37,86.12a3.9,3.9,0,0,0-2.45,2.71A3.54,3.54,0,0,0,203,92.91a3.77,3.77,0,0,0,2.78-2.78A3.54,3.54,0,0,0,201.37,86.12Z"/><path d="M215.9,86.12a3.9,3.9,0,0,0-2.45,2.71,3.54,3.54,0,0,0,4.08,4.08,3.77,3.77,0,0,0,2.78-2.78A3.54,3.54,0,0,0,215.9,86.12Z"/><path d="M230.43,86.12A3.9,3.9,0,0,0,228,88.84a3.54,3.54,0,0,0,4.08,4.08,3.77,3.77,0,0,0,2.78-2.78A3.54,3.54,0,0,0,230.43,86.12Z"/><path d="M245,86.12a3.9,3.9,0,0,0-2.45,2.71,3.54,3.54,0,0,0,4.08,4.08,3.77,3.77,0,0,0,2.78-2.78A3.54,3.54,0,0,0,245,86.12Z"/><path d="M259.49,86.12A3.9,3.9,0,0,0,257,88.84a3.54,3.54,0,0,0,4.08,4.08,3.77,3.77,0,0,0,2.78-2.78A3.54,3.54,0,0,0,259.49,86.12Z"/><path d="M128.72,100.65a3.9,3.9,0,0,0-2.45,2.71,3.54,3.54,0,0,0,4.08,4.08,3.77,3.77,0,0,0,2.78-2.78A3.54,3.54,0,0,0,128.72,100.65Z"/><path d="M143.25,100.65a3.9,3.9,0,0,0-2.45,2.71,3.54,3.54,0,0,0,4.08,4.08,3.77,3.77,0,0,0,2.78-2.78A3.54,3.54,0,0,0,143.25,100.65Z"/><path d="M157.78,100.65a3.9,3.9,0,0,0-2.45,2.71,3.54,3.54,0,0,0,4.08,4.08,3.77,3.77,0,0,0,2.78-2.78A3.54,3.54,0,0,0,157.78,100.65Z"/><path d="M172.31,100.65a3.9,3.9,0,0,0-2.45,2.71,3.54,3.54,0,0,0,4.08,4.08,3.77,3.77,0,0,0,2.78-2.78A3.54,3.54,0,0,0,172.31,100.65Z"/><path d="M186.84,100.65a3.9,3.9,0,0,0-2.45,2.71,3.54,3.54,0,0,0,4.08,4.08,3.77,3.77,0,0,0,2.78-2.78A3.54,3.54,0,0,0,186.84,100.65Z"/><path d="M201.37,100.65a3.9,3.9,0,0,0-2.45,2.71,3.54,3.54,0,0,0,4.08,4.08,3.77,3.77,0,0,0,2.78-2.78A3.54,3.54,0,0,0,201.37,100.65Z"/><path d="M215.9,100.65a3.9,3.9,0,0,0-2.45,2.71,3.54,3.54,0,0,0,4.08,4.08,3.77,3.77,0,0,0,2.78-2.78A3.54,3.54,0,0,0,215.9,100.65Z"/><path d="M230.43,100.65a3.9,3.9,0,0,0-2.45,2.71,3.54,3.54,0,0,0,4.08,4.08,3.77,3.77,0,0,0,2.78-2.78A3.54,3.54,0,0,0,230.43,100.65Z"/><path d="M245,100.65a3.9,3.9,0,0,0-2.45,2.71,3.54,3.54,0,0,0,4.08,4.08,3.77,3.77,0,0,0,2.78-2.78A3.54,3.54,0,0,0,245,100.65Z"/><path d="M259.49,100.65a3.9,3.9,0,0,0-2.45,2.71,3.54,3.54,0,0,0,4.08,4.08,3.77,3.77,0,0,0,2.78-2.78A3.54,3.54,0,0,0,259.49,100.65Z"/><path d="M128.72,115.19a3.9,3.9,0,0,0-2.45,2.71,3.54,3.54,0,0,0,4.08,4.08,3.49,3.49,0,1,0-1.62-6.79Z"/><path d="M143.25,115.19a3.9,3.9,0,0,0-2.45,2.71,3.54,3.54,0,0,0,4.08,4.08,3.77,3.77,0,0,0,2.78-2.78A3.54,3.54,0,0,0,143.25,115.19Z"/><path d="M157.78,115.19a3.9,3.9,0,0,0-2.45,2.71A3.54,3.54,0,0,0,159.4,122a3.77,3.77,0,0,0,2.78-2.78A3.54,3.54,0,0,0,157.78,115.19Z"/><path d="M172.31,115.19a3.9,3.9,0,0,0-2.45,2.71,3.54,3.54,0,0,0,4.08,4.08,3.77,3.77,0,0,0,2.78-2.78A3.54,3.54,0,0,0,172.31,115.19Z"/><path d="M186.84,115.19a3.9,3.9,0,0,0-2.45,2.71,3.54,3.54,0,0,0,4.08,4.08,3.77,3.77,0,0,0,2.78-2.78A3.54,3.54,0,0,0,186.84,115.19Z"/><path d="M201.37,115.19a3.9,3.9,0,0,0-2.45,2.71A3.54,3.54,0,0,0,203,122a3.77,3.77,0,0,0,2.78-2.78A3.54,3.54,0,0,0,201.37,115.19Z"/><path d="M215.9,115.19a3.9,3.9,0,0,0-2.45,2.71,3.54,3.54,0,0,0,4.08,4.08,3.77,3.77,0,0,0,2.78-2.78A3.54,3.54,0,0,0,215.9,115.19Z"/><path d="M230.43,115.19A3.9,3.9,0,0,0,228,117.9a3.54,3.54,0,0,0,4.08,4.08,3.77,3.77,0,0,0,2.78-2.78A3.54,3.54,0,0,0,230.43,115.19Z"/><path d="M245,115.19a3.9,3.9,0,0,0-2.45,2.71,3.54,3.54,0,0,0,4.08,4.08,3.77,3.77,0,0,0,2.78-2.78A3.54,3.54,0,0,0,245,115.19Z"/><path d="M259.49,115.19A3.9,3.9,0,0,0,257,117.9a3.54,3.54,0,0,0,4.08,4.08,3.77,3.77,0,0,0,2.78-2.78A3.54,3.54,0,0,0,259.49,115.19Z"/><path d="M129.57,128.46a3.9,3.9,0,0,0-2.45,2.71,3.54,3.54,0,0,0,4.08,4.08,3.77,3.77,0,0,0,2.78-2.78A3.54,3.54,0,0,0,129.57,128.46Z"/><path d="M144.1,128.46a3.9,3.9,0,0,0-2.45,2.71,3.54,3.54,0,0,0,4.08,4.08,3.77,3.77,0,0,0,2.78-2.78A3.54,3.54,0,0,0,144.1,128.46Z"/><path d="M158.64,128.46a3.9,3.9,0,0,0-2.45,2.71,3.54,3.54,0,0,0,4.08,4.08,3.77,3.77,0,0,0,2.78-2.78A3.54,3.54,0,0,0,158.64,128.46Z"/><path d="M173.17,128.46a3.9,3.9,0,0,0-2.45,2.71,3.54,3.54,0,0,0,4.08,4.08,3.77,3.77,0,0,0,2.78-2.78A3.54,3.54,0,0,0,173.17,128.46Z"/><path d="M187.7,128.46a3.9,3.9,0,0,0-2.45,2.71,3.59,3.59,0,0,0,2.78,4.08,3.54,3.54,0,0,0,4.08-4.08A3.58,3.58,0,0,0,187.7,128.46Z"/><path d="M202.23,128.46a3.9,3.9,0,0,0-2.45,2.71,3.59,3.59,0,0,0,2.78,4.08,3.54,3.54,0,0,0,4.08-4.08A3.58,3.58,0,0,0,202.23,128.46Z"/><path d="M216.76,128.46a3.9,3.9,0,0,0-2.45,2.71,3.59,3.59,0,0,0,2.78,4.08,3.54,3.54,0,0,0,4.08-4.08A3.58,3.58,0,0,0,216.76,128.46Z"/><path d="M231.29,128.46a3.9,3.9,0,0,0-2.45,2.71,3.59,3.59,0,0,0,2.78,4.08,3.54,3.54,0,0,0,4.08-4.08A3.58,3.58,0,0,0,231.29,128.46Z"/><path d="M245.82,128.46a3.9,3.9,0,0,0-2.45,2.71,3.54,3.54,0,0,0,4.08,4.08,3.77,3.77,0,0,0,2.78-2.78A3.54,3.54,0,0,0,245.82,128.46Z"/><path d="M260.35,128.46a3.9,3.9,0,0,0-2.45,2.71,3.54,3.54,0,0,0,4.08,4.08,3.77,3.77,0,0,0,2.78-2.78A3.54,3.54,0,0,0,260.35,128.46Z"/><path d="M129.57,143a3.9,3.9,0,0,0-2.45,2.71,3.54,3.54,0,0,0,4.08,4.08A3.77,3.77,0,0,0,134,147,3.54,3.54,0,0,0,129.57,143Z"/><path d="M144.1,143a3.9,3.9,0,0,0-2.45,2.71,3.54,3.54,0,0,0,4.08,4.08,3.77,3.77,0,0,0,2.78-2.78A3.54,3.54,0,0,0,144.1,143Z"/><path d="M158.64,143a3.9,3.9,0,0,0-2.45,2.71,3.54,3.54,0,0,0,4.08,4.08A3.77,3.77,0,0,0,163,147,3.54,3.54,0,0,0,158.64,143Z"/><path d="M173.17,143a3.9,3.9,0,0,0-2.45,2.71,3.54,3.54,0,0,0,4.08,4.08,3.77,3.77,0,0,0,2.78-2.78A3.54,3.54,0,0,0,173.17,143Z"/><path d="M187.7,143a3.9,3.9,0,0,0-2.45,2.71,3.59,3.59,0,0,0,2.78,4.08,3.54,3.54,0,0,0,4.08-4.08A3.58,3.58,0,0,0,187.7,143Z"/><path d="M202.23,143a3.9,3.9,0,0,0-2.45,2.71,3.54,3.54,0,0,0,4.08,4.08,3.49,3.49,0,1,0-1.62-6.79Z"/><path d="M216.76,143a3.9,3.9,0,0,0-2.45,2.71,3.54,3.54,0,0,0,4.08,4.08,3.49,3.49,0,1,0-1.62-6.79Z"/><path d="M231.29,143a3.9,3.9,0,0,0-2.45,2.71,3.54,3.54,0,0,0,4.08,4.08,3.49,3.49,0,1,0-1.62-6.79Z"/><path d="M245.82,143a3.9,3.9,0,0,0-2.45,2.71,3.54,3.54,0,0,0,4.08,4.08,3.77,3.77,0,0,0,2.78-2.78A3.54,3.54,0,0,0,245.82,143Z"/><path d="M260.35,143a3.9,3.9,0,0,0-2.45,2.71,3.54,3.54,0,0,0,4.08,4.08,3.77,3.77,0,0,0,2.78-2.78A3.54,3.54,0,0,0,260.35,143Z"/><path d="M129.57,157.52a3.9,3.9,0,0,0-2.45,2.71,3.54,3.54,0,0,0,4.08,4.08,3.77,3.77,0,0,0,2.78-2.78A3.54,3.54,0,0,0,129.57,157.52Z"/><path d="M144.1,157.52a3.9,3.9,0,0,0-2.45,2.71,3.54,3.54,0,0,0,4.08,4.08,3.77,3.77,0,0,0,2.78-2.78A3.54,3.54,0,0,0,144.1,157.52Z"/><path d="M158.64,157.52a3.9,3.9,0,0,0-2.45,2.71,3.54,3.54,0,0,0,4.08,4.08,3.77,3.77,0,0,0,2.78-2.78A3.54,3.54,0,0,0,158.64,157.52Z"/><path d="M173.17,157.52a3.9,3.9,0,0,0-2.45,2.71,3.54,3.54,0,0,0,4.08,4.08,3.77,3.77,0,0,0,2.78-2.78A3.54,3.54,0,0,0,173.17,157.52Z"/><path d="M187.7,157.52a3.9,3.9,0,0,0-2.45,2.71,3.54,3.54,0,0,0,4.08,4.08,3.77,3.77,0,0,0,2.78-2.78A3.54,3.54,0,0,0,187.7,157.52Z"/><path d="M202.23,157.52a3.9,3.9,0,0,0-2.45,2.71,3.54,3.54,0,0,0,4.08,4.08,3.77,3.77,0,0,0,2.78-2.78A3.54,3.54,0,0,0,202.23,157.52Z"/><path d="M216.76,157.52a3.9,3.9,0,0,0-2.45,2.71,3.54,3.54,0,0,0,4.08,4.08,3.77,3.77,0,0,0,2.78-2.78A3.54,3.54,0,0,0,216.76,157.52Z"/><path d="M231.29,157.52a3.9,3.9,0,0,0-2.45,2.71,3.54,3.54,0,0,0,4.08,4.08,3.77,3.77,0,0,0,2.78-2.78A3.54,3.54,0,0,0,231.29,157.52Z"/><path d="M245.82,157.52a3.9,3.9,0,0,0-2.45,2.71,3.54,3.54,0,0,0,4.08,4.08,3.77,3.77,0,0,0,2.78-2.78A3.54,3.54,0,0,0,245.82,157.52Z"/><path d="M260.35,157.52a3.9,3.9,0,0,0-2.45,2.71,3.54,3.54,0,0,0,4.08,4.08,3.77,3.77,0,0,0,2.78-2.78A3.54,3.54,0,0,0,260.35,157.52Z"/><path d="M129.57,172.06a3.9,3.9,0,0,0-2.45,2.71,3.54,3.54,0,0,0,4.08,4.08,3.77,3.77,0,0,0,2.78-2.78A3.54,3.54,0,0,0,129.57,172.06Z"/><path d="M144.1,172.06a3.9,3.9,0,0,0-2.45,2.71,3.54,3.54,0,0,0,4.08,4.08,3.77,3.77,0,0,0,2.78-2.78A3.54,3.54,0,0,0,144.1,172.06Z"/><path d="M158.64,172.06a3.9,3.9,0,0,0-2.45,2.71,3.54,3.54,0,0,0,4.08,4.08,3.77,3.77,0,0,0,2.78-2.78A3.54,3.54,0,0,0,158.64,172.06Z"/><path d="M173.17,172.06a3.9,3.9,0,0,0-2.45,2.71,3.54,3.54,0,0,0,4.08,4.08,3.77,3.77,0,0,0,2.78-2.78A3.54,3.54,0,0,0,173.17,172.06Z"/><path d="M187.7,172.06a3.9,3.9,0,0,0-2.45,2.71,3.54,3.54,0,0,0,4.08,4.08,3.77,3.77,0,0,0,2.78-2.78A3.54,3.54,0,0,0,187.7,172.06Z"/><path d="M202.23,172.06a3.9,3.9,0,0,0-2.45,2.71,3.54,3.54,0,0,0,4.08,4.08,3.77,3.77,0,0,0,2.78-2.78A3.54,3.54,0,0,0,202.23,172.06Z"/><path d="M216.76,172.06a3.9,3.9,0,0,0-2.45,2.71,3.54,3.54,0,0,0,4.08,4.08,3.77,3.77,0,0,0,2.78-2.78A3.54,3.54,0,0,0,216.76,172.06Z"/><path d="M231.29,172.06a3.9,3.9,0,0,0-2.45,2.71,3.54,3.54,0,0,0,4.08,4.08,3.77,3.77,0,0,0,2.78-2.78A3.54,3.54,0,0,0,231.29,172.06Z"/><path d="M245.82,172.06a3.9,3.9,0,0,0-2.45,2.71,3.54,3.54,0,0,0,4.08,4.08,3.77,3.77,0,0,0,2.78-2.78A3.54,3.54,0,0,0,245.82,172.06Z"/><path d="M260.35,172.06a3.9,3.9,0,0,0-2.45,2.71,3.54,3.54,0,0,0,4.08,4.08,3.77,3.77,0,0,0,2.78-2.78A3.54,3.54,0,0,0,260.35,172.06Z"/><path d="M129.57,186.59a3.9,3.9,0,0,0-2.45,2.71,3.54,3.54,0,0,0,4.08,4.08,3.77,3.77,0,0,0,2.78-2.78A3.54,3.54,0,0,0,129.57,186.59Z"/><path d="M144.1,186.59a3.9,3.9,0,0,0-2.45,2.71,3.54,3.54,0,0,0,4.08,4.08,3.77,3.77,0,0,0,2.78-2.78A3.54,3.54,0,0,0,144.1,186.59Z"/><path d="M158.64,186.59a3.9,3.9,0,0,0-2.45,2.71,3.54,3.54,0,0,0,4.08,4.08,3.77,3.77,0,0,0,2.78-2.78A3.54,3.54,0,0,0,158.64,186.59Z"/><path d="M173.17,186.59a3.9,3.9,0,0,0-2.45,2.71,3.54,3.54,0,0,0,4.08,4.08,3.77,3.77,0,0,0,2.78-2.78A3.54,3.54,0,0,0,173.17,186.59Z"/><path d="M187.7,186.59a3.9,3.9,0,0,0-2.45,2.71,3.54,3.54,0,0,0,4.08,4.08,3.77,3.77,0,0,0,2.78-2.78A3.54,3.54,0,0,0,187.7,186.59Z"/><path d="M202.23,186.59a3.9,3.9,0,0,0-2.45,2.71,3.54,3.54,0,0,0,4.08,4.08,3.77,3.77,0,0,0,2.78-2.78A3.54,3.54,0,0,0,202.23,186.59Z"/><path d="M216.76,186.59a3.9,3.9,0,0,0-2.45,2.71,3.54,3.54,0,0,0,4.08,4.08,3.77,3.77,0,0,0,2.78-2.78A3.54,3.54,0,0,0,216.76,186.59Z"/><path d="M231.29,186.59a3.9,3.9,0,0,0-2.45,2.71,3.54,3.54,0,0,0,4.08,4.08,3.77,3.77,0,0,0,2.78-2.78A3.54,3.54,0,0,0,231.29,186.59Z"/><path d="M245.82,186.59a3.9,3.9,0,0,0-2.45,2.71,3.54,3.54,0,0,0,4.08,4.08,3.77,3.77,0,0,0,2.78-2.78A3.54,3.54,0,0,0,245.82,186.59Z"/><path d="M260.35,186.59a3.9,3.9,0,0,0-2.45,2.71,3.54,3.54,0,0,0,4.08,4.08,3.77,3.77,0,0,0,2.78-2.78A3.54,3.54,0,0,0,260.35,186.59Z"/><path d="M129.57,201.12a3.9,3.9,0,0,0-2.45,2.71,3.54,3.54,0,0,0,4.08,4.08,3.77,3.77,0,0,0,2.78-2.78A3.54,3.54,0,0,0,129.57,201.12Z"/><path d="M144.1,201.12a3.9,3.9,0,0,0-2.45,2.71,3.54,3.54,0,0,0,4.08,4.08,3.77,3.77,0,0,0,2.78-2.78A3.54,3.54,0,0,0,144.1,201.12Z"/><path d="M158.64,201.12a3.9,3.9,0,0,0-2.45,2.71,3.54,3.54,0,0,0,4.08,4.08,3.77,3.77,0,0,0,2.78-2.78A3.54,3.54,0,0,0,158.64,201.12Z"/><path d="M173.17,201.12a3.9,3.9,0,0,0-2.45,2.71,3.54,3.54,0,0,0,4.08,4.08,3.77,3.77,0,0,0,2.78-2.78A3.54,3.54,0,0,0,173.17,201.12Z"/><path d="M187.7,201.12a3.9,3.9,0,0,0-2.45,2.71,3.54,3.54,0,0,0,4.08,4.08,3.77,3.77,0,0,0,2.78-2.78A3.54,3.54,0,0,0,187.7,201.12Z"/><path d="M202.23,201.12a3.9,3.9,0,0,0-2.45,2.71,3.54,3.54,0,0,0,4.08,4.08,3.77,3.77,0,0,0,2.78-2.78A3.54,3.54,0,0,0,202.23,201.12Z"/><path d="M216.76,201.12a3.9,3.9,0,0,0-2.45,2.71,3.54,3.54,0,0,0,4.08,4.08,3.77,3.77,0,0,0,2.78-2.78A3.54,3.54,0,0,0,216.76,201.12Z"/><path d="M231.29,201.12a3.9,3.9,0,0,0-2.45,2.71,3.54,3.54,0,0,0,4.08,4.08,3.77,3.77,0,0,0,2.78-2.78A3.54,3.54,0,0,0,231.29,201.12Z"/><path d="M245.82,201.12a3.9,3.9,0,0,0-2.45,2.71,3.54,3.54,0,0,0,4.08,4.08,3.77,3.77,0,0,0,2.78-2.78A3.54,3.54,0,0,0,245.82,201.12Z"/><path d="M260.35,201.12a3.9,3.9,0,0,0-2.45,2.71,3.54,3.54,0,0,0,4.08,4.08,3.77,3.77,0,0,0,2.78-2.78A3.54,3.54,0,0,0,260.35,201.12Z"/><path d="M129.57,215.65a3.9,3.9,0,0,0-2.45,2.71,3.54,3.54,0,0,0,4.08,4.08,3.77,3.77,0,0,0,2.78-2.78A3.54,3.54,0,0,0,129.57,215.65Z"/><path d="M144.1,215.65a3.9,3.9,0,0,0-2.45,2.71,3.54,3.54,0,0,0,4.08,4.08,3.77,3.77,0,0,0,2.78-2.78A3.54,3.54,0,0,0,144.1,215.65Z"/><path d="M158.64,215.65a3.9,3.9,0,0,0-2.45,2.71,3.54,3.54,0,0,0,4.08,4.08,3.77,3.77,0,0,0,2.78-2.78A3.54,3.54,0,0,0,158.64,215.65Z"/><path d="M173.17,215.65a3.9,3.9,0,0,0-2.45,2.71,3.54,3.54,0,0,0,4.08,4.08,3.77,3.77,0,0,0,2.78-2.78A3.54,3.54,0,0,0,173.17,215.65Z"/><path d="M187.7,215.65a3.9,3.9,0,0,0-2.45,2.71,3.54,3.54,0,0,0,4.08,4.08,3.77,3.77,0,0,0,2.78-2.78A3.54,3.54,0,0,0,187.7,215.65Z"/><path d="M202.23,215.65a3.9,3.9,0,0,0-2.45,2.71,3.54,3.54,0,0,0,4.08,4.08,3.77,3.77,0,0,0,2.78-2.78A3.54,3.54,0,0,0,202.23,215.65Z"/><path d="M216.76,215.65a3.9,3.9,0,0,0-2.45,2.71,3.54,3.54,0,0,0,4.08,4.08,3.77,3.77,0,0,0,2.78-2.78A3.54,3.54,0,0,0,216.76,215.65Z"/><path d="M231.29,215.65a3.9,3.9,0,0,0-2.45,2.71,3.54,3.54,0,0,0,4.08,4.08,3.77,3.77,0,0,0,2.78-2.78A3.54,3.54,0,0,0,231.29,215.65Z"/><path d="M245.82,215.65a3.9,3.9,0,0,0-2.45,2.71,3.54,3.54,0,0,0,4.08,4.08,3.77,3.77,0,0,0,2.78-2.78A3.54,3.54,0,0,0,245.82,215.65Z"/><path d="M260.35,215.65a3.9,3.9,0,0,0-2.45,2.71,3.54,3.54,0,0,0,4.08,4.08,3.77,3.77,0,0,0,2.78-2.78A3.54,3.54,0,0,0,260.35,215.65Z"/><path d="M129.57,230.18a3.9,3.9,0,0,0-2.45,2.71A3.54,3.54,0,0,0,131.2,237a3.77,3.77,0,0,0,2.78-2.78A3.54,3.54,0,0,0,129.57,230.18Z"/><path d="M144.1,230.18a3.9,3.9,0,0,0-2.45,2.71,3.54,3.54,0,0,0,4.08,4.08,3.77,3.77,0,0,0,2.78-2.78A3.54,3.54,0,0,0,144.1,230.18Z"/><path d="M158.64,230.18a3.9,3.9,0,0,0-2.45,2.71,3.54,3.54,0,0,0,4.08,4.08,3.77,3.77,0,0,0,2.78-2.78A3.54,3.54,0,0,0,158.64,230.18Z"/><path d="M173.17,230.18a3.9,3.9,0,0,0-2.45,2.71,3.54,3.54,0,0,0,4.08,4.08,3.77,3.77,0,0,0,2.78-2.78A3.54,3.54,0,0,0,173.17,230.18Z"/><path d="M187.7,230.18a3.9,3.9,0,0,0-2.45,2.71,3.54,3.54,0,0,0,4.08,4.08,3.77,3.77,0,0,0,2.78-2.78A3.54,3.54,0,0,0,187.7,230.18Z"/><path d="M202.23,230.18a3.9,3.9,0,0,0-2.45,2.71,3.54,3.54,0,0,0,4.08,4.08,3.77,3.77,0,0,0,2.78-2.78A3.54,3.54,0,0,0,202.23,230.18Z"/><path d="M216.76,230.18a3.9,3.9,0,0,0-2.45,2.71,3.54,3.54,0,0,0,4.08,4.08,3.77,3.77,0,0,0,2.78-2.78A3.54,3.54,0,0,0,216.76,230.18Z"/><path d="M231.29,230.18a3.9,3.9,0,0,0-2.45,2.71,3.54,3.54,0,0,0,4.08,4.08,3.77,3.77,0,0,0,2.78-2.78A3.54,3.54,0,0,0,231.29,230.18Z"/><path d="M245.82,230.18a3.9,3.9,0,0,0-2.45,2.71,3.54,3.54,0,0,0,4.08,4.08,3.77,3.77,0,0,0,2.78-2.78A3.54,3.54,0,0,0,245.82,230.18Z"/><path d="M260.35,230.18a3.9,3.9,0,0,0-2.45,2.71A3.54,3.54,0,0,0,262,237a3.77,3.77,0,0,0,2.78-2.78A3.54,3.54,0,0,0,260.35,230.18Z"/><path d="M129.57,244.71a3.9,3.9,0,0,0-2.45,2.71,3.54,3.54,0,0,0,4.08,4.08,3.77,3.77,0,0,0,2.78-2.78A3.54,3.54,0,0,0,129.57,244.71Z"/><path d="M144.1,244.71a3.9,3.9,0,0,0-2.45,2.71,3.54,3.54,0,0,0,4.08,4.08,3.77,3.77,0,0,0,2.78-2.78A3.54,3.54,0,0,0,144.1,244.71Z"/><path d="M158.64,244.71a3.9,3.9,0,0,0-2.45,2.71,3.54,3.54,0,0,0,4.08,4.08,3.77,3.77,0,0,0,2.78-2.78A3.54,3.54,0,0,0,158.64,244.71Z"/><path d="M173.17,244.71a3.9,3.9,0,0,0-2.45,2.71,3.54,3.54,0,0,0,4.08,4.08,3.77,3.77,0,0,0,2.78-2.78A3.54,3.54,0,0,0,173.17,244.71Z"/><path d="M187.7,244.71a3.9,3.9,0,0,0-2.45,2.71,3.54,3.54,0,0,0,4.08,4.08,3.77,3.77,0,0,0,2.78-2.78A3.54,3.54,0,0,0,187.7,244.71Z"/><path d="M202.23,244.71a3.9,3.9,0,0,0-2.45,2.71,3.54,3.54,0,0,0,4.08,4.08,3.77,3.77,0,0,0,2.78-2.78A3.54,3.54,0,0,0,202.23,244.71Z"/><path d="M216.76,244.71a3.9,3.9,0,0,0-2.45,2.71,3.54,3.54,0,0,0,4.08,4.08,3.77,3.77,0,0,0,2.78-2.78A3.54,3.54,0,0,0,216.76,244.71Z"/><path d="M231.29,244.71a3.9,3.9,0,0,0-2.45,2.71,3.54,3.54,0,0,0,4.08,4.08,3.77,3.77,0,0,0,2.78-2.78A3.54,3.54,0,0,0,231.29,244.71Z"/><path d="M245.82,244.71a3.9,3.9,0,0,0-2.45,2.71,3.54,3.54,0,0,0,4.08,4.08,3.77,3.77,0,0,0,2.78-2.78A3.54,3.54,0,0,0,245.82,244.71Z"/><path d="M260.35,244.71a3.9,3.9,0,0,0-2.45,2.71A3.54,3.54,0,0,0,262,251.5a3.77,3.77,0,0,0,2.78-2.78A3.54,3.54,0,0,0,260.35,244.71Z"/></g></g></svg>