<svg id="Layer_1" data-name="Layer 1" xmlns="http://www.w3.org/2000/svg" xmlns:xlink="http://www.w3.org/1999/xlink" viewBox="0 0 259 259"><defs><style>.cls-1{fill:none;}.cls-2{opacity:0.5;}.cls-3{clip-path:url(#clip-path);}.cls-4{opacity:0.15;}</style><clipPath id="clip-path"><circle class="cls-1" cx="129.5" cy="129.5" r="129.5"/></clipPath></defs><title>doodle_tools</title><g class="cls-2"><g class="cls-3"><g class="cls-4"><path d="M.05-.2A3.92,3.92,0,0,0-2.41,2.52,3.56,3.56,0,0,0,1.68,6.61,3.78,3.78,0,0,0,4.47,3.82,3.55,3.55,0,0,0,.05-.2Z"/><path d="M14.64-.2a3.92,3.92,0,0,0-2.46,2.72,3.56,3.56,0,0,0,4.09,4.09,3.78,3.78,0,0,0,2.79-2.79A3.55,3.55,0,0,0,14.64-.2Z"/><path d="M29.22-.2a3.92,3.92,0,0,0-2.46,2.72,3.56,3.56,0,0,0,4.09,4.09,3.78,3.78,0,0,0,2.79-2.79A3.55,3.55,0,0,0,29.22-.2Z"/><path d="M43.81-.2a3.92,3.92,0,0,0-2.46,2.72,3.6,3.6,0,0,0,2.79,4.09,3.56,3.56,0,0,0,4.09-4.09A3.6,3.6,0,0,0,43.81-.2Z"/><path d="M58.4-.2a3.92,3.92,0,0,0-2.46,2.72A3.56,3.56,0,0,0,60,6.61a3.6,3.6,0,0,0,2.79-4.09A3.6,3.6,0,0,0,58.4-.2Z"/><path d="M73-.2a3.92,3.92,0,0,0-2.46,2.72,3.56,3.56,0,0,0,4.09,4.09,3.6,3.6,0,0,0,2.79-4.09A3.6,3.6,0,0,0,73-.2Z"/><path d="M87.57-.2a3.92,3.92,0,0,0-2.46,2.72A3.56,3.56,0,0,0,89.2,6.61,3.6,3.6,0,0,0,92,2.52,3.6,3.6,0,0,0,87.57-.2Z"/><path d="M102.16-.2A3.92,3.92,0,0,0,99.7,2.52a3.56,3.56,0,0,0,4.09,4.09,3.78,3.78,0,0,0,2.79-2.79A3.55,3.55,0,0,0,102.16-.2Z"/><path d="M116.75-.2a3.92,3.92,0,0,0-2.46,2.72,3.56,3.56,0,0,0,4.09,4.09,3.78,3.78,0,0,0,2.79-2.79A3.55,3.55,0,0,0,116.75-.2Z"/><path d="M.05,14.38a3.92,3.92,0,0,0-2.46,2.72A3.56,3.56,0,0,0,1.68,21.2a3.78,3.78,0,0,0,2.79-2.79A3.55,3.55,0,0,0,.05,14.38Z"/><path d="M14.64,14.38a3.92,3.92,0,0,0-2.46,2.72,3.56,3.56,0,0,0,4.09,4.09,3.78,3.78,0,0,0,2.79-2.79A3.55,3.55,0,0,0,14.64,14.38Z"/><path d="M29.22,14.38a3.92,3.92,0,0,0-2.46,2.72,3.56,3.56,0,0,0,4.09,4.09,3.78,3.78,0,0,0,2.79-2.79A3.55,3.55,0,0,0,29.22,14.38Z"/><path d="M43.81,14.38a3.92,3.92,0,0,0-2.46,2.72,3.56,3.56,0,0,0,4.09,4.09,3.78,3.78,0,0,0,2.79-2.79A3.55,3.55,0,0,0,43.81,14.38Z"/><path d="M58.4,14.38a3.92,3.92,0,0,0-2.46,2.72A3.56,3.56,0,0,0,60,21.2a3.78,3.78,0,0,0,2.79-2.79A3.55,3.55,0,0,0,58.4,14.38Z"/><path d="M73,14.38a3.92,3.92,0,0,0-2.46,2.72,3.56,3.56,0,0,0,4.09,4.09,3.78,3.78,0,0,0,2.79-2.79A3.55,3.55,0,0,0,73,14.38Z"/><path d="M87.57,14.38a3.92,3.92,0,0,0-2.46,2.72A3.56,3.56,0,0,0,89.2,21.2,3.78,3.78,0,0,0,92,18.41,3.55,3.55,0,0,0,87.57,14.38Z"/><path d="M102.16,14.38a3.92,3.92,0,0,0-2.46,2.72,3.56,3.56,0,0,0,4.09,4.09,3.78,3.78,0,0,0,2.79-2.79A3.55,3.55,0,0,0,102.16,14.38Z"/><path d="M116.75,14.38a3.92,3.92,0,0,0-2.46,2.72,3.56,3.56,0,0,0,4.09,4.09,3.78,3.78,0,0,0,2.79-2.79A3.55,3.55,0,0,0,116.75,14.38Z"/><path d="M.05,29a3.92,3.92,0,0,0-2.46,2.72,3.56,3.56,0,0,0,4.09,4.09A3.78,3.78,0,0,0,4.47,33,3.55,3.55,0,0,0,.05,29Z"/><path d="M14.64,29a3.92,3.92,0,0,0-2.46,2.72,3.56,3.56,0,0,0,4.09,4.09A3.78,3.78,0,0,0,19.06,33,3.55,3.55,0,0,0,14.64,29Z"/><path d="M29.22,29a3.92,3.92,0,0,0-2.46,2.72,3.56,3.56,0,0,0,4.09,4.09A3.78,3.78,0,0,0,33.65,33,3.55,3.55,0,0,0,29.22,29Z"/><path d="M43.81,29a3.92,3.92,0,0,0-2.46,2.72,3.56,3.56,0,0,0,4.09,4.09A3.78,3.78,0,0,0,48.23,33,3.55,3.55,0,0,0,43.81,29Z"/><path d="M58.4,29a3.92,3.92,0,0,0-2.46,2.72A3.56,3.56,0,0,0,60,35.78,3.78,3.78,0,0,0,62.82,33,3.55,3.55,0,0,0,58.4,29Z"/><path d="M73,29a3.92,3.92,0,0,0-2.46,2.72,3.56,3.56,0,0,0,4.09,4.09A3.78,3.78,0,0,0,77.41,33,3.55,3.55,0,0,0,73,29Z"/><path d="M87.57,29a3.92,3.92,0,0,0-2.46,2.72,3.56,3.56,0,0,0,4.09,4.09A3.78,3.78,0,0,0,92,33,3.55,3.55,0,0,0,87.57,29Z"/><path d="M102.16,29a3.92,3.92,0,0,0-2.46,2.72,3.56,3.56,0,0,0,4.09,4.09A3.78,3.78,0,0,0,106.58,33,3.55,3.55,0,0,0,102.16,29Z"/><path d="M116.75,29a3.92,3.92,0,0,0-2.46,2.72,3.56,3.56,0,0,0,4.09,4.09A3.78,3.78,0,0,0,121.17,33,3.55,3.55,0,0,0,116.75,29Z"/><path d="M.05,43.56a3.92,3.92,0,0,0-2.46,2.72,3.56,3.56,0,0,0,4.09,4.09,3.78,3.78,0,0,0,2.79-2.79A3.55,3.55,0,0,0,.05,43.56Z"/><path d="M14.64,43.56a3.92,3.92,0,0,0-2.46,2.72,3.56,3.56,0,0,0,4.09,4.09,3.78,3.78,0,0,0,2.79-2.79A3.55,3.55,0,0,0,14.64,43.56Z"/><path d="M29.22,43.56a3.92,3.92,0,0,0-2.46,2.72,3.56,3.56,0,0,0,4.09,4.09,3.78,3.78,0,0,0,2.79-2.79A3.55,3.55,0,0,0,29.22,43.56Z"/><path d="M43.81,43.56a3.92,3.92,0,0,0-2.46,2.72,3.56,3.56,0,0,0,4.09,4.09,3.78,3.78,0,0,0,2.79-2.79A3.55,3.55,0,0,0,43.81,43.56Z"/><path d="M58.4,43.56a3.92,3.92,0,0,0-2.46,2.72A3.56,3.56,0,0,0,60,50.37a3.78,3.78,0,0,0,2.79-2.79A3.55,3.55,0,0,0,58.4,43.56Z"/><path d="M73,43.56a3.92,3.92,0,0,0-2.46,2.72,3.56,3.56,0,0,0,4.09,4.09,3.78,3.78,0,0,0,2.79-2.79A3.55,3.55,0,0,0,73,43.56Z"/><path d="M87.57,43.56a3.92,3.92,0,0,0-2.46,2.72,3.56,3.56,0,0,0,4.09,4.09A3.78,3.78,0,0,0,92,47.58,3.55,3.55,0,0,0,87.57,43.56Z"/><path d="M102.16,43.56a3.92,3.92,0,0,0-2.46,2.72,3.56,3.56,0,0,0,4.09,4.09,3.78,3.78,0,0,0,2.79-2.79A3.55,3.55,0,0,0,102.16,43.56Z"/><path d="M116.75,43.56a3.92,3.92,0,0,0-2.46,2.72,3.56,3.56,0,0,0,4.09,4.09,3.78,3.78,0,0,0,2.79-2.79A3.55,3.55,0,0,0,116.75,43.56Z"/><path d="M.05,58.14a3.92,3.92,0,0,0-2.46,2.72A3.56,3.56,0,0,0,1.68,65a3.78,3.78,0,0,0,2.79-2.79A3.55,3.55,0,0,0,.05,58.14Z"/><path d="M14.64,58.14a3.92,3.92,0,0,0-2.46,2.72A3.56,3.56,0,0,0,16.27,65a3.78,3.78,0,0,0,2.79-2.79A3.55,3.55,0,0,0,14.64,58.14Z"/><path d="M29.22,58.14a3.92,3.92,0,0,0-2.46,2.72A3.56,3.56,0,0,0,30.85,65a3.78,3.78,0,0,0,2.79-2.79A3.55,3.55,0,0,0,29.22,58.14Z"/><path d="M43.81,58.14a3.92,3.92,0,0,0-2.46,2.72A3.56,3.56,0,0,0,45.44,65a3.78,3.78,0,0,0,2.79-2.79A3.55,3.55,0,0,0,43.81,58.14Z"/><path d="M58.4,58.14a3.92,3.92,0,0,0-2.46,2.72A3.56,3.56,0,0,0,60,65a3.78,3.78,0,0,0,2.79-2.79A3.55,3.55,0,0,0,58.4,58.14Z"/><path d="M73,58.14a3.92,3.92,0,0,0-2.46,2.72A3.56,3.56,0,0,0,74.62,65a3.78,3.78,0,0,0,2.79-2.79A3.55,3.55,0,0,0,73,58.14Z"/><path d="M87.57,58.14a3.92,3.92,0,0,0-2.46,2.72A3.56,3.56,0,0,0,89.2,65,3.78,3.78,0,0,0,92,62.17,3.55,3.55,0,0,0,87.57,58.14Z"/><path d="M102.16,58.14a3.92,3.92,0,0,0-2.46,2.72A3.56,3.56,0,0,0,103.79,65a3.78,3.78,0,0,0,2.79-2.79A3.55,3.55,0,0,0,102.16,58.14Z"/><path d="M116.75,58.14a3.92,3.92,0,0,0-2.46,2.72A3.56,3.56,0,0,0,118.38,65a3.78,3.78,0,0,0,2.79-2.79A3.55,3.55,0,0,0,116.75,58.14Z"/><path d="M.05,72.73a3.92,3.92,0,0,0-2.46,2.72,3.56,3.56,0,0,0,4.09,4.09,3.78,3.78,0,0,0,2.79-2.79A3.55,3.55,0,0,0,.05,72.73Z"/><path d="M14.64,72.73a3.92,3.92,0,0,0-2.46,2.72,3.56,3.56,0,0,0,4.09,4.09,3.78,3.78,0,0,0,2.79-2.79A3.55,3.55,0,0,0,14.64,72.73Z"/><path d="M29.22,72.73a3.92,3.92,0,0,0-2.46,2.72,3.56,3.56,0,0,0,4.09,4.09,3.78,3.78,0,0,0,2.79-2.79A3.55,3.55,0,0,0,29.22,72.73Z"/><path d="M43.81,72.73a3.92,3.92,0,0,0-2.46,2.72,3.56,3.56,0,0,0,4.09,4.09,3.78,3.78,0,0,0,2.79-2.79A3.55,3.55,0,0,0,43.81,72.73Z"/><path d="M58.4,72.73a3.92,3.92,0,0,0-2.46,2.72A3.56,3.56,0,0,0,60,79.55a3.78,3.78,0,0,0,2.79-2.79A3.55,3.55,0,0,0,58.4,72.73Z"/><path d="M73,72.73a3.92,3.92,0,0,0-2.46,2.72,3.56,3.56,0,0,0,4.09,4.09,3.78,3.78,0,0,0,2.79-2.79A3.55,3.55,0,0,0,73,72.73Z"/><path d="M87.57,72.73a3.92,3.92,0,0,0-2.46,2.72,3.56,3.56,0,0,0,4.09,4.09A3.78,3.78,0,0,0,92,76.75,3.55,3.55,0,0,0,87.57,72.73Z"/><path d="M102.16,72.73a3.92,3.92,0,0,0-2.46,2.72,3.56,3.56,0,0,0,4.09,4.09,3.78,3.78,0,0,0,2.79-2.79A3.55,3.55,0,0,0,102.16,72.73Z"/><path d="M116.75,72.73a3.92,3.92,0,0,0-2.46,2.72,3.56,3.56,0,0,0,4.09,4.09,3.78,3.78,0,0,0,2.79-2.79A3.55,3.55,0,0,0,116.75,72.73Z"/><path d="M.05,87.32A3.92,3.92,0,0,0-2.41,90a3.56,3.56,0,0,0,4.09,4.09,3.78,3.78,0,0,0,2.79-2.79A3.55,3.55,0,0,0,.05,87.32Z"/><path d="M14.64,87.32A3.92,3.92,0,0,0,12.18,90a3.56,3.56,0,0,0,4.09,4.09,3.78,3.78,0,0,0,2.79-2.79A3.55,3.55,0,0,0,14.64,87.32Z"/><path d="M29.22,87.32A3.92,3.92,0,0,0,26.76,90a3.56,3.56,0,0,0,4.09,4.09,3.78,3.78,0,0,0,2.79-2.79A3.55,3.55,0,0,0,29.22,87.32Z"/><path d="M43.81,87.32A3.92,3.92,0,0,0,41.35,90a3.56,3.56,0,0,0,4.09,4.09,3.78,3.78,0,0,0,2.79-2.79A3.55,3.55,0,0,0,43.81,87.32Z"/><path d="M58.4,87.32A3.92,3.92,0,0,0,55.94,90,3.56,3.56,0,0,0,60,94.13a3.78,3.78,0,0,0,2.79-2.79A3.55,3.55,0,0,0,58.4,87.32Z"/><path d="M73,87.32A3.92,3.92,0,0,0,70.52,90a3.56,3.56,0,0,0,4.09,4.09,3.78,3.78,0,0,0,2.79-2.79A3.55,3.55,0,0,0,73,87.32Z"/><path d="M87.57,87.32A3.92,3.92,0,0,0,85.11,90a3.56,3.56,0,0,0,4.09,4.09A3.78,3.78,0,0,0,92,91.34,3.55,3.55,0,0,0,87.57,87.32Z"/><path d="M102.16,87.32A3.92,3.92,0,0,0,99.7,90a3.56,3.56,0,0,0,4.09,4.09,3.78,3.78,0,0,0,2.79-2.79A3.55,3.55,0,0,0,102.16,87.32Z"/><path d="M116.75,87.32A3.92,3.92,0,0,0,114.29,90a3.56,3.56,0,0,0,4.09,4.09,3.78,3.78,0,0,0,2.79-2.79A3.55,3.55,0,0,0,116.75,87.32Z"/><path d="M.05,101.91a3.92,3.92,0,0,0-2.46,2.72,3.56,3.56,0,0,0,4.09,4.09,3.78,3.78,0,0,0,2.79-2.79A3.55,3.55,0,0,0,.05,101.91Z"/><path d="M14.64,101.91a3.92,3.92,0,0,0-2.46,2.72,3.56,3.56,0,0,0,4.09,4.09,3.78,3.78,0,0,0,2.79-2.79A3.55,3.55,0,0,0,14.64,101.91Z"/><path d="M29.22,101.91a3.92,3.92,0,0,0-2.46,2.72,3.56,3.56,0,0,0,4.09,4.09,3.78,3.78,0,0,0,2.79-2.79A3.55,3.55,0,0,0,29.22,101.91Z"/><path d="M43.81,101.91a3.92,3.92,0,0,0-2.46,2.72,3.56,3.56,0,0,0,4.09,4.09,3.78,3.78,0,0,0,2.79-2.79A3.55,3.55,0,0,0,43.81,101.91Z"/><path d="M58.4,101.91a3.92,3.92,0,0,0-2.46,2.72A3.56,3.56,0,0,0,60,108.72a3.78,3.78,0,0,0,2.79-2.79A3.55,3.55,0,0,0,58.4,101.91Z"/><path d="M73,101.91a3.92,3.92,0,0,0-2.46,2.72,3.56,3.56,0,0,0,4.09,4.09,3.78,3.78,0,0,0,2.79-2.79A3.55,3.55,0,0,0,73,101.91Z"/><path d="M87.57,101.91a3.92,3.92,0,0,0-2.46,2.72,3.56,3.56,0,0,0,4.09,4.09A3.78,3.78,0,0,0,92,105.93,3.55,3.55,0,0,0,87.57,101.91Z"/><path d="M102.16,101.91a3.92,3.92,0,0,0-2.46,2.72,3.56,3.56,0,0,0,4.09,4.09,3.78,3.78,0,0,0,2.79-2.79A3.55,3.55,0,0,0,102.16,101.91Z"/><path d="M116.75,101.91a3.92,3.92,0,0,0-2.46,2.72,3.56,3.56,0,0,0,4.09,4.09,3.78,3.78,0,0,0,2.79-2.79A3.55,3.55,0,0,0,116.75,101.91Z"/><path d="M.05,116.49a3.92,3.92,0,0,0-2.46,2.72,3.56,3.56,0,0,0,4.09,4.09,3.78,3.78,0,0,0,2.79-2.79A3.55,3.55,0,0,0,.05,116.49Z"/><path d="M14.64,116.49a3.92,3.92,0,0,0-2.46,2.72,3.56,3.56,0,0,0,4.09,4.09,3.78,3.78,0,0,0,2.79-2.79A3.55,3.55,0,0,0,14.64,116.49Z"/><path d="M29.22,116.49a3.92,3.92,0,0,0-2.46,2.72,3.56,3.56,0,0,0,4.09,4.09,3.78,3.78,0,0,0,2.79-2.79A3.55,3.55,0,0,0,29.22,116.49Z"/><path d="M43.81,116.49a3.92,3.92,0,0,0-2.46,2.72,3.56,3.56,0,0,0,4.09,4.09,3.78,3.78,0,0,0,2.79-2.79A3.55,3.55,0,0,0,43.81,116.49Z"/><path d="M58.4,116.49a3.92,3.92,0,0,0-2.46,2.72A3.56,3.56,0,0,0,60,123.31a3.78,3.78,0,0,0,2.79-2.79A3.55,3.55,0,0,0,58.4,116.49Z"/><path d="M73,116.49a3.92,3.92,0,0,0-2.46,2.72,3.56,3.56,0,0,0,4.09,4.09,3.78,3.78,0,0,0,2.79-2.79A3.55,3.55,0,0,0,73,116.49Z"/><path d="M87.57,116.49a3.92,3.92,0,0,0-2.46,2.72,3.56,3.56,0,0,0,4.09,4.09A3.78,3.78,0,0,0,92,120.52,3.55,3.55,0,0,0,87.57,116.49Z"/><path d="M102.16,116.49a3.92,3.92,0,0,0-2.46,2.72,3.56,3.56,0,0,0,4.09,4.09,3.78,3.78,0,0,0,2.79-2.79A3.55,3.55,0,0,0,102.16,116.49Z"/><path d="M116.75,116.49a3.92,3.92,0,0,0-2.46,2.72,3.56,3.56,0,0,0,4.09,4.09,3.78,3.78,0,0,0,2.79-2.79A3.55,3.55,0,0,0,116.75,116.49Z"/><path d="M.91,129.82a3.92,3.92,0,0,0-2.46,2.72,3.56,3.56,0,0,0,4.09,4.09,3.78,3.78,0,0,0,2.79-2.79A3.55,3.55,0,0,0,.91,129.82Z"/><path d="M15.5,129.82A3.92,3.92,0,0,0,13,132.55a3.56,3.56,0,0,0,4.09,4.09,3.78,3.78,0,0,0,2.79-2.79A3.55,3.55,0,0,0,15.5,129.82Z"/><path d="M30.09,129.82a3.92,3.92,0,0,0-2.46,2.72,3.56,3.56,0,0,0,4.09,4.09,3.78,3.78,0,0,0,2.79-2.79A3.55,3.55,0,0,0,30.09,129.82Z"/><path d="M44.67,129.82a3.92,3.92,0,0,0-2.46,2.72A3.6,3.6,0,0,0,45,136.64a3.56,3.56,0,0,0,4.09-4.09A3.6,3.6,0,0,0,44.67,129.82Z"/><path d="M59.26,129.82a3.92,3.92,0,0,0-2.46,2.72,3.6,3.6,0,0,0,2.79,4.09,3.56,3.56,0,0,0,4.09-4.09A3.6,3.6,0,0,0,59.26,129.82Z"/><path d="M73.85,129.82a3.92,3.92,0,0,0-2.46,2.72,3.6,3.6,0,0,0,2.79,4.09,3.56,3.56,0,0,0,4.09-4.09A3.6,3.6,0,0,0,73.85,129.82Z"/><path d="M88.43,129.82A3.92,3.92,0,0,0,86,132.55a3.6,3.6,0,0,0,2.79,4.09,3.56,3.56,0,0,0,4.09-4.09A3.6,3.6,0,0,0,88.43,129.82Z"/><path d="M103,129.82a3.92,3.92,0,0,0-2.46,2.72,3.56,3.56,0,0,0,4.09,4.09,3.78,3.78,0,0,0,2.79-2.79A3.55,3.55,0,0,0,103,129.82Z"/><path d="M117.61,129.82a3.92,3.92,0,0,0-2.46,2.72,3.56,3.56,0,0,0,4.09,4.09,3.78,3.78,0,0,0,2.79-2.79A3.55,3.55,0,0,0,117.61,129.82Z"/><path d="M.91,144.41a3.92,3.92,0,0,0-2.46,2.72,3.56,3.56,0,0,0,4.09,4.09,3.78,3.78,0,0,0,2.79-2.79A3.55,3.55,0,0,0,.91,144.41Z"/><path d="M15.5,144.41A3.92,3.92,0,0,0,13,147.13a3.56,3.56,0,0,0,4.09,4.09,3.78,3.78,0,0,0,2.79-2.79A3.55,3.55,0,0,0,15.5,144.41Z"/><path d="M30.09,144.41a3.92,3.92,0,0,0-2.46,2.72,3.56,3.56,0,0,0,4.09,4.09,3.78,3.78,0,0,0,2.79-2.79A3.55,3.55,0,0,0,30.09,144.41Z"/><path d="M44.67,144.41a3.92,3.92,0,0,0-2.46,2.72A3.6,3.6,0,0,0,45,151.22a3.56,3.56,0,0,0,4.09-4.09A3.6,3.6,0,0,0,44.67,144.41Z"/><path d="M59.26,144.41a3.92,3.92,0,0,0-2.46,2.72,3.56,3.56,0,0,0,4.09,4.09,3.51,3.51,0,1,0-1.63-6.81Z"/><path d="M73.85,144.41a3.92,3.92,0,0,0-2.46,2.72,3.56,3.56,0,0,0,4.09,4.09,3.51,3.51,0,1,0-1.63-6.81Z"/><path d="M88.43,144.41A3.92,3.92,0,0,0,86,147.13a3.56,3.56,0,0,0,4.09,4.09,3.51,3.51,0,1,0-1.63-6.81Z"/><path d="M103,144.41a3.92,3.92,0,0,0-2.46,2.72,3.56,3.56,0,0,0,4.09,4.09,3.78,3.78,0,0,0,2.79-2.79A3.55,3.55,0,0,0,103,144.41Z"/><path d="M117.61,144.41a3.92,3.92,0,0,0-2.46,2.72,3.56,3.56,0,0,0,4.09,4.09,3.78,3.78,0,0,0,2.79-2.79A3.55,3.55,0,0,0,117.61,144.41Z"/><path d="M.91,159a3.92,3.92,0,0,0-2.46,2.72,3.56,3.56,0,0,0,4.09,4.09A3.78,3.78,0,0,0,5.33,163,3.55,3.55,0,0,0,.91,159Z"/><path d="M15.5,159A3.92,3.92,0,0,0,13,161.72a3.56,3.56,0,0,0,4.09,4.09A3.78,3.78,0,0,0,19.92,163,3.55,3.55,0,0,0,15.5,159Z"/><path d="M30.09,159a3.92,3.92,0,0,0-2.46,2.72,3.56,3.56,0,0,0,4.09,4.09A3.78,3.78,0,0,0,34.51,163,3.55,3.55,0,0,0,30.09,159Z"/><path d="M44.67,159a3.92,3.92,0,0,0-2.46,2.72,3.56,3.56,0,0,0,4.09,4.09A3.78,3.78,0,0,0,49.09,163,3.55,3.55,0,0,0,44.67,159Z"/><path d="M59.26,159a3.92,3.92,0,0,0-2.46,2.72,3.56,3.56,0,0,0,4.09,4.09A3.78,3.78,0,0,0,63.68,163,3.55,3.55,0,0,0,59.26,159Z"/><path d="M73.85,159a3.92,3.92,0,0,0-2.46,2.72,3.56,3.56,0,0,0,4.09,4.09A3.78,3.78,0,0,0,78.27,163,3.55,3.55,0,0,0,73.85,159Z"/><path d="M88.43,159A3.92,3.92,0,0,0,86,161.72a3.56,3.56,0,0,0,4.09,4.09A3.78,3.78,0,0,0,92.86,163,3.55,3.55,0,0,0,88.43,159Z"/><path d="M103,159a3.92,3.92,0,0,0-2.46,2.72,3.56,3.56,0,0,0,4.09,4.09,3.78,3.78,0,0,0,2.79-2.79A3.55,3.55,0,0,0,103,159Z"/><path d="M117.61,159a3.92,3.92,0,0,0-2.46,2.72,3.56,3.56,0,0,0,4.09,4.09A3.78,3.78,0,0,0,122,163,3.55,3.55,0,0,0,117.61,159Z"/><path d="M.91,173.58a3.92,3.92,0,0,0-2.46,2.72,3.56,3.56,0,0,0,4.09,4.09,3.78,3.78,0,0,0,2.79-2.79A3.55,3.55,0,0,0,.91,173.58Z"/><path d="M15.5,173.58A3.92,3.92,0,0,0,13,176.31a3.56,3.56,0,0,0,4.09,4.09,3.78,3.78,0,0,0,2.79-2.79A3.55,3.55,0,0,0,15.5,173.58Z"/><path d="M30.09,173.58a3.92,3.92,0,0,0-2.46,2.72,3.56,3.56,0,0,0,4.09,4.09,3.78,3.78,0,0,0,2.79-2.79A3.55,3.55,0,0,0,30.09,173.58Z"/><path d="M44.67,173.58a3.92,3.92,0,0,0-2.46,2.72,3.56,3.56,0,0,0,4.09,4.09,3.78,3.78,0,0,0,2.79-2.79A3.55,3.55,0,0,0,44.67,173.58Z"/><path d="M59.26,173.58a3.92,3.92,0,0,0-2.46,2.72,3.56,3.56,0,0,0,4.09,4.09,3.78,3.78,0,0,0,2.79-2.79A3.55,3.55,0,0,0,59.26,173.58Z"/><path d="M73.85,173.58a3.92,3.92,0,0,0-2.46,2.72,3.56,3.56,0,0,0,4.09,4.09,3.78,3.78,0,0,0,2.79-2.79A3.55,3.55,0,0,0,73.85,173.58Z"/><path d="M88.43,173.58A3.92,3.92,0,0,0,86,176.31a3.56,3.56,0,0,0,4.09,4.09,3.78,3.78,0,0,0,2.79-2.79A3.55,3.55,0,0,0,88.43,173.58Z"/><path d="M103,173.58a3.92,3.92,0,0,0-2.46,2.72,3.56,3.56,0,0,0,4.09,4.09,3.78,3.78,0,0,0,2.79-2.79A3.55,3.55,0,0,0,103,173.58Z"/><path d="M117.61,173.58a3.92,3.92,0,0,0-2.46,2.72,3.56,3.56,0,0,0,4.09,4.09,3.78,3.78,0,0,0,2.79-2.79A3.55,3.55,0,0,0,117.61,173.58Z"/><path d="M.91,188.17a3.92,3.92,0,0,0-2.46,2.72A3.56,3.56,0,0,0,2.54,195a3.78,3.78,0,0,0,2.79-2.79A3.55,3.55,0,0,0,.91,188.17Z"/><path d="M15.5,188.17A3.92,3.92,0,0,0,13,190.89,3.56,3.56,0,0,0,17.13,195a3.78,3.78,0,0,0,2.79-2.79A3.55,3.55,0,0,0,15.5,188.17Z"/><path d="M30.09,188.17a3.92,3.92,0,0,0-2.46,2.72A3.56,3.56,0,0,0,31.71,195a3.78,3.78,0,0,0,2.79-2.79A3.55,3.55,0,0,0,30.09,188.17Z"/><path d="M44.67,188.17a3.92,3.92,0,0,0-2.46,2.72A3.56,3.56,0,0,0,46.3,195a3.78,3.78,0,0,0,2.79-2.79A3.55,3.55,0,0,0,44.67,188.17Z"/><path d="M59.26,188.17a3.92,3.92,0,0,0-2.46,2.72A3.56,3.56,0,0,0,60.89,195a3.78,3.78,0,0,0,2.79-2.79A3.55,3.55,0,0,0,59.26,188.17Z"/><path d="M73.85,188.17a3.92,3.92,0,0,0-2.46,2.72A3.56,3.56,0,0,0,75.48,195a3.78,3.78,0,0,0,2.79-2.79A3.55,3.55,0,0,0,73.85,188.17Z"/><path d="M88.43,188.17A3.92,3.92,0,0,0,86,190.89,3.56,3.56,0,0,0,90.06,195a3.78,3.78,0,0,0,2.79-2.79A3.55,3.55,0,0,0,88.43,188.17Z"/><path d="M103,188.17a3.92,3.92,0,0,0-2.46,2.72,3.56,3.56,0,0,0,4.09,4.09,3.78,3.78,0,0,0,2.79-2.79A3.55,3.55,0,0,0,103,188.17Z"/><path d="M117.61,188.17a3.92,3.92,0,0,0-2.46,2.72,3.56,3.56,0,0,0,4.09,4.09,3.78,3.78,0,0,0,2.79-2.79A3.55,3.55,0,0,0,117.61,188.17Z"/><path d="M.91,202.76a3.92,3.92,0,0,0-2.46,2.72,3.56,3.56,0,0,0,4.09,4.09,3.78,3.78,0,0,0,2.79-2.79A3.55,3.55,0,0,0,.91,202.76Z"/><path d="M15.5,202.76A3.92,3.92,0,0,0,13,205.48a3.56,3.56,0,0,0,4.09,4.09,3.78,3.78,0,0,0,2.79-2.79A3.55,3.55,0,0,0,15.5,202.76Z"/><path d="M30.09,202.76a3.92,3.92,0,0,0-2.46,2.72,3.56,3.56,0,0,0,4.09,4.09,3.78,3.78,0,0,0,2.79-2.79A3.55,3.55,0,0,0,30.09,202.76Z"/><path d="M44.67,202.76a3.92,3.92,0,0,0-2.46,2.72,3.56,3.56,0,0,0,4.09,4.09,3.78,3.78,0,0,0,2.79-2.79A3.55,3.55,0,0,0,44.67,202.76Z"/><path d="M59.26,202.76a3.92,3.92,0,0,0-2.46,2.72,3.56,3.56,0,0,0,4.09,4.09,3.78,3.78,0,0,0,2.79-2.79A3.55,3.55,0,0,0,59.26,202.76Z"/><path d="M73.85,202.76a3.92,3.92,0,0,0-2.46,2.72,3.56,3.56,0,0,0,4.09,4.09,3.78,3.78,0,0,0,2.79-2.79A3.55,3.55,0,0,0,73.85,202.76Z"/><path d="M88.43,202.76A3.92,3.92,0,0,0,86,205.48a3.56,3.56,0,0,0,4.09,4.09,3.78,3.78,0,0,0,2.79-2.79A3.55,3.55,0,0,0,88.43,202.76Z"/><path d="M103,202.76a3.92,3.92,0,0,0-2.46,2.72,3.56,3.56,0,0,0,4.09,4.09,3.78,3.78,0,0,0,2.79-2.79A3.55,3.55,0,0,0,103,202.76Z"/><path d="M117.61,202.76a3.92,3.92,0,0,0-2.46,2.72,3.56,3.56,0,0,0,4.09,4.09,3.78,3.78,0,0,0,2.79-2.79A3.55,3.55,0,0,0,117.61,202.76Z"/><path d="M.91,217.34a3.92,3.92,0,0,0-2.46,2.72,3.56,3.56,0,0,0,4.09,4.09,3.78,3.78,0,0,0,2.79-2.79A3.55,3.55,0,0,0,.91,217.34Z"/><path d="M15.5,217.34A3.92,3.92,0,0,0,13,220.07a3.56,3.56,0,0,0,4.09,4.09,3.78,3.78,0,0,0,2.79-2.79A3.55,3.55,0,0,0,15.5,217.34Z"/><path d="M30.09,217.34a3.92,3.92,0,0,0-2.46,2.72,3.56,3.56,0,0,0,4.09,4.09,3.78,3.78,0,0,0,2.79-2.79A3.55,3.55,0,0,0,30.09,217.34Z"/><path d="M44.67,217.34a3.92,3.92,0,0,0-2.46,2.72,3.56,3.56,0,0,0,4.09,4.09,3.78,3.78,0,0,0,2.79-2.79A3.55,3.55,0,0,0,44.67,217.34Z"/><path d="M59.26,217.34a3.92,3.92,0,0,0-2.46,2.72,3.56,3.56,0,0,0,4.09,4.09,3.78,3.78,0,0,0,2.79-2.79A3.55,3.55,0,0,0,59.26,217.34Z"/><path d="M73.85,217.34a3.92,3.92,0,0,0-2.46,2.72,3.56,3.56,0,0,0,4.09,4.09,3.78,3.78,0,0,0,2.79-2.79A3.55,3.55,0,0,0,73.85,217.34Z"/><path d="M88.43,217.34A3.92,3.92,0,0,0,86,220.07a3.56,3.56,0,0,0,4.09,4.09,3.78,3.78,0,0,0,2.79-2.79A3.55,3.55,0,0,0,88.43,217.34Z"/><path d="M103,217.34a3.92,3.92,0,0,0-2.46,2.72,3.56,3.56,0,0,0,4.09,4.09,3.78,3.78,0,0,0,2.79-2.79A3.55,3.55,0,0,0,103,217.34Z"/><path d="M117.61,217.34a3.92,3.92,0,0,0-2.46,2.72,3.56,3.56,0,0,0,4.09,4.09,3.78,3.78,0,0,0,2.79-2.79A3.55,3.55,0,0,0,117.61,217.34Z"/><path d="M.91,231.93a3.92,3.92,0,0,0-2.46,2.72,3.56,3.56,0,0,0,4.09,4.09A3.78,3.78,0,0,0,5.33,236,3.55,3.55,0,0,0,.91,231.93Z"/><path d="M15.5,231.93A3.92,3.92,0,0,0,13,234.66a3.56,3.56,0,0,0,4.09,4.09A3.78,3.78,0,0,0,19.92,236,3.55,3.55,0,0,0,15.5,231.93Z"/><path d="M30.09,231.93a3.92,3.92,0,0,0-2.46,2.72,3.56,3.56,0,0,0,4.09,4.09A3.78,3.78,0,0,0,34.51,236,3.55,3.55,0,0,0,30.09,231.93Z"/><path d="M44.67,231.93a3.92,3.92,0,0,0-2.46,2.72,3.56,3.56,0,0,0,4.09,4.09A3.78,3.78,0,0,0,49.09,236,3.55,3.55,0,0,0,44.67,231.93Z"/><path d="M59.26,231.93a3.92,3.92,0,0,0-2.46,2.72,3.56,3.56,0,0,0,4.09,4.09A3.78,3.78,0,0,0,63.68,236,3.55,3.55,0,0,0,59.26,231.93Z"/><path d="M73.85,231.93a3.92,3.92,0,0,0-2.46,2.72,3.56,3.56,0,0,0,4.09,4.09A3.78,3.78,0,0,0,78.27,236,3.55,3.55,0,0,0,73.85,231.93Z"/><path d="M88.43,231.93A3.92,3.92,0,0,0,86,234.66a3.56,3.56,0,0,0,4.09,4.09A3.78,3.78,0,0,0,92.86,236,3.55,3.55,0,0,0,88.43,231.93Z"/><path d="M103,231.93a3.92,3.92,0,0,0-2.46,2.72,3.56,3.56,0,0,0,4.09,4.09,3.78,3.78,0,0,0,2.79-2.79A3.55,3.55,0,0,0,103,231.93Z"/><path d="M117.61,231.93a3.92,3.92,0,0,0-2.46,2.72,3.56,3.56,0,0,0,4.09,4.09A3.78,3.78,0,0,0,122,236,3.55,3.55,0,0,0,117.61,231.93Z"/><path d="M.91,246.52a3.92,3.92,0,0,0-2.46,2.72,3.56,3.56,0,0,0,4.09,4.09,3.78,3.78,0,0,0,2.79-2.79A3.55,3.55,0,0,0,.91,246.52Z"/><path d="M15.5,246.52A3.92,3.92,0,0,0,13,249.24a3.56,3.56,0,0,0,4.09,4.09,3.78,3.78,0,0,0,2.79-2.79A3.55,3.55,0,0,0,15.5,246.52Z"/><path d="M30.09,246.52a3.92,3.92,0,0,0-2.46,2.72,3.56,3.56,0,0,0,4.09,4.09,3.78,3.78,0,0,0,2.79-2.79A3.55,3.55,0,0,0,30.09,246.52Z"/><path d="M44.67,246.52a3.92,3.92,0,0,0-2.46,2.72,3.56,3.56,0,0,0,4.09,4.09,3.78,3.78,0,0,0,2.79-2.79A3.55,3.55,0,0,0,44.67,246.52Z"/><path d="M59.26,246.52a3.92,3.92,0,0,0-2.46,2.72,3.56,3.56,0,0,0,4.09,4.09,3.78,3.78,0,0,0,2.79-2.79A3.55,3.55,0,0,0,59.26,246.52Z"/><path d="M73.85,246.52a3.92,3.92,0,0,0-2.46,2.72,3.56,3.56,0,0,0,4.09,4.09,3.78,3.78,0,0,0,2.79-2.79A3.55,3.55,0,0,0,73.85,246.52Z"/><path d="M88.43,246.52A3.92,3.92,0,0,0,86,249.24a3.56,3.56,0,0,0,4.09,4.09,3.78,3.78,0,0,0,2.79-2.79A3.55,3.55,0,0,0,88.43,246.52Z"/><path d="M103,246.52a3.92,3.92,0,0,0-2.46,2.72,3.56,3.56,0,0,0,4.09,4.09,3.78,3.78,0,0,0,2.79-2.79A3.55,3.55,0,0,0,103,246.52Z"/><path d="M117.61,246.52a3.92,3.92,0,0,0-2.46,2.72,3.56,3.56,0,0,0,4.09,4.09,3.78,3.78,0,0,0,2.79-2.79A3.55,3.55,0,0,0,117.61,246.52Z"/><path d="M129.22-1.07a3.92,3.92,0,0,0-2.46,2.72,3.56,3.56,0,0,0,4.09,4.09A3.78,3.78,0,0,0,133.64,3,3.55,3.55,0,0,0,129.22-1.07Z"/><path d="M143.8-1.07a3.92,3.92,0,0,0-2.46,2.72,3.56,3.56,0,0,0,4.09,4.09A3.78,3.78,0,0,0,148.22,3,3.55,3.55,0,0,0,143.8-1.07Z"/><path d="M158.39-1.07a3.92,3.92,0,0,0-2.46,2.72A3.56,3.56,0,0,0,160,5.75,3.78,3.78,0,0,0,162.81,3,3.55,3.55,0,0,0,158.39-1.07Z"/><path d="M173-1.07a3.92,3.92,0,0,0-2.46,2.72,3.56,3.56,0,0,0,4.09,4.09A3.78,3.78,0,0,0,177.4,3,3.55,3.55,0,0,0,173-1.07Z"/><path d="M187.56-1.07a3.92,3.92,0,0,0-2.46,2.72,3.6,3.6,0,0,0,2.79,4.09A3.56,3.56,0,0,0,192,1.66,3.6,3.6,0,0,0,187.56-1.07Z"/><path d="M202.15-1.07a3.92,3.92,0,0,0-2.46,2.72,3.56,3.56,0,0,0,4.09,4.09,3.6,3.6,0,0,0,2.79-4.09A3.6,3.6,0,0,0,202.15-1.07Z"/><path d="M216.74-1.07a3.92,3.92,0,0,0-2.46,2.72,3.56,3.56,0,0,0,4.09,4.09,3.6,3.6,0,0,0,2.79-4.09A3.6,3.6,0,0,0,216.74-1.07Z"/><path d="M231.33-1.07a3.92,3.92,0,0,0-2.46,2.72A3.56,3.56,0,0,0,233,5.75a3.6,3.6,0,0,0,2.79-4.09A3.6,3.6,0,0,0,231.33-1.07Z"/><path d="M245.91-1.07a3.92,3.92,0,0,0-2.46,2.72,3.56,3.56,0,0,0,4.09,4.09A3.78,3.78,0,0,0,250.33,3,3.55,3.55,0,0,0,245.91-1.07Z"/><path d="M260.5-1.07A3.92,3.92,0,0,0,258,1.66a3.56,3.56,0,0,0,4.09,4.09A3.78,3.78,0,0,0,264.92,3,3.55,3.55,0,0,0,260.5-1.07Z"/><path d="M129.22,13.52a3.92,3.92,0,0,0-2.46,2.72,3.56,3.56,0,0,0,4.09,4.09,3.78,3.78,0,0,0,2.79-2.79A3.55,3.55,0,0,0,129.22,13.52Z"/><path d="M143.8,13.52a3.92,3.92,0,0,0-2.46,2.72,3.56,3.56,0,0,0,4.09,4.09,3.78,3.78,0,0,0,2.79-2.79A3.55,3.55,0,0,0,143.8,13.52Z"/><path d="M158.39,13.52a3.92,3.92,0,0,0-2.46,2.72A3.56,3.56,0,0,0,160,20.34a3.78,3.78,0,0,0,2.79-2.79A3.55,3.55,0,0,0,158.39,13.52Z"/><path d="M173,13.52a3.92,3.92,0,0,0-2.46,2.72,3.56,3.56,0,0,0,4.09,4.09,3.78,3.78,0,0,0,2.79-2.79A3.55,3.55,0,0,0,173,13.52Z"/><path d="M187.56,13.52a3.92,3.92,0,0,0-2.46,2.72,3.56,3.56,0,0,0,4.09,4.09A3.78,3.78,0,0,0,192,17.54,3.55,3.55,0,0,0,187.56,13.52Z"/><path d="M202.15,13.52a3.92,3.92,0,0,0-2.46,2.72,3.56,3.56,0,0,0,4.09,4.09,3.78,3.78,0,0,0,2.79-2.79A3.55,3.55,0,0,0,202.15,13.52Z"/><path d="M216.74,13.52a3.92,3.92,0,0,0-2.46,2.72,3.56,3.56,0,0,0,4.09,4.09,3.78,3.78,0,0,0,2.79-2.79A3.55,3.55,0,0,0,216.74,13.52Z"/><path d="M231.33,13.52a3.92,3.92,0,0,0-2.46,2.72A3.56,3.56,0,0,0,233,20.34a3.78,3.78,0,0,0,2.79-2.79A3.55,3.55,0,0,0,231.33,13.52Z"/><path d="M245.91,13.52a3.92,3.92,0,0,0-2.46,2.72,3.56,3.56,0,0,0,4.09,4.09,3.78,3.78,0,0,0,2.79-2.79A3.55,3.55,0,0,0,245.91,13.52Z"/><path d="M260.5,13.52A3.92,3.92,0,0,0,258,16.25a3.56,3.56,0,0,0,4.09,4.09,3.78,3.78,0,0,0,2.79-2.79A3.55,3.55,0,0,0,260.5,13.52Z"/><path d="M129.22,28.11a3.92,3.92,0,0,0-2.46,2.72,3.56,3.56,0,0,0,4.09,4.09,3.78,3.78,0,0,0,2.79-2.79A3.55,3.55,0,0,0,129.22,28.11Z"/><path d="M143.8,28.11a3.92,3.92,0,0,0-2.46,2.72,3.56,3.56,0,0,0,4.09,4.09,3.78,3.78,0,0,0,2.79-2.79A3.55,3.55,0,0,0,143.8,28.11Z"/><path d="M158.39,28.11a3.92,3.92,0,0,0-2.46,2.72A3.56,3.56,0,0,0,160,34.92a3.78,3.78,0,0,0,2.79-2.79A3.55,3.55,0,0,0,158.39,28.11Z"/><path d="M173,28.11a3.92,3.92,0,0,0-2.46,2.72,3.56,3.56,0,0,0,4.09,4.09,3.78,3.78,0,0,0,2.79-2.79A3.55,3.55,0,0,0,173,28.11Z"/><path d="M187.56,28.11a3.92,3.92,0,0,0-2.46,2.72,3.56,3.56,0,0,0,4.09,4.09A3.78,3.78,0,0,0,192,32.13,3.55,3.55,0,0,0,187.56,28.11Z"/><path d="M202.15,28.11a3.92,3.92,0,0,0-2.46,2.72,3.56,3.56,0,0,0,4.09,4.09,3.78,3.78,0,0,0,2.79-2.79A3.55,3.55,0,0,0,202.15,28.11Z"/><path d="M216.74,28.11a3.92,3.92,0,0,0-2.46,2.72,3.56,3.56,0,0,0,4.09,4.09,3.78,3.78,0,0,0,2.79-2.79A3.55,3.55,0,0,0,216.74,28.11Z"/><path d="M231.33,28.11a3.92,3.92,0,0,0-2.46,2.72A3.56,3.56,0,0,0,233,34.92a3.78,3.78,0,0,0,2.79-2.79A3.55,3.55,0,0,0,231.33,28.11Z"/><path d="M245.91,28.11a3.92,3.92,0,0,0-2.46,2.72,3.56,3.56,0,0,0,4.09,4.09,3.78,3.78,0,0,0,2.79-2.79A3.55,3.55,0,0,0,245.91,28.11Z"/><path d="M260.5,28.11A3.92,3.92,0,0,0,258,30.83a3.56,3.56,0,0,0,4.09,4.09,3.78,3.78,0,0,0,2.79-2.79A3.55,3.55,0,0,0,260.5,28.11Z"/><path d="M129.22,42.7a3.92,3.92,0,0,0-2.46,2.72,3.56,3.56,0,0,0,4.09,4.09,3.78,3.78,0,0,0,2.79-2.79A3.55,3.55,0,0,0,129.22,42.7Z"/><path d="M143.8,42.7a3.92,3.92,0,0,0-2.46,2.72,3.56,3.56,0,0,0,4.09,4.09,3.78,3.78,0,0,0,2.79-2.79A3.55,3.55,0,0,0,143.8,42.7Z"/><path d="M158.39,42.7a3.92,3.92,0,0,0-2.46,2.72A3.56,3.56,0,0,0,160,49.51a3.78,3.78,0,0,0,2.79-2.79A3.55,3.55,0,0,0,158.39,42.7Z"/><path d="M173,42.7a3.92,3.92,0,0,0-2.46,2.72,3.56,3.56,0,0,0,4.09,4.09,3.78,3.78,0,0,0,2.79-2.79A3.55,3.55,0,0,0,173,42.7Z"/><path d="M187.56,42.7a3.92,3.92,0,0,0-2.46,2.72,3.56,3.56,0,0,0,4.09,4.09A3.78,3.78,0,0,0,192,46.72,3.55,3.55,0,0,0,187.56,42.7Z"/><path d="M202.15,42.7a3.92,3.92,0,0,0-2.46,2.72,3.56,3.56,0,0,0,4.09,4.09,3.78,3.78,0,0,0,2.79-2.79A3.55,3.55,0,0,0,202.15,42.7Z"/><path d="M216.74,42.7a3.92,3.92,0,0,0-2.46,2.72,3.56,3.56,0,0,0,4.09,4.09,3.78,3.78,0,0,0,2.79-2.79A3.55,3.55,0,0,0,216.74,42.7Z"/><path d="M231.33,42.7a3.92,3.92,0,0,0-2.46,2.72A3.56,3.56,0,0,0,233,49.51a3.78,3.78,0,0,0,2.79-2.79A3.55,3.55,0,0,0,231.33,42.7Z"/><path d="M245.91,42.7a3.92,3.92,0,0,0-2.46,2.72,3.56,3.56,0,0,0,4.09,4.09,3.78,3.78,0,0,0,2.79-2.79A3.55,3.55,0,0,0,245.91,42.7Z"/><path d="M260.5,42.7A3.92,3.92,0,0,0,258,45.42a3.56,3.56,0,0,0,4.09,4.09,3.78,3.78,0,0,0,2.79-2.79A3.55,3.55,0,0,0,260.5,42.7Z"/><path d="M129.22,57.28A3.92,3.92,0,0,0,126.75,60a3.56,3.56,0,0,0,4.09,4.09,3.78,3.78,0,0,0,2.79-2.79A3.55,3.55,0,0,0,129.22,57.28Z"/><path d="M143.8,57.28A3.92,3.92,0,0,0,141.34,60a3.56,3.56,0,0,0,4.09,4.09,3.78,3.78,0,0,0,2.79-2.79A3.55,3.55,0,0,0,143.8,57.28Z"/><path d="M158.39,57.28A3.92,3.92,0,0,0,155.93,60,3.56,3.56,0,0,0,160,64.1a3.78,3.78,0,0,0,2.79-2.79A3.55,3.55,0,0,0,158.39,57.28Z"/><path d="M173,57.28A3.92,3.92,0,0,0,170.52,60a3.56,3.56,0,0,0,4.09,4.09,3.78,3.78,0,0,0,2.79-2.79A3.55,3.55,0,0,0,173,57.28Z"/><path d="M187.56,57.28A3.92,3.92,0,0,0,185.1,60a3.56,3.56,0,0,0,4.09,4.09A3.78,3.78,0,0,0,192,61.31,3.55,3.55,0,0,0,187.56,57.28Z"/><path d="M202.15,57.28A3.92,3.92,0,0,0,199.69,60a3.56,3.56,0,0,0,4.09,4.09,3.78,3.78,0,0,0,2.79-2.79A3.55,3.55,0,0,0,202.15,57.28Z"/><path d="M216.74,57.28A3.92,3.92,0,0,0,214.28,60a3.56,3.56,0,0,0,4.09,4.09,3.78,3.78,0,0,0,2.79-2.79A3.55,3.55,0,0,0,216.74,57.28Z"/><path d="M231.33,57.28A3.92,3.92,0,0,0,228.86,60,3.56,3.56,0,0,0,233,64.1a3.78,3.78,0,0,0,2.79-2.79A3.55,3.55,0,0,0,231.33,57.28Z"/><path d="M245.91,57.28A3.92,3.92,0,0,0,243.45,60a3.56,3.56,0,0,0,4.09,4.09,3.78,3.78,0,0,0,2.79-2.79A3.55,3.55,0,0,0,245.91,57.28Z"/><path d="M260.5,57.28A3.92,3.92,0,0,0,258,60a3.56,3.56,0,0,0,4.09,4.09,3.78,3.78,0,0,0,2.79-2.79A3.55,3.55,0,0,0,260.5,57.28Z"/><path d="M129.22,71.87a3.92,3.92,0,0,0-2.46,2.72,3.56,3.56,0,0,0,4.09,4.09,3.78,3.78,0,0,0,2.79-2.79A3.55,3.55,0,0,0,129.22,71.87Z"/><path d="M143.8,71.87a3.92,3.92,0,0,0-2.46,2.72,3.56,3.56,0,0,0,4.09,4.09,3.78,3.78,0,0,0,2.79-2.79A3.55,3.55,0,0,0,143.8,71.87Z"/><path d="M158.39,71.87a3.92,3.92,0,0,0-2.46,2.72A3.56,3.56,0,0,0,160,78.69a3.78,3.78,0,0,0,2.79-2.79A3.55,3.55,0,0,0,158.39,71.87Z"/><path d="M173,71.87a3.92,3.92,0,0,0-2.46,2.72,3.56,3.56,0,0,0,4.09,4.09,3.78,3.78,0,0,0,2.79-2.79A3.55,3.55,0,0,0,173,71.87Z"/><path d="M187.56,71.87a3.92,3.92,0,0,0-2.46,2.72,3.56,3.56,0,0,0,4.09,4.09A3.78,3.78,0,0,0,192,75.89,3.55,3.55,0,0,0,187.56,71.87Z"/><path d="M202.15,71.87a3.92,3.92,0,0,0-2.46,2.72,3.56,3.56,0,0,0,4.09,4.09,3.78,3.78,0,0,0,2.79-2.79A3.55,3.55,0,0,0,202.15,71.87Z"/><path d="M216.74,71.87a3.92,3.92,0,0,0-2.46,2.72,3.56,3.56,0,0,0,4.09,4.09,3.78,3.78,0,0,0,2.79-2.79A3.55,3.55,0,0,0,216.74,71.87Z"/><path d="M231.33,71.87a3.92,3.92,0,0,0-2.46,2.72A3.56,3.56,0,0,0,233,78.69a3.78,3.78,0,0,0,2.79-2.79A3.55,3.55,0,0,0,231.33,71.87Z"/><path d="M245.91,71.87a3.92,3.92,0,0,0-2.46,2.72,3.56,3.56,0,0,0,4.09,4.09,3.78,3.78,0,0,0,2.79-2.79A3.55,3.55,0,0,0,245.91,71.87Z"/><path d="M260.5,71.87A3.92,3.92,0,0,0,258,74.59a3.56,3.56,0,0,0,4.09,4.09,3.78,3.78,0,0,0,2.79-2.79A3.55,3.55,0,0,0,260.5,71.87Z"/><path d="M129.22,86.46a3.92,3.92,0,0,0-2.46,2.72,3.56,3.56,0,0,0,4.09,4.09,3.78,3.78,0,0,0,2.79-2.79A3.55,3.55,0,0,0,129.22,86.46Z"/><path d="M143.8,86.46a3.92,3.92,0,0,0-2.46,2.72,3.56,3.56,0,0,0,4.09,4.09,3.78,3.78,0,0,0,2.79-2.79A3.55,3.55,0,0,0,143.8,86.46Z"/><path d="M158.39,86.46a3.92,3.92,0,0,0-2.46,2.72A3.56,3.56,0,0,0,160,93.27a3.78,3.78,0,0,0,2.79-2.79A3.55,3.55,0,0,0,158.39,86.46Z"/><path d="M173,86.46a3.92,3.92,0,0,0-2.46,2.72,3.56,3.56,0,0,0,4.09,4.09,3.78,3.78,0,0,0,2.79-2.79A3.55,3.55,0,0,0,173,86.46Z"/><path d="M187.56,86.46a3.92,3.92,0,0,0-2.46,2.72,3.56,3.56,0,0,0,4.09,4.09A3.78,3.78,0,0,0,192,90.48,3.55,3.55,0,0,0,187.56,86.46Z"/><path d="M202.15,86.46a3.92,3.92,0,0,0-2.46,2.72,3.56,3.56,0,0,0,4.09,4.09,3.78,3.78,0,0,0,2.79-2.79A3.55,3.55,0,0,0,202.15,86.46Z"/><path d="M216.74,86.46a3.92,3.92,0,0,0-2.46,2.72,3.56,3.56,0,0,0,4.09,4.09,3.78,3.78,0,0,0,2.79-2.79A3.55,3.55,0,0,0,216.74,86.46Z"/><path d="M231.33,86.46a3.92,3.92,0,0,0-2.46,2.72A3.56,3.56,0,0,0,233,93.27a3.78,3.78,0,0,0,2.79-2.79A3.55,3.55,0,0,0,231.33,86.46Z"/><path d="M245.91,86.46a3.92,3.92,0,0,0-2.46,2.72,3.56,3.56,0,0,0,4.09,4.09,3.78,3.78,0,0,0,2.79-2.79A3.55,3.55,0,0,0,245.91,86.46Z"/><path d="M260.5,86.46A3.92,3.92,0,0,0,258,89.18a3.56,3.56,0,0,0,4.09,4.09,3.78,3.78,0,0,0,2.79-2.79A3.55,3.55,0,0,0,260.5,86.46Z"/><path d="M129.22,101a3.92,3.92,0,0,0-2.46,2.72,3.56,3.56,0,0,0,4.09,4.09,3.78,3.78,0,0,0,2.79-2.79A3.55,3.55,0,0,0,129.22,101Z"/><path d="M143.8,101a3.92,3.92,0,0,0-2.46,2.72,3.56,3.56,0,0,0,4.09,4.09,3.78,3.78,0,0,0,2.79-2.79A3.55,3.55,0,0,0,143.8,101Z"/><path d="M158.39,101a3.92,3.92,0,0,0-2.46,2.72,3.56,3.56,0,0,0,4.09,4.09,3.78,3.78,0,0,0,2.79-2.79A3.55,3.55,0,0,0,158.39,101Z"/><path d="M173,101a3.92,3.92,0,0,0-2.46,2.72,3.56,3.56,0,0,0,4.09,4.09,3.78,3.78,0,0,0,2.79-2.79A3.55,3.55,0,0,0,173,101Z"/><path d="M187.56,101a3.92,3.92,0,0,0-2.46,2.72,3.56,3.56,0,0,0,4.09,4.09,3.78,3.78,0,0,0,2.79-2.79A3.55,3.55,0,0,0,187.56,101Z"/><path d="M202.15,101a3.92,3.92,0,0,0-2.46,2.72,3.56,3.56,0,0,0,4.09,4.09,3.78,3.78,0,0,0,2.79-2.79A3.55,3.55,0,0,0,202.15,101Z"/><path d="M216.74,101a3.92,3.92,0,0,0-2.46,2.72,3.56,3.56,0,0,0,4.09,4.09,3.78,3.78,0,0,0,2.79-2.79A3.55,3.55,0,0,0,216.74,101Z"/><path d="M231.33,101a3.92,3.92,0,0,0-2.46,2.72,3.56,3.56,0,0,0,4.09,4.09,3.78,3.78,0,0,0,2.79-2.79A3.55,3.55,0,0,0,231.33,101Z"/><path d="M245.91,101a3.92,3.92,0,0,0-2.46,2.72,3.56,3.56,0,0,0,4.09,4.09,3.78,3.78,0,0,0,2.79-2.79A3.55,3.55,0,0,0,245.91,101Z"/><path d="M260.5,101a3.92,3.92,0,0,0-2.46,2.72,3.56,3.56,0,0,0,4.09,4.09,3.78,3.78,0,0,0,2.79-2.79A3.55,3.55,0,0,0,260.5,101Z"/><path d="M129.22,115.63a3.92,3.92,0,0,0-2.46,2.72,3.56,3.56,0,0,0,4.09,4.09,3.51,3.51,0,1,0-1.63-6.81Z"/><path d="M143.8,115.63a3.92,3.92,0,0,0-2.46,2.72,3.56,3.56,0,0,0,4.09,4.09,3.78,3.78,0,0,0,2.79-2.79A3.55,3.55,0,0,0,143.8,115.63Z"/><path d="M158.39,115.63a3.92,3.92,0,0,0-2.46,2.72,3.56,3.56,0,0,0,4.09,4.09,3.78,3.78,0,0,0,2.79-2.79A3.55,3.55,0,0,0,158.39,115.63Z"/><path d="M173,115.63a3.92,3.92,0,0,0-2.46,2.72,3.56,3.56,0,0,0,4.09,4.09,3.78,3.78,0,0,0,2.79-2.79A3.55,3.55,0,0,0,173,115.63Z"/><path d="M187.56,115.63a3.92,3.92,0,0,0-2.46,2.72,3.56,3.56,0,0,0,4.09,4.09,3.78,3.78,0,0,0,2.79-2.79A3.55,3.55,0,0,0,187.56,115.63Z"/><path d="M202.15,115.63a3.92,3.92,0,0,0-2.46,2.72,3.56,3.56,0,0,0,4.09,4.09,3.78,3.78,0,0,0,2.79-2.79A3.55,3.55,0,0,0,202.15,115.63Z"/><path d="M216.74,115.63a3.92,3.92,0,0,0-2.46,2.72,3.56,3.56,0,0,0,4.09,4.09,3.78,3.78,0,0,0,2.79-2.79A3.55,3.55,0,0,0,216.74,115.63Z"/><path d="M231.33,115.63a3.92,3.92,0,0,0-2.46,2.72,3.56,3.56,0,0,0,4.09,4.09,3.78,3.78,0,0,0,2.79-2.79A3.55,3.55,0,0,0,231.33,115.63Z"/><path d="M245.91,115.63a3.92,3.92,0,0,0-2.46,2.72,3.56,3.56,0,0,0,4.09,4.09,3.78,3.78,0,0,0,2.79-2.79A3.55,3.55,0,0,0,245.91,115.63Z"/><path d="M260.5,115.63a3.92,3.92,0,0,0-2.46,2.72,3.56,3.56,0,0,0,4.09,4.09,3.78,3.78,0,0,0,2.79-2.79A3.55,3.55,0,0,0,260.5,115.63Z"/><path d="M130.08,129a3.92,3.92,0,0,0-2.46,2.72,3.56,3.56,0,0,0,4.09,4.09A3.78,3.78,0,0,0,134.5,133,3.55,3.55,0,0,0,130.08,129Z"/><path d="M144.66,129a3.92,3.92,0,0,0-2.46,2.72,3.56,3.56,0,0,0,4.09,4.09,3.78,3.78,0,0,0,2.79-2.79A3.55,3.55,0,0,0,144.66,129Z"/><path d="M159.25,129a3.92,3.92,0,0,0-2.46,2.72,3.56,3.56,0,0,0,4.09,4.09,3.78,3.78,0,0,0,2.79-2.79A3.55,3.55,0,0,0,159.25,129Z"/><path d="M173.84,129a3.92,3.92,0,0,0-2.46,2.72,3.56,3.56,0,0,0,4.09,4.09,3.78,3.78,0,0,0,2.79-2.79A3.55,3.55,0,0,0,173.84,129Z"/><path d="M188.42,129a3.92,3.92,0,0,0-2.46,2.72,3.6,3.6,0,0,0,2.79,4.09,3.56,3.56,0,0,0,4.09-4.09A3.6,3.6,0,0,0,188.42,129Z"/><path d="M203,129a3.92,3.92,0,0,0-2.46,2.72,3.6,3.6,0,0,0,2.79,4.09,3.56,3.56,0,0,0,4.09-4.09A3.6,3.6,0,0,0,203,129Z"/><path d="M217.6,129a3.92,3.92,0,0,0-2.46,2.72,3.6,3.6,0,0,0,2.79,4.09,3.56,3.56,0,0,0,4.09-4.09A3.6,3.6,0,0,0,217.6,129Z"/><path d="M232.19,129a3.92,3.92,0,0,0-2.46,2.72,3.6,3.6,0,0,0,2.79,4.09,3.56,3.56,0,0,0,4.09-4.09A3.6,3.6,0,0,0,232.19,129Z"/><path d="M246.77,129a3.92,3.92,0,0,0-2.46,2.72,3.56,3.56,0,0,0,4.09,4.09,3.78,3.78,0,0,0,2.79-2.79A3.55,3.55,0,0,0,246.77,129Z"/><path d="M261.36,129a3.92,3.92,0,0,0-2.46,2.72,3.56,3.56,0,0,0,4.09,4.09,3.78,3.78,0,0,0,2.79-2.79A3.55,3.55,0,0,0,261.36,129Z"/><path d="M130.08,143.55a3.92,3.92,0,0,0-2.46,2.72,3.56,3.56,0,0,0,4.09,4.09,3.78,3.78,0,0,0,2.79-2.79A3.55,3.55,0,0,0,130.08,143.55Z"/><path d="M144.66,143.55a3.92,3.92,0,0,0-2.46,2.72,3.56,3.56,0,0,0,4.09,4.09,3.78,3.78,0,0,0,2.79-2.79A3.55,3.55,0,0,0,144.66,143.55Z"/><path d="M159.25,143.55a3.92,3.92,0,0,0-2.46,2.72,3.56,3.56,0,0,0,4.09,4.09,3.78,3.78,0,0,0,2.79-2.79A3.55,3.55,0,0,0,159.25,143.55Z"/><path d="M173.84,143.55a3.92,3.92,0,0,0-2.46,2.72,3.56,3.56,0,0,0,4.09,4.09,3.78,3.78,0,0,0,2.79-2.79A3.55,3.55,0,0,0,173.84,143.55Z"/><path d="M188.42,143.55a3.92,3.92,0,0,0-2.46,2.72,3.6,3.6,0,0,0,2.79,4.09,3.56,3.56,0,0,0,4.09-4.09A3.6,3.6,0,0,0,188.42,143.55Z"/><path d="M203,143.55a3.92,3.92,0,0,0-2.46,2.72,3.56,3.56,0,0,0,4.09,4.09,3.51,3.51,0,1,0-1.63-6.81Z"/><path d="M217.6,143.55a3.92,3.92,0,0,0-2.46,2.72,3.56,3.56,0,0,0,4.09,4.09,3.51,3.51,0,1,0-1.63-6.81Z"/><path d="M232.19,143.55a3.92,3.92,0,0,0-2.46,2.72,3.56,3.56,0,0,0,4.09,4.09,3.51,3.51,0,1,0-1.63-6.81Z"/><path d="M246.77,143.55a3.92,3.92,0,0,0-2.46,2.72,3.56,3.56,0,0,0,4.09,4.09,3.78,3.78,0,0,0,2.79-2.79A3.55,3.55,0,0,0,246.77,143.55Z"/><path d="M261.36,143.55a3.92,3.92,0,0,0-2.46,2.72,3.56,3.56,0,0,0,4.09,4.09,3.78,3.78,0,0,0,2.79-2.79A3.55,3.55,0,0,0,261.36,143.55Z"/><path d="M130.08,158.14a3.92,3.92,0,0,0-2.46,2.72,3.56,3.56,0,0,0,4.09,4.09,3.78,3.78,0,0,0,2.79-2.79A3.55,3.55,0,0,0,130.08,158.14Z"/><path d="M144.66,158.14a3.92,3.92,0,0,0-2.46,2.72,3.56,3.56,0,0,0,4.09,4.09,3.78,3.78,0,0,0,2.79-2.79A3.55,3.55,0,0,0,144.66,158.14Z"/><path d="M159.25,158.14a3.92,3.92,0,0,0-2.46,2.72,3.56,3.56,0,0,0,4.09,4.09,3.78,3.78,0,0,0,2.79-2.79A3.55,3.55,0,0,0,159.25,158.14Z"/><path d="M173.84,158.14a3.92,3.92,0,0,0-2.46,2.72,3.56,3.56,0,0,0,4.09,4.09,3.78,3.78,0,0,0,2.79-2.79A3.55,3.55,0,0,0,173.84,158.14Z"/><path d="M188.42,158.14a3.92,3.92,0,0,0-2.46,2.72,3.56,3.56,0,0,0,4.09,4.09,3.78,3.78,0,0,0,2.79-2.79A3.55,3.55,0,0,0,188.42,158.14Z"/><path d="M203,158.14a3.92,3.92,0,0,0-2.46,2.72,3.56,3.56,0,0,0,4.09,4.09,3.78,3.78,0,0,0,2.79-2.79A3.55,3.55,0,0,0,203,158.14Z"/><path d="M217.6,158.14a3.92,3.92,0,0,0-2.46,2.72,3.56,3.56,0,0,0,4.09,4.09,3.78,3.78,0,0,0,2.79-2.79A3.55,3.55,0,0,0,217.6,158.14Z"/><path d="M232.19,158.14a3.92,3.92,0,0,0-2.46,2.72,3.56,3.56,0,0,0,4.09,4.09,3.78,3.78,0,0,0,2.79-2.79A3.55,3.55,0,0,0,232.19,158.14Z"/><path d="M246.77,158.14a3.92,3.92,0,0,0-2.46,2.72A3.56,3.56,0,0,0,248.4,165a3.78,3.78,0,0,0,2.79-2.79A3.55,3.55,0,0,0,246.77,158.14Z"/><path d="M261.36,158.14a3.92,3.92,0,0,0-2.46,2.72A3.56,3.56,0,0,0,263,165a3.78,3.78,0,0,0,2.79-2.79A3.55,3.55,0,0,0,261.36,158.14Z"/><path d="M130.08,172.72a3.92,3.92,0,0,0-2.46,2.72,3.56,3.56,0,0,0,4.09,4.09,3.78,3.78,0,0,0,2.79-2.79A3.55,3.55,0,0,0,130.08,172.72Z"/><path d="M144.66,172.72a3.92,3.92,0,0,0-2.46,2.72,3.56,3.56,0,0,0,4.09,4.09,3.78,3.78,0,0,0,2.79-2.79A3.55,3.55,0,0,0,144.66,172.72Z"/><path d="M159.25,172.72a3.92,3.92,0,0,0-2.46,2.72,3.56,3.56,0,0,0,4.09,4.09,3.78,3.78,0,0,0,2.79-2.79A3.55,3.55,0,0,0,159.25,172.72Z"/><path d="M173.84,172.72a3.92,3.92,0,0,0-2.46,2.72,3.56,3.56,0,0,0,4.09,4.09,3.78,3.78,0,0,0,2.79-2.79A3.55,3.55,0,0,0,173.84,172.72Z"/><path d="M188.42,172.72a3.92,3.92,0,0,0-2.46,2.72,3.56,3.56,0,0,0,4.09,4.09,3.78,3.78,0,0,0,2.79-2.79A3.55,3.55,0,0,0,188.42,172.72Z"/><path d="M203,172.72a3.92,3.92,0,0,0-2.46,2.72,3.56,3.56,0,0,0,4.09,4.09,3.78,3.78,0,0,0,2.79-2.79A3.55,3.55,0,0,0,203,172.72Z"/><path d="M217.6,172.72a3.92,3.92,0,0,0-2.46,2.72,3.56,3.56,0,0,0,4.09,4.09,3.78,3.78,0,0,0,2.79-2.79A3.55,3.55,0,0,0,217.6,172.72Z"/><path d="M232.19,172.72a3.92,3.92,0,0,0-2.46,2.72,3.56,3.56,0,0,0,4.09,4.09,3.78,3.78,0,0,0,2.79-2.79A3.55,3.55,0,0,0,232.19,172.72Z"/><path d="M246.77,172.72a3.92,3.92,0,0,0-2.46,2.72,3.56,3.56,0,0,0,4.09,4.09,3.78,3.78,0,0,0,2.79-2.79A3.55,3.55,0,0,0,246.77,172.72Z"/><path d="M261.36,172.72a3.92,3.92,0,0,0-2.46,2.72,3.56,3.56,0,0,0,4.09,4.09,3.78,3.78,0,0,0,2.79-2.79A3.55,3.55,0,0,0,261.36,172.72Z"/><path d="M130.08,187.31a3.92,3.92,0,0,0-2.46,2.72,3.56,3.56,0,0,0,4.09,4.09,3.78,3.78,0,0,0,2.79-2.79A3.55,3.55,0,0,0,130.08,187.31Z"/><path d="M144.66,187.31A3.92,3.92,0,0,0,142.2,190a3.56,3.56,0,0,0,4.09,4.09,3.78,3.78,0,0,0,2.79-2.79A3.55,3.55,0,0,0,144.66,187.31Z"/><path d="M159.25,187.31a3.92,3.92,0,0,0-2.46,2.72,3.56,3.56,0,0,0,4.09,4.09,3.78,3.78,0,0,0,2.79-2.79A3.55,3.55,0,0,0,159.25,187.31Z"/><path d="M173.84,187.31a3.92,3.92,0,0,0-2.46,2.72,3.56,3.56,0,0,0,4.09,4.09,3.78,3.78,0,0,0,2.79-2.79A3.55,3.55,0,0,0,173.84,187.31Z"/><path d="M188.42,187.31A3.92,3.92,0,0,0,186,190a3.56,3.56,0,0,0,4.09,4.09,3.78,3.78,0,0,0,2.79-2.79A3.55,3.55,0,0,0,188.42,187.31Z"/><path d="M203,187.31a3.92,3.92,0,0,0-2.46,2.72,3.56,3.56,0,0,0,4.09,4.09,3.78,3.78,0,0,0,2.79-2.79A3.55,3.55,0,0,0,203,187.31Z"/><path d="M217.6,187.31a3.92,3.92,0,0,0-2.46,2.72,3.56,3.56,0,0,0,4.09,4.09,3.78,3.78,0,0,0,2.79-2.79A3.55,3.55,0,0,0,217.6,187.31Z"/><path d="M232.19,187.31a3.92,3.92,0,0,0-2.46,2.72,3.56,3.56,0,0,0,4.09,4.09,3.78,3.78,0,0,0,2.79-2.79A3.55,3.55,0,0,0,232.19,187.31Z"/><path d="M246.77,187.31a3.92,3.92,0,0,0-2.46,2.72,3.56,3.56,0,0,0,4.09,4.09,3.78,3.78,0,0,0,2.79-2.79A3.55,3.55,0,0,0,246.77,187.31Z"/><path d="M261.36,187.31A3.92,3.92,0,0,0,258.9,190a3.56,3.56,0,0,0,4.09,4.09,3.78,3.78,0,0,0,2.79-2.79A3.55,3.55,0,0,0,261.36,187.31Z"/><path d="M130.08,201.9a3.92,3.92,0,0,0-2.46,2.72,3.56,3.56,0,0,0,4.09,4.09,3.78,3.78,0,0,0,2.79-2.79A3.55,3.55,0,0,0,130.08,201.9Z"/><path d="M144.66,201.9a3.92,3.92,0,0,0-2.46,2.72,3.56,3.56,0,0,0,4.09,4.09,3.78,3.78,0,0,0,2.79-2.79A3.55,3.55,0,0,0,144.66,201.9Z"/><path d="M159.25,201.9a3.92,3.92,0,0,0-2.46,2.72,3.56,3.56,0,0,0,4.09,4.09,3.78,3.78,0,0,0,2.79-2.79A3.55,3.55,0,0,0,159.25,201.9Z"/><path d="M173.84,201.9a3.92,3.92,0,0,0-2.46,2.72,3.56,3.56,0,0,0,4.09,4.09,3.78,3.78,0,0,0,2.79-2.79A3.55,3.55,0,0,0,173.84,201.9Z"/><path d="M188.42,201.9a3.92,3.92,0,0,0-2.46,2.72,3.56,3.56,0,0,0,4.09,4.09,3.78,3.78,0,0,0,2.79-2.79A3.55,3.55,0,0,0,188.42,201.9Z"/><path d="M203,201.9a3.92,3.92,0,0,0-2.46,2.72,3.56,3.56,0,0,0,4.09,4.09,3.78,3.78,0,0,0,2.79-2.79A3.55,3.55,0,0,0,203,201.9Z"/><path d="M217.6,201.9a3.92,3.92,0,0,0-2.46,2.72,3.56,3.56,0,0,0,4.09,4.09,3.78,3.78,0,0,0,2.79-2.79A3.55,3.55,0,0,0,217.6,201.9Z"/><path d="M232.19,201.9a3.92,3.92,0,0,0-2.46,2.72,3.56,3.56,0,0,0,4.09,4.09,3.78,3.78,0,0,0,2.79-2.79A3.55,3.55,0,0,0,232.19,201.9Z"/><path d="M246.77,201.9a3.92,3.92,0,0,0-2.46,2.72,3.56,3.56,0,0,0,4.09,4.09,3.78,3.78,0,0,0,2.79-2.79A3.55,3.55,0,0,0,246.77,201.9Z"/><path d="M261.36,201.9a3.92,3.92,0,0,0-2.46,2.72,3.56,3.56,0,0,0,4.09,4.09,3.78,3.78,0,0,0,2.79-2.79A3.55,3.55,0,0,0,261.36,201.9Z"/><path d="M130.08,216.48a3.92,3.92,0,0,0-2.46,2.72,3.56,3.56,0,0,0,4.09,4.09,3.78,3.78,0,0,0,2.79-2.79A3.55,3.55,0,0,0,130.08,216.48Z"/><path d="M144.66,216.48a3.92,3.92,0,0,0-2.46,2.72,3.56,3.56,0,0,0,4.09,4.09,3.78,3.78,0,0,0,2.79-2.79A3.55,3.55,0,0,0,144.66,216.48Z"/><path d="M159.25,216.48a3.92,3.92,0,0,0-2.46,2.72,3.56,3.56,0,0,0,4.09,4.09,3.78,3.78,0,0,0,2.79-2.79A3.55,3.55,0,0,0,159.25,216.48Z"/><path d="M173.84,216.48a3.92,3.92,0,0,0-2.46,2.72,3.56,3.56,0,0,0,4.09,4.09,3.78,3.78,0,0,0,2.79-2.79A3.55,3.55,0,0,0,173.84,216.48Z"/><path d="M188.42,216.48a3.92,3.92,0,0,0-2.46,2.72,3.56,3.56,0,0,0,4.09,4.09,3.78,3.78,0,0,0,2.79-2.79A3.55,3.55,0,0,0,188.42,216.48Z"/><path d="M203,216.48a3.92,3.92,0,0,0-2.46,2.72,3.56,3.56,0,0,0,4.09,4.09,3.78,3.78,0,0,0,2.79-2.79A3.55,3.55,0,0,0,203,216.48Z"/><path d="M217.6,216.48a3.92,3.92,0,0,0-2.46,2.72,3.56,3.56,0,0,0,4.09,4.09,3.78,3.78,0,0,0,2.79-2.79A3.55,3.55,0,0,0,217.6,216.48Z"/><path d="M232.19,216.48a3.92,3.92,0,0,0-2.46,2.72,3.56,3.56,0,0,0,4.09,4.09,3.78,3.78,0,0,0,2.79-2.79A3.55,3.55,0,0,0,232.19,216.48Z"/><path d="M246.77,216.48a3.92,3.92,0,0,0-2.46,2.72,3.56,3.56,0,0,0,4.09,4.09,3.78,3.78,0,0,0,2.79-2.79A3.55,3.55,0,0,0,246.77,216.48Z"/><path d="M261.36,216.48a3.92,3.92,0,0,0-2.46,2.72A3.56,3.56,0,0,0,263,223.3a3.78,3.78,0,0,0,2.79-2.79A3.55,3.55,0,0,0,261.36,216.48Z"/><path d="M130.08,231.07a3.92,3.92,0,0,0-2.46,2.72,3.56,3.56,0,0,0,4.09,4.09,3.78,3.78,0,0,0,2.79-2.79A3.55,3.55,0,0,0,130.08,231.07Z"/><path d="M144.66,231.07a3.92,3.92,0,0,0-2.46,2.72,3.56,3.56,0,0,0,4.09,4.09,3.78,3.78,0,0,0,2.79-2.79A3.55,3.55,0,0,0,144.66,231.07Z"/><path d="M159.25,231.07a3.92,3.92,0,0,0-2.46,2.72,3.56,3.56,0,0,0,4.09,4.09,3.78,3.78,0,0,0,2.79-2.79A3.55,3.55,0,0,0,159.25,231.07Z"/><path d="M173.84,231.07a3.92,3.92,0,0,0-2.46,2.72,3.56,3.56,0,0,0,4.09,4.09,3.78,3.78,0,0,0,2.79-2.79A3.55,3.55,0,0,0,173.84,231.07Z"/><path d="M188.42,231.07a3.92,3.92,0,0,0-2.46,2.72,3.56,3.56,0,0,0,4.09,4.09,3.78,3.78,0,0,0,2.79-2.79A3.55,3.55,0,0,0,188.42,231.07Z"/><path d="M203,231.07a3.92,3.92,0,0,0-2.46,2.72,3.56,3.56,0,0,0,4.09,4.09,3.78,3.78,0,0,0,2.79-2.79A3.55,3.55,0,0,0,203,231.07Z"/><path d="M217.6,231.07a3.92,3.92,0,0,0-2.46,2.72,3.56,3.56,0,0,0,4.09,4.09,3.78,3.78,0,0,0,2.79-2.79A3.55,3.55,0,0,0,217.6,231.07Z"/><path d="M232.19,231.07a3.92,3.92,0,0,0-2.46,2.72,3.56,3.56,0,0,0,4.09,4.09,3.78,3.78,0,0,0,2.79-2.79A3.55,3.55,0,0,0,232.19,231.07Z"/><path d="M246.77,231.07a3.92,3.92,0,0,0-2.46,2.72,3.56,3.56,0,0,0,4.09,4.09,3.78,3.78,0,0,0,2.79-2.79A3.55,3.55,0,0,0,246.77,231.07Z"/><path d="M261.36,231.07a3.92,3.92,0,0,0-2.46,2.72,3.56,3.56,0,0,0,4.09,4.09,3.78,3.78,0,0,0,2.79-2.79A3.55,3.55,0,0,0,261.36,231.07Z"/><path d="M130.08,245.66a3.92,3.92,0,0,0-2.46,2.72,3.56,3.56,0,0,0,4.09,4.09,3.78,3.78,0,0,0,2.79-2.79A3.55,3.55,0,0,0,130.08,245.66Z"/><path d="M144.66,245.66a3.92,3.92,0,0,0-2.46,2.72,3.56,3.56,0,0,0,4.09,4.09,3.78,3.78,0,0,0,2.79-2.79A3.55,3.55,0,0,0,144.66,245.66Z"/><path d="M159.25,245.66a3.92,3.92,0,0,0-2.46,2.72,3.56,3.56,0,0,0,4.09,4.09,3.78,3.78,0,0,0,2.79-2.79A3.55,3.55,0,0,0,159.25,245.66Z"/><path d="M173.84,245.66a3.92,3.92,0,0,0-2.46,2.72,3.56,3.56,0,0,0,4.09,4.09,3.78,3.78,0,0,0,2.79-2.79A3.55,3.55,0,0,0,173.84,245.66Z"/><path d="M188.42,245.66a3.92,3.92,0,0,0-2.46,2.72,3.56,3.56,0,0,0,4.09,4.09,3.78,3.78,0,0,0,2.79-2.79A3.55,3.55,0,0,0,188.42,245.66Z"/><path d="M203,245.66a3.92,3.92,0,0,0-2.46,2.72,3.56,3.56,0,0,0,4.09,4.09,3.78,3.78,0,0,0,2.79-2.79A3.55,3.55,0,0,0,203,245.66Z"/><path d="M217.6,245.66a3.92,3.92,0,0,0-2.46,2.72,3.56,3.56,0,0,0,4.09,4.09,3.78,3.78,0,0,0,2.79-2.79A3.55,3.55,0,0,0,217.6,245.66Z"/><path d="M232.19,245.66a3.92,3.92,0,0,0-2.46,2.72,3.56,3.56,0,0,0,4.09,4.09,3.78,3.78,0,0,0,2.79-2.79A3.55,3.55,0,0,0,232.19,245.66Z"/><path d="M246.77,245.66a3.92,3.92,0,0,0-2.46,2.72,3.56,3.56,0,0,0,4.09,4.09,3.78,3.78,0,0,0,2.79-2.79A3.55,3.55,0,0,0,246.77,245.66Z"/><path d="M261.36,245.66a3.92,3.92,0,0,0-2.46,2.72,3.56,3.56,0,0,0,4.09,4.09,3.78,3.78,0,0,0,2.79-2.79A3.55,3.55,0,0,0,261.36,245.66Z"/></g></g></g></svg>