<?xml version="1.0" encoding="utf-8"?>
<!-- Generator: Adobe Illustrator 21.1.0, SVG Export Plug-In . SVG Version: 6.00 Build 0)  -->
<svg version="1.1" id="Layer_1" xmlns="http://www.w3.org/2000/svg" xmlns:xlink="http://www.w3.org/1999/xlink" x="0px" y="0px"
	 viewBox="0 0 949 849" style="enable-background:new 0 0 949 849;" xml:space="preserve">
<style type="text/css">
	.st0{fill:none;}
	.st1{opacity:0.1;}
</style>
<title>doodles_home</title>
<rect class="st0" width="949" height="849"/>
<g class="st1">
	<path d="M301.6,228.7l-28.9,13.6c-2.6,1.3-3.8,4.4-2.5,7.1l13.6,28.8c1.3,2.6,4.4,3.8,7.1,2.5l28.9-13.6c2.6-1.3,3.8-4.4,2.5-7.1
		l-13.6-28.8C307.4,228.6,304.3,227.5,301.6,228.7z M281.1,241.3c1.3-0.6,2.9-0.1,3.5,1.3c0.6,1.3,0.1,2.9-1.3,3.5
		c-1.3,0.6-2.9,0.1-3.5-1.3c0,0,0,0,0,0C279.2,243.5,279.8,241.9,281.1,241.3z M273.9,244.7c1.3-0.6,2.9-0.1,3.5,1.3
		c0.6,1.3,0.1,2.9-1.3,3.5c-1.3,0.6-2.9,0.1-3.5-1.3c0,0,0,0,0,0C272,246.9,272.6,245.3,273.9,244.7z M319.9,261.3
		c0.6,1.3,0.1,2.9-1.3,3.5l-28.9,13.6c-1.3,0.6-2.9,0.1-3.5-1.3L276,255.4c-0.6-1.3-0.1-2.9,1.3-3.5l28.9-13.6
		c1.3-0.6,2.9-0.1,3.5,1.3L319.9,261.3z"/>
	<path d="M295.8,265l-6.5-1.4c-0.7-0.2-1.2-0.9-1-1.6c0-0.1,0.1-0.2,0.1-0.3l3.1-5.9c0.3-0.6,1.2-0.9,1.8-0.6
		c0.6,0.3,0.9,1.2,0.5,1.8l-2.2,4.3l4.7,1c0.7,0.1,1.2,0.8,1.1,1.5c-0.1,0.7-0.8,1.2-1.5,1.1C295.9,265,295.8,265,295.8,265
		L295.8,265z"/>
	<path d="M302.6,261.4c-0.6-0.4-0.8-1.1-0.5-1.8l2.2-4.3l-4.7-1c-0.7-0.1-1.2-0.8-1.1-1.5c0.1-0.7,0.8-1.2,1.5-1.1
		c0.1,0,0.1,0,0.2,0l6.5,1.4c0.7,0.2,1.2,0.9,1,1.6c0,0.1-0.1,0.2-0.1,0.3l-3.1,5.9C304,261.5,303.3,261.7,302.6,261.4z"/>
</g>
<g class="st1">
	<path d="M160,401.2c0-0.7-0.3-1.3-0.7-1.8c-1.1-1.2-3.3-3.1-5.7-3.2c-3.1-0.1-5.9,1.3-6.9,3.5c-0.6,1.5-0.4,3.2,0.4,4.5
		c-1.3-0.5-2.8-0.3-3.9,0.5c-1.9,1.7-2.6,4.5-1.6,6.9l0.3,0.7c-1.6,0.1-3,1-3.7,2.5c-0.8,1.4-0.9,3-0.4,4.5
		c-2.3,1.3-3.1,4.3-1.8,7.2c0.4,1,1.2,1.9,2.2,2.4c-0.5,0.1-0.9,0.4-1.3,0.8c-1.5,1.6-2.2,3.8-1.9,6c0.1,2.1,1.2,4,2.8,5.2
		c0.5,0.3,1.2,0.4,1.8,0.2c-0.6,0.9-0.7,2-0.5,3.1c0.5,1.9,2.6,3.5,6.5,4.9c1.4,5.2,5.4,5.9,7.1,6h0.6c2.8-0.1,5.4-1.6,6.1-3.5
		c0.4-1.1,0.6-6.3,0.7-12.9c0,0,0-0.1,0-0.1C160.1,425.3,160,406.4,160,401.2z M158,451c-0.4,1.1-2,2.3-4,2.6c0.3-2,0.5-5.7,0.2-7
		c-0.4-1.5-2.8-3.5-3-3.7c-0.3-0.3-0.7-0.3-0.9,0c-0.3,0.3-0.3,0.7,0,0.9c0,0,0.1,0.1,0.1,0.1c1.1,0.8,2,1.9,2.6,3.1
		c0.2,2.2,0.1,4.5-0.3,6.7l0,0c-4.3-0.1-5.6-3.8-6-5.3c-0.1-0.2-0.2-0.4-0.4-0.5c-3.6-1.2-5.6-2.6-6-4.1c-0.4-1.7,1.3-3.6,2.9-5.3
		c0.5-0.5,0.9-1,1.3-1.5c0.3-0.2,0.3-0.7,0.1-0.9s-0.7-0.3-0.9-0.1c-0.1,0.1-0.1,0.1-0.1,0.2c-0.2,0.2-0.3,0.4-0.5,0.6l0,0
		c-1.7,1.9-3.7,3.4-4.4,2.9c-1.3-1-2.2-2.6-2.3-4.2c-0.2-1.8,0.3-3.6,1.6-4.9c0.6-0.6,1.8-0.6,3.6-0.6h0.8c0.4,0,0.7-0.3,0.7-0.7
		c0-0.2-0.1-0.4-0.3-0.5c-0.3-0.2-0.6-0.2-0.9-0.2c-1.2-0.1-3.5-0.4-4.5-2.6c-0.8-1.9-0.7-4.4,1.2-5.5c0.7,1,1.6,1.9,2.7,2.5
		c0.3,0.3,0.7,0.3,0.9,0c0.3-0.3,0.3-0.7,0-0.9c-0.1-0.1-0.2-0.1-0.3-0.2c-3.3-1.9-3.3-4.7-2.3-6.4c0.7-1.3,2.1-2.2,3.4-1.6
		c1.9,3.2,4.5,6.9,6.3,7.7l0,0c-0.1,0.1-0.3,0.2-0.3,0.3c-0.7,1.5-1.4,3-1.9,4.6c-0.1,0.4,0.2,0.7,0.5,0.8h0.1
		c0.3,0,0.6-0.2,0.6-0.5c0.5-1.5,1-2.9,1.7-4.3c0.1-0.2,0.1-0.4,0-0.6c1.3,0.3,2.7,0.2,4-0.3c0.3-0.2,0.5-0.5,0.3-0.9
		c-0.2-0.3-0.5-0.5-0.9-0.3c-1.2,0.5-2.6,0.5-3.8,0c-1.7-0.8-5-5.5-6.8-9.3c-0.7-1.9-0.2-3.9,1.2-5.3c1.7-1.3,3.8,0,5.4,1.3
		c0.3,0.2,0.7,0.2,0.9-0.1c0.2-0.3,0.2-0.7-0.1-0.9c-2.3-2.3-3.1-4.4-2.4-6s3.1-2.8,5.6-2.7c1.9,0.1,4,2,4.7,2.8
		c0.2,0.3,0.4,0.6,0.4,0.9c0,4.2,0,9.1,0.1,14.1c-0.7-0.6-1.4-1.2-2.3-1.5c-1.2-0.5-2.4-0.8-3.7-0.8c-0.4,0-0.7,0.3-0.7,0.7
		s0.3,0.7,0.7,0.7c1.3,0,5.2,0.8,5.9,3.3c0,0.1,0.1,0.2,0.1,0.2c0,3.5,0,7,0,10.4c-1.1,0.3-4.1-0.5-4.7-0.9c-0.3-0.1-0.7,0-0.9,0.3
		c-0.1,0.3,0,0.6,0.2,0.8c1.5,0.7,3,1.1,4.6,1.3c0.2,0,0.4,0,0.7,0c0,3-0.1,5.8-0.1,8.4c-1.3,0.2-4.6,0.5-6.1-0.4h-0.1
		c-1.6-0.6-3.3-3.7-3.8-5.3c-0.2-0.3-0.6-0.5-0.9-0.3c-0.3,0.1-0.4,0.4-0.4,0.7c0.5,1.5,2.3,5.1,4.5,6c1.3,0.5,2.7,0.8,4.1,0.7
		c0.9,0,1.8-0.1,2.6-0.2C158.4,445.5,158.3,450.1,158,451z"/>
	<path d="M174.9,408.6c-0.8-0.5-1.8-0.3-2.3,0.5c-0.5,0.8-0.3,1.8,0.5,2.3c0.1,0.1,0.2,0.1,0.4,0.2v5.8c-0.8,0.4-1.2,1.4-0.8,2.3
		c0.4,0.8,1.4,1.2,2.3,0.8c0.8-0.4,1.2-1.4,0.8-2.3c-0.2-0.4-0.5-0.7-1-0.8v-5.7c0.9-0.3,1.3-1.2,1-2.1l3.3-2.9
		c0.3,0.2,0.7,0.2,1.1,0.1l3.6,4.2c-0.1,0.2-0.2,0.5-0.2,0.8c0,0.9,0.8,1.7,1.7,1.7s1.7-0.8,1.7-1.7c0-0.9-0.8-1.7-1.7-1.7
		c-0.2,0-0.3,0-0.5,0.1l-3.5-4.1c0.5-0.8,0.3-1.8-0.5-2.3c-0.8-0.5-1.8-0.3-2.3,0.5c-0.3,0.4-0.3,0.9-0.2,1.4L174.9,408.6z"/>
	<path d="M173.4,433l-1.6-2.1c0.5-0.8,0.3-1.9-0.5-2.4c-0.8-0.5-1.9-0.3-2.4,0.5s-0.3,1.9,0.5,2.4c0.4,0.3,0.8,0.4,1.3,0.3l2.1,2.7
		h4.1v2.4c-0.9,0.4-1.3,1.4-0.9,2.2c0.4,0.9,1.4,1.3,2.2,0.9s1.3-1.4,0.9-2.2c-0.2-0.4-0.5-0.7-0.9-0.9v-2.4h2.6l5.6,4.1l-1.9,4.6
		h-6.4c-0.3-0.9-1.3-1.4-2.2-1c-0.9,0.3-1.4,1.3-1,2.2s1.3,1.4,2.2,1c0.4-0.1,0.8-0.5,1-0.8h7.3l2.6-6.4l-6.8-5L173.4,433z"/>
	<path d="M180.9,415.5c0-0.1,0-0.1,0-0.2c0-0.9-0.8-1.7-1.7-1.7s-1.7,0.8-1.7,1.7s0.8,1.7,1.7,1.7c0.4,0,0.7-0.1,1-0.4l7.1,3.3v2.3
		h-5.4l-3,3.1c-0.2-0.1-0.3-0.1-0.5-0.1c-0.9,0-1.7,0.8-1.7,1.7c0,0.9,0.8,1.7,1.7,1.7c0.9,0,1.7-0.8,1.7-1.7c0-0.3-0.1-0.5-0.2-0.8
		l2.6-2.7h4.8v4.8l-1.7,1.9c-0.9-0.4-1.9-0.1-2.3,0.8s-0.1,1.9,0.8,2.3s1.9,0.1,2.3-0.8c0.2-0.4,0.2-0.9,0.1-1.3l2.2-2.3v-9.8
		L180.9,415.5z"/>
	<path d="M180.7,446.5c-0.9,0-1.7,0.8-1.7,1.7c0,0.3,0.1,0.6,0.3,0.9l-3.2,4.4h-4.7v-6c0.9-0.4,1.3-1.4,0.9-2.2
		c-0.4-0.9-1.4-1.3-2.2-0.9s-1.3,1.4-0.9,2.2c0.2,0.4,0.5,0.7,0.9,0.9v6h-1.8l-4.6-4.9l0.1-9.2h3.3c0.4,0.9,1.4,1.3,2.2,0.9
		s1.3-1.4,0.9-2.2c-0.4-0.9-1.4-1.3-2.2-0.9c-0.4,0.2-0.7,0.5-0.9,0.9h-3.3l0.1-8.1c0.8-0.4,1.2-1.4,0.8-2.3
		c-0.4-0.8-1.4-1.2-2.3-0.8c-0.8,0.4-1.2,1.4-0.8,2.3c0.2,0.4,0.5,0.7,1,0.9l-0.2,19.1l5.4,5.7h9l3.6-4.9c0.9,0.2,1.8-0.4,2-1.3
		c0.2-0.9-0.4-1.8-1.3-2C181,446.6,180.9,446.5,180.7,446.5L180.7,446.5z"/>
	<path d="M162.4,401.1v23h6.6c0.3,0.9,1.3,1.4,2.2,1c0.9-0.3,1.4-1.3,1-2.2s-1.3-1.4-2.2-1c-0.4,0.1-0.8,0.5-1,0.8h-5.3v-8.1h4
		c0.4,0.8,1.4,1.2,2.3,0.7c0.8-0.4,1.2-1.4,0.7-2.3c-0.4-0.8-1.4-1.2-2.3-0.7c-0.4,0.2-0.7,0.5-0.8,1h-3.9v-12.2
		c0.7-0.2,1.1-0.9,1.1-1.6v-0.1l5.6-2l2.7,3.9c0,0.1,0,0.1,0,0.2c0,0.2,0,0.4,0.1,0.6l-3.1,3.1c-0.2-0.1-0.5-0.2-0.8-0.2
		c-0.9,0-1.7,0.8-1.7,1.7c0,0.9,0.8,1.7,1.7,1.7c0.9,0,1.7-0.8,1.7-1.7l0,0c0-0.2,0-0.3-0.1-0.5l3.4-3.2c0.9,0.2,1.8-0.3,2.1-1.2
		s-0.3-1.8-1.2-2.1c-0.5-0.1-1,0-1.5,0.3l-3-4.2l-6.7,2.3c-0.7-0.6-1.8-0.5-2.4,0.2c-0.6,0.7-0.5,1.8,0.2,2.4
		C162.2,401,162.3,401.1,162.4,401.1L162.4,401.1z"/>
</g>
<g class="st1">
	<path d="M437.9,115.8c-0.9-2.6-3.7-3.9-6.3-3l-20.3,7.2c-2.6,0.9-3.9,3.7-3,6.2c0.8,2.2,3,3.6,5.3,3.2l1.6,4.4
		c1.4,4.1,5.9,6.2,10,4.8c0,0,0,0,0,0l7.5-2.6c4.1-1.4,6.2-5.9,4.8-10c0,0,0,0,0,0l-1.6-4.4C437.8,120.4,438.7,118,437.9,115.8z
		 M427.3,132.7c-2.4,0.9-5.1-0.4-6-2.9s0.4-5.1,2.9-6c2.4-0.9,5.1,0.4,6,2.9C431,129.1,429.8,131.8,427.3,132.7
		C427.3,132.7,427.3,132.7,427.3,132.7z"/>
	<path d="M403.9,133l-1.1-3.2l4.9-1.7c-0.6-0.8-0.9-1.8-1-2.8l-4.8,1.7l-1-2.7c-0.3-0.8-1.1-1.2-1.9-0.9l-1.2,0.4l-0.6-1.8l4.7-1.7
		c0.8-0.3,1.2-1.1,0.9-1.9c-0.3-0.8-1.1-1.2-1.9-0.9l-12.2,4.3c-0.8,0.3-1.2,1.1-0.9,1.9c0.3,0.8,1.1,1.2,1.9,0.9l4.7-1.7l0.6,1.8
		l-1.2,0.4c-0.8,0.3-1.2,1.1-0.9,1.9l3.1,8.8c0.3,0.8,1.1,1.2,1.9,0.9l5.2-1.8C403.8,134.6,404.1,133.8,403.9,133
		C403.9,133,403.9,133,403.9,133z"/>
	<path d="M450.5,100l-12.1,4.3c-0.8,0.3-1.2,1.1-0.9,1.9c0.3,0.8,1.1,1.2,1.9,0.9l0,0l4.7-1.7l0.6,1.8l-1.2,0.4
		c-0.8,0.3-1.2,1.1-0.9,1.9l0.9,2.6l-4.9,1.7c0.6,0.8,0.9,1.8,1,2.8l4.8-1.7l1.1,3.2c0.3,0.8,1.1,1.2,1.9,0.9l5.2-1.8
		c0.8-0.3,1.2-1.1,0.9-1.9l-3.1-8.8c-0.3-0.8-1.1-1.2-1.9-0.9l-1.2,0.4l-0.6-1.8l4.7-1.7c0.8-0.3,1.2-1.1,0.9-1.9
		C452.1,100.1,451.3,99.7,450.5,100C450.6,100,450.6,100,450.5,100z"/>
	<path d="M416,137.9c-0.7-0.7-1.3-1.6-1.7-2.5l-5.4,1.9c-0.8,0.3-1.2,1.1-0.9,1.9l4.2,12l-3,1.1c-0.8,0.3-1.2,1.1-0.9,1.9
		c0.3,0.8,1.1,1.2,1.9,0.9l8.9-3.1c0.8-0.3,1.2-1.1,0.9-1.9c-0.3-0.8-1.1-1.2-1.9-0.9l-3,1.1l-3.8-10.6L416,137.9z"/>
	<path d="M453.7,136.5l-3,1.1l-4.3-12.1c-0.3-0.8-1.1-1.2-1.9-0.9l-5.4,1.9c0.2,1,0.3,2,0.2,3l4.8-1.7l3.8,10.6l-3,1.1
		c-0.8,0.3-1.2,1.1-0.9,1.9c0.3,0.8,1.1,1.2,1.9,0.9l8.9-3.1c0.7-0.3,1.1-1.1,0.8-1.9C455.3,136.6,454.4,136.2,453.7,136.5
		L453.7,136.5z"/>
</g>
<g class="st1">
	<path d="M638.8,614.5c-0.3-0.6-0.9-1.1-1.5-1.3c-1.5-0.5-4.5-1.2-6.6-0.1c-2.8,1.4-4.6,4-4.4,6.4c0.2,1.6,1.2,3,2.6,3.8
		c-1.4,0.2-2.7,1.1-3.2,2.4c-0.9,2.5-0.1,5.2,1.9,6.9l0.6,0.4c-1.4,0.8-2.2,2.4-2.1,4c0,1.6,0.6,3.1,1.8,4.2
		c-1.4,2.3-0.7,5.3,1.8,7.2c0.9,0.7,2,1.1,3.1,1.1c-0.4,0.4-0.6,0.8-0.8,1.3c-0.6,2.1-0.1,4.4,1.2,6.2c1.1,1.8,2.9,2.9,5,3.3
		c0.6,0,1.2-0.2,1.7-0.7c0,1.1,0.3,2.2,1.1,3c1.4,1.5,4,1.8,8.1,1.2c3.8,3.9,7.7,2.6,9.2,1.9l0.5-0.3c2.5-1.5,4-4,3.7-6.1
		c-0.2-1.2-2.5-5.8-5.6-11.7c0,0,0-0.1-0.1-0.1C650.5,635.7,641.3,619,638.8,614.5z M661,659.6c0.2,1.2-0.7,2.9-2.3,4.2
		c-0.7-1.9-2.3-5.3-3.2-6.2c-1.1-1.1-4.1-1.8-4.5-1.8c-0.4-0.1-0.7,0.2-0.8,0.5c-0.1,0.4,0.2,0.7,0.5,0.8c1.4,0.2,2.6,0.7,3.8,1.5
		c1.3,1.9,2.3,3.9,3,6l0,0c-3.8,1.9-6.8-0.7-7.9-1.8c-0.2-0.2-0.4-0.2-0.6-0.2c-3.8,0.6-6.2,0.4-7.2-0.7c-1.2-1.3-0.6-3.8,0-6.1
		c0.2-0.7,0.3-1.4,0.5-2c0.1-0.4-0.1-0.7-0.4-0.8c-0.4-0.1-0.7,0.1-0.8,0.4c0,0.1,0,0.1,0,0.2c0,0.3-0.1,0.5-0.2,0.8l0,0
		c-0.6,2.5-1.6,4.8-2.5,4.7c-1.7-0.3-3.2-1.2-4-2.7c-1.1-1.5-1.4-3.3-1-5.1c0.3-0.8,1.3-1.4,2.9-2.3l0.7-0.4
		c0.3-0.2,0.5-0.6,0.3-0.9c-0.1-0.2-0.3-0.4-0.5-0.4c-0.3,0-0.7,0.1-0.9,0.3c-1.2,0.5-3.3,1.3-5.2-0.2c-1.7-1.3-2.7-3.5-1.6-5.4
		c1.1,0.6,2.3,0.9,3.6,0.9c0.4,0.1,0.7-0.1,0.8-0.5c0.1-0.4-0.1-0.7-0.5-0.8c-0.1,0-0.2,0-0.3,0c-3.8-0.1-5.2-2.5-5.2-4.6
		c0-1.5,0.8-3,2.3-3c3.2,1.9,7.3,3.9,9.3,3.8l0,0c-0.1,0.1-0.2,0.3-0.2,0.4c0.1,1.7,0.2,3.4,0.6,5c0.1,0.3,0.5,0.5,0.8,0.4
		c0,0,0,0,0,0l0.1,0c0.3-0.2,0.4-0.5,0.3-0.8c-0.3-1.5-0.5-3.1-0.5-4.6c0-0.2-0.1-0.4-0.3-0.5c1.4-0.4,2.6-1.1,3.4-2.2
		c0.2-0.3,0.1-0.7-0.3-0.9c-0.3-0.2-0.6-0.1-0.8,0.1c-0.8,1-2,1.7-3.4,1.8c-1.9,0.2-7-2.5-10.5-4.9c-1.5-1.3-2.1-3.4-1.5-5.3
		c0.8-2,3.4-1.9,5.4-1.4c0.3,0.1,0.7,0,0.9-0.4c0.1-0.3,0-0.7-0.4-0.9c-0.1,0-0.1,0-0.2,0c-3.1-0.9-4.8-2.4-5-4.1s1.4-4,3.7-5.1
		c1.8-0.9,4.5-0.2,5.6,0.2c0.3,0.1,0.6,0.3,0.8,0.7c2,3.7,4.4,8,6.9,12.5c-0.9-0.3-1.8-0.3-2.8-0.2c-1.3,0.1-2.5,0.5-3.7,1.1
		c-0.3,0.2-0.4,0.6-0.3,0.9c0.2,0.3,0.6,0.4,0.9,0.3c1.2-0.6,5-1.8,6.8,0.1c0.1,0.1,0.1,0.1,0.2,0.1c1.7,3.1,3.4,6.2,5,9.3
		c-0.8,0.8-3.8,1.5-4.6,1.5c-0.4,0-0.7,0.3-0.7,0.7c0,0.4,0.3,0.7,0.7,0.7c1.6-0.2,3.2-0.6,4.7-1.3c0.2-0.1,0.4-0.2,0.6-0.4
		c1.4,2.6,2.7,5.1,4,7.5c-1,0.8-3.8,2.6-5.6,2.6l0,0c-1.7,0.2-4.7-1.7-5.9-2.8c-0.3-0.2-0.7-0.2-1,0s-0.2,0.7,0,1l0,0
		c1.2,1.1,4.5,3.4,6.9,3.2c1.4-0.1,2.8-0.6,4-1.3c0.8-0.4,1.5-0.9,2.2-1.5C658.8,654.5,660.8,658.6,661,659.6z"/>
	<path d="M655.5,613.9c-0.9,0-1.7,0.7-1.7,1.7s0.7,1.7,1.7,1.8c0.1,0,0.1,0,0.2,0l2.8,5.2c-0.5,0.8-0.4,1.8,0.4,2.4
		c0.8,0.5,1.8,0.4,2.4-0.4c0.5-0.8,0.4-1.8-0.4-2.4c-0.4-0.3-0.8-0.4-1.3-0.3l-2.7-5c0.6-0.7,0.6-1.7-0.1-2.4l1.5-4.1
		c0.4,0,0.8-0.2,1.1-0.4l5.2,2c0,0.3,0.1,0.5,0.2,0.8c0.5,0.8,1.5,1.1,2.3,0.7s1.1-1.5,0.7-2.3s-1.5-1.1-2.3-0.7c0,0,0,0,0,0
		c-0.2,0.1-0.3,0.2-0.4,0.3l-5.1-2c0.1-0.9-0.7-1.8-1.6-1.8c-0.9-0.1-1.8,0.7-1.8,1.6c0,0.5,0.2,1,0.5,1.4L655.5,613.9z"/>
	<path d="M666,636.2l-2.5-1c0.1-1-0.6-1.8-1.6-1.9c-1-0.1-1.8,0.6-1.9,1.6c-0.1,1,0.6,1.8,1.6,1.9c0.5,0,0.9-0.1,1.3-0.4l3.2,1.3
		l3.7-2l1.2,2.1c-0.6,0.7-0.5,1.8,0.3,2.4c0.7,0.6,1.8,0.5,2.4-0.3c0.6-0.7,0.5-1.8-0.3-2.4c-0.3-0.3-0.8-0.4-1.2-0.4l-1.2-2.1
		l2.3-1.2l7,0.9l0.5,5l-5.7,3c-0.7-0.6-1.8-0.6-2.4,0.1c-0.6,0.7-0.6,1.8,0.1,2.4c0.7,0.6,1.8,0.6,2.4-0.1c0.3-0.3,0.5-0.8,0.4-1.2
		l6.5-3.5l-0.7-6.9l-8.5-1.1L666,636.2z"/>
	<path d="M664.2,617l-0.1-0.2c-0.5-0.8-1.5-1.2-2.3-0.7c-0.8,0.5-1.2,1.5-0.7,2.3c0.5,0.8,1.5,1.2,2.3,0.7c0.3-0.2,0.6-0.5,0.8-0.8
		l7.9-0.5l1.1,2l-4.8,2.6l-1.2,4.2c-0.2,0-0.3,0.1-0.5,0.2c-0.8,0.5-1.1,1.5-0.6,2.3c0.5,0.8,1.5,1.1,2.3,0.6
		c0.8-0.5,1.1-1.5,0.6-2.3c-0.1-0.2-0.3-0.4-0.5-0.6l1-3.6l4.3-2.3l2.3,4.2l-0.6,2.5c-1,0-1.7,0.9-1.7,1.8c0,1,0.9,1.7,1.8,1.7
		c1,0,1.7-0.9,1.7-1.8c0-0.5-0.2-0.9-0.6-1.2l0.8-3.1l-4.7-8.7L664.2,617z"/>
	<path d="M679,644.6c-0.8,0.5-1.1,1.5-0.7,2.3c0.2,0.3,0.4,0.5,0.7,0.7l-0.7,5.4l-4.1,2.3l-2.8-5.3c0.6-0.7,0.5-1.8-0.3-2.4
		c-0.7-0.6-1.8-0.5-2.4,0.3c-0.6,0.7-0.5,1.8,0.3,2.4c0.3,0.3,0.8,0.4,1.2,0.4l2.9,5.3l-1.6,0.9l-6.5-2.1l-4.4-8.2l2.9-1.6
		c0.7,0.6,1.8,0.5,2.4-0.3c0.6-0.7,0.5-1.8-0.3-2.4c-0.7-0.6-1.8-0.5-2.4,0.3c-0.3,0.3-0.4,0.8-0.4,1.2l-2.9,1.6l-3.9-7.3
		c0.5-0.8,0.4-1.8-0.4-2.4s-1.8-0.4-2.4,0.4s-0.4,1.8,0.4,2.4c0.4,0.3,0.8,0.4,1.2,0.3l9.1,17l7.5,2.4l8-4.3l0.8-6.1
		c0.9-0.3,1.4-1.2,1.1-2.1c-0.3-0.9-1.2-1.4-2.1-1.1C679.2,644.5,679.1,644.6,679,644.6L679,644.6z"/>
	<path d="M640.9,613.3l11.1,20.3l5.8-3.2c0.7,0.6,1.8,0.6,2.4-0.1c0.6-0.7,0.6-1.8-0.1-2.4c-0.7-0.6-1.8-0.6-2.4,0.1
		c-0.3,0.3-0.5,0.8-0.4,1.2l-4.7,2.5l-3.9-7.2l3.5-1.9c0.8,0.5,1.8,0.3,2.4-0.4c0.5-0.8,0.3-1.8-0.4-2.4c-0.8-0.5-1.8-0.3-2.4,0.4
		c-0.2,0.4-0.3,0.8-0.3,1.2l-3.4,1.9l-5.9-10.8c0.5-0.5,0.6-1.4,0.2-2v-0.1l4-4.4l4.3,2.2l0.1,0.2c0.1,0.2,0.3,0.4,0.4,0.5l-1.3,4.3
		c-0.3,0-0.5,0.1-0.8,0.2c-0.8,0.5-1.1,1.5-0.7,2.3s1.5,1.1,2.3,0.7s1.1-1.5,0.7-2.3c0,0,0,0,0,0l0,0c-0.1-0.1-0.2-0.3-0.3-0.4
		l1.5-4.5c0.9-0.3,1.4-1.2,1.2-2.1s-1.2-1.4-2.1-1.2c-0.5,0.1-0.9,0.5-1.1,0.9l-4.7-2.3l-4.8,5.3c-0.9-0.2-1.8,0.4-2,1.4
		s0.4,1.8,1.4,2C640.7,613.2,640.8,613.3,640.9,613.3L640.9,613.3z"/>
</g>
<g class="st1">
	<path d="M900.9,610.9c0.8-0.7,1.3-1.7,1.5-2.8l9.2-3.2c0.2-0.1,0.4-0.2,0.6-0.4l14.6-21.1c0.3-0.5,0.3-1.1-0.1-1.5l-4.6-4.6
		c-0.5-0.5-1.2-0.5-1.7,0c0,0,0,0,0,0l-5.5,5.5c-13.3-9.9-32.1-7.1-42,6.2c-0.5,0.7-1.1,1.5-1.5,2.3c-0.3,0.6-0.2,1.3,0.4,1.6
		s1.3,0.2,1.6-0.4c8-13,25-17.1,38.1-9.2c0.6,0.4,1.2,0.7,1.7,1.2l-2.9,2.9c-10.8-7.3-25.6-4.5-32.9,6.3c0,0-0.1,0.1-0.1,0.1
		c-0.4,0.5-0.2,1.3,0.3,1.6s1.3,0.2,1.6-0.3c6.5-9.7,19.6-12.4,29.4-6l-3.4,3.4c-6.5-3.7-14.7-2.6-20,2.7c-0.5,0.5-0.5,1.2,0,1.7
		s1.2,0.5,1.7,0c4.4-4.4,11.1-5.4,16.6-2.6l-7.3,7.3c-2.3,0.3-4.1,2-4.6,4.3l-9.2,3.2c-0.2,0.1-0.4,0.2-0.6,0.4l-14.6,21.1
		c-0.3,0.5-0.3,1.1,0.1,1.5l4.6,4.6c0.5,0.5,1.2,0.5,1.7,0c0,0,0,0,0,0l5.5-5.5c5.2,3.8,11.5,5.9,17.9,5.8c0.5,0,1.1,0,1.6,0
		c7.4-0.4,14.4-3.5,19.6-8.7c1.3-1.3,2.5-2.8,3.6-4.3c0.4-0.5,0.2-1.3-0.3-1.6s-1.3-0.2-1.6,0.3l0,0c-1,1.4-2.1,2.8-3.3,4
		c-9.6,9.6-24.7,10.8-35.7,2.9l2.9-2.9c3.9,2.6,8.6,4.1,13.3,4c0.6,0,1.1,0,1.7-0.1c5.7-0.4,11-2.9,15-6.9c0.9-0.9,1.8-1.9,2.6-3
		c0.4-0.5,0.3-1.3-0.3-1.6c-0.5-0.4-1.3-0.3-1.6,0.3c-6.6,9.3-19.4,11.8-29,5.5l3.4-3.4c6.5,3.7,14.7,2.6,20-2.7
		c0.5-0.5,0.5-1.2,0-1.7s-1.2-0.5-1.7,0c-4.4,4.4-11.1,5.4-16.6,2.6l7.3-7.3C899,612.3,900,611.7,900.9,610.9z M921.2,579.9l3,3
		l-13.9,20l-8.1,2.8c-0.4-1.7-1.6-3.1-3.2-3.7L921.2,579.9z M872.7,634.2l-3-3.1l13.9-20l8.1-2.8c0.4,1.7,1.6,3.1,3.2,3.7
		L872.7,634.2z M894.7,609.3c-0.6-0.6-0.9-1.4-0.9-2.2l0,0c0-0.1,0-0.2,0-0.3c0.1-0.7,0.4-1.4,0.9-1.9c1.2-1.2,3.2-1.2,4.5,0
		c0.6,0.6,0.9,1.4,0.9,2.2l0,0c0,0.1,0,0.2,0,0.3c-0.1,0.7-0.4,1.4-0.9,1.9C897.9,610.5,896,610.5,894.7,609.3L894.7,609.3z"/>
</g>
</svg>
