<?xml version="1.0" encoding="utf-8"?>
<!-- Generator: Adobe Illustrator 21.1.0, SVG Export Plug-In . SVG Version: 6.00 Build 0)  -->
<svg version="1.1" id="Layer_1" xmlns="http://www.w3.org/2000/svg" xmlns:xlink="http://www.w3.org/1999/xlink" x="0px" y="0px"
	 viewBox="0 0 949 849" style="enable-background:new 0 0 949 849;" xml:space="preserve">
<style type="text/css">
	.st0{fill:none;}
	.st1{opacity:3.000000e-02;stroke:#000000;stroke-miterlimit:10;enable-background:new    ;}
	.st2{opacity:0.1;enable-background:new    ;}
	.st3{opacity:0.1;}
</style>
<title>doodles_home</title>
<rect class="st0" width="949" height="849"/>
<path class="st1" d="M749.1-148.9l85.8-29.4c29.8-10.2,62.2,5.7,72.4,35.5l69.9,204.3c10.2,29.8-5.7,62.2-35.5,72.4L856,163.3
	c-29.8,10.2-62.2-5.7-72.4-35.5L713.6-76.5C703.4-106.3,719.3-138.7,749.1-148.9z"/>
<path class="st2" d="M885.5,812.8c0-5.7-1.6-11.2-4.6-16c2.5-4.6,3.9-9.1,1.7-11.3c-1.9-1.9-5.8-1.4-11.3,1.7
	c-9.8-6.1-22.2-6.1-32,0c-5.6-3-9.4-3.6-11.3-1.7s-1.4,5.8,1.7,11.3c-6.1,9.8-6.1,22.2,0,32c-3,5.6-3.6,9.4-1.7,11.3
	c0.8,0.8,2,1.2,3.1,1.1c2.1,0,4.8-1,8.2-2.8c9.8,6.1,22.2,6.1,32,0c3.4,1.9,6.2,2.8,8.3,2.8c1.1,0.1,2.3-0.3,3.1-1.1
	c2.2-2.2,0.8-6.8-1.7-11.3C883.9,823.9,885.5,818.4,885.5,812.8z M883,812.8c0,4.7-1.2,9.4-3.5,13.5c-1.8-2.9-3.7-5.6-5.8-8.2
	c2.9-3.1,3-7.7,0.4-11c2-2.5,3.8-5.1,5.5-7.8C881.8,803.4,883,808,883,812.8L883,812.8z M861.6,812.3c0-3.2,2.6-5.9,5.9-5.9
	s5.9,2.6,5.9,5.9c0,3.2-2.6,5.9-5.9,5.9l0,0C864.2,818.2,861.6,815.5,861.6,812.3z M880.8,787.2c0.7,0.7,0.5,3.1-1.5,7.2
	c-1.6-2.1-3.5-4-5.7-5.7C877.8,786.6,880.1,786.5,880.8,787.2L880.8,787.2z M877.9,796.9c-1.7,2.9-3.7,5.8-5.8,8.4
	c-2.9-2-6.8-1.9-9.7,0.2c-6.2-6.4-13.2-12.1-20.7-17C854.2,781.6,869.8,785.2,877.9,796.9L877.9,796.9z M829.7,787.2
	c0.6-0.6,2.7-0.7,7.2,1.5c-2.1,1.6-4,3.5-5.7,5.7C829.1,790.2,829,787.9,829.7,787.2L829.7,787.2z M839.4,790.1l1,0.6
	c7.4,4.8,14.2,10.4,20.3,16.6c-2.3,3.2-2.2,7.5,0.4,10.5l-0.4,0.4c-6.1,6.3-12.9,11.9-20.3,16.7l-1,0.6c-12.5-8.7-15.6-26-6.8-38.5
	C834.4,794.3,836.7,791.9,839.4,790.1z M829.7,838.3c-0.7-0.7-0.6-3,1.5-7.2c1.6,2.1,3.5,4,5.7,5.7
	C832.4,839,830.3,838.9,829.7,838.3L829.7,838.3z M841.8,836.9c7.5-4.9,14.4-10.6,20.7-17l0.5-0.5c2.6,1.6,6,1.7,8.6,0.1
	c2.3,2.9,4.4,5.9,6.3,9.1C869.8,840.3,854.2,843.9,841.8,836.9L841.8,836.9z M880.8,838.3c-0.7,0.7-2.9,0.6-7.2-1.5
	c2.1-1.6,4-3.5,5.7-5.7C881.3,835.2,881.5,837.6,880.8,838.3L880.8,838.3z"/>
<g class="st3">
	<path d="M601,779.7c1.3-3.9-0.8-8-4.6-9.3L565.8,760c-3.9-1.3-8,0.8-9.3,4.6c-1.1,3.3,0.2,6.9,3.3,8.7l-2.3,6.7
		c-2.1,6.1,1.2,12.8,7.4,14.9l11.3,3.8c6.1,2.1,12.8-1.2,14.9-7.4l2.3-6.7C596.6,785,599.9,783,601,779.7z M572.8,789.8
		c-3.7-1.3-5.7-5.3-4.4-9s5.3-5.7,9-4.4c3.7,1.3,5.6,5.3,4.4,8.9C580.6,789.1,576.6,791.1,572.8,789.8
		C572.9,789.8,572.9,789.8,572.8,789.8L572.8,789.8z"/>
	<path d="M544.8,768.5l1.6-4.8l7.4,2.5c0.1-1.5,0.6-3,1.4-4.3l-7.3-2.5l1.4-4.1c0.4-1.2-0.3-2.4-1.4-2.9l-1.8-0.6l0.9-2.7l7.1,2.4
		c1.2,0.4,2.5-0.2,2.9-1.4c0.4-1.2-0.2-2.5-1.4-2.9l0,0l-18.4-6.2c-1.2-0.4-2.5,0.2-2.9,1.4c-0.4,1.2,0.2,2.5,1.4,2.9l0,0l7.1,2.4
		l-0.9,2.7l-1.8-0.6c-1.2-0.4-2.4,0.3-2.9,1.4l-4.5,13.3c-0.4,1.2,0.3,2.4,1.4,2.9l7.8,2.6C543.3,770.3,544.5,769.6,544.8,768.5z"/>
	<path d="M630.7,772.7l-18.2-6.2c-1.2-0.4-2.5,0.2-2.9,1.4c-0.4,1.2,0.2,2.5,1.4,2.9l7.1,2.4l-0.9,2.7l-1.8-0.6
		c-1.2-0.4-2.4,0.3-2.9,1.4l-1.3,4l-7.4-2.5c-0.1,1.5-0.6,3-1.4,4.3l7.3,2.5l-1.6,4.8c-0.4,1.2,0.3,2.4,1.4,2.9l7.8,2.6
		c1.2,0.4,2.4-0.3,2.9-1.4l4.5-13.3c0.4-1.2-0.3-2.4-1.4-2.9l-1.8-0.6l0.9-2.7l7.1,2.4c1.2,0.4,2.4-0.3,2.9-1.4
		c0.4-1.1-0.2-2.3-1.3-2.7C630.8,772.7,630.8,772.7,630.7,772.7z"/>
	<path d="M554.7,785.5c-0.2-1.5-0.1-3,0.3-4.5l-8.1-2.7c-1.2-0.4-2.4,0.3-2.9,1.4l-6.1,18.1l-4.6-1.5c-1.2-0.4-2.5,0.2-2.9,1.4
		c-0.4,1.2,0.2,2.5,1.4,2.9l0,0l13.4,4.6c1.2,0.4,2.5-0.2,2.9-1.4c0.4-1.2-0.2-2.5-1.4-2.9l0,0l-4.6-1.5l5.4-16.1L554.7,785.5z"/>
	<path d="M600.5,818.8l-4.5-1.5l6.2-18.2c0.4-1.2-0.3-2.4-1.4-2.9l-8.1-2.7c-0.6,1.4-1.5,2.6-2.5,3.8l7.3,2.5l-5.4,16.1l-4.6-1.5
		c-1.2-0.4-2.5,0.2-2.9,1.4c-0.4,1.2,0.2,2.5,1.4,2.9l0,0l13.4,4.5c1.1,0.4,2.4-0.1,2.8-1.2c0.4-1.1-0.1-2.4-1.2-2.8
		C600.8,818.9,600.7,818.8,600.5,818.8L600.5,818.8z"/>
</g>
<g class="st3">
	<path d="M80.2,232.2c1.2-1.2,2-2.7,2.4-4.4l14.7-5.1c0.4-0.1,0.7-0.4,0.9-0.7l23.4-33.7c0.5-0.7,0.4-1.7-0.2-2.4l-7.3-7.3
		c-0.7-0.7-1.9-0.7-2.7,0l-8.9,8.9c-21.3-15.8-51.4-11.3-67.2,9.9c-0.9,1.2-1.7,2.4-2.4,3.6c-0.6,0.9-0.3,2,0.6,2.6
		c0.9,0.6,2,0.3,2.6-0.6l0,0c12.8-20.9,40-27.5,60.9-14.7c1,0.6,1.9,1.2,2.8,1.9l-4.6,4.6c-17.3-11.8-40.9-7.3-52.7,10
		c-0.1,0.1-0.1,0.2-0.2,0.3c-0.6,0.9-0.3,2,0.5,2.6c0.9,0.6,2,0.3,2.6-0.5c10.4-15.5,31.3-19.8,47-9.7l-5.4,5.4
		c-10.4-5.9-23.5-4.2-32,4.3c-0.7,0.7-0.7,1.9,0,2.6c0.7,0.7,1.9,0.7,2.6,0l0,0c7-7,17.7-8.7,26.6-4.2l-11.7,11.7
		c-3.6,0.5-6.6,3.3-7.3,6.9l-14.7,5.1c-0.4,0.1-0.7,0.4-0.9,0.7l-23.4,33.8c-0.5,0.7-0.4,1.7,0.2,2.4l7.3,7.3c0.7,0.7,1.9,0.7,2.6,0
		c0,0,0,0,0,0l8.9-8.9c8.3,6.1,18.3,9.5,28.6,9.4c0.8,0,1.7,0,2.5-0.1c11.8-0.6,23-5.6,31.4-14c2.1-2.1,4-4.4,5.7-6.9
		c0.6-0.9,0.4-2-0.5-2.6c-0.9-0.6-2-0.4-2.6,0.5l0,0c-1.6,2.3-3.3,4.4-5.3,6.4c-15.3,15.4-39.6,17.3-57.2,4.6l4.6-4.6
		c6.3,4.3,13.7,6.6,21.3,6.6c0.9,0,1.8,0,2.7-0.1c9.1-0.7,17.6-4.6,24.1-11c1.5-1.5,2.9-3.1,4.1-4.9c0.6-0.8,0.4-2-0.4-2.6
		c-0.8-0.6-2-0.4-2.6,0.4l0,0c-10.6,14.9-31.1,18.8-46.5,8.9l5.5-5.5c10.4,5.9,23.5,4.2,32-4.3c0.7-0.7,0.7-1.9,0-2.6
		c-0.7-0.7-1.9-0.7-2.7,0c-7,7-17.7,8.7-26.6,4.2l11.7-11.7C77.2,234.4,78.9,233.5,80.2,232.2z M112.8,182.5l4.9,4.9l-22.2,32
		l-13,4.5c-0.7-2.7-2.6-4.9-5.1-6L112.8,182.5z M35.2,269.5l-4.9-4.9l22.2-32l13-4.5c0.7,2.7,2.6,4.9,5.1,6L35.2,269.5z M70.4,229.6
		c-0.9-0.9-1.5-2.2-1.5-3.6c0,0,0-0.1,0-0.1c0-0.2,0-0.3,0-0.5c0.1-1.1,0.6-2.2,1.4-3c2-2,5.2-2,7.2,0c0.9,0.9,1.5,2.2,1.5,3.5
		c0,0,0,0.1,0,0.1c0,0.2,0,0.3,0,0.5c-0.1,1.1-0.6,2.2-1.4,3C75.6,231.5,72.4,231.5,70.4,229.6L70.4,229.6z"/>
</g>
<g class="st3">
	<path d="M927.5,317.9c1.6-4.7-0.9-9.8-5.6-11.4c-2-0.7-4.1-0.6-6,0.1c-0.8-4.3-5-7.2-9.3-6.4c-2.3,0.4-4.4,1.9-5.5,4
		c-2.1-3.9-7-5.3-10.9-3.1c-2.1,1.2-3.5,3.2-4,5.5c-4.7-1.7-9.8,0.6-11.6,5.3c-0.7,1.9-0.8,4.1-0.1,6c-3.9,3-4.6,8.7-1.6,12.6
		c0.2,0.2,0.4,0.5,0.6,0.7c-3.2,3-3.3,8.1-0.3,11.3c0,0,0,0,0.1,0.1c-0.2,0.8-0.3,1.6-0.3,2.4c0,5.4,3.9,10,9.2,10.8
		c1,5.4,6.3,9,11.7,8c3.1-0.6,5.7-2.6,7.1-5.5c2.4,5,8.4,7,13.4,4.6c2.8-1.4,4.9-4,5.5-7.1c5.3-0.9,9.2-5.5,9.2-10.8
		c0-0.8-0.1-1.6-0.3-2.4c3.1-3.2,3-8.2-0.2-11.3c0,0,0,0-0.1-0.1c3.4-3.6,3.3-9.3-0.3-12.7C928,318.3,927.7,318.1,927.5,317.9
		L927.5,317.9z M909,322c0.6,0,1,0.4,1,1v16c0,0.6-0.4,1-1,1h-16c-0.6,0-1-0.4-1-1v-16c0-0.6,0.4-1,1-1H909z M892,362
		c-4.4,0-8-3.6-8-8s3.6-8,8-8c0.6,0,1-0.4,1-1s-0.4-1-1-1c-5.4,0-9.9,4.3-10,9.8c-4.8-1.1-7.9-5.9-6.8-10.8c0.4-1.7,1.2-3.2,2.5-4.4
		c0.4-0.4,0.4-1,0-1.4c-0.4-0.4-1-0.4-1.4,0c-0.9,0.9-1.7,2-2.3,3.2c-1.8-2.7-1.2-6.4,1.5-8.3c0,0,0.1-0.1,0.1-0.1
		c0,0,0.1,0,0.1-0.1l0,0c0-0.1,0.1-0.1,0.1-0.2c0-0.1,0-0.1,0.1-0.2c0-0.1,0-0.1,0-0.2c0-0.1,0-0.1,0-0.2c0-0.1,0-0.1-0.1-0.2
		c0-0.1,0-0.1-0.1-0.2v-0.1c0,0-0.1-0.1-0.1-0.1c0,0-0.1-0.1-0.1-0.1c-3-2.4-3.5-6.8-1.1-9.8c0.3-0.3,0.5-0.6,0.8-0.9
		c1.6,2.6,4.5,4.2,7.7,4.2c0.6,0,1-0.4,1-1s-0.4-1-1-1c-3.9,0-7-3.1-7.1-6.9c0-3.9,3.1-7,6.9-7.1c1.1,0,2.2,0.2,3.1,0.7
		c0.2,1.9,1,3.6,2.3,4.9c0.4,0.4,1,0.4,1.4,0c0.4-0.4,0.4-1,0-1.4l0,0c-2.3-2.4-2.2-6.2,0.2-8.5c2.4-2.3,6.2-2.2,8.5,0.2
		c1.1,1.1,1.7,2.6,1.7,4.1l0,0v12h-3v-1c0-0.6-0.4-1-1-1s-1,0.4-1,1v1h-2c-1.7,0-3,1.3-3,3v2h-1c-0.6,0-1,0.4-1,1s0.4,1,1,1h1v3h-1
		c-0.6,0-1,0.4-1,1s0.4,1,1,1h1v3h-1c-0.6,0-1,0.4-1,1s0.4,1,1,1h1v2c0,1.7,1.3,3,3,3h2v1c0,0.6,0.4,1,1,1s1-0.4,1-1v-1h3v12
		C900,358.4,896.4,362,892,362z M928,340.4c-0.6-1.2-1.3-2.3-2.3-3.2c-0.4-0.4-1-0.4-1.4,0c-0.4,0.4-0.4,1,0,1.4
		c3.6,3.5,3.6,9.2,0.1,12.7c-1.2,1.2-2.8,2.1-4.5,2.5c-0.1-5.4-4.6-9.8-10-9.8c-0.6,0-1,0.4-1,1s0.4,1,1,1c4.4,0,8,3.6,8,8
		s-3.6,8-8,8s-8-3.6-8-8v-12h3v1c0,0.6,0.4,1,1,1s1-0.4,1-1v-1h2c1.7,0,3-1.3,3-3v-2h1c0.6,0,1-0.4,1-1s-0.4-1-1-1h-1v-3h1
		c0.6,0,1-0.4,1-1s-0.4-1-1-1h-1v-3h1c0.6,0,1-0.4,1-1s-0.4-1-1-1h-1v-2c0-1.7-1.3-3-3-3h-2v-1c0-0.6-0.4-1-1-1s-1,0.4-1,1v1h-3v-12
		l0,0c0-3.3,2.7-6,6-6s6,2.7,6,6c0,1.6-0.6,3.1-1.7,4.2c-0.4,0.4-0.4,1,0,1.4c0.4,0.4,1,0.4,1.4,0c1.3-1.3,2.1-3.1,2.3-4.9
		c3.5-1.7,7.7-0.2,9.3,3.3c1.7,3.5,0.2,7.7-3.3,9.3c-0.9,0.4-2,0.7-3,0.7c-0.6,0-1,0.4-1,1s0.4,1,1,1c3.1,0,6-1.6,7.6-4.2
		c2.9,2.6,3.2,7,0.6,9.9c-0.3,0.3-0.6,0.6-0.9,0.8c0,0-0.1,0.1-0.1,0.1c0,0-0.1,0.1-0.1,0.1c0,0,0,0,0,0.1c-0.1,0.1-0.1,0.2-0.1,0.4
		c0,0.1,0,0.1,0,0.2c0,0.1,0,0.1,0,0.2c0,0.1,0.1,0.2,0.2,0.4l0,0c0,0,0.1,0,0.1,0.1c0,0,0.1,0.1,0.1,0.1
		C929.1,333.9,929.8,337.6,928,340.4L928,340.4z"/>
	<path d="M893,324v14c0,0.6,0.4,1,1,1h14c0.6,0,1-0.4,1-1v-14c0-0.6-0.4-1-1-1h-14C893.4,323,893,323.4,893,324z M895,325h12v12h-12
		V325z"/>
	<path d="M904,329h-6c-0.6,0-1,0.4-1,1s0.4,1,1,1h6c0.6,0,1-0.4,1-1S904.6,329,904,329z"/>
	<path d="M902,332h-2c-0.6,0-1,0.4-1,1s0.4,1,1,1h2c0.6,0,1-0.4,1-1S902.6,332,902,332z"/>
</g>
<path class="st2" d="M415.5,483c0-8.9-2.5-17.6-7.2-25.1c3.9-7.2,6.1-14.3,2.6-17.8c-3-3-9-2.1-17.8,2.6c-15.4-9.6-34.9-9.6-50.2,0
	c-8.8-4.8-14.8-5.7-17.8-2.6s-2.1,9,2.6,17.8c-9.6,15.4-9.6,34.9,0,50.2c-4.8,8.8-5.7,14.8-2.6,17.8c1.3,1.2,3.1,1.9,4.9,1.8
	c3.2,0,7.6-1.5,12.9-4.4c15.4,9.6,34.9,9.6,50.2,0c5.4,2.9,9.7,4.4,13,4.4c1.8,0.1,3.5-0.5,4.9-1.8c3.5-3.5,1.3-10.6-2.6-17.8
	C413,500.6,415.5,491.9,415.5,483z M411.5,483c0,7.4-1.9,14.7-5.5,21.1c-2.8-4.5-5.9-8.8-9.2-12.9c4.4-4.8,4.7-12.1,0.6-17.2
	c3.1-3.9,5.9-8,8.6-12.2C409.6,468.3,411.5,475.6,411.5,483z M377.9,482.3c0-5.1,4.1-9.2,9.2-9.2c5.1,0,9.2,4.1,9.2,9.2
	c0,5.1-4.1,9.2-9.2,9.2c0,0,0,0,0,0C382,491.5,377.9,487.4,377.9,482.3z M408.1,442.9c1.1,1.1,0.8,4.8-2.4,11.3
	c-2.6-3.3-5.5-6.3-8.9-8.9C403.5,442,407,441.9,408.1,442.9z M403.6,458.1c-2.7,4.6-5.8,9-9.1,13.3c-4.6-3.1-10.7-3-15.1,0.3
	c-11.1-11.1-22.7-20.6-32.5-26.6C366.3,434.1,390.8,439.8,403.6,458.1z M327.9,442.9c0.9-0.9,4.2-1.1,11.3,2.4
	c-3.3,2.6-6.3,5.6-8.9,8.9C327,447.5,326.9,444,327.9,442.9L327.9,442.9z M343.1,447.4l1.6,0.9c9.6,5.9,20.9,15.2,31.9,26.1
	c-3.7,4.9-3.4,11.8,0.6,16.4l-0.6,0.6c-11,11-22.3,20.3-31.9,26.1l-1.6,0.9c-19.7-13.7-24.5-40.8-10.7-60.5
	C335.2,453.9,338.9,450.3,343.1,447.4L343.1,447.4z M327.9,523.1c-1.1-1.1-1-4.6,2.4-11.3c2.6,3.3,5.6,6.3,8.9,8.9
	C332.1,524.2,328.8,524,327.9,523.1L327.9,523.1z M346.8,521c9.8-6,21.4-15.5,32.5-26.6l0.8-0.8c4.1,2.6,9.3,2.7,13.5,0.2
	c3.6,4.5,6.9,9.3,9.9,14.2C390.8,526.2,366.3,531.9,346.8,521L346.8,521z M408.1,523.1c-1.1,1.1-4.6,1-11.3-2.4
	c3.3-2.6,6.3-5.6,8.9-8.9C408.9,518.2,409.2,522,408.1,523.1L408.1,523.1z"/>
<g class="st3">
	<path d="M734.1,101.5h-44.6c-4.1,0-7.4,3.3-7.4,7.4v44.6c0,4.1,3.3,7.4,7.4,7.4h44.6c4.1,0,7.4-3.3,7.4-7.4v-44.6
		C741.5,104.8,738.2,101.5,734.1,101.5z M700.6,105.2c2.1,0,3.7,1.7,3.7,3.7s-1.7,3.7-3.7,3.7s-3.7-1.7-3.7-3.7c0,0,0,0,0,0
		C696.9,106.9,698.5,105.2,700.6,105.2L700.6,105.2z M689.4,105.2c2.1,0,3.7,1.7,3.7,3.7s-1.7,3.7-3.7,3.7s-3.7-1.7-3.7-3.7
		c0,0,0,0,0,0C685.7,106.9,687.4,105.2,689.4,105.2L689.4,105.2z M737.8,153.6c0,2.1-1.7,3.7-3.7,3.7h-44.6c-2.1,0-3.7-1.7-3.7-3.7
		v-33.5c0-2.1,1.7-3.7,3.7-3.7h44.6c2.1,0,3.7,1.7,3.7,3.7L737.8,153.6z"/>
	<path d="M705.1,143.9l-7.4-5.6c-0.8-0.6-1-1.8-0.4-2.6c0.1-0.2,0.2-0.3,0.4-0.4l7.4-5.6c0.8-0.6,2-0.4,2.6,0.4s0.4,2-0.4,2.6
		l-5.4,4.1l5.4,4.1c0.8,0.6,1,1.8,0.4,2.6S705.9,144.5,705.1,143.9L705.1,143.9z"/>
	<path d="M715.8,143.5c-0.5-0.8-0.4-1.9,0.4-2.6l5.4-4.1l-5.4-4.1c-0.8-0.6-1-1.8-0.4-2.6s1.8-1,2.6-0.4l7.4,5.6
		c0.8,0.6,1,1.8,0.4,2.6c-0.1,0.2-0.2,0.3-0.4,0.4l-7.4,5.6C717.6,144.4,716.5,144.3,715.8,143.5z"/>
</g>
<g class="st3">
	<path d="M276.8-10.5c0.3-0.9,0.4-1.8,0.5-2.7c0-4.6-3.7-8.3-8.3-8.3c-1,0-2,0.2-2.9,0.5c-0.7-3.5-3.7-6-7.3-6
		c-2.7,0-5.2,1.5-6.4,3.8c-1.3-2.3-3.7-3.8-6.4-3.8c-3.5,0-6.6,2.5-7.3,6c-0.9-0.4-1.9-0.5-2.9-0.5c-4.6,0-8.3,3.7-8.3,8.3
		c0,0.9,0.2,1.8,0.4,2.7c-2,1.6-3.2,4-3.2,6.6c0,2.1,0.8,4.2,2.3,5.8c-3,2.8-3.1,7.4-0.3,10.4c0,0,0.1,0.1,0.1,0.1
		c-0.2,0.7-0.2,1.5-0.3,2.2c0,5,3.6,9.2,8.5,10c0.9,5,5.7,8.3,10.7,7.4c2.9-0.5,5.3-2.4,6.6-5.1c2.2,4.6,7.7,6.5,12.3,4.3
		c2.6-1.3,4.5-3.7,5.1-6.6c4.9-0.8,8.5-5,8.5-10c0-0.8-0.1-1.5-0.3-2.2c2.8-2.9,2.8-7.5-0.1-10.4c0,0-0.1-0.1-0.1-0.1
		c1.5-1.5,2.3-3.6,2.3-5.8C280-6.6,278.8-9,276.8-10.5z M259.7-6.7c0.5,0,0.9,0.4,0.9,0.9c0,0,0,0,0,0V9c0,0.5-0.4,0.9-0.9,0.9l0,0
		H245c-0.5,0-1-0.3-1-0.8c0,0,0-0.1,0-0.1V-5.8c0-0.5,0.4-0.9,0.9-0.9L259.7-6.7z M244,30.2c-4.1-0.2-7.3-3.6-7.1-7.6
		c0.1-3.9,3.2-7,7.1-7.1c0.5,0,0.9-0.4,0.9-0.9s-0.4-0.9-0.9-0.9c-5,0-9.1,4-9.2,9c-4.5-1-7.3-5.4-6.3-9.9c0.3-1.6,1.1-3,2.3-4.1
		c0.4-0.4,0.4-0.9,0-1.3c-0.4-0.4-0.9-0.4-1.3,0l0,0c-0.9,0.9-1.6,1.9-2.1,3c-1.7-2.5-1.1-5.9,1.4-7.7c0,0,0.1-0.1,0.1-0.1l0.1-0.1
		l0,0c0-0.1,0.1-0.1,0.1-0.2c0,0,0-0.1,0.1-0.1c0-0.1,0-0.1,0-0.2c0,0,0-0.1,0-0.1c0-0.1,0-0.1-0.1-0.2c0-0.1,0-0.1-0.1-0.1v0
		c0,0-0.1-0.1-0.1-0.1c0,0,0-0.1-0.1-0.1c-1.5-1.2-2.4-3.1-2.4-5c0-1.9,0.8-3.6,2.2-4.8c1.5,2.4,4.1,3.9,7,3.9
		c0.5,0,0.9-0.4,0.9-0.9s-0.4-0.9-0.9-0.9c-3.6,0-6.4-2.9-6.4-6.4c0-3.6,2.9-6.4,6.4-6.4c1,0,1.9,0.2,2.8,0.6
		c0.1,1.7,0.9,3.3,2.1,4.5c0.2,0.2,0.4,0.3,0.7,0.3c0.2,0,0.5-0.1,0.6-0.3c0.4-0.4,0.4-0.9,0-1.3c-1-1-1.6-2.4-1.6-3.9
		c0-3.1,2.5-5.5,5.5-5.5c3,0,5.5,2.5,5.5,5.5l0,0v10.9h-2.8v-0.9c0-0.5-0.4-0.9-0.9-0.9c-0.5,0-0.9,0.4-0.9,0.9v0.9H245
		c-1.5,0-2.8,1.2-2.8,2.7c0,0,0,0,0,0V-4h-0.9c-0.5,0-0.9,0.4-0.9,0.9s0.4,0.9,0.9,0.9h0.9v2.8h-0.9c-0.5,0-0.9,0.4-0.9,0.9
		s0.4,0.9,0.9,0.9c0,0,0,0,0,0h0.9v2.8h-0.9c-0.5,0-0.9,0.4-0.9,0.9s0.4,0.9,0.9,0.9l0,0h0.9V9c0,1.5,1.3,2.7,2.8,2.7h1.8v0.9
		c0,0.5,0.4,0.9,0.9,0.9c0.5,0,0.9-0.4,0.9-0.9v-0.9h2.8v11.1C251.5,26.9,248.1,30.2,244,30.2C244,30.2,244,30.2,244,30.2z
		 M277.2,10.2c-0.5-1.1-1.2-2.1-2.1-3c-0.4-0.4-0.9-0.3-1.3,0c-0.4,0.4-0.3,0.9,0,1.3l0,0c3.3,3.2,3.3,8.5,0.1,11.7
		c-1.1,1.1-2.5,1.9-4.1,2.3c-0.1-5-4.2-9-9.2-9c-0.5,0-0.9,0.4-0.9,0.9s0.4,0.9,0.9,0.9c4.1,0,7.4,3.3,7.4,7.4
		c0,4.1-3.3,7.4-7.4,7.4c-4.1,0-7.4-3.3-7.4-7.4c0,0,0,0,0,0v-11h2.8v0.9c0,0.5,0.4,0.9,0.9,0.9c0.5,0,0.9-0.4,0.9-0.9v-0.9h1.9
		c1.5,0,2.8-1.2,2.8-2.7V7.1h0.9c0.5,0,0.9-0.4,0.9-0.9s-0.4-0.9-0.9-0.9h-0.9V2.5h0.9c0.5,0,0.9-0.4,0.9-0.9s-0.4-0.9-0.9-0.9h-0.9
		v-2.8h0.9c0.5,0,0.9-0.4,0.9-0.9c0,0,0,0,0,0c0-0.5-0.4-0.9-0.9-0.9l0,0h-0.9v-1.9c0-1.5-1.2-2.8-2.8-2.8h-1.9v-0.9
		c0-0.5-0.4-0.9-0.9-0.9l0,0c-0.5,0-0.9,0.4-0.9,0.9c0,0,0,0,0,0v0.9h-2.8v-11.1l0,0c0-3.1,2.5-5.5,5.5-5.5c3.1,0,5.5,2.5,5.5,5.5
		c0,1.4-0.6,2.8-1.6,3.9c-0.4,0.4-0.4,0.9,0,1.3c0.2,0.2,0.4,0.3,0.6,0.3c0.2,0,0.5-0.1,0.7-0.3c1.2-1.2,2-2.8,2.1-4.5
		c0.9-0.4,1.8-0.6,2.8-0.6c3.6,0,6.4,2.9,6.5,6.4c0,3.6-2.9,6.4-6.5,6.4c-0.5,0-0.9,0.4-0.9,0.9c0,0,0,0,0,0c0,0.5,0.4,0.9,0.9,0.9
		l0,0c2.9,0,5.5-1.5,7-3.9c1.4,1.2,2.2,3,2.2,4.8c0,1.9-0.9,3.8-2.4,5c0,0,0,0.1-0.1,0.1c0,0-0.1,0.1-0.1,0.1c0,0,0,0,0,0
		c0,0,0,0.1-0.1,0.1c0,0.1,0,0.1-0.1,0.2c0,0,0,0.1,0,0.1c0,0.1,0,0.1,0,0.2c0,0,0,0.1,0.1,0.1c0,0.1,0.1,0.1,0.1,0.2l0,0
		c0,0,0.1,0,0.1,0.1c0,0,0.1,0.1,0.1,0.1C278.3,4.2,278.9,7.6,277.2,10.2L277.2,10.2z"/>
	<path d="M245-4.9V8c0,0.5,0.4,0.9,0.9,0.9h12.9c0.5,0,0.9-0.4,0.9-0.9c0,0,0,0,0,0V-4.9c0-0.5-0.4-0.9-0.9-0.9l0,0h-12.9
		C245.4-5.8,245-5.4,245-4.9z M246.8-4h11.1V7.1h-11.1L246.8-4z"/>
	<path d="M255.1-0.3h-5.5c-0.5,0-0.9,0.4-0.9,0.9s0.4,0.9,0.9,0.9h5.5c0.5,0,0.9-0.4,0.9-0.9S255.6-0.3,255.1-0.3z"/>
	<path d="M253.3,2.5h-1.8c-0.5,0-0.9,0.4-0.9,0.9s0.4,0.9,0.9,0.9h1.8c0.5,0,0.9-0.4,0.9-0.9S253.8,2.5,253.3,2.5z"/>
</g>
<g class="st3">
	<path d="M303,650.7c2.3-6.7-1.2-14.1-7.9-16.4c-2.9-1-6-1-8.8,0.1c-1.1-6.2-7.1-10.4-13.4-9.2c-3.4,0.6-6.3,2.7-8,5.7
		c-3.1-5.6-10.1-7.6-15.6-4.5c-3,1.7-5.1,4.6-5.7,8c-6.7-2.5-14.1,0.8-16.6,7.5c-1.1,2.8-1.1,5.9-0.1,8.8
		c-5.6,4.3-6.7,12.4-2.4,18.1c0.3,0.4,0.6,0.7,0.9,1.1c-4.6,4.3-4.8,11.6-0.5,16.2c0.1,0.1,0.1,0.1,0.2,0.2
		c-0.3,1.1-0.4,2.3-0.4,3.5c0,7.7,5.6,14.3,13.2,15.6c1.4,7.8,8.9,12.9,16.7,11.5c4.5-0.8,8.4-3.8,10.3-7.9
		c3.4,7.2,12,10.2,19.1,6.8c4.1-2,7.1-5.8,7.9-10.3c7.6-1.2,13.2-7.8,13.2-15.6c0-1.2-0.1-2.3-0.4-3.5c4.4-4.5,4.4-11.8-0.2-16.2
		c-0.1-0.1-0.1-0.1-0.2-0.2c4.9-5.1,4.8-13.3-0.3-18.2C303.7,651.3,303.4,651,303,650.7z M276.4,656.6c0.8,0,1.4,0.6,1.4,1.4l0,0v23
		c0,0.8-0.6,1.4-1.4,1.4l0,0h-23c-0.8,0-1.4-0.6-1.4-1.4l0,0v-23c0-0.8,0.6-1.4,1.4-1.4l0,0H276.4z M251.9,714.1
		c-6.4,0-11.5-5.1-11.5-11.5s5.1-11.5,11.5-11.5c0.8-0.1,1.4-0.8,1.3-1.6c-0.1-0.7-0.6-1.3-1.3-1.3c-7.8,0-14.2,6.2-14.4,14
		c-7-1.6-11.3-8.5-9.8-15.4c0.5-2.4,1.8-4.7,3.6-6.4c0.6-0.5,0.7-1.4,0.2-2c-0.5-0.6-1.4-0.7-2-0.2c-0.1,0-0.1,0.1-0.2,0.2
		c-1.4,1.3-2.5,2.9-3.3,4.7c-2.7-3.9-1.7-9.2,2.2-11.9c0.1-0.1,0.1-0.1,0.2-0.2c0,0,0.1-0.1,0.1-0.1s0,0,0-0.1
		c0.1-0.1,0.1-0.2,0.1-0.3c0-0.1,0.1-0.1,0.1-0.2c0-0.1,0-0.2,0-0.3c0-0.1,0-0.2,0-0.2c0-0.1,0-0.2-0.1-0.3c0-0.1-0.1-0.2-0.1-0.2
		c0,0,0-0.1,0-0.1c-0.1-0.1-0.1-0.1-0.2-0.2c0,0-0.1-0.1-0.1-0.1c-4.3-3.4-5.1-9.7-1.7-14c0.4-0.5,0.8-1,1.3-1.4
		c2.4,3.8,6.5,6.1,11,6.1c0.8-0.1,1.4-0.8,1.3-1.6c-0.1-0.7-0.6-1.3-1.3-1.3c-5.6,0-10.1-4.5-10.1-10c0-5.6,4.5-10.1,10-10.1
		c1.5,0,3.1,0.3,4.5,1c0.2,2.7,1.4,5.2,3.2,7.1c0.6,0.5,1.5,0.5,2-0.1c0.5-0.5,0.5-1.3,0-1.9c-3.3-3.4-3.3-8.9,0.1-12.2
		c3.4-3.3,8.9-3.3,12.2,0.1c1.6,1.6,2.5,3.8,2.5,6.1l0,0v17.3h-4.3v-1.4c-0.1-0.8-0.8-1.4-1.6-1.3c-0.7,0.1-1.3,0.6-1.3,1.3v1.4
		h-2.9c-2.4,0-4.3,1.9-4.3,4.3v2.9h-1.5c-0.8,0-1.4,0.6-1.4,1.4s0.6,1.4,1.4,1.4l0,0h1.5v4.3h-1.5c-0.8,0-1.4,0.6-1.4,1.4
		s0.6,1.4,1.4,1.4l0,0h1.5v4.3h-1.5c-0.8,0-1.4,0.6-1.4,1.4s0.6,1.4,1.4,1.4l0,0h1.5v2.9c0,2.4,1.9,4.3,4.3,4.3h2.9v1.5
		c0,0.8,0.6,1.4,1.4,1.4s1.4-0.6,1.4-1.4v-1.5h4.3v17.3C263.4,709,258.3,714.2,251.9,714.1L251.9,714.1z M303.6,683
		c-0.8-1.7-1.9-3.3-3.3-4.6c-0.5-0.6-1.4-0.7-2-0.1c-0.6,0.5-0.7,1.4-0.1,2c0,0.1,0.1,0.1,0.2,0.2c5.1,5,5.2,13.2,0.2,18.3
		c-1.7,1.8-4,3-6.4,3.6c-0.2-7.8-6.6-14-14.4-14c-0.8,0-1.4,0.6-1.4,1.4s0.6,1.4,1.4,1.4c6.4,0,11.5,5.1,11.5,11.5
		s-5.1,11.5-11.5,11.5s-11.5-5.1-11.5-11.5v-17.3h4.3v1.5c0,0.8,0.6,1.4,1.4,1.4s1.4-0.6,1.4-1.4v-1.5h2.9c2.4,0,4.3-1.9,4.3-4.3
		v-2.9h1.4c0.8-0.1,1.4-0.8,1.3-1.6c-0.1-0.7-0.6-1.3-1.3-1.3h-1.4V671h1.4c0.8-0.1,1.4-0.8,1.3-1.6c-0.1-0.7-0.6-1.3-1.3-1.3h-1.4
		v-4.3h1.4c0.8-0.1,1.4-0.8,1.3-1.6c-0.1-0.7-0.6-1.3-1.3-1.3h-1.4v-2.9c0-2.4-1.9-4.3-4.3-4.3h-2.9v-1.4c-0.1-0.8-0.8-1.4-1.6-1.3
		c-0.7,0.1-1.3,0.6-1.3,1.3v1.4h-4.3v-17.2l0,0c0-4.8,3.8-8.6,8.6-8.7c4.8,0,8.6,3.8,8.7,8.6c0,2.3-0.9,4.5-2.5,6.1
		c-0.6,0.5-0.7,1.4-0.1,2c0.5,0.6,1.4,0.7,2,0.1c0.1,0,0.1-0.1,0.2-0.2c1.9-1.9,3-4.4,3.2-7.1c5-2.4,11-0.3,13.4,4.7
		s0.3,11-4.7,13.4c-1.4,0.7-2.9,1-4.4,1c-0.8,0-1.4,0.6-1.4,1.4s0.6,1.4,1.4,1.4c4.5,0,8.6-2.3,11-6.1c4.2,3.6,4.6,9.9,1,14.1
		c-0.4,0.5-0.9,0.9-1.4,1.3c0,0-0.1,0.1-0.1,0.1c-0.1,0.1-0.1,0.1-0.2,0.2c0,0,0,0.1,0,0.1c-0.1,0.2-0.1,0.3-0.2,0.5
		c0,0.1,0,0.2,0,0.2c0,0.1,0,0.2,0,0.3c0.1,0.2,0.1,0.3,0.2,0.5c0,0,0,0,0,0.1s0.1,0.1,0.1,0.1c0.1,0.1,0.1,0.1,0.2,0.2
		C305.4,673.7,306.3,679.1,303.6,683C303.6,683,303.6,683,303.6,683z"/>
	<path d="M253.4,659.5v20.1c0,0.8,0.6,1.4,1.4,1.4l0,0h20.1c0.8,0,1.4-0.6,1.4-1.4l0,0v-20.1c0-0.8-0.6-1.4-1.4-1.4l0,0h-20.1
		C254,658.1,253.4,658.7,253.4,659.5z M256.3,660.9h17.3v17.3h-17.3L256.3,660.9z"/>
	<path d="M269.2,666.7h-8.6c-0.8,0-1.4,0.6-1.4,1.4s0.6,1.4,1.4,1.4l0,0h8.6c0.8-0.1,1.4-0.8,1.3-1.6
		C270.4,667.3,269.9,666.8,269.2,666.7L269.2,666.7z"/>
	<path d="M266.3,671h-2.9c-0.8,0-1.4,0.6-1.4,1.4s0.6,1.4,1.4,1.4h2.9c0.8-0.1,1.4-0.8,1.3-1.6C267.6,671.6,267,671.1,266.3,671
		L266.3,671z"/>
</g>
<g class="st3">
	<path d="M620.9,367.9c0.8-0.7,1.3-1.7,1.5-2.8l9.2-3.2c0.2-0.1,0.4-0.2,0.6-0.4l14.6-21.1c0.3-0.5,0.3-1.1-0.1-1.5l-4.6-4.6
		c-0.5-0.5-1.2-0.5-1.7,0c0,0,0,0,0,0l-5.5,5.5c-13.3-9.9-32.1-7.1-42,6.2c-0.5,0.7-1.1,1.5-1.5,2.3c-0.3,0.6-0.2,1.3,0.4,1.6
		c0.6,0.3,1.3,0.2,1.6-0.4c8-13,25-17.1,38.1-9.2c0.6,0.4,1.2,0.7,1.7,1.2l-2.9,2.9c-10.8-7.3-25.6-4.5-32.9,6.3
		c0,0-0.1,0.1-0.1,0.1c-0.4,0.5-0.2,1.3,0.3,1.6s1.3,0.2,1.6-0.3c6.5-9.7,19.6-12.4,29.4-6l-3.4,3.4c-6.5-3.7-14.7-2.6-20,2.7
		c-0.5,0.5-0.5,1.2,0,1.7c0.5,0.5,1.2,0.5,1.7,0l0,0c4.4-4.4,11.1-5.4,16.6-2.6l-7.3,7.3c-2.3,0.3-4.1,2-4.6,4.3l-9.2,3.2
		c-0.2,0.1-0.4,0.2-0.6,0.4l-14.6,21.1c-0.3,0.5-0.3,1.1,0.1,1.5l4.6,4.6c0.5,0.5,1.2,0.5,1.7,0c0,0,0,0,0,0l5.5-5.5
		c5.2,3.8,11.5,5.9,17.9,5.8c0.5,0,1.1,0,1.6,0c7.4-0.4,14.4-3.5,19.6-8.7c1.3-1.3,2.5-2.8,3.6-4.3c0.4-0.5,0.2-1.3-0.3-1.6
		s-1.3-0.2-1.6,0.3l0,0c-1,1.4-2.1,2.8-3.3,4c-9.6,9.6-24.7,10.8-35.7,2.9l2.9-2.9c3.9,2.6,8.6,4.1,13.3,4c0.6,0,1.1,0,1.7-0.1
		c5.7-0.4,11-2.9,15-6.9c0.9-0.9,1.8-1.9,2.6-3c0.4-0.5,0.3-1.3-0.3-1.6c-0.5-0.4-1.3-0.3-1.6,0.3c-6.6,9.3-19.4,11.8-29,5.5
		l3.4-3.4c6.5,3.7,14.7,2.6,20-2.7c0.5-0.5,0.5-1.2,0-1.7c-0.5-0.5-1.2-0.5-1.7,0c-4.4,4.4-11.1,5.4-16.6,2.6l7.3-7.3
		C619,369.3,620,368.7,620.9,367.9z M641.2,336.9l3,3l-13.9,20l-8.1,2.8c-0.4-1.7-1.6-3.1-3.2-3.7L641.2,336.9z M592.7,391.2l-3-3.1
		l13.9-20l8.1-2.8c0.4,1.7,1.6,3.1,3.2,3.7L592.7,391.2z M614.7,366.3c-0.6-0.6-0.9-1.4-0.9-2.2l0,0c0-0.1,0-0.2,0-0.3
		c0.1-0.7,0.4-1.4,0.9-1.9c1.2-1.2,3.2-1.2,4.5,0c0.6,0.6,0.9,1.4,0.9,2.2l0,0c0,0.1,0,0.2,0,0.3c-0.1,0.7-0.4,1.4-0.9,1.9
		C617.9,367.5,616,367.5,614.7,366.3L614.7,366.3z"/>
</g>
</svg>
