<svg id="Layer_1" data-name="Layer 1" xmlns="http://www.w3.org/2000/svg" viewBox="0 0 1593 653.1"><defs><style>.cls-1{opacity:0.3;}</style></defs><title>doodle-contact</title><path class="cls-1" d="M88.55,607.57,32.63,652.73a1.65,1.65,0,0,1-2.32-.25q-1.73-2.14-3.47-4.25c-3.21-3.91-6.52-8-9.56-12.13-1.53-2.09-.66-5.71-.36-6.76.75-2.64,1.43-5.48,2.11-8.34l.17-.73c-1.87,2.28-3.83,4.56-5.06,5.79-1.4,1.37-5.58,2-7,.47A37.41,37.41,0,0,1,.34,617c-1.05-2.25.52-5.69,1.76-7.34a129.76,129.76,0,0,1,22.18-22.93l.75-.6.73-.59a129.44,129.44,0,0,1,27.09-16.86c1.87-.87,5.56-1.68,7.54-.18a37.54,37.54,0,0,1,7.92,8.62c1.18,1.7-.2,5.4-1.67,6.58h0l-.28.2c-1.46.93-4.11,2.37-6.73,3.72l.75,0c2.95-.06,5.87-.13,8.6-.31,1.09-.07,4.81-.16,6.54,1.77,3.43,3.84,6.68,7.93,9.83,11.88q1.72,2.16,3.44,4.3A1.66,1.66,0,0,1,88.55,607.57ZM31.83,649.12,85.19,606l-2.42-3c-3.11-3.92-6.34-8-9.71-11.74-.38-.42-2-.8-3.86-.68-2.78.18-5.75.25-8.75.31s-5.8.13-8.59.3a1.65,1.65,0,0,1-.34-3.28c.7-.28,9.42-4.5,13.06-6.81a4.42,4.42,0,0,0,.88-2.39,35.16,35.16,0,0,0-7.07-7.6c-.44-.31-2.57-.19-4.15.55a126.11,126.11,0,0,0-26.39,16.43l-.73.59-.75.6A126.43,126.43,0,0,0,4.74,611.62c-1,1.4-1.62,3.45-1.4,4a34.1,34.1,0,0,0,6.19,8.69,6.75,6.75,0,0,0,2.3-.55,139.54,139.54,0,0,0,9.49-11.52,1.54,1.54,0,0,1,2-.89,1.74,1.74,0,0,1,1,2.12c-.75,2.69-1.43,5.52-2.1,8.33s-1.38,5.81-2.15,8.48c-.51,1.77-.49,3.45-.15,3.92,3,4.09,6.27,8.1,9.44,12Zm23.52-25.45-.54.44c-5.06,3.93-12.48,3.28-16.2-1.41s-2.73-11.92,2.3-16h0l.86-.7c5.07-4.06,12.31-3.55,16.15,1.12s2.87,12-2,16.12ZM43,609.25c-3.63,3-4.44,8.07-1.79,11.4s8,3.65,11.57.86l.5-.4.51-.41c3.48-2.91,4.22-8.29,1.59-11.49s-7.87-3.57-11.53-.64Zm.21-13.54L30.57,605.91a1.65,1.65,0,0,1-2.25-.17l-4.12-4.48a1.65,1.65,0,0,1,.18-2.4l13.26-10.7a1.65,1.65,0,0,1,2.39.33l3.51,5A1.65,1.65,0,0,1,43.21,595.7ZM29.7,602.36l10.23-8.26-1.6-2.27-10.51,8.49Z"/><path class="cls-1" d="M1356.49,24.9a15.14,15.14,0,0,0-6.93,29.47l14.74,3.47a15.18,15.18,0,0,0,18.2-11.27,30.28,30.28,0,1,0-36.4,22.54L1375.57,76l1.73-7.37-29.47-6.93a22.71,22.71,0,1,1,27.3-16.91,7.59,7.59,0,0,1-9.1,5.64L1364,50a15,15,0,0,0-7.48-25.08Zm-5.2,22.1a7.57,7.57,0,1,1,9.1-5.64A7.59,7.59,0,0,1,1351.29,47Z"/><g class="cls-1"><path d="M81.49,77.87a5.26,5.26,0,0,1-3.74-1.55L52,50.58a5.3,5.3,0,0,1,0-7.49L93.56,1.55a5.3,5.3,0,0,1,7.49,0l25.74,25.74a5.3,5.3,0,0,1,0,7.49L85.24,76.32A5.26,5.26,0,0,1,81.49,77.87ZM97.3,2.27a3,3,0,0,0-2.14.89L53.62,44.7a3,3,0,0,0,0,4.28L79.35,74.71a3,3,0,0,0,4.28,0l41.54-41.54a3,3,0,0,0,0-4.28L99.44,3.16A3,3,0,0,0,97.3,2.27Z"/><path d="M60.73,46.15a1.13,1.13,0,0,1-.09-2.27l31.18-2.53,2.53-31.18a1.13,1.13,0,1,1,2.26.18L94,42.5a1.13,1.13,0,0,1-1,1L60.83,46.15Z"/><path d="M83.32,68.74a1.13,1.13,0,0,1-1.13-1.09l-.87-23.45a1.13,1.13,0,0,1,2.27-.08l.87,23.45a1.13,1.13,0,0,1-1.09,1.18Z"/><path d="M118.07,34h0l-23.45-.87a1.13,1.13,0,0,1,.08-2.27l23.45.87a1.13,1.13,0,0,1,0,2.27Z"/><path d="M79.92,6H47.77a1.13,1.13,0,1,1,0-2.27H79.92a1.13,1.13,0,1,1,0,2.27Z"/><path d="M74.24,13.59H47.77a1.13,1.13,0,1,1,0-2.27H74.24a1.13,1.13,0,0,1,0,2.27Z"/><path d="M66.68,21.16H47.77a1.13,1.13,0,0,1,0-2.27H66.68a1.13,1.13,0,0,1,0,2.27Z"/><path d="M59.11,28.72H47.77a1.13,1.13,0,1,1,0-2.27H59.11a1.13,1.13,0,0,1,0,2.27Z"/></g><g class="cls-1"><path d="M1567.32,388.12a.5.5,0,0,0,.7,0l.15-.15a14,14,0,0,1,19.79,0l.5.5a15.5,15.5,0,0,1,0,21.92l-16.91,16.91a5.5,5.5,0,0,1-7.78,0l-16.91-16.91a15.51,15.51,0,0,1,0-21.92l.5-.5a14,14,0,0,1,19.79,0Zm-16.41,3.38-.5.5a10.51,10.51,0,0,0,0,14.85l16.91,16.91a.5.5,0,0,0,.71,0l16.91-16.91a10.5,10.5,0,0,0,0-14.85l-.5-.5a9,9,0,0,0-12.72,0l-.15.15a5.5,5.5,0,0,1-7.77,0l-.15-.15A9,9,0,0,0,1550.91,391.51Z"/></g></svg>