<svg id="Layer_1" data-name="Layer 1" xmlns="http://www.w3.org/2000/svg" viewBox="0 0 1680.87 361.75"><defs><style>.cls-1{opacity:0.6;}.cls-2{fill:#42210b;}.cls-3{fill:#f15a24;}</style></defs><title>doodle2_tools</title><g class="cls-1"><path class="cls-2" d="M79.65,55l.51-.34c1-.81,2.14-1.69,3.4-2.71a20.65,20.65,0,0,0,5.25,2.43c0,1.64.09,3.07.17,4.36l0,.57.56.17a25.35,25.35,0,0,0,9,.37l.58-.12,0-.57c.2-1.28.4-2.69.54-4.33a20.65,20.65,0,0,0,5.43-2c1.17,1.12,2.2,2.09,3.16,3l.48.38.44-.27a25.72,25.72,0,0,0,6.68-6.14l.3-.42-.34-.51c-.81-1-1.69-2.14-2.71-3.4a20.65,20.65,0,0,0,2.43-5.25c1.64,0,3.07-.09,4.36-.17l.57,0,.17-.56a25.35,25.35,0,0,0,.37-9l-.12-.58-.57,0c-1.28-.2-2.69-.4-4.33-.54A20.65,20.65,0,0,0,114,24c1.12-1.17,2.09-2.2,3-3.16l.38-.48-.27-.44a23,23,0,0,0-2.77-3.61,23,23,0,0,0-3.37-3.07l-.42-.3-.51.34c-1,.81-2.14,1.69-3.4,2.71a20.65,20.65,0,0,0-5.25-2.43c-.08-1.57-.09-3.07-.17-4.36l0-.57-.56-.17a25.35,25.35,0,0,0-9-.37l-.58.12L91,8.7c-.2,1.28-.4,2.69-.54,4.33A20.65,20.65,0,0,0,85,15c-1.17-1.12-2.2-2.09-3.16-3l-.42-.3L81,12a27.41,27.41,0,0,0-6.68,6.14l-.3.42.34.51c.81,1,1.69,2.14,2.71,3.4a20.65,20.65,0,0,0-2.43,5.25c-1.57.08-3.07.09-4.36.17l-.57,0-.17.56a25.35,25.35,0,0,0-.37,9l.12.58.57,0c1.28.2,2.69.4,4.33.54a20.65,20.65,0,0,0,2,5.43c-1.12,1.17-2.09,2.2-3,3.16l-.38.48.27.44a25.72,25.72,0,0,0,6.14,6.68Zm-5-7.34Q76,46.24,77.59,44.6l.37-.34-.27-.44a21.72,21.72,0,0,1-2.25-6l-.12-.58-.57,0c-1.56-.21-3-.27-4.26-.46a25.84,25.84,0,0,1,.31-7.41c1.29-.09,2.64-.1,4.29-.11l.57,0,.17-.56a20.51,20.51,0,0,1,2.74-5.81l.3-.42-.34-.37c-.95-1.18-1.9-2.36-2.64-3.32a23.15,23.15,0,0,1,5.49-5.05l3.09,2.91.34.37.44-.27a21.72,21.72,0,0,1,6-2.25l.58-.12,0-.57c.21-1.56.27-3,.46-4.26a25.84,25.84,0,0,1,7.41.31c.09,1.29.1,2.64.11,4.29l0,.57.56.17a20.51,20.51,0,0,1,5.81,2.74l.42.3.37-.34c1.18-.95,2.36-1.9,3.32-2.64A23.27,23.27,0,0,1,113,17.47a24.23,24.23,0,0,1,2.3,3c-.82.89-1.87,2-2.91,3.09l-.37.34.42.3a21.72,21.72,0,0,1,2.25,6l.12.58.57,0c1.56.21,3,.27,4.26.46a25.84,25.84,0,0,1-.31,7.41c-1.29.09-2.64.1-4.29.11l-.64,0-.17.56a20.51,20.51,0,0,1-2.74,5.81l-.3.42.34.37c.95,1.18,1.9,2.36,2.64,3.32a23.15,23.15,0,0,1-5.49,5.05l-3.09-2.91-.34-.37-.44.27a21.72,21.72,0,0,1-6,2.25l-.58.12,0,.57c-.21,1.56-.34,2.91-.46,4.26a25.84,25.84,0,0,1-7.41-.31c-.09-1.29-.1-2.64-.11-4.29l0-.57-.56-.17a19.23,19.23,0,0,1-5.88-2.67l-.42-.3-.37.34c-1.18.95-2.36,1.9-3.32,2.64A23.27,23.27,0,0,1,77,50.64,22.36,22.36,0,0,1,74.68,47.69Z"/><path class="cls-2" d="M100.48,39.84a8,8,0,1,0-11.25-.47A7.92,7.92,0,0,0,100.48,39.84ZM90.65,29.16a6.55,6.55,0,1,1-.39,9.26A6.54,6.54,0,0,1,90.65,29.16Z"/><path class="cls-2" d="M147.77,24.7l.17-.56-.49-.23c-.63-.38-1.39-.77-2.16-1.16a15.37,15.37,0,0,0,.13-3.13c.8-.32,1.53-.72,2.18-1.05l.51-.19-.12-.58a15.93,15.93,0,0,0-2-5.29l-.27-.44-.58.12-2.38.69a17.24,17.24,0,0,0-2.18-2.37c.32-.84.57-1.62.88-2.32l.17-.56-.34-.37a14.38,14.38,0,0,0-2.51-1.39c-.84-.32-1.75-.72-2.67-1l-.56-.17-.23.49c-.38.63-.77,1.39-1.16,2.16A15.37,15.37,0,0,0,131,7.23C130.63,6.36,130.3,5.7,130,5l-.19-.51-.58.12a15.93,15.93,0,0,0-5.29,2l-.44.27.12.58.69,2.38a17.24,17.24,0,0,0-2.37,2.18c-.84-.32-1.62-.57-2.32-.88l-.49-.23-.3.42a14.38,14.38,0,0,0-1.39,2.51c-.32.84-.72,1.75-1,2.67l-.17.56.49.23c.63.38,1.39.77,2.16,1.16a15.37,15.37,0,0,0-.13,3.13c-.8.32-1.53.72-2.18,1.05l-.51.19,0,.64a15.93,15.93,0,0,0,2,5.29l.27.44.58-.12,2.38-.69a17.24,17.24,0,0,0,2.18,2.37c-.32.84-.57,1.62-.88,2.32l-.17.56.42.3a14.38,14.38,0,0,0,2.51,1.39c.84.32,1.75.72,2.67,1l.56.17.23-.49c.38-.63.77-1.39,1.16-2.16a15.37,15.37,0,0,0,3.13.13c.32.8.72,1.53,1.05,2.18l.27.44.58-.12a15.93,15.93,0,0,0,5.29-2l.44-.27-.12-.58L140,31.29a17.24,17.24,0,0,0,2.37-2.18c.84.32,1.62.57,2.32.88l.56.17.3-.42A14.38,14.38,0,0,0,147,27.23,13.49,13.49,0,0,0,147.77,24.7Zm-3.23,3.79c-.63-.24-1.41-.49-2.25-.81l-.49-.23-.3.42a12.21,12.21,0,0,1-2.82,2.59l-.44.27.19.51c.25.87.5,1.59.69,2.24a13.2,13.2,0,0,1-3.77,1.41c-.33-.66-.58-1.38-1-2.11l-.19-.51-.5.05a11.62,11.62,0,0,1-3.85-.16l-.5-.09-.23.49c-.39.77-.77,1.39-1.15,2l-1.9-.72a6.08,6.08,0,0,1-1.74-1c.24-.63.49-1.41.81-2.25l.23-.49-.42-.3A12.21,12.21,0,0,1,122.35,27l-.27-.44-.66.33c-.87.25-1.59.5-2.24.69a13.2,13.2,0,0,1-1.41-3.77c.66-.33,1.38-.58,2.11-1l.51-.19-.05-.5a11.62,11.62,0,0,1,.16-3.85l.09-.5-.49-.23c-.77-.39-1.39-.77-2-1.15l.72-1.9a6.08,6.08,0,0,1,1-1.74c.63.24,1.41.49,2.25.81l.49.23.3-.42a12.21,12.21,0,0,1,2.82-2.59l.44-.27-.19-.51c-.25-.87-.5-1.59-.69-2.24A13.2,13.2,0,0,1,129,6.36c.33.66.58,1.38,1,2.11l.19.51.5-.05a11.62,11.62,0,0,1,3.85.16l.5.09.23-.49c.39-.77.77-1.39,1.15-2l1.9.72a6.08,6.08,0,0,1,1.74,1c-.24.63-.49,1.41-.81,2.25l-.23.49.42.3A12.21,12.21,0,0,1,142,14.25l.35.23.51-.19c.87-.25,1.59-.5,2.24-.69a13.2,13.2,0,0,1,1.41,3.77c-.66.33-1.38.58-2.11,1l-.51.19.05.5a11.62,11.62,0,0,1-.16,3.85l-.09.5.49.23c.77.39,1.39.77,2,1.15l-.72,1.9A10.75,10.75,0,0,1,144.55,28.49Z"/><path class="cls-2" d="M135.79,12.57a8.6,8.6,0,0,0-6.77-.21,8.72,8.72,0,0,0-5,4.57,8.81,8.81,0,0,0,4.36,11.74,8.6,8.6,0,0,0,6.77.21,9.84,9.84,0,0,0,2.93-1.73,8,8,0,0,0,2-2.84A8.81,8.81,0,0,0,135.79,12.57Zm3,11a6.89,6.89,0,0,1-4.16,3.82,7.35,7.35,0,0,1-9.29-9.95,7.12,7.12,0,0,1,1.67-2.36,9.26,9.26,0,0,1,2.42-1.54,7.34,7.34,0,0,1,5.63.16A7.42,7.42,0,0,1,138.83,23.61Z"/></g><g class="cls-1"><path class="cls-3" d="M1669.62,96.19l-.32-.07a4.05,4.05,0,0,1-3.16-3.48l-.08-.63-3.78-4.43L1659,90.36l-9.35-11L1649,75.9l-7.54-5.9-4.5,3.84,4.63,8.39,3.33,1.23,9.35,11L1651,97.23l3.78,4.43.61.18a4.05,4.05,0,0,1,2.93,3.68l0,.33,9.3,10.92a7.83,7.83,0,0,0,5.34,2.73,7.25,7.25,0,0,0,5.14-1.55,7.45,7.45,0,0,0,1-10.63Zm-13.9-3L1646,81.81l-3.13-1.15-3.51-6.37,2.09-1.79,5.72,4.48.64,3.27,9.68,11.37-1.6,1.37Zm21.16,23.26a5.67,5.67,0,0,1-7.78-.93l-8.89-10.43a6,6,0,0,0-4.31-5.1l-2.19-2.52,3.13-2.67,3.44-2.93h0l1.79-1.53,2.14,2.51v.05a6,6,0,0,0,4.35,5.06l9.06,10.64a5.51,5.51,0,0,1-.75,7.86Z"/><rect class="cls-3" x="1666.6" y="101.72" width="1.94" height="13.23" transform="translate(327.82 1107.13) rotate(-40.42)"/><rect class="cls-3" x="1669.64" y="99.12" width="1.94" height="13.23" transform="translate(330.23 1108.48) rotate(-40.42)"/></g></svg>