<svg id="Layer_1" data-name="Layer 1" xmlns="http://www.w3.org/2000/svg" viewBox="0 0 1516.64 868.2"><defs><style>.cls-1{fill:#ed1c24;}.cls-2{fill:#ff1d25;}.cls-3{fill:#29abe2;}.cls-4{fill:#fbb03b;}</style></defs><title>doodle_testimonial</title><circle class="cls-1" cx="14.09" cy="72.92" r="4.17" transform="translate(-46.44 29.89) rotate(-43.66)"/><circle class="cls-1" cx="31.12" cy="90.77" r="4.17" transform="translate(-54.05 46.58) rotate(-43.66)"/><path class="cls-1" d="M4.76,98.85A17.13,17.13,0,0,1,.16,84.68a2,2,0,0,1,4,.53,13.24,13.24,0,0,0,14.26,14.94,2,2,0,1,1,.35,4A17.17,17.17,0,0,1,4.76,98.85Z"/><circle class="cls-2" cx="1203.71" cy="11.99" r="4.95" transform="translate(32.35 289.43) rotate(-13.9)"/><circle class="cls-2" cx="1232.14" cy="4.95" r="4.95" transform="translate(34.87 296.05) rotate(-13.9)"/><path class="cls-2" d="M1224.94,36.89a20.33,20.33,0,0,1-17.32-3.61,2.37,2.37,0,0,1,2.88-3.77,15.71,15.71,0,0,0,23.8-5.89,2.37,2.37,0,1,1,4.31,2A20.38,20.38,0,0,1,1224.94,36.89Z"/><circle class="cls-3" cx="679.44" cy="80.98" r="5.05" transform="translate(431.22 718.62) rotate(-75.53)"/><circle class="cls-3" cx="708.34" cy="88.44" r="5.05" transform="translate(445.68 752.2) rotate(-75.53)"/><path class="cls-3" d="M686.42,113.59A20.72,20.72,0,0,1,672.64,102a2.42,2.42,0,0,1,4.41-2,16,16,0,0,0,24.19,6.24,2.42,2.42,0,0,1,2.9,3.87A20.77,20.77,0,0,1,686.42,113.59Z"/><circle class="cls-4" cx="1486.15" cy="791.38" r="4.17" transform="translate(-178.93 541.51) rotate(-19.5)"/><circle class="cls-4" cx="1509.41" cy="783.14" r="4.17" transform="matrix(0.94, -0.33, 0.33, 0.94, -174.85, 548.8)"/><path class="cls-4" d="M1506,810.51a17.13,17.13,0,0,1-14.81-1.6,2,2,0,1,1,2.11-3.4,13.24,13.24,0,0,0,19.47-6.89,2,2,0,0,1,3.78,1.32A17.17,17.17,0,0,1,1506,810.51Z"/><circle cx="710.09" cy="836.92" r="4.17" transform="translate(-381.41 721.63) rotate(-43.66)"/><circle cx="727.12" cy="854.77" r="4.17" transform="translate(-389.02 738.32) rotate(-43.66)"/><path d="M700.76,862.85a17.13,17.13,0,0,1-4.6-14.17,2,2,0,0,1,4,.53,13.24,13.24,0,0,0,14.26,14.94,2,2,0,0,1,.35,4A17.17,17.17,0,0,1,700.76,862.85Z"/></svg>