<svg id="Layer_1" data-name="Layer 1" xmlns="http://www.w3.org/2000/svg" viewBox="0 0 291.45 757.06"><defs><style>.cls-1{opacity:0.2;}.cls-2{opacity:0.5;}.cls-3,.cls-4{fill:none;stroke:#000;stroke-miterlimit:10;}.cls-4{stroke-dasharray:12.3 12.3;}</style></defs><title>doodle_projects</title><g class="cls-1"><path d="M211.15,17.8h0a4.87,4.87,0,0,0-1.2-.1,8.92,8.92,0,0,0-8.9,8.9,7.46,7.46,0,0,0,.4,2.6h2.9a1,1,0,0,1,0,2h-7.5a1,1,0,0,1,0-2h2.6a11.53,11.53,0,0,1-.3-2.6,10.93,10.93,0,0,1,10.9-10.9h.6a21,21,0,0,1,41,1.9,11.23,11.23,0,0,1,6.2-1.8,11.48,11.48,0,0,1,11.2,8.8,7.72,7.72,0,0,1,1.5-.2,7,7,0,0,1,6.7,4.9h13.2a1,1,0,0,1,0,2H266a1,1,0,0,1,0-2h8.9a5.13,5.13,0,0,0-4.6-2.9,4.06,4.06,0,0,0-1.9.4h-.6l-.1-.1c-.1,0-.1-.1-.2-.1l-.1-.1c0-.1-.1-.1-.1-.2V26a9.41,9.41,0,0,0-9.4-8.2,9.68,9.68,0,0,0-6.3,2.4.1.1,0,0,0-.1.1c-.1,0-.1.1-.2.1h-.5c-.1,0-.2,0-.2-.1a.1.1,0,0,1-.1-.1c-.1,0-.1-.1-.2-.1h0a.1.1,0,0,0-.1-.1c0-.1-.1-.1-.1-.2v-.3a19,19,0,0,0-37.2-3.5,11.66,11.66,0,0,1,2.6,1,1,1,0,0,1-1,1.8,8.88,8.88,0,0,0-3.3-1Z"/><path d="M225.35,35.4h50.4a1,1,0,0,1,0,2h-50.4a1,1,0,0,1,0-2Z"/><path d="M192.45,35.4h18.2a1,1,0,0,1,0,2h-18.2a1,1,0,0,1,0-2Z"/></g><g class="cls-2"><path d="M122.76,678.7l-8.7,8.7a1,1,0,0,1-1.71-.64l-1-15.4-10.58-6.83a1,1,0,0,1,.12-1.75l54-25a1,1,0,0,1,1.31,1.36l-23,45a1,1,0,0,1-1.43.39Zm-9.28-6,.73,11.71,6.83-6.83Zm5.29,1L132,682.26l21.18-41.44-49.72,23L117,672.63,130.67,660a1,1,0,1,1,1.36,1.47Z"/><path class="cls-3" d="M.35,756.7s1.56-1.55,4.24-4.24"/><path class="cls-4" d="M13.23,743.7c19.53-20,55-57.49,61.13-72,16-38-27.63-60.7-50-28-39,57,23,74,51,65.66a86.27,86.27,0,0,0,30.44-16.1"/><path class="cls-3" d="M110.32,689.13a44.52,44.52,0,0,0,4-4.43"/></g></svg>