<svg id="Layer_1" data-name="Layer 1" xmlns="http://www.w3.org/2000/svg" viewBox="0 0 310 310"><defs><style>.cls-1{fill:#fff;}</style></defs><title>facebook</title><g id="_Group_" data-name="&lt;Group&gt;"><path id="_Path_" data-name="&lt;Path&gt;" class="cls-1" d="M81.7,165.11h34V305a5,5,0,0,0,5,5H178.3a5,5,0,0,0,5-5V165.76h39.06a5,5,0,0,0,5-4.43l5.93-51.5a5,5,0,0,0-5-5.57h-45V72c0-9.73,5.24-14.67,15.58-14.67H228.3a5,5,0,0,0,5-5V5a5,5,0,0,0-5-5H187.75c-.29,0-.92,0-1.86,0-7,0-31.49,1.38-50.8,19.15-21.4,19.69-18.43,43.27-17.72,47.36v37.75H81.7a5,5,0,0,0-5,5v50.84A5,5,0,0,0,81.7,165.11Z"/></g></svg>