<svg id="Layer_1" data-name="Layer 1" xmlns="http://www.w3.org/2000/svg" viewBox="0 0 1000 1000"><defs><style>.cls-1{fill:#fff;}</style></defs><title>github</title><path class="cls-1" d="M670.5,568.1c18.8,0,34.4,9.3,48,27.7,13.4,18.6,20.6,41.2,20.6,68.3s-7.1,49.8-20.6,68.1c-13.5,18.5-29.2,27.7-48,27.7-19.5,0-36.5-9.2-50-27.7-13.4-18.3-20.6-41.2-20.6-68.1,0-27.1,7.1-49.7,20.6-68.3,13.3-18.4,30.4-27.7,50-27.7M911.3,319c52.2,56.8,78.8,125.6,78.8,206.7q0,78.6-18.1,141.6Q953.55,730,926.2,769.4A298.35,298.35,0,0,1,858,838.6c-27,20-51.9,34.4-74.6,43.6s-48.6,16.3-77.8,21.4-50.8,7.8-66,8.6c-14.9.6-30.7,1-48,1-3.8,0-17,.3-38.3,1.1-21.1.9-39.2,1.1-53.3,1.1s-32.3-.2-53.3-1.1c-21.3-.8-34.4-1.1-38.3-1.1-17.2,0-33-.3-48-1-15.3-.8-36.8-3.6-66-8.6-29.6-5-55-12.2-77.8-21.4s-47.6-23.6-74.5-43.6a296.35,296.35,0,0,1-68.2-69.2Q46.45,730,28.1,667.3C16,625.3,10,578,10,525.7c0-81.1,26.5-150,78.8-206.7-5.7-2.9-6-31.3-.6-85.2q6.6-81,34.7-149.2c65.4,6.9,146.3,44,243,110.7,32.6-8.3,77.1-12.8,134.2-12.8,59.6,0,104.4,4.5,134.3,12.9q66-44.7,126.4-72.4c40.9-18.3,70.4-29.1,88.8-32l27.7-6.3q28.35,68.1,34.7,149.2,7.8,80.7-.7,85.1M502.1,866.4c118.2,0,206.8-14.1,267.5-42.5,59.8-28.3,90.4-86.7,90.4-174.7q0-76.65-57.5-128a129.52,129.52,0,0,0-69.2-34q-39.45-6.45-120.4,0c-53.8,4.3-90.9,6.3-110.7,6.3-26.9,0-56-1.3-92.3-4.1s-65-4.5-85.6-5.5c-20.6-.6-42.6,1.9-67.1,7.6-24.1,5.7-44,15.7-59.7,29.7-36.5,32.8-55.3,75.4-55.3,128q0,132.15,89.6,174.7c59.5,28.4,147.9,42.5,266.1,42.5h4.2M331.7,568.1c18.8,0,34.4,9.3,47.9,27.7,13.4,18.6,20.6,41.2,20.6,68.3s-7.1,49.8-20.6,68.1c-13.4,18.5-29.2,27.7-47.9,27.7-19.5,0-36.5-9.2-50.1-27.7C268.2,713.8,261,691,261,664.1c0-27.1,7.1-49.7,20.6-68.3,13.5-18.4,30.5-27.7,50.1-27.7"/></svg>