<svg id="Layer_1" data-name="Layer 1" xmlns="http://www.w3.org/2000/svg" viewBox="0 0 21 21"><defs><style>.cls-1{fill:#fff;}</style></defs><title>instagram</title><path class="cls-1" d="M10.5,6.27a4.23,4.23,0,1,0,4.23,4.23h0A4.23,4.23,0,0,0,10.5,6.27Z"/><path class="cls-1" d="M16.4,0H4.6A4.6,4.6,0,0,0,0,4.6V16.4A4.6,4.6,0,0,0,4.6,21H16.4A4.6,4.6,0,0,0,21,16.4V4.6A4.6,4.6,0,0,0,16.4,0Zm0,5.5a1,1,0,1,1,1-1A1,1,0,0,1,16.42,5.5ZM10.5,15.73a5.23,5.23,0,1,1,5.23-5.23h0A5.23,5.23,0,0,1,10.5,15.73Z"/></svg>