<svg id="Capa_1" data-name="Capa 1" xmlns="http://www.w3.org/2000/svg" viewBox="0 0 22.26 22.26"><defs><style>.cls-1{fill:#fff;}</style></defs><title>linkedin</title><path class="cls-1" d="M5.37,3a2.49,2.49,0,0,1-2.7,2.48h0a2.49,2.49,0,1,1,.06-5A2.48,2.48,0,0,1,5.37,3ZM.28,21.77H5.05V7.41H.28ZM16.76,7.08a4.74,4.74,0,0,0-4.3,2.37v0h0l0,0v-2H7.69c.06,1.34,0,14.35,0,14.35h4.77v-8a3.22,3.22,0,0,1,.16-1.16,2.62,2.62,0,0,1,2.45-1.75c1.73,0,2.42,1.32,2.42,3.25v7.68h4.77V13.54C22.26,9.13,19.9,7.08,16.76,7.08Z"/></svg>