<svg id="Layer_1" data-name="Layer 1" xmlns="http://www.w3.org/2000/svg" viewBox="0 0 281.82 282.69"><defs><style>.cls-1{opacity:0.05;}</style></defs><title>mesh</title><g class="cls-1"><path d="M2.52,1A3.9,3.9,0,0,0,.07,3.71,3.54,3.54,0,0,0,4.14,7.79,3.77,3.77,0,0,0,6.92,5,3.54,3.54,0,0,0,2.52,1Z"/><path d="M17,1A3.9,3.9,0,0,0,14.6,3.71a3.54,3.54,0,0,0,4.08,4.08A3.77,3.77,0,0,0,21.45,5,3.54,3.54,0,0,0,17,1Z"/><path d="M31.58,1a3.9,3.9,0,0,0-2.45,2.71A3.54,3.54,0,0,0,33.2,7.79,3.77,3.77,0,0,0,36,5,3.54,3.54,0,0,0,31.58,1Z"/><path d="M46.11,1a3.9,3.9,0,0,0-2.45,2.71,3.54,3.54,0,0,0,4.08,4.08A3.77,3.77,0,0,0,50.52,5,3.54,3.54,0,0,0,46.11,1Z"/><path d="M60.64,1a3.9,3.9,0,0,0-2.45,2.71A3.59,3.59,0,0,0,61,7.79,3.54,3.54,0,0,0,65,3.71,3.58,3.58,0,0,0,60.64,1Z"/><path d="M75.17,1a3.9,3.9,0,0,0-2.45,2.71A3.59,3.59,0,0,0,75.5,7.79a3.54,3.54,0,0,0,4.08-4.08A3.58,3.58,0,0,0,75.17,1Z"/><path d="M89.7,1a3.9,3.9,0,0,0-2.45,2.71A3.59,3.59,0,0,0,90,7.79a3.54,3.54,0,0,0,4.08-4.08A3.58,3.58,0,0,0,89.7,1Z"/><path d="M104.23,1a3.9,3.9,0,0,0-2.45,2.71,3.59,3.59,0,0,0,2.78,4.08,3.54,3.54,0,0,0,4.08-4.08A3.58,3.58,0,0,0,104.23,1Z"/><path d="M118.77,1a3.9,3.9,0,0,0-2.45,2.71,3.54,3.54,0,0,0,4.08,4.08A3.77,3.77,0,0,0,123.17,5,3.54,3.54,0,0,0,118.77,1Z"/><path d="M133.3,1a3.9,3.9,0,0,0-2.45,2.71,3.54,3.54,0,0,0,4.08,4.08A3.77,3.77,0,0,0,137.7,5,3.54,3.54,0,0,0,133.3,1Z"/><path d="M2.52,15.53A3.9,3.9,0,0,0,.07,18.25a3.54,3.54,0,0,0,4.08,4.08,3.77,3.77,0,0,0,2.78-2.78A3.54,3.54,0,0,0,2.52,15.53Z"/><path d="M17,15.53a3.9,3.9,0,0,0-2.45,2.71,3.54,3.54,0,0,0,4.08,4.08,3.77,3.77,0,0,0,2.78-2.78A3.54,3.54,0,0,0,17,15.53Z"/><path d="M31.58,15.53a3.9,3.9,0,0,0-2.45,2.71,3.54,3.54,0,0,0,4.08,4.08A3.77,3.77,0,0,0,36,19.54,3.54,3.54,0,0,0,31.58,15.53Z"/><path d="M46.11,15.53a3.9,3.9,0,0,0-2.45,2.71,3.54,3.54,0,0,0,4.08,4.08,3.77,3.77,0,0,0,2.78-2.78A3.54,3.54,0,0,0,46.11,15.53Z"/><path d="M60.64,15.53a3.9,3.9,0,0,0-2.45,2.71A3.59,3.59,0,0,0,61,22.32,3.54,3.54,0,0,0,65,18.25,3.58,3.58,0,0,0,60.64,15.53Z"/><path d="M75.17,15.53a3.9,3.9,0,0,0-2.45,2.71,3.54,3.54,0,0,0,4.08,4.08,3.49,3.49,0,1,0-1.62-6.79Z"/><path d="M89.7,15.53a3.9,3.9,0,0,0-2.45,2.71,3.54,3.54,0,0,0,4.08,4.08,3.49,3.49,0,1,0-1.62-6.79Z"/><path d="M104.23,15.53a3.9,3.9,0,0,0-2.45,2.71,3.54,3.54,0,0,0,4.08,4.08,3.49,3.49,0,1,0-1.62-6.79Z"/><path d="M118.77,15.53a3.9,3.9,0,0,0-2.45,2.71,3.54,3.54,0,0,0,4.08,4.08,3.77,3.77,0,0,0,2.78-2.78A3.54,3.54,0,0,0,118.77,15.53Z"/><path d="M133.3,15.53a3.9,3.9,0,0,0-2.45,2.71,3.54,3.54,0,0,0,4.08,4.08,3.77,3.77,0,0,0,2.78-2.78A3.54,3.54,0,0,0,133.3,15.53Z"/><path d="M2.52,30.06A3.9,3.9,0,0,0,.07,32.78a3.54,3.54,0,0,0,4.08,4.08,3.77,3.77,0,0,0,2.78-2.78A3.54,3.54,0,0,0,2.52,30.06Z"/><path d="M17,30.06a3.9,3.9,0,0,0-2.45,2.71,3.54,3.54,0,0,0,4.08,4.08,3.77,3.77,0,0,0,2.78-2.78A3.54,3.54,0,0,0,17,30.06Z"/><path d="M31.58,30.06a3.9,3.9,0,0,0-2.45,2.71,3.54,3.54,0,0,0,4.08,4.08A3.77,3.77,0,0,0,36,34.07,3.54,3.54,0,0,0,31.58,30.06Z"/><path d="M46.11,30.06a3.9,3.9,0,0,0-2.45,2.71,3.54,3.54,0,0,0,4.08,4.08,3.77,3.77,0,0,0,2.78-2.78A3.54,3.54,0,0,0,46.11,30.06Z"/><path d="M60.64,30.06a3.9,3.9,0,0,0-2.45,2.71,3.54,3.54,0,0,0,4.08,4.08A3.77,3.77,0,0,0,65,34.07,3.54,3.54,0,0,0,60.64,30.06Z"/><path d="M75.17,30.06a3.9,3.9,0,0,0-2.45,2.71,3.54,3.54,0,0,0,4.08,4.08,3.77,3.77,0,0,0,2.78-2.78A3.54,3.54,0,0,0,75.17,30.06Z"/><path d="M89.7,30.06a3.9,3.9,0,0,0-2.45,2.71,3.54,3.54,0,0,0,4.08,4.08,3.77,3.77,0,0,0,2.78-2.78A3.54,3.54,0,0,0,89.7,30.06Z"/><path d="M104.23,30.06a3.9,3.9,0,0,0-2.45,2.71,3.54,3.54,0,0,0,4.08,4.08,3.77,3.77,0,0,0,2.78-2.78A3.54,3.54,0,0,0,104.23,30.06Z"/><path d="M118.77,30.06a3.9,3.9,0,0,0-2.45,2.71,3.54,3.54,0,0,0,4.08,4.08,3.77,3.77,0,0,0,2.78-2.78A3.54,3.54,0,0,0,118.77,30.06Z"/><path d="M133.3,30.06a3.9,3.9,0,0,0-2.45,2.71,3.54,3.54,0,0,0,4.08,4.08,3.77,3.77,0,0,0,2.78-2.78A3.54,3.54,0,0,0,133.3,30.06Z"/><path d="M2.52,44.59A3.9,3.9,0,0,0,.07,47.31a3.54,3.54,0,0,0,4.08,4.08A3.77,3.77,0,0,0,6.92,48.6,3.54,3.54,0,0,0,2.52,44.59Z"/><path d="M17,44.59a3.9,3.9,0,0,0-2.45,2.71,3.54,3.54,0,0,0,4.08,4.08,3.77,3.77,0,0,0,2.78-2.78A3.54,3.54,0,0,0,17,44.59Z"/><path d="M31.58,44.59a3.9,3.9,0,0,0-2.45,2.71,3.54,3.54,0,0,0,4.08,4.08A3.77,3.77,0,0,0,36,48.6,3.54,3.54,0,0,0,31.58,44.59Z"/><path d="M46.11,44.59a3.9,3.9,0,0,0-2.45,2.71,3.54,3.54,0,0,0,4.08,4.08,3.77,3.77,0,0,0,2.78-2.78A3.54,3.54,0,0,0,46.11,44.59Z"/><path d="M60.64,44.59a3.9,3.9,0,0,0-2.45,2.71,3.54,3.54,0,0,0,4.08,4.08A3.77,3.77,0,0,0,65,48.6,3.54,3.54,0,0,0,60.64,44.59Z"/><path d="M75.17,44.59a3.9,3.9,0,0,0-2.45,2.71,3.54,3.54,0,0,0,4.08,4.08,3.77,3.77,0,0,0,2.78-2.78A3.54,3.54,0,0,0,75.17,44.59Z"/><path d="M89.7,44.59a3.9,3.9,0,0,0-2.45,2.71,3.54,3.54,0,0,0,4.08,4.08,3.77,3.77,0,0,0,2.78-2.78A3.54,3.54,0,0,0,89.7,44.59Z"/><path d="M104.23,44.59a3.9,3.9,0,0,0-2.45,2.71,3.54,3.54,0,0,0,4.08,4.08,3.77,3.77,0,0,0,2.78-2.78A3.54,3.54,0,0,0,104.23,44.59Z"/><path d="M118.77,44.59a3.9,3.9,0,0,0-2.45,2.71,3.54,3.54,0,0,0,4.08,4.08,3.77,3.77,0,0,0,2.78-2.78A3.54,3.54,0,0,0,118.77,44.59Z"/><path d="M133.3,44.59a3.9,3.9,0,0,0-2.45,2.71,3.54,3.54,0,0,0,4.08,4.08,3.77,3.77,0,0,0,2.78-2.78A3.54,3.54,0,0,0,133.3,44.59Z"/><path d="M2.52,59.12A3.9,3.9,0,0,0,.07,61.84a3.54,3.54,0,0,0,4.08,4.08,3.77,3.77,0,0,0,2.78-2.78A3.54,3.54,0,0,0,2.52,59.12Z"/><path d="M17,59.12a3.9,3.9,0,0,0-2.45,2.71,3.54,3.54,0,0,0,4.08,4.08,3.77,3.77,0,0,0,2.78-2.78A3.54,3.54,0,0,0,17,59.12Z"/><path d="M31.58,59.12a3.9,3.9,0,0,0-2.45,2.71,3.54,3.54,0,0,0,4.08,4.08A3.77,3.77,0,0,0,36,63.13,3.54,3.54,0,0,0,31.58,59.12Z"/><path d="M46.11,59.12a3.9,3.9,0,0,0-2.45,2.71,3.54,3.54,0,0,0,4.08,4.08,3.77,3.77,0,0,0,2.78-2.78A3.54,3.54,0,0,0,46.11,59.12Z"/><path d="M60.64,59.12a3.9,3.9,0,0,0-2.45,2.71,3.54,3.54,0,0,0,4.08,4.08A3.77,3.77,0,0,0,65,63.13,3.54,3.54,0,0,0,60.64,59.12Z"/><path d="M75.17,59.12a3.9,3.9,0,0,0-2.45,2.71,3.54,3.54,0,0,0,4.08,4.08,3.77,3.77,0,0,0,2.78-2.78A3.54,3.54,0,0,0,75.17,59.12Z"/><path d="M89.7,59.12a3.9,3.9,0,0,0-2.45,2.71,3.54,3.54,0,0,0,4.08,4.08,3.77,3.77,0,0,0,2.78-2.78A3.54,3.54,0,0,0,89.7,59.12Z"/><path d="M104.23,59.12a3.9,3.9,0,0,0-2.45,2.71,3.54,3.54,0,0,0,4.08,4.08,3.77,3.77,0,0,0,2.78-2.78A3.54,3.54,0,0,0,104.23,59.12Z"/><path d="M118.77,59.12a3.9,3.9,0,0,0-2.45,2.71,3.54,3.54,0,0,0,4.08,4.08,3.77,3.77,0,0,0,2.78-2.78A3.54,3.54,0,0,0,118.77,59.12Z"/><path d="M133.3,59.12a3.9,3.9,0,0,0-2.45,2.71,3.54,3.54,0,0,0,4.08,4.08,3.77,3.77,0,0,0,2.78-2.78A3.54,3.54,0,0,0,133.3,59.12Z"/><path d="M2.52,73.65A3.9,3.9,0,0,0,.07,76.37a3.54,3.54,0,0,0,4.08,4.08,3.77,3.77,0,0,0,2.78-2.78A3.54,3.54,0,0,0,2.52,73.65Z"/><path d="M17,73.65a3.9,3.9,0,0,0-2.45,2.71,3.54,3.54,0,0,0,4.08,4.08,3.77,3.77,0,0,0,2.78-2.78A3.54,3.54,0,0,0,17,73.65Z"/><path d="M31.58,73.65a3.9,3.9,0,0,0-2.45,2.71,3.54,3.54,0,0,0,4.08,4.08A3.77,3.77,0,0,0,36,77.66,3.54,3.54,0,0,0,31.58,73.65Z"/><path d="M46.11,73.65a3.9,3.9,0,0,0-2.45,2.71,3.54,3.54,0,0,0,4.08,4.08,3.77,3.77,0,0,0,2.78-2.78A3.54,3.54,0,0,0,46.11,73.65Z"/><path d="M60.64,73.65a3.9,3.9,0,0,0-2.45,2.71,3.54,3.54,0,0,0,4.08,4.08A3.77,3.77,0,0,0,65,77.66,3.54,3.54,0,0,0,60.64,73.65Z"/><path d="M75.17,73.65a3.9,3.9,0,0,0-2.45,2.71,3.54,3.54,0,0,0,4.08,4.08,3.77,3.77,0,0,0,2.78-2.78A3.54,3.54,0,0,0,75.17,73.65Z"/><path d="M89.7,73.65a3.9,3.9,0,0,0-2.45,2.71,3.54,3.54,0,0,0,4.08,4.08,3.77,3.77,0,0,0,2.78-2.78A3.54,3.54,0,0,0,89.7,73.65Z"/><path d="M104.23,73.65a3.9,3.9,0,0,0-2.45,2.71,3.54,3.54,0,0,0,4.08,4.08,3.77,3.77,0,0,0,2.78-2.78A3.54,3.54,0,0,0,104.23,73.65Z"/><path d="M118.77,73.65a3.9,3.9,0,0,0-2.45,2.71,3.54,3.54,0,0,0,4.08,4.08,3.77,3.77,0,0,0,2.78-2.78A3.54,3.54,0,0,0,118.77,73.65Z"/><path d="M133.3,73.65a3.9,3.9,0,0,0-2.45,2.71,3.54,3.54,0,0,0,4.08,4.08,3.77,3.77,0,0,0,2.78-2.78A3.54,3.54,0,0,0,133.3,73.65Z"/><path d="M2.52,88.19A3.9,3.9,0,0,0,.07,90.9,3.54,3.54,0,0,0,4.14,95a3.77,3.77,0,0,0,2.78-2.78A3.54,3.54,0,0,0,2.52,88.19Z"/><path d="M17,88.19A3.9,3.9,0,0,0,14.6,90.9,3.54,3.54,0,0,0,18.67,95a3.77,3.77,0,0,0,2.78-2.78A3.54,3.54,0,0,0,17,88.19Z"/><path d="M31.58,88.19a3.9,3.9,0,0,0-2.45,2.71A3.54,3.54,0,0,0,33.2,95,3.77,3.77,0,0,0,36,92.19,3.54,3.54,0,0,0,31.58,88.19Z"/><path d="M46.11,88.19a3.9,3.9,0,0,0-2.45,2.71A3.54,3.54,0,0,0,47.73,95a3.77,3.77,0,0,0,2.78-2.78A3.54,3.54,0,0,0,46.11,88.19Z"/><path d="M60.64,88.19a3.9,3.9,0,0,0-2.45,2.71A3.54,3.54,0,0,0,62.27,95,3.77,3.77,0,0,0,65,92.19,3.54,3.54,0,0,0,60.64,88.19Z"/><path d="M75.17,88.19a3.9,3.9,0,0,0-2.45,2.71A3.54,3.54,0,0,0,76.8,95a3.77,3.77,0,0,0,2.78-2.78A3.54,3.54,0,0,0,75.17,88.19Z"/><path d="M89.7,88.19a3.9,3.9,0,0,0-2.45,2.71A3.54,3.54,0,0,0,91.33,95a3.77,3.77,0,0,0,2.78-2.78A3.54,3.54,0,0,0,89.7,88.19Z"/><path d="M104.23,88.19a3.9,3.9,0,0,0-2.45,2.71A3.54,3.54,0,0,0,105.86,95a3.77,3.77,0,0,0,2.78-2.78A3.54,3.54,0,0,0,104.23,88.19Z"/><path d="M118.77,88.19a3.9,3.9,0,0,0-2.45,2.71A3.54,3.54,0,0,0,120.39,95a3.77,3.77,0,0,0,2.78-2.78A3.54,3.54,0,0,0,118.77,88.19Z"/><path d="M133.3,88.19a3.9,3.9,0,0,0-2.45,2.71A3.54,3.54,0,0,0,134.92,95a3.77,3.77,0,0,0,2.78-2.78A3.54,3.54,0,0,0,133.3,88.19Z"/><path d="M2.52,102.72a3.9,3.9,0,0,0-2.45,2.71,3.54,3.54,0,0,0,4.08,4.08,3.77,3.77,0,0,0,2.78-2.78A3.54,3.54,0,0,0,2.52,102.72Z"/><path d="M17,102.72a3.9,3.9,0,0,0-2.45,2.71,3.54,3.54,0,0,0,4.08,4.08,3.77,3.77,0,0,0,2.78-2.78A3.54,3.54,0,0,0,17,102.72Z"/><path d="M31.58,102.72a3.9,3.9,0,0,0-2.45,2.71,3.54,3.54,0,0,0,4.08,4.08A3.77,3.77,0,0,0,36,106.72,3.54,3.54,0,0,0,31.58,102.72Z"/><path d="M46.11,102.72a3.9,3.9,0,0,0-2.45,2.71,3.54,3.54,0,0,0,4.08,4.08,3.77,3.77,0,0,0,2.78-2.78A3.54,3.54,0,0,0,46.11,102.72Z"/><path d="M60.64,102.72a3.9,3.9,0,0,0-2.45,2.71,3.54,3.54,0,0,0,4.08,4.08A3.77,3.77,0,0,0,65,106.72,3.54,3.54,0,0,0,60.64,102.72Z"/><path d="M75.17,102.72a3.9,3.9,0,0,0-2.45,2.71,3.54,3.54,0,0,0,4.08,4.08,3.77,3.77,0,0,0,2.78-2.78A3.54,3.54,0,0,0,75.17,102.72Z"/><path d="M89.7,102.72a3.9,3.9,0,0,0-2.45,2.71,3.54,3.54,0,0,0,4.08,4.08,3.77,3.77,0,0,0,2.78-2.78A3.54,3.54,0,0,0,89.7,102.72Z"/><path d="M104.23,102.72a3.9,3.9,0,0,0-2.45,2.71,3.54,3.54,0,0,0,4.08,4.08,3.77,3.77,0,0,0,2.78-2.78A3.54,3.54,0,0,0,104.23,102.72Z"/><path d="M118.77,102.72a3.9,3.9,0,0,0-2.45,2.71,3.54,3.54,0,0,0,4.08,4.08,3.77,3.77,0,0,0,2.78-2.78A3.54,3.54,0,0,0,118.77,102.72Z"/><path d="M133.3,102.72a3.9,3.9,0,0,0-2.45,2.71,3.54,3.54,0,0,0,4.08,4.08,3.77,3.77,0,0,0,2.78-2.78A3.54,3.54,0,0,0,133.3,102.72Z"/><path d="M2.52,117.25A3.9,3.9,0,0,0,.07,120,3.54,3.54,0,0,0,4.14,124a3.77,3.77,0,0,0,2.78-2.78A3.54,3.54,0,0,0,2.52,117.25Z"/><path d="M17,117.25A3.9,3.9,0,0,0,14.6,120,3.54,3.54,0,0,0,18.67,124a3.77,3.77,0,0,0,2.78-2.78A3.54,3.54,0,0,0,17,117.25Z"/><path d="M31.58,117.25A3.9,3.9,0,0,0,29.13,120,3.54,3.54,0,0,0,33.2,124,3.77,3.77,0,0,0,36,121.25,3.54,3.54,0,0,0,31.58,117.25Z"/><path d="M46.11,117.25A3.9,3.9,0,0,0,43.66,120,3.54,3.54,0,0,0,47.73,124a3.77,3.77,0,0,0,2.78-2.78A3.54,3.54,0,0,0,46.11,117.25Z"/><path d="M60.64,117.25A3.9,3.9,0,0,0,58.19,120,3.54,3.54,0,0,0,62.27,124,3.77,3.77,0,0,0,65,121.25,3.54,3.54,0,0,0,60.64,117.25Z"/><path d="M75.17,117.25A3.9,3.9,0,0,0,72.72,120,3.54,3.54,0,0,0,76.8,124a3.77,3.77,0,0,0,2.78-2.78A3.54,3.54,0,0,0,75.17,117.25Z"/><path d="M89.7,117.25A3.9,3.9,0,0,0,87.25,120,3.54,3.54,0,0,0,91.33,124a3.77,3.77,0,0,0,2.78-2.78A3.54,3.54,0,0,0,89.7,117.25Z"/><path d="M104.23,117.25a3.9,3.9,0,0,0-2.45,2.71,3.54,3.54,0,0,0,4.08,4.08,3.77,3.77,0,0,0,2.78-2.78A3.54,3.54,0,0,0,104.23,117.25Z"/><path d="M118.77,117.25a3.9,3.9,0,0,0-2.45,2.71,3.54,3.54,0,0,0,4.08,4.08,3.77,3.77,0,0,0,2.78-2.78A3.54,3.54,0,0,0,118.77,117.25Z"/><path d="M133.3,117.25a3.9,3.9,0,0,0-2.45,2.71,3.54,3.54,0,0,0,4.08,4.08,3.77,3.77,0,0,0,2.78-2.78A3.54,3.54,0,0,0,133.3,117.25Z"/><path d="M2.52,131.78a3.9,3.9,0,0,0-2.45,2.71,3.54,3.54,0,0,0,4.08,4.08,3.59,3.59,0,0,0,2.78-4.08A3.58,3.58,0,0,0,2.52,131.78Z"/><path d="M17,131.78a3.9,3.9,0,0,0-2.45,2.71,3.54,3.54,0,0,0,4.08,4.08,3.77,3.77,0,0,0,2.78-2.78A3.54,3.54,0,0,0,17,131.78Z"/><path d="M31.58,131.78a3.9,3.9,0,0,0-2.45,2.71,3.54,3.54,0,0,0,4.08,4.08A3.77,3.77,0,0,0,36,135.79,3.54,3.54,0,0,0,31.58,131.78Z"/><path d="M46.11,131.78a3.9,3.9,0,0,0-2.45,2.71,3.54,3.54,0,0,0,4.08,4.08,3.77,3.77,0,0,0,2.78-2.78A3.54,3.54,0,0,0,46.11,131.78Z"/><path d="M60.64,131.78a3.9,3.9,0,0,0-2.45,2.71,3.54,3.54,0,0,0,4.08,4.08A3.77,3.77,0,0,0,65,135.79,3.54,3.54,0,0,0,60.64,131.78Z"/><path d="M75.17,131.78a3.9,3.9,0,0,0-2.45,2.71,3.54,3.54,0,0,0,4.08,4.08,3.77,3.77,0,0,0,2.78-2.78A3.54,3.54,0,0,0,75.17,131.78Z"/><path d="M89.7,131.78a3.9,3.9,0,0,0-2.45,2.71,3.54,3.54,0,0,0,4.08,4.08,3.77,3.77,0,0,0,2.78-2.78A3.54,3.54,0,0,0,89.7,131.78Z"/><path d="M104.23,131.78a3.9,3.9,0,0,0-2.45,2.71,3.54,3.54,0,0,0,4.08,4.08,3.77,3.77,0,0,0,2.78-2.78A3.54,3.54,0,0,0,104.23,131.78Z"/><path d="M118.77,131.78a3.9,3.9,0,0,0-2.45,2.71,3.54,3.54,0,0,0,4.08,4.08,3.77,3.77,0,0,0,2.78-2.78A3.54,3.54,0,0,0,118.77,131.78Z"/><path d="M133.3,131.78a3.9,3.9,0,0,0-2.45,2.71,3.54,3.54,0,0,0,4.08,4.08,3.77,3.77,0,0,0,2.78-2.78A3.54,3.54,0,0,0,133.3,131.78Z"/><path d="M3.38,145.06a3.9,3.9,0,0,0-2.45,2.71A3.54,3.54,0,0,0,5,151.84a3.77,3.77,0,0,0,2.78-2.78A3.54,3.54,0,0,0,3.38,145.06Z"/><path d="M17.91,145.06a3.9,3.9,0,0,0-2.45,2.71,3.54,3.54,0,0,0,4.08,4.08,3.77,3.77,0,0,0,2.78-2.78A3.54,3.54,0,0,0,17.91,145.06Z"/><path d="M32.44,145.06A3.9,3.9,0,0,0,30,147.77a3.54,3.54,0,0,0,4.08,4.08,3.77,3.77,0,0,0,2.78-2.78A3.54,3.54,0,0,0,32.44,145.06Z"/><path d="M47,145.06a3.9,3.9,0,0,0-2.45,2.71,3.54,3.54,0,0,0,4.08,4.08,3.77,3.77,0,0,0,2.78-2.78A3.54,3.54,0,0,0,47,145.06Z"/><path d="M61.5,145.06A3.9,3.9,0,0,0,59,147.77a3.59,3.59,0,0,0,2.78,4.08,3.54,3.54,0,0,0,4.08-4.08A3.58,3.58,0,0,0,61.5,145.06Z"/><path d="M76,145.06a3.9,3.9,0,0,0-2.45,2.71,3.59,3.59,0,0,0,2.78,4.08,3.54,3.54,0,0,0,4.08-4.08A3.58,3.58,0,0,0,76,145.06Z"/><path d="M90.56,145.06a3.9,3.9,0,0,0-2.45,2.71,3.59,3.59,0,0,0,2.78,4.08A3.54,3.54,0,0,0,95,147.77,3.58,3.58,0,0,0,90.56,145.06Z"/><path d="M105.09,145.06a3.9,3.9,0,0,0-2.45,2.71,3.59,3.59,0,0,0,2.78,4.08,3.54,3.54,0,0,0,4.08-4.08A3.58,3.58,0,0,0,105.09,145.06Z"/><path d="M119.62,145.06a3.9,3.9,0,0,0-2.45,2.71,3.54,3.54,0,0,0,4.08,4.08,3.77,3.77,0,0,0,2.78-2.78A3.54,3.54,0,0,0,119.62,145.06Z"/><path d="M134.15,145.06a3.9,3.9,0,0,0-2.45,2.71,3.54,3.54,0,0,0,4.08,4.08,3.77,3.77,0,0,0,2.78-2.78A3.54,3.54,0,0,0,134.15,145.06Z"/><path d="M3.38,159.59A3.9,3.9,0,0,0,.92,162.3,3.54,3.54,0,0,0,5,166.38a3.77,3.77,0,0,0,2.78-2.78A3.54,3.54,0,0,0,3.38,159.59Z"/><path d="M17.91,159.59a3.9,3.9,0,0,0-2.45,2.71,3.54,3.54,0,0,0,4.08,4.08,3.77,3.77,0,0,0,2.78-2.78A3.54,3.54,0,0,0,17.91,159.59Z"/><path d="M32.44,159.59A3.9,3.9,0,0,0,30,162.3a3.54,3.54,0,0,0,4.08,4.08,3.77,3.77,0,0,0,2.78-2.78A3.54,3.54,0,0,0,32.44,159.59Z"/><path d="M47,159.59a3.9,3.9,0,0,0-2.45,2.71,3.54,3.54,0,0,0,4.08,4.08,3.77,3.77,0,0,0,2.78-2.78A3.54,3.54,0,0,0,47,159.59Z"/><path d="M61.5,159.59A3.9,3.9,0,0,0,59,162.3a3.59,3.59,0,0,0,2.78,4.08,3.54,3.54,0,0,0,4.08-4.08A3.58,3.58,0,0,0,61.5,159.59Z"/><path d="M76,159.59a3.9,3.9,0,0,0-2.45,2.71,3.54,3.54,0,0,0,4.08,4.08A3.49,3.49,0,1,0,76,159.59Z"/><path d="M90.56,159.59a3.9,3.9,0,0,0-2.45,2.71,3.54,3.54,0,0,0,4.08,4.08,3.49,3.49,0,1,0-1.62-6.79Z"/><path d="M105.09,159.59a3.9,3.9,0,0,0-2.45,2.71,3.54,3.54,0,0,0,4.08,4.08,3.49,3.49,0,1,0-1.62-6.79Z"/><path d="M119.62,159.59a3.9,3.9,0,0,0-2.45,2.71,3.54,3.54,0,0,0,4.08,4.08,3.77,3.77,0,0,0,2.78-2.78A3.54,3.54,0,0,0,119.62,159.59Z"/><path d="M134.15,159.59a3.9,3.9,0,0,0-2.45,2.71,3.54,3.54,0,0,0,4.08,4.08,3.77,3.77,0,0,0,2.78-2.78A3.54,3.54,0,0,0,134.15,159.59Z"/><path d="M3.38,174.12a3.9,3.9,0,0,0-2.45,2.71A3.54,3.54,0,0,0,5,180.91a3.77,3.77,0,0,0,2.78-2.78A3.54,3.54,0,0,0,3.38,174.12Z"/><path d="M17.91,174.12a3.9,3.9,0,0,0-2.45,2.71,3.54,3.54,0,0,0,4.08,4.08,3.77,3.77,0,0,0,2.78-2.78A3.54,3.54,0,0,0,17.91,174.12Z"/><path d="M32.44,174.12A3.9,3.9,0,0,0,30,176.83a3.54,3.54,0,0,0,4.08,4.08,3.77,3.77,0,0,0,2.78-2.78A3.54,3.54,0,0,0,32.44,174.12Z"/><path d="M47,174.12a3.9,3.9,0,0,0-2.45,2.71,3.54,3.54,0,0,0,4.08,4.08,3.77,3.77,0,0,0,2.78-2.78A3.54,3.54,0,0,0,47,174.12Z"/><path d="M61.5,174.12A3.9,3.9,0,0,0,59,176.83a3.54,3.54,0,0,0,4.08,4.08,3.77,3.77,0,0,0,2.78-2.78A3.54,3.54,0,0,0,61.5,174.12Z"/><path d="M76,174.12a3.9,3.9,0,0,0-2.45,2.71,3.54,3.54,0,0,0,4.08,4.08,3.77,3.77,0,0,0,2.78-2.78A3.54,3.54,0,0,0,76,174.12Z"/><path d="M90.56,174.12a3.9,3.9,0,0,0-2.45,2.71,3.54,3.54,0,0,0,4.08,4.08A3.77,3.77,0,0,0,95,178.13,3.54,3.54,0,0,0,90.56,174.12Z"/><path d="M105.09,174.12a3.9,3.9,0,0,0-2.45,2.71,3.54,3.54,0,0,0,4.08,4.08,3.77,3.77,0,0,0,2.78-2.78A3.54,3.54,0,0,0,105.09,174.12Z"/><path d="M119.62,174.12a3.9,3.9,0,0,0-2.45,2.71,3.54,3.54,0,0,0,4.08,4.08,3.77,3.77,0,0,0,2.78-2.78A3.54,3.54,0,0,0,119.62,174.12Z"/><path d="M134.15,174.12a3.9,3.9,0,0,0-2.45,2.71,3.54,3.54,0,0,0,4.08,4.08,3.77,3.77,0,0,0,2.78-2.78A3.54,3.54,0,0,0,134.15,174.12Z"/><path d="M3.38,188.65a3.9,3.9,0,0,0-2.45,2.71A3.54,3.54,0,0,0,5,195.44a3.77,3.77,0,0,0,2.78-2.78A3.54,3.54,0,0,0,3.38,188.65Z"/><path d="M17.91,188.65a3.9,3.9,0,0,0-2.45,2.71,3.54,3.54,0,0,0,4.08,4.08,3.77,3.77,0,0,0,2.78-2.78A3.54,3.54,0,0,0,17.91,188.65Z"/><path d="M32.44,188.65A3.9,3.9,0,0,0,30,191.36a3.54,3.54,0,0,0,4.08,4.08,3.77,3.77,0,0,0,2.78-2.78A3.54,3.54,0,0,0,32.44,188.65Z"/><path d="M47,188.65a3.9,3.9,0,0,0-2.45,2.71,3.54,3.54,0,0,0,4.08,4.08,3.77,3.77,0,0,0,2.78-2.78A3.54,3.54,0,0,0,47,188.65Z"/><path d="M61.5,188.65A3.9,3.9,0,0,0,59,191.36a3.54,3.54,0,0,0,4.08,4.08,3.77,3.77,0,0,0,2.78-2.78A3.54,3.54,0,0,0,61.5,188.65Z"/><path d="M76,188.65a3.9,3.9,0,0,0-2.45,2.71,3.54,3.54,0,0,0,4.08,4.08,3.77,3.77,0,0,0,2.78-2.78A3.54,3.54,0,0,0,76,188.65Z"/><path d="M90.56,188.65a3.9,3.9,0,0,0-2.45,2.71,3.54,3.54,0,0,0,4.08,4.08A3.77,3.77,0,0,0,95,192.66,3.54,3.54,0,0,0,90.56,188.65Z"/><path d="M105.09,188.65a3.9,3.9,0,0,0-2.45,2.71,3.54,3.54,0,0,0,4.08,4.08,3.77,3.77,0,0,0,2.78-2.78A3.54,3.54,0,0,0,105.09,188.65Z"/><path d="M119.62,188.65a3.9,3.9,0,0,0-2.45,2.71,3.54,3.54,0,0,0,4.08,4.08,3.77,3.77,0,0,0,2.78-2.78A3.54,3.54,0,0,0,119.62,188.65Z"/><path d="M134.15,188.65a3.9,3.9,0,0,0-2.45,2.71,3.54,3.54,0,0,0,4.08,4.08,3.77,3.77,0,0,0,2.78-2.78A3.54,3.54,0,0,0,134.15,188.65Z"/><path d="M3.38,203.18a3.9,3.9,0,0,0-2.45,2.71A3.54,3.54,0,0,0,5,210a3.77,3.77,0,0,0,2.78-2.78A3.54,3.54,0,0,0,3.38,203.18Z"/><path d="M17.91,203.18a3.9,3.9,0,0,0-2.45,2.71A3.54,3.54,0,0,0,19.53,210a3.77,3.77,0,0,0,2.78-2.78A3.54,3.54,0,0,0,17.91,203.18Z"/><path d="M32.44,203.18A3.9,3.9,0,0,0,30,205.89,3.54,3.54,0,0,0,34.06,210a3.77,3.77,0,0,0,2.78-2.78A3.54,3.54,0,0,0,32.44,203.18Z"/><path d="M47,203.18a3.9,3.9,0,0,0-2.45,2.71A3.54,3.54,0,0,0,48.59,210a3.77,3.77,0,0,0,2.78-2.78A3.54,3.54,0,0,0,47,203.18Z"/><path d="M61.5,203.18A3.9,3.9,0,0,0,59,205.89,3.54,3.54,0,0,0,63.12,210a3.77,3.77,0,0,0,2.78-2.78A3.54,3.54,0,0,0,61.5,203.18Z"/><path d="M76,203.18a3.9,3.9,0,0,0-2.45,2.71A3.54,3.54,0,0,0,77.65,210a3.77,3.77,0,0,0,2.78-2.78A3.54,3.54,0,0,0,76,203.18Z"/><path d="M90.56,203.18a3.9,3.9,0,0,0-2.45,2.71A3.54,3.54,0,0,0,92.18,210,3.77,3.77,0,0,0,95,207.19,3.54,3.54,0,0,0,90.56,203.18Z"/><path d="M105.09,203.18a3.9,3.9,0,0,0-2.45,2.71,3.54,3.54,0,0,0,4.08,4.08,3.77,3.77,0,0,0,2.78-2.78A3.54,3.54,0,0,0,105.09,203.18Z"/><path d="M119.62,203.18a3.9,3.9,0,0,0-2.45,2.71,3.54,3.54,0,0,0,4.08,4.08,3.77,3.77,0,0,0,2.78-2.78A3.54,3.54,0,0,0,119.62,203.18Z"/><path d="M134.15,203.18a3.9,3.9,0,0,0-2.45,2.71,3.54,3.54,0,0,0,4.08,4.08,3.77,3.77,0,0,0,2.78-2.78A3.54,3.54,0,0,0,134.15,203.18Z"/><path d="M3.38,217.71a3.9,3.9,0,0,0-2.45,2.71A3.54,3.54,0,0,0,5,224.5a3.77,3.77,0,0,0,2.78-2.78A3.54,3.54,0,0,0,3.38,217.71Z"/><path d="M17.91,217.71a3.9,3.9,0,0,0-2.45,2.71,3.54,3.54,0,0,0,4.08,4.08,3.77,3.77,0,0,0,2.78-2.78A3.54,3.54,0,0,0,17.91,217.71Z"/><path d="M32.44,217.71A3.9,3.9,0,0,0,30,220.42a3.54,3.54,0,0,0,4.08,4.08,3.77,3.77,0,0,0,2.78-2.78A3.54,3.54,0,0,0,32.44,217.71Z"/><path d="M47,217.71a3.9,3.9,0,0,0-2.45,2.71,3.54,3.54,0,0,0,4.08,4.08,3.77,3.77,0,0,0,2.78-2.78A3.54,3.54,0,0,0,47,217.71Z"/><path d="M61.5,217.71A3.9,3.9,0,0,0,59,220.42a3.54,3.54,0,0,0,4.08,4.08,3.77,3.77,0,0,0,2.78-2.78A3.54,3.54,0,0,0,61.5,217.71Z"/><path d="M76,217.71a3.9,3.9,0,0,0-2.45,2.71,3.54,3.54,0,0,0,4.08,4.08,3.77,3.77,0,0,0,2.78-2.78A3.54,3.54,0,0,0,76,217.71Z"/><path d="M90.56,217.71a3.9,3.9,0,0,0-2.45,2.71,3.54,3.54,0,0,0,4.08,4.08A3.77,3.77,0,0,0,95,221.72,3.54,3.54,0,0,0,90.56,217.71Z"/><path d="M105.09,217.71a3.9,3.9,0,0,0-2.45,2.71,3.54,3.54,0,0,0,4.08,4.08,3.77,3.77,0,0,0,2.78-2.78A3.54,3.54,0,0,0,105.09,217.71Z"/><path d="M119.62,217.71a3.9,3.9,0,0,0-2.45,2.71,3.54,3.54,0,0,0,4.08,4.08,3.77,3.77,0,0,0,2.78-2.78A3.54,3.54,0,0,0,119.62,217.71Z"/><path d="M134.15,217.71a3.9,3.9,0,0,0-2.45,2.71,3.54,3.54,0,0,0,4.08,4.08,3.77,3.77,0,0,0,2.78-2.78A3.54,3.54,0,0,0,134.15,217.71Z"/><path d="M3.38,232.24A3.9,3.9,0,0,0,.92,235,3.54,3.54,0,0,0,5,239a3.77,3.77,0,0,0,2.78-2.78A3.54,3.54,0,0,0,3.38,232.24Z"/><path d="M17.91,232.24A3.9,3.9,0,0,0,15.46,235,3.54,3.54,0,0,0,19.53,239a3.77,3.77,0,0,0,2.78-2.78A3.54,3.54,0,0,0,17.91,232.24Z"/><path d="M32.44,232.24A3.9,3.9,0,0,0,30,235,3.54,3.54,0,0,0,34.06,239a3.77,3.77,0,0,0,2.78-2.78A3.54,3.54,0,0,0,32.44,232.24Z"/><path d="M47,232.24A3.9,3.9,0,0,0,44.52,235,3.54,3.54,0,0,0,48.59,239a3.77,3.77,0,0,0,2.78-2.78A3.54,3.54,0,0,0,47,232.24Z"/><path d="M61.5,232.24A3.9,3.9,0,0,0,59,235,3.54,3.54,0,0,0,63.12,239a3.77,3.77,0,0,0,2.78-2.78A3.54,3.54,0,0,0,61.5,232.24Z"/><path d="M76,232.24A3.9,3.9,0,0,0,73.58,235,3.54,3.54,0,0,0,77.65,239a3.77,3.77,0,0,0,2.78-2.78A3.54,3.54,0,0,0,76,232.24Z"/><path d="M90.56,232.24A3.9,3.9,0,0,0,88.11,235,3.54,3.54,0,0,0,92.18,239,3.77,3.77,0,0,0,95,236.25,3.54,3.54,0,0,0,90.56,232.24Z"/><path d="M105.09,232.24a3.9,3.9,0,0,0-2.45,2.71,3.54,3.54,0,0,0,4.08,4.08,3.77,3.77,0,0,0,2.78-2.78A3.54,3.54,0,0,0,105.09,232.24Z"/><path d="M119.62,232.24a3.9,3.9,0,0,0-2.45,2.71,3.54,3.54,0,0,0,4.08,4.08,3.77,3.77,0,0,0,2.78-2.78A3.54,3.54,0,0,0,119.62,232.24Z"/><path d="M134.15,232.24A3.9,3.9,0,0,0,131.7,235a3.54,3.54,0,0,0,4.08,4.08,3.77,3.77,0,0,0,2.78-2.78A3.54,3.54,0,0,0,134.15,232.24Z"/><path d="M3.38,246.77a3.9,3.9,0,0,0-2.45,2.71A3.54,3.54,0,0,0,5,253.56a3.77,3.77,0,0,0,2.78-2.78A3.54,3.54,0,0,0,3.38,246.77Z"/><path d="M17.91,246.77a3.9,3.9,0,0,0-2.45,2.71,3.54,3.54,0,0,0,4.08,4.08,3.77,3.77,0,0,0,2.78-2.78A3.54,3.54,0,0,0,17.91,246.77Z"/><path d="M32.44,246.77A3.9,3.9,0,0,0,30,249.48a3.54,3.54,0,0,0,4.08,4.08,3.77,3.77,0,0,0,2.78-2.78A3.54,3.54,0,0,0,32.44,246.77Z"/><path d="M47,246.77a3.9,3.9,0,0,0-2.45,2.71,3.54,3.54,0,0,0,4.08,4.08,3.77,3.77,0,0,0,2.78-2.78A3.54,3.54,0,0,0,47,246.77Z"/><path d="M61.5,246.77A3.9,3.9,0,0,0,59,249.48a3.54,3.54,0,0,0,4.08,4.08,3.77,3.77,0,0,0,2.78-2.78A3.54,3.54,0,0,0,61.5,246.77Z"/><path d="M76,246.77a3.9,3.9,0,0,0-2.45,2.71,3.54,3.54,0,0,0,4.08,4.08,3.77,3.77,0,0,0,2.78-2.78A3.54,3.54,0,0,0,76,246.77Z"/><path d="M90.56,246.77a3.9,3.9,0,0,0-2.45,2.71,3.54,3.54,0,0,0,4.08,4.08A3.77,3.77,0,0,0,95,250.78,3.54,3.54,0,0,0,90.56,246.77Z"/><path d="M105.09,246.77a3.9,3.9,0,0,0-2.45,2.71,3.54,3.54,0,0,0,4.08,4.08,3.77,3.77,0,0,0,2.78-2.78A3.54,3.54,0,0,0,105.09,246.77Z"/><path d="M119.62,246.77a3.9,3.9,0,0,0-2.45,2.71,3.54,3.54,0,0,0,4.08,4.08,3.77,3.77,0,0,0,2.78-2.78A3.54,3.54,0,0,0,119.62,246.77Z"/><path d="M134.15,246.77a3.9,3.9,0,0,0-2.45,2.71,3.54,3.54,0,0,0,4.08,4.08,3.77,3.77,0,0,0,2.78-2.78A3.54,3.54,0,0,0,134.15,246.77Z"/><path d="M3.38,261.3A3.9,3.9,0,0,0,.92,264,3.54,3.54,0,0,0,5,268.09a3.77,3.77,0,0,0,2.78-2.78A3.54,3.54,0,0,0,3.38,261.3Z"/><path d="M17.91,261.3A3.9,3.9,0,0,0,15.46,264a3.54,3.54,0,0,0,4.08,4.08,3.77,3.77,0,0,0,2.78-2.78A3.54,3.54,0,0,0,17.91,261.3Z"/><path d="M32.44,261.3A3.9,3.9,0,0,0,30,264a3.54,3.54,0,0,0,4.08,4.08,3.77,3.77,0,0,0,2.78-2.78A3.54,3.54,0,0,0,32.44,261.3Z"/><path d="M47,261.3A3.9,3.9,0,0,0,44.52,264a3.54,3.54,0,0,0,4.08,4.08,3.77,3.77,0,0,0,2.78-2.78A3.54,3.54,0,0,0,47,261.3Z"/><path d="M61.5,261.3A3.9,3.9,0,0,0,59,264a3.54,3.54,0,0,0,4.08,4.08,3.77,3.77,0,0,0,2.78-2.78A3.54,3.54,0,0,0,61.5,261.3Z"/><path d="M76,261.3A3.9,3.9,0,0,0,73.58,264a3.54,3.54,0,0,0,4.08,4.08,3.77,3.77,0,0,0,2.78-2.78A3.54,3.54,0,0,0,76,261.3Z"/><path d="M90.56,261.3A3.9,3.9,0,0,0,88.11,264a3.54,3.54,0,0,0,4.08,4.08A3.77,3.77,0,0,0,95,265.31,3.54,3.54,0,0,0,90.56,261.3Z"/><path d="M105.09,261.3a3.9,3.9,0,0,0-2.45,2.71,3.54,3.54,0,0,0,4.08,4.08,3.77,3.77,0,0,0,2.78-2.78A3.54,3.54,0,0,0,105.09,261.3Z"/><path d="M119.62,261.3a3.9,3.9,0,0,0-2.45,2.71,3.54,3.54,0,0,0,4.08,4.08,3.77,3.77,0,0,0,2.78-2.78A3.54,3.54,0,0,0,119.62,261.3Z"/><path d="M134.15,261.3A3.9,3.9,0,0,0,131.7,264a3.54,3.54,0,0,0,4.08,4.08,3.77,3.77,0,0,0,2.78-2.78A3.54,3.54,0,0,0,134.15,261.3Z"/><path d="M3.38,275.83a3.9,3.9,0,0,0-2.45,2.71A3.54,3.54,0,0,0,5,282.62a3.49,3.49,0,1,0-1.62-6.79Z"/><path d="M17.91,275.83a3.9,3.9,0,0,0-2.45,2.71,3.54,3.54,0,0,0,4.08,4.08,3.77,3.77,0,0,0,2.78-2.78A3.54,3.54,0,0,0,17.91,275.83Z"/><path d="M32.44,275.83A3.9,3.9,0,0,0,30,278.55a3.54,3.54,0,0,0,4.08,4.08,3.77,3.77,0,0,0,2.78-2.78A3.54,3.54,0,0,0,32.44,275.83Z"/><path d="M47,275.83a3.9,3.9,0,0,0-2.45,2.71,3.54,3.54,0,0,0,4.08,4.08,3.77,3.77,0,0,0,2.78-2.78A3.54,3.54,0,0,0,47,275.83Z"/><path d="M61.5,275.83A3.9,3.9,0,0,0,59,278.55a3.54,3.54,0,0,0,4.08,4.08,3.77,3.77,0,0,0,2.78-2.78A3.54,3.54,0,0,0,61.5,275.83Z"/><path d="M76,275.83a3.9,3.9,0,0,0-2.45,2.71,3.54,3.54,0,0,0,4.08,4.08,3.77,3.77,0,0,0,2.78-2.78A3.54,3.54,0,0,0,76,275.83Z"/><path d="M90.56,275.83a3.9,3.9,0,0,0-2.45,2.71,3.54,3.54,0,0,0,4.08,4.08A3.77,3.77,0,0,0,95,279.84,3.54,3.54,0,0,0,90.56,275.83Z"/><path d="M105.09,275.83a3.9,3.9,0,0,0-2.45,2.71,3.54,3.54,0,0,0,4.08,4.08,3.77,3.77,0,0,0,2.78-2.78A3.54,3.54,0,0,0,105.09,275.83Z"/><path d="M119.62,275.83a3.9,3.9,0,0,0-2.45,2.71,3.54,3.54,0,0,0,4.08,4.08,3.77,3.77,0,0,0,2.78-2.78A3.54,3.54,0,0,0,119.62,275.83Z"/><path d="M134.15,275.83a3.9,3.9,0,0,0-2.45,2.71,3.54,3.54,0,0,0,4.08,4.08,3.77,3.77,0,0,0,2.78-2.78A3.54,3.54,0,0,0,134.15,275.83Z"/><path d="M145.72.14a3.9,3.9,0,0,0-2.45,2.71,3.54,3.54,0,0,0,4.08,4.08,3.77,3.77,0,0,0,2.78-2.78A3.54,3.54,0,0,0,145.72.14Z"/><path d="M160.25.14a3.9,3.9,0,0,0-2.45,2.71,3.54,3.54,0,0,0,4.08,4.08,3.77,3.77,0,0,0,2.78-2.78A3.54,3.54,0,0,0,160.25.14Z"/><path d="M174.78.14a3.9,3.9,0,0,0-2.45,2.71,3.54,3.54,0,0,0,4.08,4.08,3.77,3.77,0,0,0,2.78-2.78A3.54,3.54,0,0,0,174.78.14Z"/><path d="M189.31.14a3.9,3.9,0,0,0-2.45,2.71,3.54,3.54,0,0,0,4.08,4.08,3.77,3.77,0,0,0,2.78-2.78A3.54,3.54,0,0,0,189.31.14Z"/><path d="M203.84.14a3.9,3.9,0,0,0-2.45,2.71,3.59,3.59,0,0,0,2.78,4.08,3.54,3.54,0,0,0,4.08-4.08A3.58,3.58,0,0,0,203.84.14Z"/><path d="M218.37.14a3.9,3.9,0,0,0-2.45,2.71,3.59,3.59,0,0,0,2.78,4.08,3.54,3.54,0,0,0,4.08-4.08A3.58,3.58,0,0,0,218.37.14Z"/><path d="M232.9.14a3.9,3.9,0,0,0-2.45,2.71,3.59,3.59,0,0,0,2.78,4.08,3.54,3.54,0,0,0,4.08-4.08A3.58,3.58,0,0,0,232.9.14Z"/><path d="M247.43.14A3.9,3.9,0,0,0,245,2.86a3.59,3.59,0,0,0,2.78,4.08,3.54,3.54,0,0,0,4.08-4.08A3.58,3.58,0,0,0,247.43.14Z"/><path d="M262,.14a3.9,3.9,0,0,0-2.45,2.71,3.54,3.54,0,0,0,4.08,4.08,3.77,3.77,0,0,0,2.78-2.78A3.54,3.54,0,0,0,262,.14Z"/><path d="M276.49.14A3.9,3.9,0,0,0,274,2.86a3.54,3.54,0,0,0,4.08,4.08,3.77,3.77,0,0,0,2.78-2.78A3.54,3.54,0,0,0,276.49.14Z"/><path d="M145.72,14.67a3.9,3.9,0,0,0-2.45,2.71,3.54,3.54,0,0,0,4.08,4.08,3.77,3.77,0,0,0,2.78-2.78A3.54,3.54,0,0,0,145.72,14.67Z"/><path d="M160.25,14.67a3.9,3.9,0,0,0-2.45,2.71,3.54,3.54,0,0,0,4.08,4.08,3.77,3.77,0,0,0,2.78-2.78A3.54,3.54,0,0,0,160.25,14.67Z"/><path d="M174.78,14.67a3.9,3.9,0,0,0-2.45,2.71,3.54,3.54,0,0,0,4.08,4.08,3.77,3.77,0,0,0,2.78-2.78A3.54,3.54,0,0,0,174.78,14.67Z"/><path d="M189.31,14.67a3.9,3.9,0,0,0-2.45,2.71,3.54,3.54,0,0,0,4.08,4.08,3.77,3.77,0,0,0,2.78-2.78A3.54,3.54,0,0,0,189.31,14.67Z"/><path d="M203.84,14.67a3.9,3.9,0,0,0-2.45,2.71,3.59,3.59,0,0,0,2.78,4.08,3.54,3.54,0,0,0,4.08-4.08A3.58,3.58,0,0,0,203.84,14.67Z"/><path d="M218.37,14.67a3.9,3.9,0,0,0-2.45,2.71A3.54,3.54,0,0,0,220,21.46a3.59,3.59,0,0,0,2.78-4.08A3.58,3.58,0,0,0,218.37,14.67Z"/><path d="M232.9,14.67a3.9,3.9,0,0,0-2.45,2.71,3.54,3.54,0,0,0,4.08,4.08,3.59,3.59,0,0,0,2.78-4.08A3.58,3.58,0,0,0,232.9,14.67Z"/><path d="M247.43,14.67A3.9,3.9,0,0,0,245,17.39a3.54,3.54,0,0,0,4.08,4.08,3.59,3.59,0,0,0,2.78-4.08A3.58,3.58,0,0,0,247.43,14.67Z"/><path d="M262,14.67a3.9,3.9,0,0,0-2.45,2.71,3.54,3.54,0,0,0,4.08,4.08,3.77,3.77,0,0,0,2.78-2.78A3.54,3.54,0,0,0,262,14.67Z"/><path d="M276.49,14.67A3.9,3.9,0,0,0,274,17.39a3.54,3.54,0,0,0,4.08,4.08,3.77,3.77,0,0,0,2.78-2.78A3.54,3.54,0,0,0,276.49,14.67Z"/><path d="M145.72,29.21a3.9,3.9,0,0,0-2.45,2.71A3.54,3.54,0,0,0,147.34,36a3.77,3.77,0,0,0,2.78-2.78A3.54,3.54,0,0,0,145.72,29.21Z"/><path d="M160.25,29.21a3.9,3.9,0,0,0-2.45,2.71A3.54,3.54,0,0,0,161.87,36a3.77,3.77,0,0,0,2.78-2.78A3.54,3.54,0,0,0,160.25,29.21Z"/><path d="M174.78,29.21a3.9,3.9,0,0,0-2.45,2.71A3.54,3.54,0,0,0,176.4,36a3.77,3.77,0,0,0,2.78-2.78A3.54,3.54,0,0,0,174.78,29.21Z"/><path d="M189.31,29.21a3.9,3.9,0,0,0-2.45,2.71A3.54,3.54,0,0,0,190.93,36a3.77,3.77,0,0,0,2.78-2.78A3.54,3.54,0,0,0,189.31,29.21Z"/><path d="M203.84,29.21a3.9,3.9,0,0,0-2.45,2.71A3.54,3.54,0,0,0,205.46,36a3.77,3.77,0,0,0,2.78-2.78A3.54,3.54,0,0,0,203.84,29.21Z"/><path d="M218.37,29.21a3.9,3.9,0,0,0-2.45,2.71A3.54,3.54,0,0,0,220,36a3.77,3.77,0,0,0,2.78-2.78A3.54,3.54,0,0,0,218.37,29.21Z"/><path d="M232.9,29.21a3.9,3.9,0,0,0-2.45,2.71A3.54,3.54,0,0,0,234.52,36a3.77,3.77,0,0,0,2.78-2.78A3.54,3.54,0,0,0,232.9,29.21Z"/><path d="M247.43,29.21A3.9,3.9,0,0,0,245,31.92,3.54,3.54,0,0,0,249.06,36a3.77,3.77,0,0,0,2.78-2.78A3.54,3.54,0,0,0,247.43,29.21Z"/><path d="M262,29.21a3.9,3.9,0,0,0-2.45,2.71A3.54,3.54,0,0,0,263.59,36a3.77,3.77,0,0,0,2.78-2.78A3.54,3.54,0,0,0,262,29.21Z"/><path d="M276.49,29.21A3.9,3.9,0,0,0,274,31.92,3.54,3.54,0,0,0,278.12,36a3.77,3.77,0,0,0,2.78-2.78A3.54,3.54,0,0,0,276.49,29.21Z"/><path d="M145.72,43.74a3.9,3.9,0,0,0-2.45,2.71,3.54,3.54,0,0,0,4.08,4.08,3.77,3.77,0,0,0,2.78-2.78A3.54,3.54,0,0,0,145.72,43.74Z"/><path d="M160.25,43.74a3.9,3.9,0,0,0-2.45,2.71,3.54,3.54,0,0,0,4.08,4.08,3.77,3.77,0,0,0,2.78-2.78A3.54,3.54,0,0,0,160.25,43.74Z"/><path d="M174.78,43.74a3.9,3.9,0,0,0-2.45,2.71,3.54,3.54,0,0,0,4.08,4.08,3.77,3.77,0,0,0,2.78-2.78A3.54,3.54,0,0,0,174.78,43.74Z"/><path d="M189.31,43.74a3.9,3.9,0,0,0-2.45,2.71,3.54,3.54,0,0,0,4.08,4.08,3.77,3.77,0,0,0,2.78-2.78A3.54,3.54,0,0,0,189.31,43.74Z"/><path d="M203.84,43.74a3.9,3.9,0,0,0-2.45,2.71,3.54,3.54,0,0,0,4.08,4.08,3.77,3.77,0,0,0,2.78-2.78A3.54,3.54,0,0,0,203.84,43.74Z"/><path d="M218.37,43.74a3.9,3.9,0,0,0-2.45,2.71A3.54,3.54,0,0,0,220,50.52a3.77,3.77,0,0,0,2.78-2.78A3.54,3.54,0,0,0,218.37,43.74Z"/><path d="M232.9,43.74a3.9,3.9,0,0,0-2.45,2.71,3.54,3.54,0,0,0,4.08,4.08,3.77,3.77,0,0,0,2.78-2.78A3.54,3.54,0,0,0,232.9,43.74Z"/><path d="M247.43,43.74A3.9,3.9,0,0,0,245,46.45a3.54,3.54,0,0,0,4.08,4.08,3.77,3.77,0,0,0,2.78-2.78A3.54,3.54,0,0,0,247.43,43.74Z"/><path d="M262,43.74a3.9,3.9,0,0,0-2.45,2.71,3.54,3.54,0,0,0,4.08,4.08,3.77,3.77,0,0,0,2.78-2.78A3.54,3.54,0,0,0,262,43.74Z"/><path d="M276.49,43.74A3.9,3.9,0,0,0,274,46.45a3.54,3.54,0,0,0,4.08,4.08,3.77,3.77,0,0,0,2.78-2.78A3.54,3.54,0,0,0,276.49,43.74Z"/><path d="M145.72,58.27A3.9,3.9,0,0,0,143.26,61a3.54,3.54,0,0,0,4.08,4.08,3.77,3.77,0,0,0,2.78-2.78A3.54,3.54,0,0,0,145.72,58.27Z"/><path d="M160.25,58.27A3.9,3.9,0,0,0,157.8,61a3.54,3.54,0,0,0,4.08,4.08,3.77,3.77,0,0,0,2.78-2.78A3.54,3.54,0,0,0,160.25,58.27Z"/><path d="M174.78,58.27A3.9,3.9,0,0,0,172.33,61a3.54,3.54,0,0,0,4.08,4.08,3.77,3.77,0,0,0,2.78-2.78A3.54,3.54,0,0,0,174.78,58.27Z"/><path d="M189.31,58.27A3.9,3.9,0,0,0,186.86,61a3.54,3.54,0,0,0,4.08,4.08,3.77,3.77,0,0,0,2.78-2.78A3.54,3.54,0,0,0,189.31,58.27Z"/><path d="M203.84,58.27A3.9,3.9,0,0,0,201.39,61a3.54,3.54,0,0,0,4.08,4.08,3.77,3.77,0,0,0,2.78-2.78A3.54,3.54,0,0,0,203.84,58.27Z"/><path d="M218.37,58.27A3.9,3.9,0,0,0,215.92,61,3.54,3.54,0,0,0,220,65.06a3.77,3.77,0,0,0,2.78-2.78A3.54,3.54,0,0,0,218.37,58.27Z"/><path d="M232.9,58.27A3.9,3.9,0,0,0,230.45,61a3.54,3.54,0,0,0,4.08,4.08,3.77,3.77,0,0,0,2.78-2.78A3.54,3.54,0,0,0,232.9,58.27Z"/><path d="M247.43,58.27A3.9,3.9,0,0,0,245,61a3.54,3.54,0,0,0,4.08,4.08,3.77,3.77,0,0,0,2.78-2.78A3.54,3.54,0,0,0,247.43,58.27Z"/><path d="M262,58.27A3.9,3.9,0,0,0,259.51,61a3.54,3.54,0,0,0,4.08,4.08,3.77,3.77,0,0,0,2.78-2.78A3.54,3.54,0,0,0,262,58.27Z"/><path d="M276.49,58.27A3.9,3.9,0,0,0,274,61a3.54,3.54,0,0,0,4.08,4.08,3.77,3.77,0,0,0,2.78-2.78A3.54,3.54,0,0,0,276.49,58.27Z"/><path d="M145.72,72.8a3.9,3.9,0,0,0-2.45,2.71,3.54,3.54,0,0,0,4.08,4.08,3.77,3.77,0,0,0,2.78-2.78A3.54,3.54,0,0,0,145.72,72.8Z"/><path d="M160.25,72.8a3.9,3.9,0,0,0-2.45,2.71,3.54,3.54,0,0,0,4.08,4.08,3.77,3.77,0,0,0,2.78-2.78A3.54,3.54,0,0,0,160.25,72.8Z"/><path d="M174.78,72.8a3.9,3.9,0,0,0-2.45,2.71,3.54,3.54,0,0,0,4.08,4.08,3.77,3.77,0,0,0,2.78-2.78A3.54,3.54,0,0,0,174.78,72.8Z"/><path d="M189.31,72.8a3.9,3.9,0,0,0-2.45,2.71,3.54,3.54,0,0,0,4.08,4.08,3.77,3.77,0,0,0,2.78-2.78A3.54,3.54,0,0,0,189.31,72.8Z"/><path d="M203.84,72.8a3.9,3.9,0,0,0-2.45,2.71,3.54,3.54,0,0,0,4.08,4.08,3.77,3.77,0,0,0,2.78-2.78A3.54,3.54,0,0,0,203.84,72.8Z"/><path d="M218.37,72.8a3.9,3.9,0,0,0-2.45,2.71A3.54,3.54,0,0,0,220,79.59a3.77,3.77,0,0,0,2.78-2.78A3.54,3.54,0,0,0,218.37,72.8Z"/><path d="M232.9,72.8a3.9,3.9,0,0,0-2.45,2.71,3.54,3.54,0,0,0,4.08,4.08,3.77,3.77,0,0,0,2.78-2.78A3.54,3.54,0,0,0,232.9,72.8Z"/><path d="M247.43,72.8A3.9,3.9,0,0,0,245,75.51a3.54,3.54,0,0,0,4.08,4.08,3.77,3.77,0,0,0,2.78-2.78A3.54,3.54,0,0,0,247.43,72.8Z"/><path d="M262,72.8a3.9,3.9,0,0,0-2.45,2.71,3.54,3.54,0,0,0,4.08,4.08,3.77,3.77,0,0,0,2.78-2.78A3.54,3.54,0,0,0,262,72.8Z"/><path d="M276.49,72.8A3.9,3.9,0,0,0,274,75.51a3.54,3.54,0,0,0,4.08,4.08,3.77,3.77,0,0,0,2.78-2.78A3.54,3.54,0,0,0,276.49,72.8Z"/><path d="M145.72,87.33A3.9,3.9,0,0,0,143.26,90a3.54,3.54,0,0,0,4.08,4.08,3.77,3.77,0,0,0,2.78-2.78A3.54,3.54,0,0,0,145.72,87.33Z"/><path d="M160.25,87.33A3.9,3.9,0,0,0,157.8,90a3.54,3.54,0,0,0,4.08,4.08,3.77,3.77,0,0,0,2.78-2.78A3.54,3.54,0,0,0,160.25,87.33Z"/><path d="M174.78,87.33A3.9,3.9,0,0,0,172.33,90a3.54,3.54,0,0,0,4.08,4.08,3.77,3.77,0,0,0,2.78-2.78A3.54,3.54,0,0,0,174.78,87.33Z"/><path d="M189.31,87.33A3.9,3.9,0,0,0,186.86,90a3.54,3.54,0,0,0,4.08,4.08,3.77,3.77,0,0,0,2.78-2.78A3.54,3.54,0,0,0,189.31,87.33Z"/><path d="M203.84,87.33A3.9,3.9,0,0,0,201.39,90a3.54,3.54,0,0,0,4.08,4.08,3.77,3.77,0,0,0,2.78-2.78A3.54,3.54,0,0,0,203.84,87.33Z"/><path d="M218.37,87.33A3.9,3.9,0,0,0,215.92,90,3.54,3.54,0,0,0,220,94.12a3.77,3.77,0,0,0,2.78-2.78A3.54,3.54,0,0,0,218.37,87.33Z"/><path d="M232.9,87.33A3.9,3.9,0,0,0,230.45,90a3.54,3.54,0,0,0,4.08,4.08,3.77,3.77,0,0,0,2.78-2.78A3.54,3.54,0,0,0,232.9,87.33Z"/><path d="M247.43,87.33A3.9,3.9,0,0,0,245,90a3.54,3.54,0,0,0,4.08,4.08,3.77,3.77,0,0,0,2.78-2.78A3.54,3.54,0,0,0,247.43,87.33Z"/><path d="M262,87.33A3.9,3.9,0,0,0,259.51,90a3.54,3.54,0,0,0,4.08,4.08,3.77,3.77,0,0,0,2.78-2.78A3.54,3.54,0,0,0,262,87.33Z"/><path d="M276.49,87.33A3.9,3.9,0,0,0,274,90a3.54,3.54,0,0,0,4.08,4.08,3.77,3.77,0,0,0,2.78-2.78A3.54,3.54,0,0,0,276.49,87.33Z"/><path d="M145.72,101.86a3.9,3.9,0,0,0-2.45,2.71,3.54,3.54,0,0,0,4.08,4.08,3.77,3.77,0,0,0,2.78-2.78A3.54,3.54,0,0,0,145.72,101.86Z"/><path d="M160.25,101.86a3.9,3.9,0,0,0-2.45,2.71,3.54,3.54,0,0,0,4.08,4.08,3.77,3.77,0,0,0,2.78-2.78A3.54,3.54,0,0,0,160.25,101.86Z"/><path d="M174.78,101.86a3.9,3.9,0,0,0-2.45,2.71,3.54,3.54,0,0,0,4.08,4.08,3.77,3.77,0,0,0,2.78-2.78A3.54,3.54,0,0,0,174.78,101.86Z"/><path d="M189.31,101.86a3.9,3.9,0,0,0-2.45,2.71,3.54,3.54,0,0,0,4.08,4.08,3.77,3.77,0,0,0,2.78-2.78A3.54,3.54,0,0,0,189.31,101.86Z"/><path d="M203.84,101.86a3.9,3.9,0,0,0-2.45,2.71,3.54,3.54,0,0,0,4.08,4.08,3.77,3.77,0,0,0,2.78-2.78A3.54,3.54,0,0,0,203.84,101.86Z"/><path d="M218.37,101.86a3.9,3.9,0,0,0-2.45,2.71,3.54,3.54,0,0,0,4.08,4.08,3.77,3.77,0,0,0,2.78-2.78A3.54,3.54,0,0,0,218.37,101.86Z"/><path d="M232.9,101.86a3.9,3.9,0,0,0-2.45,2.71,3.54,3.54,0,0,0,4.08,4.08,3.77,3.77,0,0,0,2.78-2.78A3.54,3.54,0,0,0,232.9,101.86Z"/><path d="M247.43,101.86a3.9,3.9,0,0,0-2.45,2.71,3.54,3.54,0,0,0,4.08,4.08,3.77,3.77,0,0,0,2.78-2.78A3.54,3.54,0,0,0,247.43,101.86Z"/><path d="M262,101.86a3.9,3.9,0,0,0-2.45,2.71,3.54,3.54,0,0,0,4.08,4.08,3.77,3.77,0,0,0,2.78-2.78A3.54,3.54,0,0,0,262,101.86Z"/><path d="M276.49,101.86a3.9,3.9,0,0,0-2.45,2.71,3.54,3.54,0,0,0,4.08,4.08,3.77,3.77,0,0,0,2.78-2.78A3.54,3.54,0,0,0,276.49,101.86Z"/><path d="M145.72,116.39a3.9,3.9,0,0,0-2.45,2.71,3.54,3.54,0,0,0,4.08,4.08,3.77,3.77,0,0,0,2.78-2.78A3.54,3.54,0,0,0,145.72,116.39Z"/><path d="M160.25,116.39a3.9,3.9,0,0,0-2.45,2.71,3.54,3.54,0,0,0,4.08,4.08,3.77,3.77,0,0,0,2.78-2.78A3.54,3.54,0,0,0,160.25,116.39Z"/><path d="M174.78,116.39a3.9,3.9,0,0,0-2.45,2.71,3.54,3.54,0,0,0,4.08,4.08,3.77,3.77,0,0,0,2.78-2.78A3.54,3.54,0,0,0,174.78,116.39Z"/><path d="M189.31,116.39a3.9,3.9,0,0,0-2.45,2.71,3.54,3.54,0,0,0,4.08,4.08,3.77,3.77,0,0,0,2.78-2.78A3.54,3.54,0,0,0,189.31,116.39Z"/><path d="M203.84,116.39a3.9,3.9,0,0,0-2.45,2.71,3.54,3.54,0,0,0,4.08,4.08,3.77,3.77,0,0,0,2.78-2.78A3.54,3.54,0,0,0,203.84,116.39Z"/><path d="M218.37,116.39a3.9,3.9,0,0,0-2.45,2.71,3.54,3.54,0,0,0,4.08,4.08,3.77,3.77,0,0,0,2.78-2.78A3.54,3.54,0,0,0,218.37,116.39Z"/><path d="M232.9,116.39a3.9,3.9,0,0,0-2.45,2.71,3.54,3.54,0,0,0,4.08,4.08,3.77,3.77,0,0,0,2.78-2.78A3.54,3.54,0,0,0,232.9,116.39Z"/><path d="M247.43,116.39A3.9,3.9,0,0,0,245,119.1a3.54,3.54,0,0,0,4.08,4.08,3.77,3.77,0,0,0,2.78-2.78A3.54,3.54,0,0,0,247.43,116.39Z"/><path d="M262,116.39a3.9,3.9,0,0,0-2.45,2.71,3.54,3.54,0,0,0,4.08,4.08,3.77,3.77,0,0,0,2.78-2.78A3.54,3.54,0,0,0,262,116.39Z"/><path d="M276.49,116.39A3.9,3.9,0,0,0,274,119.1a3.54,3.54,0,0,0,4.08,4.08,3.77,3.77,0,0,0,2.78-2.78A3.54,3.54,0,0,0,276.49,116.39Z"/><path d="M145.72,130.92a3.9,3.9,0,0,0-2.45,2.71,3.54,3.54,0,0,0,4.08,4.08,3.49,3.49,0,1,0-1.62-6.79Z"/><path d="M160.25,130.92a3.9,3.9,0,0,0-2.45,2.71,3.54,3.54,0,0,0,4.08,4.08,3.77,3.77,0,0,0,2.78-2.78A3.54,3.54,0,0,0,160.25,130.92Z"/><path d="M174.78,130.92a3.9,3.9,0,0,0-2.45,2.71,3.54,3.54,0,0,0,4.08,4.08,3.77,3.77,0,0,0,2.78-2.78A3.54,3.54,0,0,0,174.78,130.92Z"/><path d="M189.31,130.92a3.9,3.9,0,0,0-2.45,2.71,3.54,3.54,0,0,0,4.08,4.08,3.77,3.77,0,0,0,2.78-2.78A3.54,3.54,0,0,0,189.31,130.92Z"/><path d="M203.84,130.92a3.9,3.9,0,0,0-2.45,2.71,3.54,3.54,0,0,0,4.08,4.08,3.77,3.77,0,0,0,2.78-2.78A3.54,3.54,0,0,0,203.84,130.92Z"/><path d="M218.37,130.92a3.9,3.9,0,0,0-2.45,2.71,3.54,3.54,0,0,0,4.08,4.08,3.77,3.77,0,0,0,2.78-2.78A3.54,3.54,0,0,0,218.37,130.92Z"/><path d="M232.9,130.92a3.9,3.9,0,0,0-2.45,2.71,3.54,3.54,0,0,0,4.08,4.08,3.77,3.77,0,0,0,2.78-2.78A3.54,3.54,0,0,0,232.9,130.92Z"/><path d="M247.43,130.92a3.9,3.9,0,0,0-2.45,2.71,3.54,3.54,0,0,0,4.08,4.08,3.77,3.77,0,0,0,2.78-2.78A3.54,3.54,0,0,0,247.43,130.92Z"/><path d="M262,130.92a3.9,3.9,0,0,0-2.45,2.71,3.54,3.54,0,0,0,4.08,4.08,3.77,3.77,0,0,0,2.78-2.78A3.54,3.54,0,0,0,262,130.92Z"/><path d="M276.49,130.92a3.9,3.9,0,0,0-2.45,2.71,3.54,3.54,0,0,0,4.08,4.08,3.77,3.77,0,0,0,2.78-2.78A3.54,3.54,0,0,0,276.49,130.92Z"/><path d="M146.57,144.2a3.9,3.9,0,0,0-2.45,2.71A3.54,3.54,0,0,0,148.2,151a3.77,3.77,0,0,0,2.78-2.78A3.54,3.54,0,0,0,146.57,144.2Z"/><path d="M161.1,144.2a3.9,3.9,0,0,0-2.45,2.71,3.54,3.54,0,0,0,4.08,4.08,3.77,3.77,0,0,0,2.78-2.78A3.54,3.54,0,0,0,161.1,144.2Z"/><path d="M175.64,144.2a3.9,3.9,0,0,0-2.45,2.71,3.54,3.54,0,0,0,4.08,4.08,3.77,3.77,0,0,0,2.78-2.78A3.54,3.54,0,0,0,175.64,144.2Z"/><path d="M190.17,144.2a3.9,3.9,0,0,0-2.45,2.71,3.54,3.54,0,0,0,4.08,4.08,3.77,3.77,0,0,0,2.78-2.78A3.54,3.54,0,0,0,190.17,144.2Z"/><path d="M204.7,144.2a3.9,3.9,0,0,0-2.45,2.71A3.59,3.59,0,0,0,205,151a3.54,3.54,0,0,0,4.08-4.08A3.58,3.58,0,0,0,204.7,144.2Z"/><path d="M219.23,144.2a3.9,3.9,0,0,0-2.45,2.71,3.59,3.59,0,0,0,2.78,4.08,3.54,3.54,0,0,0,4.08-4.08A3.58,3.58,0,0,0,219.23,144.2Z"/><path d="M233.76,144.2a3.9,3.9,0,0,0-2.45,2.71,3.59,3.59,0,0,0,2.78,4.08,3.54,3.54,0,0,0,4.08-4.08A3.58,3.58,0,0,0,233.76,144.2Z"/><path d="M248.29,144.2a3.9,3.9,0,0,0-2.45,2.71,3.59,3.59,0,0,0,2.78,4.08,3.54,3.54,0,0,0,4.08-4.08A3.58,3.58,0,0,0,248.29,144.2Z"/><path d="M262.82,144.2a3.9,3.9,0,0,0-2.45,2.71,3.54,3.54,0,0,0,4.08,4.08,3.77,3.77,0,0,0,2.78-2.78A3.54,3.54,0,0,0,262.82,144.2Z"/><path d="M277.35,144.2a3.9,3.9,0,0,0-2.45,2.71A3.54,3.54,0,0,0,279,151a3.77,3.77,0,0,0,2.78-2.78A3.54,3.54,0,0,0,277.35,144.2Z"/><path d="M146.57,158.73a3.9,3.9,0,0,0-2.45,2.71,3.54,3.54,0,0,0,4.08,4.08,3.77,3.77,0,0,0,2.78-2.78A3.54,3.54,0,0,0,146.57,158.73Z"/><path d="M161.1,158.73a3.9,3.9,0,0,0-2.45,2.71,3.54,3.54,0,0,0,4.08,4.08,3.77,3.77,0,0,0,2.78-2.78A3.54,3.54,0,0,0,161.1,158.73Z"/><path d="M175.64,158.73a3.9,3.9,0,0,0-2.45,2.71,3.54,3.54,0,0,0,4.08,4.08,3.77,3.77,0,0,0,2.78-2.78A3.54,3.54,0,0,0,175.64,158.73Z"/><path d="M190.17,158.73a3.9,3.9,0,0,0-2.45,2.71,3.54,3.54,0,0,0,4.08,4.08,3.77,3.77,0,0,0,2.78-2.78A3.54,3.54,0,0,0,190.17,158.73Z"/><path d="M204.7,158.73a3.9,3.9,0,0,0-2.45,2.71,3.59,3.59,0,0,0,2.78,4.08,3.54,3.54,0,0,0,4.08-4.08A3.58,3.58,0,0,0,204.7,158.73Z"/><path d="M219.23,158.73a3.9,3.9,0,0,0-2.45,2.71,3.54,3.54,0,0,0,4.08,4.08,3.49,3.49,0,1,0-1.62-6.79Z"/><path d="M233.76,158.73a3.9,3.9,0,0,0-2.45,2.71,3.54,3.54,0,0,0,4.08,4.08,3.49,3.49,0,1,0-1.62-6.79Z"/><path d="M248.29,158.73a3.9,3.9,0,0,0-2.45,2.71,3.54,3.54,0,0,0,4.08,4.08,3.49,3.49,0,1,0-1.62-6.79Z"/><path d="M262.82,158.73a3.9,3.9,0,0,0-2.45,2.71,3.54,3.54,0,0,0,4.08,4.08,3.77,3.77,0,0,0,2.78-2.78A3.54,3.54,0,0,0,262.82,158.73Z"/><path d="M277.35,158.73a3.9,3.9,0,0,0-2.45,2.71,3.54,3.54,0,0,0,4.08,4.08,3.77,3.77,0,0,0,2.78-2.78A3.54,3.54,0,0,0,277.35,158.73Z"/><path d="M146.57,173.26a3.9,3.9,0,0,0-2.45,2.71A3.54,3.54,0,0,0,148.2,180a3.77,3.77,0,0,0,2.78-2.78A3.54,3.54,0,0,0,146.57,173.26Z"/><path d="M161.1,173.26a3.9,3.9,0,0,0-2.45,2.71,3.54,3.54,0,0,0,4.08,4.08,3.77,3.77,0,0,0,2.78-2.78A3.54,3.54,0,0,0,161.1,173.26Z"/><path d="M175.64,173.26a3.9,3.9,0,0,0-2.45,2.71,3.54,3.54,0,0,0,4.08,4.08,3.77,3.77,0,0,0,2.78-2.78A3.54,3.54,0,0,0,175.64,173.26Z"/><path d="M190.17,173.26a3.9,3.9,0,0,0-2.45,2.71,3.54,3.54,0,0,0,4.08,4.08,3.77,3.77,0,0,0,2.78-2.78A3.54,3.54,0,0,0,190.17,173.26Z"/><path d="M204.7,173.26a3.9,3.9,0,0,0-2.45,2.71,3.54,3.54,0,0,0,4.08,4.08,3.77,3.77,0,0,0,2.78-2.78A3.54,3.54,0,0,0,204.7,173.26Z"/><path d="M219.23,173.26a3.9,3.9,0,0,0-2.45,2.71,3.54,3.54,0,0,0,4.08,4.08,3.77,3.77,0,0,0,2.78-2.78A3.54,3.54,0,0,0,219.23,173.26Z"/><path d="M233.76,173.26a3.9,3.9,0,0,0-2.45,2.71,3.54,3.54,0,0,0,4.08,4.08,3.77,3.77,0,0,0,2.78-2.78A3.54,3.54,0,0,0,233.76,173.26Z"/><path d="M248.29,173.26a3.9,3.9,0,0,0-2.45,2.71,3.54,3.54,0,0,0,4.08,4.08,3.77,3.77,0,0,0,2.78-2.78A3.54,3.54,0,0,0,248.29,173.26Z"/><path d="M262.82,173.26a3.9,3.9,0,0,0-2.45,2.71,3.54,3.54,0,0,0,4.08,4.08,3.77,3.77,0,0,0,2.78-2.78A3.54,3.54,0,0,0,262.82,173.26Z"/><path d="M277.35,173.26A3.9,3.9,0,0,0,274.9,176,3.54,3.54,0,0,0,279,180a3.77,3.77,0,0,0,2.78-2.78A3.54,3.54,0,0,0,277.35,173.26Z"/><path d="M146.57,187.79a3.9,3.9,0,0,0-2.45,2.71,3.54,3.54,0,0,0,4.08,4.08A3.77,3.77,0,0,0,151,191.8,3.54,3.54,0,0,0,146.57,187.79Z"/><path d="M161.1,187.79a3.9,3.9,0,0,0-2.45,2.71,3.54,3.54,0,0,0,4.08,4.08,3.77,3.77,0,0,0,2.78-2.78A3.54,3.54,0,0,0,161.1,187.79Z"/><path d="M175.64,187.79a3.9,3.9,0,0,0-2.45,2.71,3.54,3.54,0,0,0,4.08,4.08A3.77,3.77,0,0,0,180,191.8,3.54,3.54,0,0,0,175.64,187.79Z"/><path d="M190.17,187.79a3.9,3.9,0,0,0-2.45,2.71,3.54,3.54,0,0,0,4.08,4.08,3.77,3.77,0,0,0,2.78-2.78A3.54,3.54,0,0,0,190.17,187.79Z"/><path d="M204.7,187.79a3.9,3.9,0,0,0-2.45,2.71,3.54,3.54,0,0,0,4.08,4.08,3.77,3.77,0,0,0,2.78-2.78A3.54,3.54,0,0,0,204.7,187.79Z"/><path d="M219.23,187.79a3.9,3.9,0,0,0-2.45,2.71,3.54,3.54,0,0,0,4.08,4.08,3.77,3.77,0,0,0,2.78-2.78A3.54,3.54,0,0,0,219.23,187.79Z"/><path d="M233.76,187.79a3.9,3.9,0,0,0-2.45,2.71,3.54,3.54,0,0,0,4.08,4.08,3.77,3.77,0,0,0,2.78-2.78A3.54,3.54,0,0,0,233.76,187.79Z"/><path d="M248.29,187.79a3.9,3.9,0,0,0-2.45,2.71,3.54,3.54,0,0,0,4.08,4.08,3.77,3.77,0,0,0,2.78-2.78A3.54,3.54,0,0,0,248.29,187.79Z"/><path d="M262.82,187.79a3.9,3.9,0,0,0-2.45,2.71,3.54,3.54,0,0,0,4.08,4.08,3.77,3.77,0,0,0,2.78-2.78A3.54,3.54,0,0,0,262.82,187.79Z"/><path d="M277.35,187.79a3.9,3.9,0,0,0-2.45,2.71,3.54,3.54,0,0,0,4.08,4.08,3.77,3.77,0,0,0,2.78-2.78A3.54,3.54,0,0,0,277.35,187.79Z"/><path d="M146.57,202.32a3.9,3.9,0,0,0-2.45,2.71,3.54,3.54,0,0,0,4.08,4.08,3.77,3.77,0,0,0,2.78-2.78A3.54,3.54,0,0,0,146.57,202.32Z"/><path d="M161.1,202.32a3.9,3.9,0,0,0-2.45,2.71,3.54,3.54,0,0,0,4.08,4.08,3.77,3.77,0,0,0,2.78-2.78A3.54,3.54,0,0,0,161.1,202.32Z"/><path d="M175.64,202.32a3.9,3.9,0,0,0-2.45,2.71,3.54,3.54,0,0,0,4.08,4.08,3.77,3.77,0,0,0,2.78-2.78A3.54,3.54,0,0,0,175.64,202.32Z"/><path d="M190.17,202.32a3.9,3.9,0,0,0-2.45,2.71,3.54,3.54,0,0,0,4.08,4.08,3.77,3.77,0,0,0,2.78-2.78A3.54,3.54,0,0,0,190.17,202.32Z"/><path d="M204.7,202.32a3.9,3.9,0,0,0-2.45,2.71,3.54,3.54,0,0,0,4.08,4.08,3.77,3.77,0,0,0,2.78-2.78A3.54,3.54,0,0,0,204.7,202.32Z"/><path d="M219.23,202.32a3.9,3.9,0,0,0-2.45,2.71,3.54,3.54,0,0,0,4.08,4.08,3.77,3.77,0,0,0,2.78-2.78A3.54,3.54,0,0,0,219.23,202.32Z"/><path d="M233.76,202.32a3.9,3.9,0,0,0-2.45,2.71,3.54,3.54,0,0,0,4.08,4.08,3.77,3.77,0,0,0,2.78-2.78A3.54,3.54,0,0,0,233.76,202.32Z"/><path d="M248.29,202.32a3.9,3.9,0,0,0-2.45,2.71,3.54,3.54,0,0,0,4.08,4.08,3.77,3.77,0,0,0,2.78-2.78A3.54,3.54,0,0,0,248.29,202.32Z"/><path d="M262.82,202.32a3.9,3.9,0,0,0-2.45,2.71,3.54,3.54,0,0,0,4.08,4.08,3.77,3.77,0,0,0,2.78-2.78A3.54,3.54,0,0,0,262.82,202.32Z"/><path d="M277.35,202.32A3.9,3.9,0,0,0,274.9,205a3.54,3.54,0,0,0,4.08,4.08,3.77,3.77,0,0,0,2.78-2.78A3.54,3.54,0,0,0,277.35,202.32Z"/><path d="M146.57,216.85a3.9,3.9,0,0,0-2.45,2.71,3.54,3.54,0,0,0,4.08,4.08,3.77,3.77,0,0,0,2.78-2.78A3.54,3.54,0,0,0,146.57,216.85Z"/><path d="M161.1,216.85a3.9,3.9,0,0,0-2.45,2.71,3.54,3.54,0,0,0,4.08,4.08,3.77,3.77,0,0,0,2.78-2.78A3.54,3.54,0,0,0,161.1,216.85Z"/><path d="M175.64,216.85a3.9,3.9,0,0,0-2.45,2.71,3.54,3.54,0,0,0,4.08,4.08,3.77,3.77,0,0,0,2.78-2.78A3.54,3.54,0,0,0,175.64,216.85Z"/><path d="M190.17,216.85a3.9,3.9,0,0,0-2.45,2.71,3.54,3.54,0,0,0,4.08,4.08,3.77,3.77,0,0,0,2.78-2.78A3.54,3.54,0,0,0,190.17,216.85Z"/><path d="M204.7,216.85a3.9,3.9,0,0,0-2.45,2.71,3.54,3.54,0,0,0,4.08,4.08,3.77,3.77,0,0,0,2.78-2.78A3.54,3.54,0,0,0,204.7,216.85Z"/><path d="M219.23,216.85a3.9,3.9,0,0,0-2.45,2.71,3.54,3.54,0,0,0,4.08,4.08,3.77,3.77,0,0,0,2.78-2.78A3.54,3.54,0,0,0,219.23,216.85Z"/><path d="M233.76,216.85a3.9,3.9,0,0,0-2.45,2.71,3.54,3.54,0,0,0,4.08,4.08,3.77,3.77,0,0,0,2.78-2.78A3.54,3.54,0,0,0,233.76,216.85Z"/><path d="M248.29,216.85a3.9,3.9,0,0,0-2.45,2.71,3.54,3.54,0,0,0,4.08,4.08,3.77,3.77,0,0,0,2.78-2.78A3.54,3.54,0,0,0,248.29,216.85Z"/><path d="M262.82,216.85a3.9,3.9,0,0,0-2.45,2.71,3.54,3.54,0,0,0,4.08,4.08,3.77,3.77,0,0,0,2.78-2.78A3.54,3.54,0,0,0,262.82,216.85Z"/><path d="M277.35,216.85a3.9,3.9,0,0,0-2.45,2.71,3.54,3.54,0,0,0,4.08,4.08,3.77,3.77,0,0,0,2.78-2.78A3.54,3.54,0,0,0,277.35,216.85Z"/><path d="M146.57,231.38a3.9,3.9,0,0,0-2.45,2.71,3.54,3.54,0,0,0,4.08,4.08,3.77,3.77,0,0,0,2.78-2.78A3.54,3.54,0,0,0,146.57,231.38Z"/><path d="M161.1,231.38a3.9,3.9,0,0,0-2.45,2.71,3.54,3.54,0,0,0,4.08,4.08,3.77,3.77,0,0,0,2.78-2.78A3.54,3.54,0,0,0,161.1,231.38Z"/><path d="M175.64,231.38a3.9,3.9,0,0,0-2.45,2.71,3.54,3.54,0,0,0,4.08,4.08,3.77,3.77,0,0,0,2.78-2.78A3.54,3.54,0,0,0,175.64,231.38Z"/><path d="M190.17,231.38a3.9,3.9,0,0,0-2.45,2.71,3.54,3.54,0,0,0,4.08,4.08,3.77,3.77,0,0,0,2.78-2.78A3.54,3.54,0,0,0,190.17,231.38Z"/><path d="M204.7,231.38a3.9,3.9,0,0,0-2.45,2.71,3.54,3.54,0,0,0,4.08,4.08,3.77,3.77,0,0,0,2.78-2.78A3.54,3.54,0,0,0,204.7,231.38Z"/><path d="M219.23,231.38a3.9,3.9,0,0,0-2.45,2.71,3.54,3.54,0,0,0,4.08,4.08,3.77,3.77,0,0,0,2.78-2.78A3.54,3.54,0,0,0,219.23,231.38Z"/><path d="M233.76,231.38a3.9,3.9,0,0,0-2.45,2.71,3.54,3.54,0,0,0,4.08,4.08,3.77,3.77,0,0,0,2.78-2.78A3.54,3.54,0,0,0,233.76,231.38Z"/><path d="M248.29,231.38a3.9,3.9,0,0,0-2.45,2.71,3.54,3.54,0,0,0,4.08,4.08,3.77,3.77,0,0,0,2.78-2.78A3.54,3.54,0,0,0,248.29,231.38Z"/><path d="M262.82,231.38a3.9,3.9,0,0,0-2.45,2.71,3.54,3.54,0,0,0,4.08,4.08,3.77,3.77,0,0,0,2.78-2.78A3.54,3.54,0,0,0,262.82,231.38Z"/><path d="M277.35,231.38a3.9,3.9,0,0,0-2.45,2.71,3.54,3.54,0,0,0,4.08,4.08,3.77,3.77,0,0,0,2.78-2.78A3.54,3.54,0,0,0,277.35,231.38Z"/><path d="M146.57,245.91a3.9,3.9,0,0,0-2.45,2.71,3.54,3.54,0,0,0,4.08,4.08,3.77,3.77,0,0,0,2.78-2.78A3.54,3.54,0,0,0,146.57,245.91Z"/><path d="M161.1,245.91a3.9,3.9,0,0,0-2.45,2.71,3.54,3.54,0,0,0,4.08,4.08,3.77,3.77,0,0,0,2.78-2.78A3.54,3.54,0,0,0,161.1,245.91Z"/><path d="M175.64,245.91a3.9,3.9,0,0,0-2.45,2.71,3.54,3.54,0,0,0,4.08,4.08,3.77,3.77,0,0,0,2.78-2.78A3.54,3.54,0,0,0,175.64,245.91Z"/><path d="M190.17,245.91a3.9,3.9,0,0,0-2.45,2.71,3.54,3.54,0,0,0,4.08,4.08,3.77,3.77,0,0,0,2.78-2.78A3.54,3.54,0,0,0,190.17,245.91Z"/><path d="M204.7,245.91a3.9,3.9,0,0,0-2.45,2.71,3.54,3.54,0,0,0,4.08,4.08,3.77,3.77,0,0,0,2.78-2.78A3.54,3.54,0,0,0,204.7,245.91Z"/><path d="M219.23,245.91a3.9,3.9,0,0,0-2.45,2.71,3.54,3.54,0,0,0,4.08,4.08,3.77,3.77,0,0,0,2.78-2.78A3.54,3.54,0,0,0,219.23,245.91Z"/><path d="M233.76,245.91a3.9,3.9,0,0,0-2.45,2.71,3.54,3.54,0,0,0,4.08,4.08,3.77,3.77,0,0,0,2.78-2.78A3.54,3.54,0,0,0,233.76,245.91Z"/><path d="M248.29,245.91a3.9,3.9,0,0,0-2.45,2.71,3.54,3.54,0,0,0,4.08,4.08,3.77,3.77,0,0,0,2.78-2.78A3.54,3.54,0,0,0,248.29,245.91Z"/><path d="M262.82,245.91a3.9,3.9,0,0,0-2.45,2.71,3.54,3.54,0,0,0,4.08,4.08,3.77,3.77,0,0,0,2.78-2.78A3.54,3.54,0,0,0,262.82,245.91Z"/><path d="M277.35,245.91a3.9,3.9,0,0,0-2.45,2.71A3.54,3.54,0,0,0,279,252.7a3.77,3.77,0,0,0,2.78-2.78A3.54,3.54,0,0,0,277.35,245.91Z"/><path d="M146.57,260.44a3.9,3.9,0,0,0-2.45,2.71,3.54,3.54,0,0,0,4.08,4.08,3.77,3.77,0,0,0,2.78-2.78A3.54,3.54,0,0,0,146.57,260.44Z"/><path d="M161.1,260.44a3.9,3.9,0,0,0-2.45,2.71,3.54,3.54,0,0,0,4.08,4.08,3.77,3.77,0,0,0,2.78-2.78A3.54,3.54,0,0,0,161.1,260.44Z"/><path d="M175.64,260.44a3.9,3.9,0,0,0-2.45,2.71,3.54,3.54,0,0,0,4.08,4.08,3.77,3.77,0,0,0,2.78-2.78A3.54,3.54,0,0,0,175.64,260.44Z"/><path d="M190.17,260.44a3.9,3.9,0,0,0-2.45,2.71,3.54,3.54,0,0,0,4.08,4.08,3.77,3.77,0,0,0,2.78-2.78A3.54,3.54,0,0,0,190.17,260.44Z"/><path d="M204.7,260.44a3.9,3.9,0,0,0-2.45,2.71,3.54,3.54,0,0,0,4.08,4.08,3.77,3.77,0,0,0,2.78-2.78A3.54,3.54,0,0,0,204.7,260.44Z"/><path d="M219.23,260.44a3.9,3.9,0,0,0-2.45,2.71,3.54,3.54,0,0,0,4.08,4.08,3.77,3.77,0,0,0,2.78-2.78A3.54,3.54,0,0,0,219.23,260.44Z"/><path d="M233.76,260.44a3.9,3.9,0,0,0-2.45,2.71,3.54,3.54,0,0,0,4.08,4.08,3.77,3.77,0,0,0,2.78-2.78A3.54,3.54,0,0,0,233.76,260.44Z"/><path d="M248.29,260.44a3.9,3.9,0,0,0-2.45,2.71,3.54,3.54,0,0,0,4.08,4.08,3.77,3.77,0,0,0,2.78-2.78A3.54,3.54,0,0,0,248.29,260.44Z"/><path d="M262.82,260.44a3.9,3.9,0,0,0-2.45,2.71,3.54,3.54,0,0,0,4.08,4.08,3.77,3.77,0,0,0,2.78-2.78A3.54,3.54,0,0,0,262.82,260.44Z"/><path d="M277.35,260.44a3.9,3.9,0,0,0-2.45,2.71,3.54,3.54,0,0,0,4.08,4.08,3.77,3.77,0,0,0,2.78-2.78A3.54,3.54,0,0,0,277.35,260.44Z"/><path d="M146.57,275a3.9,3.9,0,0,0-2.45,2.71,3.54,3.54,0,0,0,4.08,4.08,3.49,3.49,0,1,0-1.62-6.79Z"/><path d="M161.1,275a3.9,3.9,0,0,0-2.45,2.71,3.54,3.54,0,0,0,4.08,4.08,3.77,3.77,0,0,0,2.78-2.78A3.54,3.54,0,0,0,161.1,275Z"/><path d="M175.64,275a3.9,3.9,0,0,0-2.45,2.71,3.54,3.54,0,0,0,4.08,4.08A3.77,3.77,0,0,0,180,279,3.54,3.54,0,0,0,175.64,275Z"/><path d="M190.17,275a3.9,3.9,0,0,0-2.45,2.71,3.54,3.54,0,0,0,4.08,4.08,3.77,3.77,0,0,0,2.78-2.78A3.54,3.54,0,0,0,190.17,275Z"/><path d="M204.7,275a3.9,3.9,0,0,0-2.45,2.71,3.54,3.54,0,0,0,4.08,4.08A3.77,3.77,0,0,0,209.1,279,3.54,3.54,0,0,0,204.7,275Z"/><path d="M219.23,275a3.9,3.9,0,0,0-2.45,2.71,3.54,3.54,0,0,0,4.08,4.08,3.77,3.77,0,0,0,2.78-2.78A3.54,3.54,0,0,0,219.23,275Z"/><path d="M233.76,275a3.9,3.9,0,0,0-2.45,2.71,3.54,3.54,0,0,0,4.08,4.08,3.77,3.77,0,0,0,2.78-2.78A3.54,3.54,0,0,0,233.76,275Z"/><path d="M248.29,275a3.9,3.9,0,0,0-2.45,2.71,3.54,3.54,0,0,0,4.08,4.08,3.77,3.77,0,0,0,2.78-2.78A3.54,3.54,0,0,0,248.29,275Z"/><path d="M262.82,275a3.9,3.9,0,0,0-2.45,2.71,3.54,3.54,0,0,0,4.08,4.08,3.77,3.77,0,0,0,2.78-2.78A3.54,3.54,0,0,0,262.82,275Z"/><path d="M277.35,275a3.9,3.9,0,0,0-2.45,2.71,3.54,3.54,0,0,0,4.08,4.08,3.77,3.77,0,0,0,2.78-2.78A3.54,3.54,0,0,0,277.35,275Z"/></g></svg>