<svg id="Layer_1" data-name="Layer 1" xmlns="http://www.w3.org/2000/svg" xmlns:xlink="http://www.w3.org/1999/xlink" viewBox="0 0 284.93 378.9"><defs><style>.cls-1{fill:none;}.cls-2{clip-path:url(#clip-path);}.cls-3{opacity:0.05;}</style><clipPath id="clip-path"><path class="cls-1" d="M191,10.1l93,255.12a15.42,15.42,0,0,1-9.17,19.71L19.71,378A15.42,15.42,0,0,1,0,368.8L171.24.93A15.42,15.42,0,0,1,191,10.1Z"/></clipPath></defs><title>titleDoodle_projects</title><g class="cls-2"><g class="cls-3"><path d="M9.34-7.35a5.46,5.46,0,0,0-3.43,3.8,5,5,0,0,0,5.7,5.7,5.27,5.27,0,0,0,3.89-3.89A5,5,0,0,0,9.34-7.35Z"/><path d="M29.67-7.35a5.46,5.46,0,0,0-3.43,3.8,5,5,0,0,0,3.89,5.7,5,5,0,0,0,5.7-5.7A5,5,0,0,0,29.67-7.35Z"/><path d="M50-7.35a5.46,5.46,0,0,0-3.43,3.8,5,5,0,0,0,3.89,5.7,5,5,0,0,0,5.7-5.7A5,5,0,0,0,50-7.35Z"/><path d="M70.33-7.35a5.46,5.46,0,0,0-3.43,3.8,5,5,0,0,0,3.89,5.7,5,5,0,0,0,5.7-5.7A5,5,0,0,0,70.33-7.35Z"/><path d="M90.66-7.35a5.46,5.46,0,0,0-3.43,3.8,5,5,0,0,0,3.89,5.7,5,5,0,0,0,5.7-5.7A5,5,0,0,0,90.66-7.35Z"/><path d="M111-7.35a5.46,5.46,0,0,0-3.43,3.8,5,5,0,0,0,5.7,5.7,5.27,5.27,0,0,0,3.89-3.89A5,5,0,0,0,111-7.35Z"/><path d="M131.31-7.35a5.46,5.46,0,0,0-3.43,3.8,5,5,0,0,0,5.7,5.7,5.27,5.27,0,0,0,3.89-3.89A5,5,0,0,0,131.31-7.35Z"/><path d="M9.34,13a5.46,5.46,0,0,0-3.43,3.8,5,5,0,0,0,5.7,5.7,5.27,5.27,0,0,0,3.89-3.89A5,5,0,0,0,9.34,13Z"/><path d="M29.67,13a5.46,5.46,0,0,0-3.43,3.8,5,5,0,0,0,3.89,5.7,5,5,0,0,0,5.7-5.7A5,5,0,0,0,29.67,13Z"/><path d="M50,13a5.46,5.46,0,0,0-3.43,3.8,5,5,0,0,0,5.7,5.7,5,5,0,0,0,3.89-5.7A5,5,0,0,0,50,13Z"/><path d="M70.33,13a5.46,5.46,0,0,0-3.43,3.8,5,5,0,0,0,5.7,5.7,5,5,0,0,0,3.89-5.7A5,5,0,0,0,70.33,13Z"/><path d="M90.66,13a5.46,5.46,0,0,0-3.43,3.8,5,5,0,0,0,5.7,5.7,5,5,0,0,0,3.89-5.7A5,5,0,0,0,90.66,13Z"/><path d="M111,13a5.46,5.46,0,0,0-3.43,3.8,5,5,0,0,0,5.7,5.7,5.27,5.27,0,0,0,3.89-3.89A5,5,0,0,0,111,13Z"/><path d="M131.31,13a5.46,5.46,0,0,0-3.43,3.8,5,5,0,0,0,5.7,5.7,5.27,5.27,0,0,0,3.89-3.89A5,5,0,0,0,131.31,13Z"/><path d="M9.34,33.3a5.46,5.46,0,0,0-3.43,3.8,5,5,0,0,0,5.7,5.7,5.27,5.27,0,0,0,3.89-3.89A5,5,0,0,0,9.34,33.3Z"/><path d="M29.67,33.3a5.46,5.46,0,0,0-3.43,3.8,5,5,0,0,0,5.7,5.7,5.27,5.27,0,0,0,3.89-3.89A5,5,0,0,0,29.67,33.3Z"/><path d="M50,33.3a5.46,5.46,0,0,0-3.43,3.8,5,5,0,0,0,5.7,5.7,5.27,5.27,0,0,0,3.89-3.89A5,5,0,0,0,50,33.3Z"/><path d="M70.33,33.3a5.46,5.46,0,0,0-3.43,3.8,5,5,0,0,0,5.7,5.7,5.27,5.27,0,0,0,3.89-3.89A5,5,0,0,0,70.33,33.3Z"/><path d="M90.66,33.3a5.46,5.46,0,0,0-3.43,3.8,5,5,0,0,0,5.7,5.7,5.27,5.27,0,0,0,3.89-3.89A5,5,0,0,0,90.66,33.3Z"/><path d="M111,33.3a5.46,5.46,0,0,0-3.43,3.8,5,5,0,0,0,5.7,5.7,5.27,5.27,0,0,0,3.89-3.89A5,5,0,0,0,111,33.3Z"/><path d="M131.31,33.3a5.46,5.46,0,0,0-3.43,3.8,5,5,0,0,0,5.7,5.7,5.27,5.27,0,0,0,3.89-3.89A5,5,0,0,0,131.31,33.3Z"/><path d="M9.34,53.63a5.46,5.46,0,0,0-3.43,3.8,5,5,0,0,0,5.7,5.7,5.27,5.27,0,0,0,3.89-3.89A5,5,0,0,0,9.34,53.63Z"/><path d="M29.67,53.63a5.46,5.46,0,0,0-3.43,3.8,5,5,0,0,0,5.7,5.7,5.27,5.27,0,0,0,3.89-3.89A5,5,0,0,0,29.67,53.63Z"/><path d="M50,53.63a5.46,5.46,0,0,0-3.43,3.8,5,5,0,0,0,5.7,5.7,5.27,5.27,0,0,0,3.89-3.89A5,5,0,0,0,50,53.63Z"/><path d="M70.33,53.63a5.46,5.46,0,0,0-3.43,3.8,5,5,0,0,0,5.7,5.7,5.27,5.27,0,0,0,3.89-3.89A5,5,0,0,0,70.33,53.63Z"/><path d="M90.66,53.63a5.46,5.46,0,0,0-3.43,3.8,5,5,0,0,0,5.7,5.7,5.27,5.27,0,0,0,3.89-3.89A5,5,0,0,0,90.66,53.63Z"/><path d="M111,53.63a5.46,5.46,0,0,0-3.43,3.8,5,5,0,0,0,5.7,5.7,5.27,5.27,0,0,0,3.89-3.89A5,5,0,0,0,111,53.63Z"/><path d="M131.31,53.63a5.46,5.46,0,0,0-3.43,3.8,5,5,0,0,0,5.7,5.7,5.27,5.27,0,0,0,3.89-3.89A5,5,0,0,0,131.31,53.63Z"/><path d="M9.34,74a5.46,5.46,0,0,0-3.43,3.8,5,5,0,0,0,5.7,5.7,5.27,5.27,0,0,0,3.89-3.89A5,5,0,0,0,9.34,74Z"/><path d="M29.67,74a5.46,5.46,0,0,0-3.43,3.8,5,5,0,0,0,5.7,5.7,5.27,5.27,0,0,0,3.89-3.89A5,5,0,0,0,29.67,74Z"/><path d="M50,74a5.46,5.46,0,0,0-3.43,3.8,5,5,0,0,0,5.7,5.7,5.27,5.27,0,0,0,3.89-3.89A5,5,0,0,0,50,74Z"/><path d="M70.33,74a5.46,5.46,0,0,0-3.43,3.8,5,5,0,0,0,5.7,5.7,5.27,5.27,0,0,0,3.89-3.89A5,5,0,0,0,70.33,74Z"/><path d="M90.66,74a5.46,5.46,0,0,0-3.43,3.8,5,5,0,0,0,5.7,5.7,5.27,5.27,0,0,0,3.89-3.89A5,5,0,0,0,90.66,74Z"/><path d="M111,74a5.46,5.46,0,0,0-3.43,3.8,5,5,0,0,0,5.7,5.7,5.27,5.27,0,0,0,3.89-3.89A5,5,0,0,0,111,74Z"/><path d="M131.31,74a5.46,5.46,0,0,0-3.43,3.8,5,5,0,0,0,5.7,5.7,5.27,5.27,0,0,0,3.89-3.89A5,5,0,0,0,131.31,74Z"/><path d="M9.34,94.29a5.46,5.46,0,0,0-3.43,3.8,5,5,0,0,0,5.7,5.7,5.27,5.27,0,0,0,3.89-3.89A5,5,0,0,0,9.34,94.29Z"/><path d="M29.67,94.29a5.46,5.46,0,0,0-3.43,3.8,5,5,0,0,0,5.7,5.7,5.27,5.27,0,0,0,3.89-3.89A5,5,0,0,0,29.67,94.29Z"/><path d="M50,94.29a5.46,5.46,0,0,0-3.43,3.8,5,5,0,0,0,5.7,5.7,5.27,5.27,0,0,0,3.89-3.89A5,5,0,0,0,50,94.29Z"/><path d="M70.33,94.29a5.46,5.46,0,0,0-3.43,3.8,5,5,0,0,0,5.7,5.7,5.27,5.27,0,0,0,3.89-3.89A5,5,0,0,0,70.33,94.29Z"/><path d="M90.66,94.29a5.46,5.46,0,0,0-3.43,3.8,5,5,0,0,0,5.7,5.7,5.27,5.27,0,0,0,3.89-3.89A5,5,0,0,0,90.66,94.29Z"/><path d="M111,94.29a5.46,5.46,0,0,0-3.43,3.8,5,5,0,0,0,5.7,5.7,5.27,5.27,0,0,0,3.89-3.89A5,5,0,0,0,111,94.29Z"/><path d="M131.31,94.29a5.46,5.46,0,0,0-3.43,3.8,5,5,0,0,0,5.7,5.7,5.27,5.27,0,0,0,3.89-3.89A5,5,0,0,0,131.31,94.29Z"/><path d="M9.34,114.61a5.46,5.46,0,0,0-3.43,3.8,5,5,0,0,0,5.7,5.7,5.27,5.27,0,0,0,3.89-3.89A5,5,0,0,0,9.34,114.61Z"/><path d="M29.67,114.61a5.46,5.46,0,0,0-3.43,3.8,5,5,0,0,0,5.7,5.7,5.27,5.27,0,0,0,3.89-3.89A5,5,0,0,0,29.67,114.61Z"/><path d="M50,114.61a5.46,5.46,0,0,0-3.43,3.8,5,5,0,0,0,5.7,5.7,5.27,5.27,0,0,0,3.89-3.89A5,5,0,0,0,50,114.61Z"/><path d="M70.33,114.61a5.46,5.46,0,0,0-3.43,3.8,5,5,0,0,0,5.7,5.7,5.27,5.27,0,0,0,3.89-3.89A5,5,0,0,0,70.33,114.61Z"/><path d="M90.66,114.61a5.46,5.46,0,0,0-3.43,3.8,5,5,0,0,0,5.7,5.7,5.27,5.27,0,0,0,3.89-3.89A5,5,0,0,0,90.66,114.61Z"/><path d="M111,114.61a5.46,5.46,0,0,0-3.43,3.8,5,5,0,0,0,5.7,5.7,5.27,5.27,0,0,0,3.89-3.89A5,5,0,0,0,111,114.61Z"/><path d="M131.31,114.61a5.46,5.46,0,0,0-3.43,3.8,5,5,0,0,0,5.7,5.7,5.27,5.27,0,0,0,3.89-3.89A5,5,0,0,0,131.31,114.61Z"/><path d="M9.34,134.94a5.46,5.46,0,0,0-3.43,3.8,5,5,0,0,0,5.7,5.7,5.27,5.27,0,0,0,3.89-3.89A5,5,0,0,0,9.34,134.94Z"/><path d="M29.67,134.94a5.46,5.46,0,0,0-3.43,3.8,5,5,0,0,0,5.7,5.7,5.27,5.27,0,0,0,3.89-3.89A5,5,0,0,0,29.67,134.94Z"/><path d="M50,134.94a5.46,5.46,0,0,0-3.43,3.8,5,5,0,0,0,5.7,5.7,5.27,5.27,0,0,0,3.89-3.89A5,5,0,0,0,50,134.94Z"/><path d="M70.33,134.94a5.46,5.46,0,0,0-3.43,3.8,5,5,0,0,0,5.7,5.7,5.27,5.27,0,0,0,3.89-3.89A5,5,0,0,0,70.33,134.94Z"/><path d="M90.66,134.94a5.46,5.46,0,0,0-3.43,3.8,5,5,0,0,0,5.7,5.7,5.27,5.27,0,0,0,3.89-3.89A5,5,0,0,0,90.66,134.94Z"/><path d="M111,134.94a5.46,5.46,0,0,0-3.43,3.8,5,5,0,0,0,5.7,5.7,5.27,5.27,0,0,0,3.89-3.89A5,5,0,0,0,111,134.94Z"/><path d="M131.31,134.94a5.46,5.46,0,0,0-3.43,3.8,5,5,0,0,0,5.7,5.7,5.27,5.27,0,0,0,3.89-3.89A5,5,0,0,0,131.31,134.94Z"/><path d="M9.34,155.27a5.46,5.46,0,0,0-3.43,3.8,5,5,0,0,0,5.7,5.7,5.27,5.27,0,0,0,3.89-3.89A5,5,0,0,0,9.34,155.27Z"/><path d="M29.67,155.27a5.46,5.46,0,0,0-3.43,3.8,5,5,0,0,0,5.7,5.7,5.27,5.27,0,0,0,3.89-3.89A5,5,0,0,0,29.67,155.27Z"/><path d="M50,155.27a5.46,5.46,0,0,0-3.43,3.8,5,5,0,0,0,5.7,5.7,5.27,5.27,0,0,0,3.89-3.89A5,5,0,0,0,50,155.27Z"/><path d="M70.33,155.27a5.46,5.46,0,0,0-3.43,3.8,5,5,0,0,0,5.7,5.7,5.27,5.27,0,0,0,3.89-3.89A5,5,0,0,0,70.33,155.27Z"/><path d="M90.66,155.27a5.46,5.46,0,0,0-3.43,3.8,5,5,0,0,0,5.7,5.7,5.27,5.27,0,0,0,3.89-3.89A5,5,0,0,0,90.66,155.27Z"/><path d="M111,155.27a5.46,5.46,0,0,0-3.43,3.8,5,5,0,0,0,5.7,5.7,5.27,5.27,0,0,0,3.89-3.89A5,5,0,0,0,111,155.27Z"/><path d="M131.31,155.27a5.46,5.46,0,0,0-3.43,3.8,5,5,0,0,0,5.7,5.7,5.27,5.27,0,0,0,3.89-3.89A5,5,0,0,0,131.31,155.27Z"/><path d="M9.34,175.6a5.46,5.46,0,0,0-3.43,3.8,5,5,0,0,0,5.7,5.7,5.27,5.27,0,0,0,3.89-3.89A5,5,0,0,0,9.34,175.6Z"/><path d="M29.67,175.6a5.46,5.46,0,0,0-3.43,3.8,5,5,0,0,0,5.7,5.7,5.27,5.27,0,0,0,3.89-3.89A5,5,0,0,0,29.67,175.6Z"/><path d="M50,175.6a5.46,5.46,0,0,0-3.43,3.8,5,5,0,0,0,5.7,5.7,5.27,5.27,0,0,0,3.89-3.89A5,5,0,0,0,50,175.6Z"/><path d="M70.33,175.6a5.46,5.46,0,0,0-3.43,3.8,5,5,0,0,0,5.7,5.7,5.27,5.27,0,0,0,3.89-3.89A5,5,0,0,0,70.33,175.6Z"/><path d="M90.66,175.6a5.46,5.46,0,0,0-3.43,3.8,5,5,0,0,0,5.7,5.7,5.27,5.27,0,0,0,3.89-3.89A5,5,0,0,0,90.66,175.6Z"/><path d="M111,175.6a5.46,5.46,0,0,0-3.43,3.8,5,5,0,0,0,5.7,5.7,5.27,5.27,0,0,0,3.89-3.89A5,5,0,0,0,111,175.6Z"/><path d="M131.31,175.6a5.46,5.46,0,0,0-3.43,3.8,5,5,0,0,0,5.7,5.7,5.27,5.27,0,0,0,3.89-3.89A5,5,0,0,0,131.31,175.6Z"/><path d="M10.54,194.17A5.46,5.46,0,0,0,7.11,198a5,5,0,0,0,5.7,5.7,5.27,5.27,0,0,0,3.89-3.89A5,5,0,0,0,10.54,194.17Z"/><path d="M30.87,194.17a5.46,5.46,0,0,0-3.43,3.8,5,5,0,0,0,3.89,5.7A5,5,0,0,0,37,198,5,5,0,0,0,30.87,194.17Z"/><path d="M51.2,194.17a5.46,5.46,0,0,0-3.43,3.8,5,5,0,0,0,3.89,5.7,5,5,0,0,0,5.7-5.7A5,5,0,0,0,51.2,194.17Z"/><path d="M71.53,194.17A5.46,5.46,0,0,0,68.1,198a5,5,0,0,0,3.89,5.7,5,5,0,0,0,5.7-5.7A5,5,0,0,0,71.53,194.17Z"/><path d="M91.86,194.17a5.46,5.46,0,0,0-3.43,3.8,5,5,0,0,0,3.89,5.7A5,5,0,0,0,98,198,5,5,0,0,0,91.86,194.17Z"/><path d="M112.18,194.17a5.46,5.46,0,0,0-3.43,3.8,5,5,0,0,0,5.7,5.7,5.27,5.27,0,0,0,3.89-3.89A5,5,0,0,0,112.18,194.17Z"/><path d="M132.51,194.17a5.46,5.46,0,0,0-3.43,3.8,5,5,0,0,0,5.7,5.7,5.27,5.27,0,0,0,3.89-3.89A5,5,0,0,0,132.51,194.17Z"/><path d="M10.54,214.5a5.46,5.46,0,0,0-3.43,3.8,5,5,0,0,0,5.7,5.7,5.27,5.27,0,0,0,3.89-3.89A5,5,0,0,0,10.54,214.5Z"/><path d="M30.87,214.5a5.46,5.46,0,0,0-3.43,3.8,5,5,0,0,0,3.89,5.7,5,5,0,0,0,5.7-5.7A5,5,0,0,0,30.87,214.5Z"/><path d="M51.2,214.5a5.46,5.46,0,0,0-3.43,3.8,5,5,0,0,0,5.7,5.7,4.89,4.89,0,1,0-2.27-9.5Z"/><path d="M71.53,214.5a5.46,5.46,0,0,0-3.43,3.8,5,5,0,0,0,5.7,5.7,4.89,4.89,0,1,0-2.27-9.5Z"/><path d="M91.86,214.5a5.46,5.46,0,0,0-3.43,3.8,5,5,0,0,0,5.7,5.7,4.89,4.89,0,1,0-2.27-9.5Z"/><path d="M112.18,214.5a5.46,5.46,0,0,0-3.43,3.8,5,5,0,0,0,5.7,5.7,5.27,5.27,0,0,0,3.89-3.89A5,5,0,0,0,112.18,214.5Z"/><path d="M132.51,214.5a5.46,5.46,0,0,0-3.43,3.8,5,5,0,0,0,5.7,5.7,5.27,5.27,0,0,0,3.89-3.89A5,5,0,0,0,132.51,214.5Z"/><path d="M10.54,234.83a5.46,5.46,0,0,0-3.43,3.8,5,5,0,0,0,5.7,5.7,5.27,5.27,0,0,0,3.89-3.89A5,5,0,0,0,10.54,234.83Z"/><path d="M30.87,234.83a5.46,5.46,0,0,0-3.43,3.8,5,5,0,0,0,5.7,5.7A5.27,5.27,0,0,0,37,240.43,5,5,0,0,0,30.87,234.83Z"/><path d="M51.2,234.83a5.46,5.46,0,0,0-3.43,3.8,5,5,0,0,0,5.7,5.7,5.27,5.27,0,0,0,3.89-3.89A5,5,0,0,0,51.2,234.83Z"/><path d="M71.53,234.83a5.46,5.46,0,0,0-3.43,3.8,5,5,0,0,0,5.7,5.7,5.27,5.27,0,0,0,3.89-3.89A5,5,0,0,0,71.53,234.83Z"/><path d="M91.86,234.83a5.46,5.46,0,0,0-3.43,3.8,5,5,0,0,0,5.7,5.7A5.27,5.27,0,0,0,98,240.43,5,5,0,0,0,91.86,234.83Z"/><path d="M112.18,234.83a5.46,5.46,0,0,0-3.43,3.8,5,5,0,0,0,5.7,5.7,5.27,5.27,0,0,0,3.89-3.89A5,5,0,0,0,112.18,234.83Z"/><path d="M132.51,234.83a5.46,5.46,0,0,0-3.43,3.8,5,5,0,0,0,5.7,5.7,5.27,5.27,0,0,0,3.89-3.89A5,5,0,0,0,132.51,234.83Z"/><path d="M10.54,255.16A5.46,5.46,0,0,0,7.11,259a5,5,0,0,0,5.7,5.7,5.27,5.27,0,0,0,3.89-3.89A5,5,0,0,0,10.54,255.16Z"/><path d="M30.87,255.16a5.46,5.46,0,0,0-3.43,3.8,5,5,0,0,0,5.7,5.7A5.27,5.27,0,0,0,37,260.76,5,5,0,0,0,30.87,255.16Z"/><path d="M51.2,255.16a5.46,5.46,0,0,0-3.43,3.8,5,5,0,0,0,5.7,5.7,5.27,5.27,0,0,0,3.89-3.89A5,5,0,0,0,51.2,255.16Z"/><path d="M71.53,255.16A5.46,5.46,0,0,0,68.1,259a5,5,0,0,0,5.7,5.7,5.27,5.27,0,0,0,3.89-3.89A5,5,0,0,0,71.53,255.16Z"/><path d="M91.86,255.16a5.46,5.46,0,0,0-3.43,3.8,5,5,0,0,0,5.7,5.7A5.27,5.27,0,0,0,98,260.76,5,5,0,0,0,91.86,255.16Z"/><path d="M112.18,255.16a5.46,5.46,0,0,0-3.43,3.8,5,5,0,0,0,5.7,5.7,5.27,5.27,0,0,0,3.89-3.89A5,5,0,0,0,112.18,255.16Z"/><path d="M132.51,255.16a5.46,5.46,0,0,0-3.43,3.8,5,5,0,0,0,5.7,5.7,5.27,5.27,0,0,0,3.89-3.89A5,5,0,0,0,132.51,255.16Z"/><path d="M10.54,275.48a5.46,5.46,0,0,0-3.43,3.8,5,5,0,0,0,5.7,5.7,5.27,5.27,0,0,0,3.89-3.89A5,5,0,0,0,10.54,275.48Z"/><path d="M30.87,275.48a5.46,5.46,0,0,0-3.43,3.8,5,5,0,0,0,5.7,5.7A5.27,5.27,0,0,0,37,281.09,5,5,0,0,0,30.87,275.48Z"/><path d="M51.2,275.48a5.46,5.46,0,0,0-3.43,3.8,5,5,0,0,0,5.7,5.7,5.27,5.27,0,0,0,3.89-3.89A5,5,0,0,0,51.2,275.48Z"/><path d="M71.53,275.48a5.46,5.46,0,0,0-3.43,3.8,5,5,0,0,0,5.7,5.7,5.27,5.27,0,0,0,3.89-3.89A5,5,0,0,0,71.53,275.48Z"/><path d="M91.86,275.48a5.46,5.46,0,0,0-3.43,3.8,5,5,0,0,0,5.7,5.7A5.27,5.27,0,0,0,98,281.09,5,5,0,0,0,91.86,275.48Z"/><path d="M112.18,275.48a5.46,5.46,0,0,0-3.43,3.8,5,5,0,0,0,5.7,5.7,5.27,5.27,0,0,0,3.89-3.89A5,5,0,0,0,112.18,275.48Z"/><path d="M132.51,275.48a5.46,5.46,0,0,0-3.43,3.8,5,5,0,0,0,5.7,5.7,5.27,5.27,0,0,0,3.89-3.89A5,5,0,0,0,132.51,275.48Z"/><path d="M10.54,295.81a5.46,5.46,0,0,0-3.43,3.8,5,5,0,0,0,5.7,5.7,5.27,5.27,0,0,0,3.89-3.89A5,5,0,0,0,10.54,295.81Z"/><path d="M30.87,295.81a5.46,5.46,0,0,0-3.43,3.8,5,5,0,0,0,5.7,5.7A5.27,5.27,0,0,0,37,301.42,5,5,0,0,0,30.87,295.81Z"/><path d="M51.2,295.81a5.46,5.46,0,0,0-3.43,3.8,5,5,0,0,0,5.7,5.7,5.27,5.27,0,0,0,3.89-3.89A5,5,0,0,0,51.2,295.81Z"/><path d="M71.53,295.81a5.46,5.46,0,0,0-3.43,3.8,5,5,0,0,0,5.7,5.7,5.27,5.27,0,0,0,3.89-3.89A5,5,0,0,0,71.53,295.81Z"/><path d="M91.86,295.81a5.46,5.46,0,0,0-3.43,3.8,5,5,0,0,0,5.7,5.7A5.27,5.27,0,0,0,98,301.42,5,5,0,0,0,91.86,295.81Z"/><path d="M112.18,295.81a5.46,5.46,0,0,0-3.43,3.8,5,5,0,0,0,5.7,5.7,5.27,5.27,0,0,0,3.89-3.89A5,5,0,0,0,112.18,295.81Z"/><path d="M132.51,295.81a5.46,5.46,0,0,0-3.43,3.8,5,5,0,0,0,5.7,5.7,5.27,5.27,0,0,0,3.89-3.89A5,5,0,0,0,132.51,295.81Z"/><path d="M10.54,316.14a5.46,5.46,0,0,0-3.43,3.8,5,5,0,0,0,5.7,5.7,5.27,5.27,0,0,0,3.89-3.89A5,5,0,0,0,10.54,316.14Z"/><path d="M30.87,316.14a5.46,5.46,0,0,0-3.43,3.8,5,5,0,0,0,5.7,5.7A5.27,5.27,0,0,0,37,321.75,5,5,0,0,0,30.87,316.14Z"/><path d="M51.2,316.14a5.46,5.46,0,0,0-3.43,3.8,5,5,0,0,0,5.7,5.7,5.27,5.27,0,0,0,3.89-3.89A5,5,0,0,0,51.2,316.14Z"/><path d="M71.53,316.14a5.46,5.46,0,0,0-3.43,3.8,5,5,0,0,0,5.7,5.7,5.27,5.27,0,0,0,3.89-3.89A5,5,0,0,0,71.53,316.14Z"/><path d="M91.86,316.14a5.46,5.46,0,0,0-3.43,3.8,5,5,0,0,0,5.7,5.7A5.27,5.27,0,0,0,98,321.75,5,5,0,0,0,91.86,316.14Z"/><path d="M112.18,316.14a5.46,5.46,0,0,0-3.43,3.8,5,5,0,0,0,5.7,5.7,5.27,5.27,0,0,0,3.89-3.89A5,5,0,0,0,112.18,316.14Z"/><path d="M132.51,316.14a5.46,5.46,0,0,0-3.43,3.8,5,5,0,0,0,5.7,5.7,5.27,5.27,0,0,0,3.89-3.89A5,5,0,0,0,132.51,316.14Z"/><path d="M10.54,336.47a5.46,5.46,0,0,0-3.43,3.8,5,5,0,0,0,5.7,5.7,5.27,5.27,0,0,0,3.89-3.89A5,5,0,0,0,10.54,336.47Z"/><path d="M30.87,336.47a5.46,5.46,0,0,0-3.43,3.8,5,5,0,0,0,5.7,5.7A5.27,5.27,0,0,0,37,342.07,5,5,0,0,0,30.87,336.47Z"/><path d="M51.2,336.47a5.46,5.46,0,0,0-3.43,3.8,5,5,0,0,0,5.7,5.7,5.27,5.27,0,0,0,3.89-3.89A5,5,0,0,0,51.2,336.47Z"/><path d="M71.53,336.47a5.46,5.46,0,0,0-3.43,3.8,5,5,0,0,0,5.7,5.7,5.27,5.27,0,0,0,3.89-3.89A5,5,0,0,0,71.53,336.47Z"/><path d="M91.86,336.47a5.46,5.46,0,0,0-3.43,3.8,5,5,0,0,0,5.7,5.7A5.27,5.27,0,0,0,98,342.07,5,5,0,0,0,91.86,336.47Z"/><path d="M112.18,336.47a5.46,5.46,0,0,0-3.43,3.8,5,5,0,0,0,5.7,5.7,5.27,5.27,0,0,0,3.89-3.89A5,5,0,0,0,112.18,336.47Z"/><path d="M132.51,336.47a5.46,5.46,0,0,0-3.43,3.8,5,5,0,0,0,5.7,5.7,5.27,5.27,0,0,0,3.89-3.89A5,5,0,0,0,132.51,336.47Z"/><path d="M10.54,356.79a5.46,5.46,0,0,0-3.43,3.8,5,5,0,0,0,5.7,5.7,5.27,5.27,0,0,0,3.89-3.89A5,5,0,0,0,10.54,356.79Z"/><path d="M30.87,356.79a5.46,5.46,0,0,0-3.43,3.8,5,5,0,0,0,5.7,5.7A5.27,5.27,0,0,0,37,362.4,5,5,0,0,0,30.87,356.79Z"/><path d="M51.2,356.79a5.46,5.46,0,0,0-3.43,3.8,5,5,0,0,0,5.7,5.7,5.27,5.27,0,0,0,3.89-3.89A5,5,0,0,0,51.2,356.79Z"/><path d="M71.53,356.79a5.46,5.46,0,0,0-3.43,3.8,5,5,0,0,0,5.7,5.7,5.27,5.27,0,0,0,3.89-3.89A5,5,0,0,0,71.53,356.79Z"/><path d="M91.86,356.79a5.46,5.46,0,0,0-3.43,3.8,5,5,0,0,0,5.7,5.7A5.27,5.27,0,0,0,98,362.4,5,5,0,0,0,91.86,356.79Z"/><path d="M112.18,356.79a5.46,5.46,0,0,0-3.43,3.8,5,5,0,0,0,5.7,5.7,5.27,5.27,0,0,0,3.89-3.89A5,5,0,0,0,112.18,356.79Z"/><path d="M132.51,356.79a5.46,5.46,0,0,0-3.43,3.8,5,5,0,0,0,5.7,5.7,5.27,5.27,0,0,0,3.89-3.89A5,5,0,0,0,132.51,356.79Z"/><path d="M10.54,377.12a5.46,5.46,0,0,0-3.43,3.8,5,5,0,0,0,5.7,5.7,5.27,5.27,0,0,0,3.89-3.89A5,5,0,0,0,10.54,377.12Z"/><path d="M30.87,377.12a5.46,5.46,0,0,0-3.43,3.8,5,5,0,0,0,5.7,5.7A5.27,5.27,0,0,0,37,382.73,5,5,0,0,0,30.87,377.12Z"/><path d="M51.2,377.12a5.46,5.46,0,0,0-3.43,3.8,5,5,0,0,0,5.7,5.7,5.27,5.27,0,0,0,3.89-3.89A5,5,0,0,0,51.2,377.12Z"/><path d="M71.53,377.12a5.46,5.46,0,0,0-3.43,3.8,5,5,0,0,0,5.7,5.7,5.27,5.27,0,0,0,3.89-3.89A5,5,0,0,0,71.53,377.12Z"/><path d="M91.86,377.12a5.46,5.46,0,0,0-3.43,3.8,5,5,0,0,0,5.7,5.7A5.27,5.27,0,0,0,98,382.73,5,5,0,0,0,91.86,377.12Z"/><path d="M112.18,377.12a5.46,5.46,0,0,0-3.43,3.8,5,5,0,0,0,5.7,5.7,5.27,5.27,0,0,0,3.89-3.89A5,5,0,0,0,112.18,377.12Z"/><path d="M132.51,377.12a5.46,5.46,0,0,0-3.43,3.8,5,5,0,0,0,5.7,5.7,5.27,5.27,0,0,0,3.89-3.89A5,5,0,0,0,132.51,377.12Z"/><path d="M148.69-8.55a5.46,5.46,0,0,0-3.43,3.8A5,5,0,0,0,151,.94a5.27,5.27,0,0,0,3.89-3.89A5,5,0,0,0,148.69-8.55Z"/><path d="M169-8.55a5.46,5.46,0,0,0-3.43,3.8,5,5,0,0,0,5.7,5.7,5.27,5.27,0,0,0,3.89-3.89A5,5,0,0,0,169-8.55Z"/><path d="M189.34-8.55a5.46,5.46,0,0,0-3.43,3.8,5,5,0,0,0,5.7,5.7,5.27,5.27,0,0,0,3.89-3.89A5,5,0,0,0,189.34-8.55Z"/><path d="M209.67-8.55a5.46,5.46,0,0,0-3.43,3.8,5,5,0,0,0,5.7,5.7,5.27,5.27,0,0,0,3.89-3.89A5,5,0,0,0,209.67-8.55Z"/><path d="M230-8.55a5.46,5.46,0,0,0-3.43,3.8,5,5,0,0,0,3.89,5.7,5,5,0,0,0,5.7-5.7A5,5,0,0,0,230-8.55Z"/><path d="M250.33-8.55a5.46,5.46,0,0,0-3.43,3.8,5,5,0,0,0,3.89,5.7,5,5,0,0,0,5.7-5.7A5,5,0,0,0,250.33-8.55Z"/><path d="M270.65-8.55a5.46,5.46,0,0,0-3.43,3.8,5,5,0,0,0,3.89,5.7,5,5,0,0,0,5.7-5.7A5,5,0,0,0,270.65-8.55Z"/><path d="M148.69,11.77a5.46,5.46,0,0,0-3.43,3.8,5,5,0,0,0,5.7,5.7,5.27,5.27,0,0,0,3.89-3.89A5,5,0,0,0,148.69,11.77Z"/><path d="M169,11.77a5.46,5.46,0,0,0-3.43,3.8,5,5,0,0,0,5.7,5.7,5.27,5.27,0,0,0,3.89-3.89A5,5,0,0,0,169,11.77Z"/><path d="M189.34,11.77a5.46,5.46,0,0,0-3.43,3.8,5,5,0,0,0,5.7,5.7,5.27,5.27,0,0,0,3.89-3.89A5,5,0,0,0,189.34,11.77Z"/><path d="M209.67,11.77a5.46,5.46,0,0,0-3.43,3.8,5,5,0,0,0,5.7,5.7,5.27,5.27,0,0,0,3.89-3.89A5,5,0,0,0,209.67,11.77Z"/><path d="M230,11.77a5.46,5.46,0,0,0-3.43,3.8,5,5,0,0,0,3.89,5.7,5,5,0,0,0,5.7-5.7A5,5,0,0,0,230,11.77Z"/><path d="M250.33,11.77a5.46,5.46,0,0,0-3.43,3.8,5,5,0,0,0,5.7,5.7,5,5,0,0,0,3.89-5.7A5,5,0,0,0,250.33,11.77Z"/><path d="M270.65,11.77a5.46,5.46,0,0,0-3.43,3.8,5,5,0,0,0,5.7,5.7,5,5,0,0,0,3.89-5.7A5,5,0,0,0,270.65,11.77Z"/><path d="M148.69,32.1a5.46,5.46,0,0,0-3.43,3.8,5,5,0,0,0,5.7,5.7,5.27,5.27,0,0,0,3.89-3.89A5,5,0,0,0,148.69,32.1Z"/><path d="M169,32.1a5.46,5.46,0,0,0-3.43,3.8,5,5,0,0,0,5.7,5.7,5.27,5.27,0,0,0,3.89-3.89A5,5,0,0,0,169,32.1Z"/><path d="M189.34,32.1a5.46,5.46,0,0,0-3.43,3.8,5,5,0,0,0,5.7,5.7,5.27,5.27,0,0,0,3.89-3.89A5,5,0,0,0,189.34,32.1Z"/><path d="M209.67,32.1a5.46,5.46,0,0,0-3.43,3.8,5,5,0,0,0,5.7,5.7,5.27,5.27,0,0,0,3.89-3.89A5,5,0,0,0,209.67,32.1Z"/><path d="M230,32.1a5.46,5.46,0,0,0-3.43,3.8,5,5,0,0,0,5.7,5.7,5.27,5.27,0,0,0,3.89-3.89A5,5,0,0,0,230,32.1Z"/><path d="M250.33,32.1a5.46,5.46,0,0,0-3.43,3.8,5,5,0,0,0,5.7,5.7,5.27,5.27,0,0,0,3.89-3.89A5,5,0,0,0,250.33,32.1Z"/><path d="M270.65,32.1a5.46,5.46,0,0,0-3.43,3.8,5,5,0,0,0,5.7,5.7,5.27,5.27,0,0,0,3.89-3.89A5,5,0,0,0,270.65,32.1Z"/><path d="M148.69,52.43a5.46,5.46,0,0,0-3.43,3.8,5,5,0,0,0,5.7,5.7A5.27,5.27,0,0,0,154.85,58,5,5,0,0,0,148.69,52.43Z"/><path d="M169,52.43a5.46,5.46,0,0,0-3.43,3.8,5,5,0,0,0,5.7,5.7A5.27,5.27,0,0,0,175.18,58,5,5,0,0,0,169,52.43Z"/><path d="M189.34,52.43a5.46,5.46,0,0,0-3.43,3.8,5,5,0,0,0,5.7,5.7A5.27,5.27,0,0,0,195.5,58,5,5,0,0,0,189.34,52.43Z"/><path d="M209.67,52.43a5.46,5.46,0,0,0-3.43,3.8,5,5,0,0,0,5.7,5.7A5.27,5.27,0,0,0,215.83,58,5,5,0,0,0,209.67,52.43Z"/><path d="M230,52.43a5.46,5.46,0,0,0-3.43,3.8,5,5,0,0,0,5.7,5.7A5.27,5.27,0,0,0,236.16,58,5,5,0,0,0,230,52.43Z"/><path d="M250.33,52.43a5.46,5.46,0,0,0-3.43,3.8,5,5,0,0,0,5.7,5.7A5.27,5.27,0,0,0,256.49,58,5,5,0,0,0,250.33,52.43Z"/><path d="M270.65,52.43a5.46,5.46,0,0,0-3.43,3.8,5,5,0,0,0,5.7,5.7A5.27,5.27,0,0,0,276.82,58,5,5,0,0,0,270.65,52.43Z"/><path d="M148.69,72.76a5.46,5.46,0,0,0-3.43,3.8,5,5,0,0,0,5.7,5.7,5.27,5.27,0,0,0,3.89-3.89A5,5,0,0,0,148.69,72.76Z"/><path d="M169,72.76a5.46,5.46,0,0,0-3.43,3.8,5,5,0,0,0,5.7,5.7,5.27,5.27,0,0,0,3.89-3.89A5,5,0,0,0,169,72.76Z"/><path d="M189.34,72.76a5.46,5.46,0,0,0-3.43,3.8,5,5,0,0,0,5.7,5.7,5.27,5.27,0,0,0,3.89-3.89A5,5,0,0,0,189.34,72.76Z"/><path d="M209.67,72.76a5.46,5.46,0,0,0-3.43,3.8,5,5,0,0,0,5.7,5.7,5.27,5.27,0,0,0,3.89-3.89A5,5,0,0,0,209.67,72.76Z"/><path d="M230,72.76a5.46,5.46,0,0,0-3.43,3.8,5,5,0,0,0,5.7,5.7,5.27,5.27,0,0,0,3.89-3.89A5,5,0,0,0,230,72.76Z"/><path d="M250.33,72.76a5.46,5.46,0,0,0-3.43,3.8,5,5,0,0,0,5.7,5.7,5.27,5.27,0,0,0,3.89-3.89A5,5,0,0,0,250.33,72.76Z"/><path d="M270.65,72.76a5.46,5.46,0,0,0-3.43,3.8,5,5,0,0,0,5.7,5.7,5.27,5.27,0,0,0,3.89-3.89A5,5,0,0,0,270.65,72.76Z"/><path d="M148.69,93.09a5.46,5.46,0,0,0-3.43,3.8,5,5,0,0,0,5.7,5.7,5.27,5.27,0,0,0,3.89-3.89A5,5,0,0,0,148.69,93.09Z"/><path d="M169,93.09a5.46,5.46,0,0,0-3.43,3.8,5,5,0,0,0,5.7,5.7,5.27,5.27,0,0,0,3.89-3.89A5,5,0,0,0,169,93.09Z"/><path d="M189.34,93.09a5.46,5.46,0,0,0-3.43,3.8,5,5,0,0,0,5.7,5.7,5.27,5.27,0,0,0,3.89-3.89A5,5,0,0,0,189.34,93.09Z"/><path d="M209.67,93.09a5.46,5.46,0,0,0-3.43,3.8,5,5,0,0,0,5.7,5.7,5.27,5.27,0,0,0,3.89-3.89A5,5,0,0,0,209.67,93.09Z"/><path d="M230,93.09a5.46,5.46,0,0,0-3.43,3.8,5,5,0,0,0,5.7,5.7,5.27,5.27,0,0,0,3.89-3.89A5,5,0,0,0,230,93.09Z"/><path d="M250.33,93.09a5.46,5.46,0,0,0-3.43,3.8,5,5,0,0,0,5.7,5.7,5.27,5.27,0,0,0,3.89-3.89A5,5,0,0,0,250.33,93.09Z"/><path d="M270.65,93.09a5.46,5.46,0,0,0-3.43,3.8,5,5,0,0,0,5.7,5.7,5.27,5.27,0,0,0,3.89-3.89A5,5,0,0,0,270.65,93.09Z"/><path d="M148.69,113.41a5.46,5.46,0,0,0-3.43,3.8,5,5,0,0,0,5.7,5.7,5.27,5.27,0,0,0,3.89-3.89A5,5,0,0,0,148.69,113.41Z"/><path d="M169,113.41a5.46,5.46,0,0,0-3.43,3.8,5,5,0,0,0,5.7,5.7,5.27,5.27,0,0,0,3.89-3.89A5,5,0,0,0,169,113.41Z"/><path d="M189.34,113.41a5.46,5.46,0,0,0-3.43,3.8,5,5,0,0,0,5.7,5.7A5.27,5.27,0,0,0,195.5,119,5,5,0,0,0,189.34,113.41Z"/><path d="M209.67,113.41a5.46,5.46,0,0,0-3.43,3.8,5,5,0,0,0,5.7,5.7,5.27,5.27,0,0,0,3.89-3.89A5,5,0,0,0,209.67,113.41Z"/><path d="M230,113.41a5.46,5.46,0,0,0-3.43,3.8,5,5,0,0,0,5.7,5.7,5.27,5.27,0,0,0,3.89-3.89A5,5,0,0,0,230,113.41Z"/><path d="M250.33,113.41a5.46,5.46,0,0,0-3.43,3.8,5,5,0,0,0,5.7,5.7,5.27,5.27,0,0,0,3.89-3.89A5,5,0,0,0,250.33,113.41Z"/><path d="M270.65,113.41a5.46,5.46,0,0,0-3.43,3.8,5,5,0,0,0,5.7,5.7,5.27,5.27,0,0,0,3.89-3.89A5,5,0,0,0,270.65,113.41Z"/><path d="M148.69,133.74a5.46,5.46,0,0,0-3.43,3.8,5,5,0,0,0,5.7,5.7,5.27,5.27,0,0,0,3.89-3.89A5,5,0,0,0,148.69,133.74Z"/><path d="M169,133.74a5.46,5.46,0,0,0-3.43,3.8,5,5,0,0,0,5.7,5.7,5.27,5.27,0,0,0,3.89-3.89A5,5,0,0,0,169,133.74Z"/><path d="M189.34,133.74a5.46,5.46,0,0,0-3.43,3.8,5,5,0,0,0,5.7,5.7,5.27,5.27,0,0,0,3.89-3.89A5,5,0,0,0,189.34,133.74Z"/><path d="M209.67,133.74a5.46,5.46,0,0,0-3.43,3.8,5,5,0,0,0,5.7,5.7,5.27,5.27,0,0,0,3.89-3.89A5,5,0,0,0,209.67,133.74Z"/><path d="M230,133.74a5.46,5.46,0,0,0-3.43,3.8,5,5,0,0,0,5.7,5.7,5.27,5.27,0,0,0,3.89-3.89A5,5,0,0,0,230,133.74Z"/><path d="M250.33,133.74a5.46,5.46,0,0,0-3.43,3.8,5,5,0,0,0,5.7,5.7,5.27,5.27,0,0,0,3.89-3.89A5,5,0,0,0,250.33,133.74Z"/><path d="M270.65,133.74a5.46,5.46,0,0,0-3.43,3.8,5,5,0,0,0,5.7,5.7,5.27,5.27,0,0,0,3.89-3.89A5,5,0,0,0,270.65,133.74Z"/><path d="M148.69,154.07a5.46,5.46,0,0,0-3.43,3.8,5,5,0,0,0,5.7,5.7,5.27,5.27,0,0,0,3.89-3.89A5,5,0,0,0,148.69,154.07Z"/><path d="M169,154.07a5.46,5.46,0,0,0-3.43,3.8,5,5,0,0,0,5.7,5.7,5.27,5.27,0,0,0,3.89-3.89A5,5,0,0,0,169,154.07Z"/><path d="M189.34,154.07a5.46,5.46,0,0,0-3.43,3.8,5,5,0,0,0,5.7,5.7,5.27,5.27,0,0,0,3.89-3.89A5,5,0,0,0,189.34,154.07Z"/><path d="M209.67,154.07a5.46,5.46,0,0,0-3.43,3.8,5,5,0,0,0,5.7,5.7,5.27,5.27,0,0,0,3.89-3.89A5,5,0,0,0,209.67,154.07Z"/><path d="M230,154.07a5.46,5.46,0,0,0-3.43,3.8,5,5,0,0,0,5.7,5.7,5.27,5.27,0,0,0,3.89-3.89A5,5,0,0,0,230,154.07Z"/><path d="M250.33,154.07a5.46,5.46,0,0,0-3.43,3.8,5,5,0,0,0,5.7,5.7,5.27,5.27,0,0,0,3.89-3.89A5,5,0,0,0,250.33,154.07Z"/><path d="M270.65,154.07a5.46,5.46,0,0,0-3.43,3.8,5,5,0,0,0,5.7,5.7,5.27,5.27,0,0,0,3.89-3.89A5,5,0,0,0,270.65,154.07Z"/><path d="M148.69,174.4a5.46,5.46,0,0,0-3.43,3.8,5,5,0,0,0,5.7,5.7,4.89,4.89,0,1,0-2.27-9.5Z"/><path d="M169,174.4a5.46,5.46,0,0,0-3.43,3.8,5,5,0,0,0,5.7,5.7,5.27,5.27,0,0,0,3.89-3.89A5,5,0,0,0,169,174.4Z"/><path d="M189.34,174.4a5.46,5.46,0,0,0-3.43,3.8,5,5,0,0,0,5.7,5.7A5.27,5.27,0,0,0,195.5,180,5,5,0,0,0,189.34,174.4Z"/><path d="M209.67,174.4a5.46,5.46,0,0,0-3.43,3.8,5,5,0,0,0,5.7,5.7,5.27,5.27,0,0,0,3.89-3.89A5,5,0,0,0,209.67,174.4Z"/><path d="M230,174.4a5.46,5.46,0,0,0-3.43,3.8,5,5,0,0,0,5.7,5.7,5.27,5.27,0,0,0,3.89-3.89A5,5,0,0,0,230,174.4Z"/><path d="M250.33,174.4a5.46,5.46,0,0,0-3.43,3.8,5,5,0,0,0,5.7,5.7,5.27,5.27,0,0,0,3.89-3.89A5,5,0,0,0,250.33,174.4Z"/><path d="M270.65,174.4a5.46,5.46,0,0,0-3.43,3.8,5,5,0,0,0,5.7,5.7,5.27,5.27,0,0,0,3.89-3.89A5,5,0,0,0,270.65,174.4Z"/><path d="M149.89,193a5.46,5.46,0,0,0-3.43,3.8,5,5,0,0,0,5.7,5.7,5.27,5.27,0,0,0,3.89-3.89A5,5,0,0,0,149.89,193Z"/><path d="M170.21,193a5.46,5.46,0,0,0-3.43,3.8,5,5,0,0,0,5.7,5.7,5.27,5.27,0,0,0,3.89-3.89A5,5,0,0,0,170.21,193Z"/><path d="M190.54,193a5.46,5.46,0,0,0-3.43,3.8,5,5,0,0,0,5.7,5.7,5.27,5.27,0,0,0,3.89-3.89A5,5,0,0,0,190.54,193Z"/><path d="M210.87,193a5.46,5.46,0,0,0-3.43,3.8,5,5,0,0,0,5.7,5.7,5.27,5.27,0,0,0,3.89-3.89A5,5,0,0,0,210.87,193Z"/><path d="M231.2,193a5.46,5.46,0,0,0-3.43,3.8,5,5,0,0,0,3.89,5.7,5,5,0,0,0,5.7-5.7A5,5,0,0,0,231.2,193Z"/><path d="M251.53,193a5.46,5.46,0,0,0-3.43,3.8,5,5,0,0,0,3.89,5.7,5,5,0,0,0,5.7-5.7A5,5,0,0,0,251.53,193Z"/><path d="M271.85,193a5.46,5.46,0,0,0-3.43,3.8,5,5,0,0,0,3.89,5.7,5,5,0,0,0,5.7-5.7A5,5,0,0,0,271.85,193Z"/><path d="M149.89,213.3a5.46,5.46,0,0,0-3.43,3.8,5,5,0,0,0,5.7,5.7,5.27,5.27,0,0,0,3.89-3.89A5,5,0,0,0,149.89,213.3Z"/><path d="M170.21,213.3a5.46,5.46,0,0,0-3.43,3.8,5,5,0,0,0,5.7,5.7,5.27,5.27,0,0,0,3.89-3.89A5,5,0,0,0,170.21,213.3Z"/><path d="M190.54,213.3a5.46,5.46,0,0,0-3.43,3.8,5,5,0,0,0,5.7,5.7,5.27,5.27,0,0,0,3.89-3.89A5,5,0,0,0,190.54,213.3Z"/><path d="M210.87,213.3a5.46,5.46,0,0,0-3.43,3.8,5,5,0,0,0,5.7,5.7,5.27,5.27,0,0,0,3.89-3.89A5,5,0,0,0,210.87,213.3Z"/><path d="M231.2,213.3a5.46,5.46,0,0,0-3.43,3.8,5,5,0,0,0,3.89,5.7,5,5,0,0,0,5.7-5.7A5,5,0,0,0,231.2,213.3Z"/><path d="M251.53,213.3a5.46,5.46,0,0,0-3.43,3.8,5,5,0,0,0,5.7,5.7,4.89,4.89,0,1,0-2.27-9.5Z"/><path d="M271.85,213.3a5.46,5.46,0,0,0-3.43,3.8,5,5,0,0,0,5.7,5.7,4.89,4.89,0,1,0-2.27-9.5Z"/><path d="M149.89,233.63a5.46,5.46,0,0,0-3.43,3.8,5,5,0,0,0,5.7,5.7,5.27,5.27,0,0,0,3.89-3.89A5,5,0,0,0,149.89,233.63Z"/><path d="M170.21,233.63a5.46,5.46,0,0,0-3.43,3.8,5,5,0,0,0,5.7,5.7,5.27,5.27,0,0,0,3.89-3.89A5,5,0,0,0,170.21,233.63Z"/><path d="M190.54,233.63a5.46,5.46,0,0,0-3.43,3.8,5,5,0,0,0,5.7,5.7,5.27,5.27,0,0,0,3.89-3.89A5,5,0,0,0,190.54,233.63Z"/><path d="M210.87,233.63a5.46,5.46,0,0,0-3.43,3.8,5,5,0,0,0,5.7,5.7,5.27,5.27,0,0,0,3.89-3.89A5,5,0,0,0,210.87,233.63Z"/><path d="M231.2,233.63a5.46,5.46,0,0,0-3.43,3.8,5,5,0,0,0,5.7,5.7,5.27,5.27,0,0,0,3.89-3.89A5,5,0,0,0,231.2,233.63Z"/><path d="M251.53,233.63a5.46,5.46,0,0,0-3.43,3.8,5,5,0,0,0,5.7,5.7,5.27,5.27,0,0,0,3.89-3.89A5,5,0,0,0,251.53,233.63Z"/><path d="M271.85,233.63a5.46,5.46,0,0,0-3.43,3.8,5,5,0,0,0,5.7,5.7,5.27,5.27,0,0,0,3.89-3.89A5,5,0,0,0,271.85,233.63Z"/><path d="M149.89,254a5.46,5.46,0,0,0-3.43,3.8,5,5,0,0,0,5.7,5.7,5.27,5.27,0,0,0,3.89-3.89A5,5,0,0,0,149.89,254Z"/><path d="M170.21,254a5.46,5.46,0,0,0-3.43,3.8,5,5,0,0,0,5.7,5.7,5.27,5.27,0,0,0,3.89-3.89A5,5,0,0,0,170.21,254Z"/><path d="M190.54,254a5.46,5.46,0,0,0-3.43,3.8,5,5,0,0,0,5.7,5.7,5.27,5.27,0,0,0,3.89-3.89A5,5,0,0,0,190.54,254Z"/><path d="M210.87,254a5.46,5.46,0,0,0-3.43,3.8,5,5,0,0,0,5.7,5.7,5.27,5.27,0,0,0,3.89-3.89A5,5,0,0,0,210.87,254Z"/><path d="M231.2,254a5.46,5.46,0,0,0-3.43,3.8,5,5,0,0,0,5.7,5.7,5.27,5.27,0,0,0,3.89-3.89A5,5,0,0,0,231.2,254Z"/><path d="M251.53,254a5.46,5.46,0,0,0-3.43,3.8,5,5,0,0,0,5.7,5.7,5.27,5.27,0,0,0,3.89-3.89A5,5,0,0,0,251.53,254Z"/><path d="M271.85,254a5.46,5.46,0,0,0-3.43,3.8,5,5,0,0,0,5.7,5.7,5.27,5.27,0,0,0,3.89-3.89A5,5,0,0,0,271.85,254Z"/><path d="M149.89,274.28a5.46,5.46,0,0,0-3.43,3.8,5,5,0,0,0,5.7,5.7,5.27,5.27,0,0,0,3.89-3.89A5,5,0,0,0,149.89,274.28Z"/><path d="M170.21,274.28a5.46,5.46,0,0,0-3.43,3.8,5,5,0,0,0,5.7,5.7,5.27,5.27,0,0,0,3.89-3.89A5,5,0,0,0,170.21,274.28Z"/><path d="M190.54,274.28a5.46,5.46,0,0,0-3.43,3.8,5,5,0,0,0,5.7,5.7,5.27,5.27,0,0,0,3.89-3.89A5,5,0,0,0,190.54,274.28Z"/><path d="M210.87,274.28a5.46,5.46,0,0,0-3.43,3.8,5,5,0,0,0,5.7,5.7,5.27,5.27,0,0,0,3.89-3.89A5,5,0,0,0,210.87,274.28Z"/><path d="M231.2,274.28a5.46,5.46,0,0,0-3.43,3.8,5,5,0,0,0,5.7,5.7,5.27,5.27,0,0,0,3.89-3.89A5,5,0,0,0,231.2,274.28Z"/><path d="M251.53,274.28a5.46,5.46,0,0,0-3.43,3.8,5,5,0,0,0,5.7,5.7,5.27,5.27,0,0,0,3.89-3.89A5,5,0,0,0,251.53,274.28Z"/><path d="M271.85,274.28a5.46,5.46,0,0,0-3.43,3.8,5,5,0,0,0,5.7,5.7,5.27,5.27,0,0,0,3.89-3.89A5,5,0,0,0,271.85,274.28Z"/><path d="M149.89,294.61a5.46,5.46,0,0,0-3.43,3.8,5,5,0,0,0,5.7,5.7,5.27,5.27,0,0,0,3.89-3.89A5,5,0,0,0,149.89,294.61Z"/><path d="M170.21,294.61a5.46,5.46,0,0,0-3.43,3.8,5,5,0,0,0,5.7,5.7,5.27,5.27,0,0,0,3.89-3.89A5,5,0,0,0,170.21,294.61Z"/><path d="M190.54,294.61a5.46,5.46,0,0,0-3.43,3.8,5,5,0,0,0,5.7,5.7,5.27,5.27,0,0,0,3.89-3.89A5,5,0,0,0,190.54,294.61Z"/><path d="M210.87,294.61a5.46,5.46,0,0,0-3.43,3.8,5,5,0,0,0,5.7,5.7,5.27,5.27,0,0,0,3.89-3.89A5,5,0,0,0,210.87,294.61Z"/><path d="M231.2,294.61a5.46,5.46,0,0,0-3.43,3.8,5,5,0,0,0,5.7,5.7,5.27,5.27,0,0,0,3.89-3.89A5,5,0,0,0,231.2,294.61Z"/><path d="M251.53,294.61a5.46,5.46,0,0,0-3.43,3.8,5,5,0,0,0,5.7,5.7,5.27,5.27,0,0,0,3.89-3.89A5,5,0,0,0,251.53,294.61Z"/><path d="M271.85,294.61a5.46,5.46,0,0,0-3.43,3.8,5,5,0,0,0,5.7,5.7,5.27,5.27,0,0,0,3.89-3.89A5,5,0,0,0,271.85,294.61Z"/><path d="M149.89,314.94a5.46,5.46,0,0,0-3.43,3.8,5,5,0,0,0,5.7,5.7,5.27,5.27,0,0,0,3.89-3.89A5,5,0,0,0,149.89,314.94Z"/><path d="M170.21,314.94a5.46,5.46,0,0,0-3.43,3.8,5,5,0,0,0,5.7,5.7,5.27,5.27,0,0,0,3.89-3.89A5,5,0,0,0,170.21,314.94Z"/><path d="M190.54,314.94a5.46,5.46,0,0,0-3.43,3.8,5,5,0,0,0,5.7,5.7,5.27,5.27,0,0,0,3.89-3.89A5,5,0,0,0,190.54,314.94Z"/><path d="M210.87,314.94a5.46,5.46,0,0,0-3.43,3.8,5,5,0,0,0,5.7,5.7,5.27,5.27,0,0,0,3.89-3.89A5,5,0,0,0,210.87,314.94Z"/><path d="M231.2,314.94a5.46,5.46,0,0,0-3.43,3.8,5,5,0,0,0,5.7,5.7,5.27,5.27,0,0,0,3.89-3.89A5,5,0,0,0,231.2,314.94Z"/><path d="M251.53,314.94a5.46,5.46,0,0,0-3.43,3.8,5,5,0,0,0,5.7,5.7,5.27,5.27,0,0,0,3.89-3.89A5,5,0,0,0,251.53,314.94Z"/><path d="M271.85,314.94a5.46,5.46,0,0,0-3.43,3.8,5,5,0,0,0,5.7,5.7,5.27,5.27,0,0,0,3.89-3.89A5,5,0,0,0,271.85,314.94Z"/><path d="M149.89,335.27a5.46,5.46,0,0,0-3.43,3.8,5,5,0,0,0,5.7,5.7,5.27,5.27,0,0,0,3.89-3.89A5,5,0,0,0,149.89,335.27Z"/><path d="M170.21,335.27a5.46,5.46,0,0,0-3.43,3.8,5,5,0,0,0,5.7,5.7,5.27,5.27,0,0,0,3.89-3.89A5,5,0,0,0,170.21,335.27Z"/><path d="M190.54,335.27a5.46,5.46,0,0,0-3.43,3.8,5,5,0,0,0,5.7,5.7,5.27,5.27,0,0,0,3.89-3.89A5,5,0,0,0,190.54,335.27Z"/><path d="M210.87,335.27a5.46,5.46,0,0,0-3.43,3.8,5,5,0,0,0,5.7,5.7,5.27,5.27,0,0,0,3.89-3.89A5,5,0,0,0,210.87,335.27Z"/><path d="M231.2,335.27a5.46,5.46,0,0,0-3.43,3.8,5,5,0,0,0,5.7,5.7,5.27,5.27,0,0,0,3.89-3.89A5,5,0,0,0,231.2,335.27Z"/><path d="M251.53,335.27a5.46,5.46,0,0,0-3.43,3.8,5,5,0,0,0,5.7,5.7,5.27,5.27,0,0,0,3.89-3.89A5,5,0,0,0,251.53,335.27Z"/><path d="M271.85,335.27a5.46,5.46,0,0,0-3.43,3.8,5,5,0,0,0,5.7,5.7,5.27,5.27,0,0,0,3.89-3.89A5,5,0,0,0,271.85,335.27Z"/><path d="M149.89,355.6a5.46,5.46,0,0,0-3.43,3.8,5,5,0,0,0,5.7,5.7A5.27,5.27,0,0,0,156,361.2,5,5,0,0,0,149.89,355.6Z"/><path d="M170.21,355.6a5.46,5.46,0,0,0-3.43,3.8,5,5,0,0,0,5.7,5.7,5.27,5.27,0,0,0,3.89-3.89A5,5,0,0,0,170.21,355.6Z"/><path d="M190.54,355.6a5.46,5.46,0,0,0-3.43,3.8,5,5,0,0,0,5.7,5.7,5.27,5.27,0,0,0,3.89-3.89A5,5,0,0,0,190.54,355.6Z"/><path d="M210.87,355.6a5.46,5.46,0,0,0-3.43,3.8,5,5,0,0,0,5.7,5.7A5.27,5.27,0,0,0,217,361.2,5,5,0,0,0,210.87,355.6Z"/><path d="M231.2,355.6a5.46,5.46,0,0,0-3.43,3.8,5,5,0,0,0,5.7,5.7,5.27,5.27,0,0,0,3.89-3.89A5,5,0,0,0,231.2,355.6Z"/><path d="M251.53,355.6a5.46,5.46,0,0,0-3.43,3.8,5,5,0,0,0,5.7,5.7,5.27,5.27,0,0,0,3.89-3.89A5,5,0,0,0,251.53,355.6Z"/><path d="M271.85,355.6a5.46,5.46,0,0,0-3.43,3.8,5,5,0,0,0,5.7,5.7A5.27,5.27,0,0,0,278,361.2,5,5,0,0,0,271.85,355.6Z"/><path d="M149.89,375.92a5.46,5.46,0,0,0-3.43,3.8,5,5,0,0,0,5.7,5.7,4.89,4.89,0,1,0-2.27-9.5Z"/><path d="M170.21,375.92a5.46,5.46,0,0,0-3.43,3.8,5,5,0,0,0,5.7,5.7,5.27,5.27,0,0,0,3.89-3.89A5,5,0,0,0,170.21,375.92Z"/><path d="M190.54,375.92a5.46,5.46,0,0,0-3.43,3.8,5,5,0,0,0,5.7,5.7,5.27,5.27,0,0,0,3.89-3.89A5,5,0,0,0,190.54,375.92Z"/><path d="M210.87,375.92a5.46,5.46,0,0,0-3.43,3.8,5,5,0,0,0,5.7,5.7,5.27,5.27,0,0,0,3.89-3.89A5,5,0,0,0,210.87,375.92Z"/><path d="M231.2,375.92a5.46,5.46,0,0,0-3.43,3.8,5,5,0,0,0,5.7,5.7,5.27,5.27,0,0,0,3.89-3.89A5,5,0,0,0,231.2,375.92Z"/><path d="M251.53,375.92a5.46,5.46,0,0,0-3.43,3.8,5,5,0,0,0,5.7,5.7,5.27,5.27,0,0,0,3.89-3.89A5,5,0,0,0,251.53,375.92Z"/><path d="M271.85,375.92a5.46,5.46,0,0,0-3.43,3.8,5,5,0,0,0,5.7,5.7,5.27,5.27,0,0,0,3.89-3.89A5,5,0,0,0,271.85,375.92Z"/></g></g></svg>